<svg width="390" height="130" viewBox="0 0 390 130" fill="none" xmlns="http://www.w3.org/2000/svg">
<g opacity="0.8">
<path d="M176.38 111.058C187.168 105.028 196.695 97.5318 209.081 93.3112C230.363 86.0557 255.484 89.7337 278.209 94.2256C300.934 98.7176 324.935 103.923 347.604 99.2502C368.62 94.9793 385.334 81.7245 390 66.5V0H0V66.5C5.19795 97.4313 37.7026 122.926 80.9114 128.292L83.6155 128.604C99.928 130.284 116.545 129.597 132.48 126.583C148.415 123.569 163.344 118.289 176.38 111.058Z" fill="#D1F1F1"/>
</g>
<g opacity="0.8">
<path d="M176.38 96.9077C187.168 91.6465 196.695 85.105 209.081 81.4221C230.363 75.091 255.484 78.3004 278.209 82.22C300.934 86.1397 324.935 90.6819 347.604 86.6044C368.62 82.8777 385.334 71.3117 390 58.027V0H0V58.027C5.19795 85.0173 37.7026 107.264 80.9114 111.946L83.6155 112.218C99.928 113.684 116.545 113.084 132.48 110.454C148.415 107.824 163.344 103.218 176.38 96.9077Z" fill="#19BBBB"/>
</g>
</svg>
