<svg width="80" height="80" viewBox="0 0 80 80" fill="none" xmlns="http://www.w3.org/2000/svg">
<rect width="80" height="80" rx="40" fill="#19BBBB" fill-opacity="0.08"/>
<path d="M46.5973 13.8852C46.6207 13.0355 45.8372 12.3806 45.0381 12.0687C44.2389 11.7569 43.3697 11.6399 42.6641 11.1663C42.0404 10.7453 41.6214 10.0904 41.0932 9.5564C40.4415 8.89592 39.6257 8.42074 38.7297 8.17963C37.8337 7.93852 36.8897 7.94016 35.9945 8.18439C35.0993 8.42862 34.2853 8.90663 33.6359 9.56938C32.9864 10.2321 32.5251 11.0557 32.2991 11.9557C31.997 13.1641 32.2036 14.5927 33.1567 15.3977C34.2637 16.3293 35.9029 16.1227 37.3198 15.8323C38.7368 15.5419 40.3428 15.2476 41.5259 16.0877C42.2392 16.5905 42.6485 17.4072 43.0851 18.1634C43.5217 18.9196 44.0596 19.6895 44.8938 19.9741C45.728 20.2586 46.8429 19.7675 46.8721 18.8962" fill="#263238"/>
<path d="M46.5408 14.3509C46.4472 15.0623 46.9618 15.6996 47.4744 16.2025C47.987 16.7054 48.5659 17.2374 48.6575 17.9566C48.7627 18.7889 48.1546 19.6075 48.332 20.428C48.4431 20.9484 48.8485 21.348 49.094 21.8216C49.4195 22.5031 49.4732 23.283 49.2441 24.0026C49.0336 24.7198 48.6964 26.32 48.1975 26.8774C46.8195 28.4172 44.6268 29.7464 42.6135 30.2084C40.6001 30.6703 38.5068 30.6742 36.4447 30.5475C34.7568 30.4442 32.8136 30.5222 31.4064 28.1989C30.6775 26.9944 30.3169 25.3962 29.931 24.0435C29.5957 22.8741 29.3073 21.6325 29.6542 20.4709C29.8491 19.7965 30.2643 19.1943 30.4631 18.5219C30.7126 17.676 30.6209 16.7677 30.7204 15.8965C30.8289 14.9434 31.1635 14.0299 31.6963 13.2322C32.2291 12.4344 32.9447 11.7755 33.7836 11.3101C34.6224 10.8447 35.5603 10.5864 36.5191 10.5566C37.478 10.5268 38.43 10.7265 39.2962 11.1389" fill="#263238"/>
<path d="M31.5292 17.2681C31.6871 14.8454 33.2989 11.875 35.7138 12.1362L43.2488 14.058C43.6024 14.0968 43.9287 14.2666 44.1635 14.5338C44.3983 14.8011 44.5246 15.1465 44.5176 15.5022L43.6698 33.683L43.7224 33.6927C43.7224 33.6927 42.0053 38.8206 37.0216 37.2556C36.0334 36.9437 35.5813 35.8639 35.3863 34.751H35.3357C35.3357 34.6185 35.3357 34.4957 35.3357 34.3612C35.2387 33.5323 35.2289 32.6955 35.3064 31.8645C35.2928 30.3969 35.2947 29.7965 35.2928 29.8102C35.2908 29.8238 32.1977 29.2878 31.5662 25.2475C31.2446 23.2536 31.3538 19.9597 31.5292 17.2681Z" fill="#FFBE9D"/>
<path d="M32.7432 19.7028C32.7411 19.8378 32.7919 19.9683 32.8848 20.0663C32.9777 20.1643 33.1053 20.222 33.2402 20.2271C33.3062 20.2324 33.3725 20.2245 33.4353 20.2038C33.4981 20.1832 33.5562 20.1502 33.6061 20.1068C33.656 20.0634 33.6968 20.0105 33.726 19.9512C33.7552 19.8918 33.7723 19.8273 33.7762 19.7612C33.7778 19.626 33.7266 19.4956 33.6334 19.3976C33.5402 19.2997 33.4124 19.242 33.2773 19.237C33.2114 19.2316 33.1452 19.2396 33.0825 19.2602C33.0198 19.2809 32.9619 19.3139 32.9121 19.3573C32.8623 19.4007 32.8218 19.4537 32.7928 19.513C32.7638 19.5723 32.7469 19.6368 32.7432 19.7028Z" fill="#263238"/>
<path d="M32.2384 18.9833C32.3028 19.0515 32.6965 18.7611 33.2539 18.7631C33.8113 18.765 34.2284 19.0457 34.281 18.9775C34.3103 18.9482 34.244 18.8254 34.0667 18.6968C33.8265 18.5281 33.5396 18.4388 33.2461 18.4415C32.956 18.439 32.6727 18.5292 32.4372 18.6987C32.2657 18.8313 32.2053 18.9521 32.2384 18.9833Z" fill="#263238"/>
<path d="M38.2222 19.7029C38.2206 19.8381 38.2718 19.9686 38.3651 20.0666C38.4583 20.1645 38.586 20.2222 38.7212 20.2272C38.787 20.2325 38.8532 20.2246 38.9159 20.2039C38.9786 20.1833 39.0366 20.1502 39.0863 20.1068C39.1361 20.0634 39.1767 20.0105 39.2057 19.9512C39.2347 19.8919 39.2515 19.8273 39.2552 19.7614C39.2573 19.6264 39.2065 19.4959 39.1136 19.3979C39.0207 19.2999 38.8931 19.2422 38.7582 19.2371C38.6922 19.2315 38.6258 19.2392 38.5629 19.2598C38.4999 19.2803 38.4417 19.3133 38.3918 19.3567C38.3418 19.4002 38.301 19.4532 38.2719 19.5127C38.2428 19.5721 38.2259 19.6368 38.2222 19.7029Z" fill="#263238"/>
<path d="M37.7192 19.0985C37.7835 19.1667 38.1772 18.8783 38.7347 18.8802C39.2921 18.8821 39.6994 19.1628 39.7599 19.0946C39.7891 19.0634 39.7248 18.9426 39.5455 18.812C39.3046 18.6447 39.0181 18.5555 38.7249 18.5567C38.4352 18.5552 38.1526 18.646 37.918 18.8159C37.7465 18.9465 37.688 19.0771 37.7192 19.0985Z" fill="#263238"/>
<path d="M35.6864 23.2289C35.6864 23.1977 35.3434 23.1372 34.782 23.0632C34.6398 23.0495 34.5053 23.0203 34.4799 22.9229C34.4686 22.7759 34.5026 22.6289 34.5774 22.5019L35.0003 21.4182C35.5851 19.8765 36.0138 18.6077 35.9515 18.5862C35.8891 18.5648 35.3668 19.7927 34.782 21.3363C34.6391 21.7157 34.504 22.0789 34.3766 22.4258C34.2862 22.5968 34.2593 22.7943 34.3006 22.9833C34.3213 23.0335 34.3531 23.0783 34.3936 23.1144C34.4341 23.1506 34.4823 23.177 34.5345 23.1918C34.6133 23.2135 34.6945 23.2252 34.7762 23.2269C35.3336 23.2581 35.6845 23.262 35.6864 23.2289Z" fill="#263238"/>
<path d="M35.2869 29.8261C37.1889 29.8592 39.0628 29.3633 40.6994 28.3936C40.6994 28.3936 39.335 31.1865 35.2908 30.8006L35.2869 29.8261Z" fill="#EB996E"/>
<path d="M35.9203 24.5736C36.0264 24.4403 36.1648 24.3362 36.3224 24.2714C36.48 24.2066 36.6516 24.1832 36.8208 24.2033C36.944 24.2142 37.0637 24.2501 37.1726 24.3087C37.2814 24.3674 37.3773 24.4475 37.4542 24.5444C37.5274 24.6376 37.5706 24.751 37.5779 24.8693C37.5852 24.9877 37.5563 25.1055 37.4952 25.207C37.406 25.3077 37.2885 25.3791 37.1581 25.4118C37.0276 25.4445 36.8904 25.437 36.7643 25.3903C36.5013 25.2962 36.2595 25.1512 36.0529 24.9634C35.9898 24.9199 35.9361 24.8643 35.895 24.7997C35.8752 24.7685 35.8647 24.7323 35.8647 24.6954C35.8647 24.6585 35.8752 24.6223 35.895 24.5911" fill="#EB996E"/>
<path d="M37.3254 23.6192C37.2357 23.6192 37.2338 24.2195 36.7134 24.6464C36.193 25.0732 35.5439 25.0069 35.5439 25.0927C35.5439 25.1297 35.6882 25.2096 35.9591 25.2174C36.3135 25.2235 36.6587 25.1041 36.9336 24.8803C37.1972 24.6653 37.367 24.3565 37.4072 24.0188C37.4345 23.7654 37.3683 23.6153 37.3254 23.6192Z" fill="#263238"/>
<path d="M37.4678 18.1228C37.5223 18.2749 38.0798 18.2047 38.7327 18.2846C39.3856 18.3645 39.9158 18.5438 40.0035 18.4093C40.0425 18.345 39.9509 18.2008 39.7365 18.0546C39.4547 17.8698 39.1324 17.7561 38.797 17.7233C38.4627 17.6816 38.1232 17.7204 37.8069 17.8363C37.5672 17.9338 37.4463 18.0507 37.4678 18.1228Z" fill="#263238"/>
<path d="M32.447 17.37C32.5464 17.4967 32.9304 17.37 33.3923 17.37C33.8542 17.37 34.244 17.4557 34.3356 17.3252C34.3746 17.2608 34.3122 17.1303 34.1407 17.0133C33.9117 16.8688 33.6448 16.7956 33.3741 16.8033C33.1033 16.8109 32.841 16.899 32.6205 17.0562C32.4587 17.179 32.4002 17.3096 32.447 17.37Z" fill="#263238"/>
<path d="M46.0689 27.3492C45.5109 27.4617 44.9341 27.4397 44.3863 27.2851C43.8385 27.1305 43.3353 26.8478 42.9184 26.4602C42.5015 26.0726 42.1829 25.5914 41.9888 25.0563C41.7947 24.5212 41.7308 23.9476 41.8024 23.3829C41.9271 22.3908 42.4631 21.3812 42.1181 20.4417C41.664 19.2002 39.9235 18.8182 39.4616 17.5786C39.1926 16.8594 39.4343 16.0193 39.1302 15.3118C38.8437 14.6472 38.146 14.2652 37.4658 14.0196C36.7855 13.774 36.0585 13.6045 35.4875 13.162C34.9164 12.7196 34.5617 11.8815 34.93 11.2598C37.9466 11.6209 40.9093 12.3407 43.7553 13.4037C44.4161 13.6493 45.108 13.9456 45.4978 14.5322C45.911 15.152 45.8876 15.9531 45.8564 16.6976L45.3477 27.5772" fill="#263238"/>
<path d="M45.8156 28.7373C45.8156 28.7373 45.8409 28.7257 45.8818 28.6964L46.0612 28.56C46.2171 28.4372 46.451 28.2559 46.7297 28.0045C47.0785 27.7043 47.3965 27.37 47.6789 27.0066C48.0652 26.5232 48.3251 25.9511 48.4351 25.3421C48.5125 24.9716 48.506 24.5885 48.4159 24.2208C48.3259 23.8532 48.1546 23.5104 47.9147 23.2176C47.6218 22.9264 47.3071 22.658 46.9733 22.4146C46.6372 22.1599 46.382 21.8133 46.2385 21.4167C45.9403 20.5942 46.0728 19.6411 45.9579 18.6666C45.8437 17.6499 45.4466 16.6857 44.8118 15.8834C44.4846 15.4793 44.0771 15.1474 43.6151 14.9088C43.1615 14.7026 42.688 14.5432 42.202 14.4333C41.7495 14.3195 41.3264 14.1109 40.9605 13.8213C40.6165 13.5332 40.3136 13.1994 40.06 12.8292C39.5533 12.1081 39.1771 11.3401 38.6957 10.6989C38.4676 10.3849 38.2003 10.1013 37.9005 9.85495C37.619 9.62896 37.2996 9.45474 36.9571 9.3404C36.6646 9.22877 36.35 9.18686 36.0384 9.21799C35.7268 9.24911 35.4268 9.35242 35.1621 9.51972C34.9759 9.66416 34.8228 9.84668 34.7129 10.0551C34.603 10.2635 34.5388 10.4929 34.5247 10.7281C34.5005 11.0261 34.5873 11.3225 34.7684 11.5604C34.8149 11.6207 34.8701 11.6739 34.9321 11.7182C34.952 11.7356 34.9743 11.75 34.9983 11.7611C34.9819 11.7407 34.9636 11.7218 34.9438 11.7046C34.8884 11.6556 34.8393 11.6 34.7976 11.5389C34.6382 11.3026 34.5691 11.017 34.6027 10.734C34.6212 10.5115 34.6865 10.2954 34.7943 10.0999C34.9021 9.90446 35.05 9.73396 35.2283 9.59963C35.4809 9.44679 35.7655 9.35457 36.0597 9.33022C36.3539 9.30587 36.6497 9.35005 36.924 9.45929C37.2508 9.57184 37.555 9.74144 37.8225 9.9602C38.1097 10.2037 38.3663 10.4812 38.5865 10.7866C39.0543 11.4161 39.4227 12.1841 39.9372 12.9306C40.1972 13.3156 40.5095 13.6626 40.865 13.9616C41.2425 14.2605 41.6788 14.4764 42.1455 14.595C42.6209 14.7035 43.0839 14.8603 43.5274 15.0628C43.9686 15.2925 44.3575 15.611 44.6695 15.9984C45.285 16.7732 45.6712 17.705 45.7844 18.688C45.9033 19.6294 45.7668 20.5981 46.0845 21.4732C46.2379 21.8955 46.5083 22.2653 46.8642 22.5394C47.1928 22.7761 47.5035 23.0366 47.7939 23.319C48.0226 23.5947 48.1868 23.918 48.2745 24.2654C48.3622 24.6127 48.3711 24.9753 48.3006 25.3265C48.201 25.9177 47.9574 26.4754 47.5912 26.9501C47.3165 27.3132 47.0092 27.6505 46.6732 27.9577C46.3983 28.215 46.1761 28.4041 46.028 28.5424C45.9533 28.603 45.8823 28.6681 45.8156 28.7373Z" fill="#455A64"/>
<path d="M46.5542 29.2399C47.3845 28.4369 48.8015 29.1347 49.4993 30.0546C50.197 30.9746 50.6901 32.1635 51.7485 32.6274C52.8068 33.0912 54.1809 32.6917 55.0618 33.4284C56.2858 34.4458 55.5978 36.8022 56.9232 37.6871C57.4475 38.0379 58.1413 38.0262 58.7027 38.3147C60.0261 38.9969 60.0105 40.8641 59.8058 42.3395C59.5271 44.4152 59.2114 46.5592 58.0692 48.3133C56.9271 50.0675 54.7032 51.2934 52.7269 50.6191C50.8266 49.97 49.8501 47.9196 49.0763 46.0661C48.0082 43.4959 46.9389 40.9316 45.8682 38.3732C45.2503 36.8899 44.6247 35.3833 44.4239 33.789C44.2232 32.1947 44.4922 30.4756 45.5076 29.2243" fill="#263238"/>
<path d="M47.0863 27.4707C47.6886 27.3986 48.1505 28.1373 47.9907 28.7239C47.8309 29.3106 47.2695 29.6984 46.6946 29.8934C46.3773 30.0193 46.0323 30.059 45.6947 30.0083C45.526 29.982 45.3671 29.9118 45.234 29.8047C45.101 29.6977 44.9984 29.5575 44.9365 29.3983C44.8733 29.261 44.8669 29.1042 44.9188 28.9622C44.9706 28.8202 45.0765 28.7044 45.2133 28.6401C45.6031 28.3926 45.8428 28.1977 46.1566 28.0242C46.6361 27.7611 46.6069 27.726 47.0863 27.4609" fill="#E55C4C"/>
<path d="M33.2034 33.9697L35.5461 32.1941L44.3773 31.6289L44.732 32.8139L41.8591 50.7374L44.1259 72.1224H31.8059L33.2034 33.9697Z" fill="#E55C4C"/>
<g opacity="0.3">
<path d="M42.6581 64.5367C42.3755 64.2346 41.9136 63.8214 41.5024 63.8116C38.5515 63.7473 35.5402 63.453 32.5894 63.3867L32.3535 72.1263C33.0591 70.8828 33.7276 69.5925 33.9128 68.1697C33.9946 67.5499 34.1077 66.8054 34.6631 66.5442C34.9828 66.3941 35.359 66.4526 35.7039 66.5227C36.7701 66.7332 37.8284 67.0081 38.9121 67.0763C39.9957 67.1445 41.132 66.9847 42.0422 66.3922C42.3654 66.2015 42.6256 65.9203 42.7907 65.5833C42.8693 65.414 42.8985 65.226 42.8751 65.0409C42.8516 64.8558 42.7764 64.681 42.6581 64.5367Z" fill="black"/>
</g>
<path d="M35.1133 34.3322L34.8385 31.7692C34.8272 31.6618 34.8374 31.5533 34.8684 31.4498C34.8995 31.3464 34.9507 31.2502 35.0193 31.1668C35.0878 31.0834 35.1723 31.0144 35.2677 30.9639C35.3632 30.9134 35.4677 30.8824 35.5752 30.8726L43.7028 30.1378C43.7548 30.1339 43.807 30.1404 43.8565 30.157C43.9059 30.1736 43.9515 30.1999 43.9906 30.2344C44.0297 30.269 44.0614 30.311 44.0839 30.358C44.1065 30.405 44.1194 30.4561 44.1218 30.5082L44.2134 33.5584L41.859 37.552L39.4402 38.3219H36.4815L34.78 36.5054L35.1133 34.3322Z" fill="#E55C4C"/>
<path d="M43.0128 32.5812C42.9038 32.5766 42.7951 32.5656 42.6873 32.5481C42.3932 32.5206 42.0974 32.5153 41.8025 32.5325C41.3641 32.564 40.9289 32.6292 40.5005 32.7274C40.0152 32.8288 39.487 32.971 38.9276 33.1075C38.4026 33.2446 37.8675 33.3397 37.3274 33.392C36.8831 33.4339 36.4348 33.4037 36.0001 33.3024C35.7078 33.2338 35.4287 33.118 35.1737 32.9593C35.1058 32.9154 35.0408 32.8672 34.9788 32.8151C34.936 32.78 34.9145 32.7586 34.9184 32.7566C34.9223 32.7547 35.0139 32.821 35.1971 32.9243C35.4555 33.0666 35.7332 33.1703 36.0216 33.2322C36.4495 33.3219 36.8888 33.3443 37.3235 33.2985C37.8583 33.2414 38.3879 33.1443 38.9081 33.0081C39.4656 32.8736 39.9957 32.7333 40.4849 32.6358C40.9186 32.5428 41.3593 32.4867 41.8025 32.4682C42.1015 32.4554 42.401 32.471 42.6971 32.515C42.8023 32.5332 42.8822 32.5487 42.9368 32.5617C42.9855 32.5695 43.0148 32.5773 43.0128 32.5812Z" fill="#263238"/>
<g opacity="0.3">
<path d="M35.3063 32.984C35.088 33.5824 35.0821 34.323 35.5246 34.7811C35.8832 35.1553 36.4621 35.2488 36.9708 35.1475C37.4746 35.0178 37.9525 34.8029 38.3838 34.5121C39.5026 33.8475 40.6408 33.1575 41.9116 32.8749C41.9951 32.865 42.074 32.8319 42.1397 32.7794C42.1548 32.7653 42.1669 32.7483 42.1752 32.7294C42.1835 32.7104 42.1878 32.69 42.1878 32.6693C42.1878 32.6486 42.1835 32.6281 42.1752 32.6092C42.1669 32.5902 42.1548 32.5732 42.1397 32.5592C42.1077 32.5404 42.0714 32.5303 42.0344 32.5299C40.9098 32.4169 39.793 32.7248 38.6918 32.9821C37.5906 33.2394 36.4114 33.405 35.3492 33.0211" fill="black"/>
</g>
<path d="M36.8598 30.7912C36.7453 30.8537 36.6492 30.9451 36.5811 31.0563C36.4525 31.2629 36.4603 31.6137 36.47 31.9918C36.4914 32.75 36.6162 33.3561 36.5869 33.3561C36.5301 33.2327 36.4927 33.1012 36.4758 32.9663C36.4142 32.6449 36.3783 32.319 36.3686 31.9918C36.3616 31.8105 36.3655 31.6289 36.3803 31.448C36.3913 31.2952 36.4395 31.1473 36.5207 31.0173C36.5763 30.9293 36.6552 30.8585 36.7487 30.8126C36.8169 30.7854 36.8579 30.7854 36.8598 30.7912Z" fill="#263238"/>
<path d="M39.0076 33.0193C39.0099 32.6054 38.9904 32.1916 38.9491 31.7797C38.8556 31.0995 38.6295 30.583 38.6606 30.5713C38.7345 30.6707 38.7906 30.7821 38.8263 30.9007C38.9328 31.1793 39.0079 31.4689 39.0505 31.7641C39.0926 32.0597 39.1011 32.3592 39.0758 32.6568C39.0738 32.7806 39.0507 32.9032 39.0076 33.0193Z" fill="#263238"/>
<path d="M41.6252 30.3555C41.6975 30.444 41.75 30.547 41.7792 30.6576C41.8671 30.919 41.9035 31.195 41.8863 31.4703C41.8678 31.7463 41.795 32.0159 41.672 32.2636C41.6283 32.3697 41.5617 32.4649 41.4771 32.5423C41.6536 32.2085 41.7578 31.8412 41.783 31.4644C41.8082 31.0877 41.7537 30.7098 41.6232 30.3555H41.6252Z" fill="#263238"/>
<path d="M30.2271 35.124C30.2271 35.124 27.4555 36.9795 26.7188 40.3319C26.1458 42.967 24.5748 56.8871 24.5748 56.8871L21.8286 62.2314L23.6217 66.4959C25.1574 66.6044 26.6822 66.169 27.9291 65.2661L29.1356 64.389L31.3478 61.1088L30.2271 35.124Z" fill="#EBEBEB"/>
<path d="M34.9243 32.6641L30.2271 35.1238L29.118 38.7665L28.1299 49.3284L29.9893 61.7107L26.7266 72.0855L32.3535 72.1265L32.488 66.0454L33.0493 46.36L33.6009 33.8198L34.9243 32.6641Z" fill="#EBEBEB"/>
<path d="M32.6497 49.0754C32.6166 49.0284 32.5872 48.9789 32.562 48.9273L32.3281 48.4965C32.2307 48.3016 32.1332 48.0638 32.0143 47.7871C31.9578 47.6467 31.9091 47.4928 31.8526 47.331C31.796 47.1692 31.7337 46.9977 31.6849 46.8145C31.2425 45.3547 30.9501 43.2477 31.0125 40.9245C31.0125 40.7452 31.0262 40.5678 31.0379 40.3904V40.3592L31.0671 40.3475L31.8896 40.0006L31.8779 40.0864L31.0554 39.4256L31.0379 39.412V39.3925C31.0298 38.5942 31.1563 37.8002 31.4121 37.0439C31.6187 36.3559 31.8448 35.7634 32.0436 35.2761C32.2424 34.7889 32.4158 34.4088 32.5386 34.1515C32.601 34.0209 32.6497 33.9215 32.6829 33.8572C32.6988 33.8225 32.7177 33.7893 32.7394 33.7578C32.73 33.7944 32.7162 33.8297 32.6984 33.8631L32.5679 34.1652C32.4548 34.4263 32.2911 34.8103 32.1001 35.2995C31.9091 35.7887 31.6908 36.3812 31.492 37.0673C31.2461 37.8148 31.1255 38.5979 31.1353 39.3847L31.1158 39.3516L31.9403 40.0084L32.0046 40.061L31.9286 40.0942L31.1061 40.4411L31.1373 40.3982C31.1256 40.5717 31.1178 40.7491 31.1119 40.9284C31.0515 43.2419 31.3302 45.3391 31.7532 46.7931C31.798 46.9782 31.8584 47.1478 31.911 47.3096C31.9637 47.4713 32.0104 47.6273 32.067 47.7676C32.1819 48.0443 32.2619 48.288 32.3632 48.479L32.5776 48.9175C32.6052 48.9685 32.6293 49.0212 32.6497 49.0754Z" fill="#263238"/>
<path d="M28.9621 56.4695C28.9444 56.4197 28.9294 56.3689 28.9173 56.3175C28.89 56.207 28.8529 56.0589 28.8062 55.8731C28.7574 55.6782 28.7029 55.4443 28.6483 55.1695C28.5937 54.8947 28.5216 54.5848 28.467 54.2281C28.4124 53.8714 28.3384 53.4953 28.2858 53.0821C28.2331 52.6689 28.1805 52.2245 28.1318 51.7586C28.046 50.8231 27.9895 49.7921 27.9895 48.7084C27.9895 47.6247 28.0538 46.5937 28.1415 45.6601C28.1942 45.1943 28.239 44.7499 28.3033 44.3367C28.3676 43.9235 28.4241 43.5395 28.4865 43.1906C28.5489 42.8417 28.6151 42.5279 28.6814 42.2512C28.7477 41.9744 28.7945 41.7386 28.8432 41.5476C28.8919 41.3566 28.927 41.2143 28.9562 41.1051C28.9675 41.0528 28.9824 41.0014 29.0011 40.9512C28.9973 41.0044 28.9888 41.0573 28.9757 41.109L28.8822 41.5554C28.8393 41.7503 28.7867 41.9861 28.7379 42.2629C28.6892 42.5396 28.619 42.8476 28.5664 43.2043C28.5138 43.5609 28.4456 43.9352 28.3969 44.3484C28.3481 44.7616 28.2936 45.204 28.2448 45.6679C28.163 46.6015 28.1045 47.6286 28.1006 48.7103C28.0967 49.7921 28.1552 50.8173 28.2331 51.7509C28.2819 52.2147 28.3208 52.6591 28.3793 53.0704C28.4378 53.4816 28.4904 53.8675 28.5469 54.2164C28.6035 54.5653 28.6639 54.881 28.7126 55.1578C28.7613 55.4346 28.812 55.6723 28.8549 55.8653C28.8978 56.0583 28.925 56.2005 28.9465 56.3116C28.9573 56.3636 28.9625 56.4165 28.9621 56.4695Z" fill="#263238"/>
<path d="M30.2331 65.9775C30.1782 66.1447 30.1015 66.304 30.0051 66.4512C29.7945 66.818 29.554 67.1668 29.2859 67.4939C29.0182 67.8215 28.7235 68.1259 28.4049 68.4041C28.279 68.527 28.1382 68.6338 27.9858 68.7218C28.1005 68.5899 28.2242 68.4661 28.3562 68.3515C28.6568 68.0601 28.9412 67.7523 29.2079 67.4296C29.4722 67.1051 29.7182 66.7661 29.9446 66.4141C30.0305 66.2621 30.1269 66.1162 30.2331 65.9775Z" fill="#263238"/>
<path d="M51.8245 34.8217C52.8115 35.2051 53.6891 35.8251 54.3804 36.6271C55.0716 37.4292 55.5553 38.3887 55.7889 39.4214C57.3267 46.1963 59.956 55.2087 59.9989 58.1186C60.0495 61.8218 58.4396 64.3556 56.3171 64.8234C54.6448 65.1937 39.4929 64.3634 39.4929 64.3634L38.7834 58.7112L51.0625 56.9044L49.3824 47.5334L51.0449 34.5293L51.8245 34.8217Z" fill="#EBEBEB"/>
<path d="M51.045 34.5201L47.6517 33.1343L44.0752 31.0371L44.0537 31.6511C44.4929 32.4008 44.6459 33.2842 44.4845 34.138L41.5024 49.6642L42.1768 61.0096L43.5626 72.1192H54.3233L49.3825 60.4931L51.1268 44.8247L51.045 34.5201Z" fill="#EBEBEB"/>
<path d="M54.1887 64.9195L54.1146 64.9293L53.8983 64.9507C53.7033 64.9702 53.4246 64.9683 53.0582 64.978C52.3293 64.978 51.269 64.9624 49.9495 64.9195C47.3124 64.8318 43.6424 64.6545 39.4967 64.4147H39.4558V64.3719C39.372 63.6994 39.2823 62.99 39.1927 62.2708C39.0387 61.0526 38.8906 59.8637 38.7483 58.7274V58.6787H38.7951L48.1661 57.3144L50.9182 56.9245L51.6568 56.8251L51.8517 56.7998H51.918L51.8537 56.8134L51.6588 56.8466L50.9221 56.9635L48.1758 57.3826L38.8204 58.78L38.8613 58.7235C39.0056 59.8618 39.1556 61.0487 39.3077 62.2669C39.3993 62.988 39.487 63.6975 39.5708 64.3699L39.524 64.327C43.6677 64.5687 47.3397 64.7578 49.9748 64.865C51.2924 64.9156 52.3507 64.9449 53.0797 64.9546C53.4441 64.9546 53.7287 64.9546 53.9177 64.9429L54.1341 64.9312L54.1887 64.9195Z" fill="#263238"/>
<path d="M49.283 46.5742C49.2968 46.6079 49.306 46.6433 49.3103 46.6795C49.3259 46.7594 49.3454 46.8568 49.3688 46.9796C49.4195 47.2544 49.4877 47.6306 49.5637 48.0886C49.7294 49.0398 49.9535 50.3281 50.203 51.7528C50.4525 53.1776 50.6552 54.4698 50.815 55.4229C50.8871 55.8829 50.9456 56.2591 50.9884 56.5358C51.006 56.6586 51.0196 56.76 51.0313 56.8399C51.0356 56.8755 51.0356 56.9115 51.0313 56.9471C51.0166 56.9142 51.0068 56.8794 51.0021 56.8438C50.9865 56.7639 50.967 56.6645 50.9417 56.5436C50.891 56.2668 50.8208 55.8926 50.7351 55.4346C50.5655 54.4971 50.3453 53.2029 50.0958 51.7704C49.8463 50.3378 49.6358 49.0417 49.4857 48.1003C49.4156 47.6404 49.3571 47.2622 49.3142 46.9855C49.2986 46.8633 49.285 46.762 49.2733 46.6814C49.2726 46.6454 49.2759 46.6095 49.283 46.5742Z" fill="#263238"/>
<path d="M45.6363 32.1357C45.6363 32.1357 45.6363 32.1494 45.65 32.1747L45.6812 32.2878C45.7065 32.3891 45.7494 32.5353 45.7903 32.7302C45.9092 33.2814 45.9951 33.8391 46.0476 34.4005C46.1271 35.2479 46.1485 36.0996 46.1119 36.9499C46.0788 37.9244 45.9774 38.9906 45.8312 40.1268V40.1619H45.7962L44.6794 40.3685L44.7164 40.3003C44.7807 40.4718 44.845 40.655 44.8957 40.8441C45.2028 42.0862 45.1589 43.3891 44.769 44.6077C44.4603 45.5964 44.0225 46.5401 43.4671 47.4143C43.0032 48.1667 42.5861 48.7436 42.2976 49.1432L41.9604 49.5992C41.9254 49.648 41.8942 49.685 41.8708 49.7162C41.8619 49.7309 41.8507 49.744 41.8376 49.7552C41.8376 49.7552 41.8376 49.7396 41.863 49.7103L41.9448 49.5875C42.0228 49.4745 42.1397 49.3186 42.2645 49.1198C42.5432 48.7144 42.9525 48.1316 43.4047 47.3773C43.9473 46.504 44.3757 45.5647 44.6794 44.5824C45.001 43.4773 45.153 42.1636 44.7983 40.8792C44.7489 40.6983 44.6903 40.5201 44.6228 40.3451L44.6014 40.2886L44.6618 40.2769L45.7708 40.0723L45.7299 40.1152C45.878 38.9828 45.9852 37.9147 46.0223 36.9479C46.0633 36.1034 46.0496 35.257 45.9813 34.4142C45.9356 33.8537 45.8595 33.2961 45.7533 32.7438C45.7182 32.5489 45.6792 32.4008 45.6617 32.2995C45.6519 32.2527 45.6441 32.2157 45.6383 32.1845C45.6345 32.1685 45.6339 32.152 45.6363 32.1357Z" fill="#263238"/>
<path d="M45.6363 48.0575V45.5842C45.6363 45.5842 45.6674 44.9741 45.1529 45.1028C44.6383 45.2314 44.7338 46.1962 44.7338 46.1962C44.7338 46.1962 44.6383 49.9598 44.8625 49.9286C45.0866 49.8974 45.1743 49.607 45.1743 49.607V48.1589L45.6363 48.0575Z" fill="#E55C4C"/>
<path d="M47.7764 48.212C47.336 48.2633 46.8922 48.2802 46.4491 48.2627C46.006 48.2802 45.5623 48.2633 45.1218 48.212C45.5624 48.1619 46.006 48.1449 46.4491 48.1613C46.8922 48.1449 47.3359 48.1619 47.7764 48.212Z" fill="#263238"/>
<path d="M52.6704 36.291C52.581 36.3328 52.4885 36.3674 52.3936 36.3943C52.1415 36.4843 51.8954 36.5904 51.6568 36.712C50.8708 37.1166 50.189 37.6976 49.6649 38.4096C49.5165 38.6102 49.3861 38.8235 49.2751 39.047C49.1789 39.2583 49.1006 39.4774 49.0412 39.7019C48.9405 40.0849 48.8753 40.4763 48.8463 40.8713C48.819 41.2085 48.8132 41.4852 48.8112 41.6743C48.8171 41.773 48.8171 41.8719 48.8112 41.9705C48.7868 41.8776 48.7737 41.7821 48.7723 41.686C48.7569 41.4166 48.7569 41.1465 48.7723 40.8771C48.7916 40.4759 48.851 40.0776 48.9496 39.6882C49.0084 39.457 49.0873 39.2313 49.1855 39.0138C49.299 38.7842 49.4327 38.565 49.585 38.359C50.1166 37.6334 50.8179 37.0492 51.6276 36.6574C51.8709 36.5401 52.1231 36.4423 52.3819 36.3651C52.4753 36.3306 52.5719 36.3058 52.6704 36.291Z" fill="#263238"/>
<path d="M9 56.8867L26.7266 63.4511L41.67 65.7354L23.9024 57.0738L9 56.8867Z" fill="#263238"/>
<path d="M16.5857 63.9661C16.4433 63.0188 16.1219 62.1073 15.6385 61.2803C15.5341 61.1246 15.4527 60.9545 15.3968 60.7755C15.3689 60.6861 15.3634 60.5911 15.3807 60.499C15.3981 60.407 15.4377 60.3205 15.4962 60.2473C15.7242 59.9998 16.1394 60.1089 16.4201 60.2961C16.9881 60.7097 17.4067 61.2965 17.6129 61.9683C17.816 62.6352 17.9467 63.322 18.0027 64.0168" fill="#FFBE9D"/>
<path d="M23.4951 62.2791H22.6141C22.3979 62.0648 22.129 61.9115 21.8345 61.8347C21.7255 61.8164 21.6136 61.8279 21.5107 61.868C21.4077 61.9082 21.3176 61.9755 21.2498 62.0627C21.6396 61.4137 22.0684 60.6984 22.1502 60.5035C22.3081 60.1234 21.9553 59.8389 21.3881 59.8389C20.821 59.8389 18.3106 63.392 18.3106 63.392C18.3106 63.392 19.8698 60.5327 20.0199 60.0961C20.398 59.0047 19.2033 58.9267 18.7706 59.451C18.2326 60.1039 16.0594 63.392 16.0594 63.392C16.0594 63.392 15.6462 64.0586 15.9308 64.692C16.2154 65.3254 17.0418 65.0818 17.0418 65.0818C17.054 65.2669 17.1144 65.4455 17.217 65.6C17.3195 65.7546 17.4607 65.8796 17.6265 65.9628C18.2619 66.3175 19.1 65.9063 19.1 65.9063L22.349 66.6352L23.5185 66.5183C24.3166 66.4384 25.0652 66.0944 25.6457 65.5407C26.2261 64.9871 26.6051 64.2556 26.7227 63.4621L23.4951 62.2791Z" fill="#FFBE9D"/>
<path d="M21.3102 62.0107C21.3473 62.0341 20.9204 62.7124 20.3552 63.5271C20.0745 63.9345 19.8153 64.3067 19.6224 64.5601C19.5274 64.7073 19.4177 64.8444 19.2949 64.9694C19.3694 64.8108 19.4595 64.66 19.5639 64.5192C19.7413 64.2483 19.9907 63.876 20.2714 63.4686C20.5521 63.0613 20.8093 62.689 20.9964 62.4317L21.2225 62.1218C21.2484 62.0823 21.2778 62.0451 21.3102 62.0107Z" fill="#EB996E"/>
<path d="M21.1155 65.6283C21.1948 65.4429 21.2913 65.2654 21.4039 65.0981C21.5988 64.7785 21.8678 64.3439 22.168 63.8605C22.318 63.6208 22.4623 63.3908 22.5792 63.1783C22.6304 63.0877 22.6631 62.9878 22.6754 62.8844C22.6878 62.781 22.6796 62.6762 22.6513 62.5761C22.594 62.3873 22.4999 62.2118 22.3746 62.0596C22.3746 62.0596 22.4272 62.0869 22.4993 62.1648C22.601 62.2766 22.6762 62.4098 22.7195 62.5546C22.7558 62.6634 22.7695 62.7785 22.7597 62.8928C22.75 63.007 22.7171 63.1181 22.663 63.2193C22.5461 63.4395 22.4038 63.6714 22.2557 63.9131C21.9536 64.3965 21.671 64.8253 21.4644 65.1352C21.3599 65.3076 21.2433 65.4724 21.1155 65.6283Z" fill="#EB996E"/>
<path d="M22.8207 65.9525C22.8533 65.7766 22.9118 65.6065 22.9941 65.4477L23.2261 64.9176C23.3227 64.7066 23.4022 64.4883 23.4639 64.2646C23.4933 64.1579 23.4994 64.046 23.4816 63.9366C23.4637 63.8273 23.4224 63.7231 23.3606 63.6312C23.2977 63.5581 23.2181 63.5013 23.1286 63.4655C23.0533 63.4271 22.9712 63.4039 22.8869 63.3973C22.7639 63.4156 22.6454 63.4573 22.5381 63.5201C22.4974 63.5458 22.4525 63.5643 22.4055 63.5747C22.4055 63.5747 22.4425 63.5376 22.5186 63.485C22.5657 63.4532 22.6145 63.4239 22.6647 63.3973C22.7331 63.3583 22.8087 63.3337 22.8869 63.3252C22.9824 63.3274 23.0765 63.3486 23.1637 63.3876C23.2673 63.4252 23.3597 63.4882 23.4327 63.5708C23.5066 63.6726 23.5565 63.7899 23.5788 63.9137C23.601 64.0376 23.5951 64.1649 23.5613 64.2861C23.4992 64.5171 23.415 64.7416 23.3099 64.9566C23.2183 65.1515 23.1306 65.3288 23.0585 65.4769C22.9876 65.6396 22.9083 65.7983 22.8207 65.9525Z" fill="#EB996E"/>
<path d="M23.4189 62.8838C23.4668 62.8878 23.5132 62.9018 23.5554 62.9247C23.676 62.9755 23.7899 63.041 23.8945 63.1196C24.2485 63.384 24.496 63.7665 24.5922 64.1977C24.6884 64.629 24.6269 65.0804 24.4188 65.4702C24.3592 65.5874 24.2852 65.6967 24.1986 65.7957C24.1362 65.8639 24.0953 65.8951 24.0914 65.8912C24.0875 65.8873 24.22 65.7313 24.3545 65.439C24.5356 65.0597 24.5842 64.6306 24.4927 64.2204C24.4012 63.8102 24.1748 63.4425 23.8497 63.1761C23.7116 63.0708 23.5678 62.9732 23.4189 62.8838Z" fill="#EB996E"/>
<path d="M17.7084 61.0195C17.4921 61.4266 17.2466 61.8175 16.9736 62.189C16.73 62.5862 16.457 62.9648 16.157 63.3214C16.3721 62.914 16.6171 62.5232 16.8898 62.1519C17.1345 61.7549 17.4081 61.3764 17.7084 61.0195Z" fill="#EB996E"/>
<path d="M38.7386 58.9302L36.7115 58.4722L34.7625 56.6382C34.5253 56.4158 34.2178 56.2835 33.8932 56.2639L30.3518 56.069C29.9974 56.0471 29.6482 56.163 29.3773 56.3926L26.8435 58.5365L37.8966 63.9062L39.4129 64.0406L38.7386 58.9302Z" fill="#FFBE9D"/>
<path d="M32.7335 57.9844C32.7335 58 32.4723 57.9533 32.0513 57.8987C31.6304 57.8441 31.03 57.7954 30.4473 58.0663C30.176 58.1972 29.9198 58.3573 29.6833 58.5438C29.4591 58.7114 29.2584 58.8674 29.081 58.9863C28.9418 59.0828 28.7952 59.1682 28.6425 59.2416C28.5881 59.2714 28.5297 59.2931 28.469 59.3059C28.469 59.2903 28.7009 59.1831 29.0401 58.9278C29.2096 58.803 29.4045 58.6413 29.6248 58.4678C29.8648 58.2734 30.1264 58.1073 30.4044 57.9727C30.6895 57.847 30.9972 57.7807 31.3088 57.7778C31.5602 57.7739 31.8114 57.7935 32.0591 57.8363C32.2716 57.8694 32.449 57.9084 32.5542 57.9377C32.6162 57.9429 32.6769 57.9587 32.7335 57.9844Z" fill="#EB996E"/>
<path d="M33.4606 59.957C33.4606 59.9726 33.3164 59.9083 33.0708 59.8849C32.7617 59.8565 32.4502 59.8999 32.1606 60.0116C31.869 60.1256 31.5895 60.2686 31.3264 60.4384C31.2192 60.5163 31.1035 60.5817 30.9814 60.6333C31.0705 60.5351 31.1728 60.4498 31.2855 60.38C31.5437 60.1892 31.8262 60.0338 32.1255 59.918C32.4294 59.8007 32.7587 59.7651 33.0806 59.8147C33.2182 59.8249 33.3501 59.8743 33.4606 59.957Z" fill="#EB996E"/>
<path d="M38.0194 60.2843C37.9941 60.2999 37.7095 59.875 37.3333 59.3721C36.9572 58.8692 36.6336 58.4736 36.6551 58.4541C36.9429 58.7069 37.1976 58.9951 37.4132 59.3117C37.6562 59.6085 37.8599 59.9354 38.0194 60.2843Z" fill="#EB996E"/>
<path d="M32.4413 56.2689L36.9241 52.0881C36.9698 52.0457 37.0058 51.9937 37.0294 51.9359C37.053 51.8781 37.0637 51.8158 37.0607 51.7535C37.0577 51.6911 37.0412 51.6301 37.0122 51.5748C36.9832 51.5195 36.9425 51.4712 36.8929 51.4333C36.8134 51.3723 36.7152 51.3411 36.6152 51.3451C36.5151 51.349 36.4196 51.3878 36.3452 51.4547L31.0828 56.1753" fill="#E55C4C"/>
<g opacity="0.3">
<path d="M32.4413 56.2698L36.9241 52.0891C36.9698 52.0466 37.0058 51.9947 37.0294 51.9369C37.053 51.8791 37.0637 51.8168 37.0607 51.7544C37.0577 51.6921 37.0412 51.6311 37.0122 51.5758C36.9832 51.5205 36.9425 51.4722 36.8929 51.4342C36.8134 51.3733 36.7152 51.3421 36.6152 51.346C36.5151 51.3499 36.4196 51.3887 36.3452 51.4557L31.0828 56.1763" fill="black"/>
</g>
<path d="M68.9723 15.341C68.7898 13.476 67.537 11.7365 66.0443 11.7365C65.1635 11.7365 64.3266 12.3156 63.7248 13.1247C63.5112 13.399 63.314 13.693 63.1348 14.004C63.0087 13.6548 62.8617 13.3181 62.6952 12.9969C62.232 12.0537 61.5017 11.2766 60.6378 11.0595C59.1754 10.6911 57.6759 12.0835 57.2042 13.8677C56.7326 15.6519 57.1248 17.6511 57.9007 19.2564C58.6767 20.8617 60.0106 22.9589 62.4653 24C64.1559 23.7253 66.4314 21.8326 67.4424 20.4508C68.4533 19.0691 69.1499 17.204 68.9723 15.341Z" fill="#117D7D"/>
<path d="M68 18.4933C67.984 18.4956 67.9679 18.4956 67.952 18.4933L67.8112 18.481L67.2695 18.4256L65.2819 18.2L65.3183 18.1733C65.0781 18.9467 64.7982 19.8533 64.4901 20.84L64.4404 21L64.4073 20.8318C64.1539 19.5354 63.8723 18.081 63.5791 16.5487C63.488 16.0749 63.3969 15.6072 63.3091 15.1518L63.3936 15.1723L61.8764 17.7569L61.8615 17.7815H61.8366L58.345 17.3303L57.3512 17.1949L57.0894 17.1538C57.059 17.1518 57.029 17.1449 57 17.1333C57.0303 17.1297 57.0608 17.1297 57.0911 17.1333L57.3528 17.1559L58.3466 17.2626L61.8416 17.6728L61.8035 17.6933L63.3141 15.1046L63.3737 15L63.3969 15.1251C63.4864 15.5805 63.5758 16.0462 63.6686 16.5221L64.4968 20.8072H64.4139C64.727 19.8164 65.0136 18.9118 65.2587 18.1405L65.267 18.1097H65.2935L67.2811 18.3723L67.8195 18.4503L67.9602 18.4728C67.9742 18.4775 67.9875 18.4844 68 18.4933Z" fill="#FAFAFA"/>
<path d="M13 40H11V46H13V40Z" fill="#159C9C"/>
<path d="M9 42V44H15V42H9Z" fill="#159C9C"/>
<path d="M17.998 43.0004C17.992 42.9684 17.9879 42.9362 17.9859 42.9038C17.9859 42.8338 17.9738 42.7397 17.9665 42.6214C17.9665 42.5587 17.9665 42.4887 17.952 42.4139C17.9374 42.3391 17.9277 42.2546 17.9132 42.1725C17.8864 41.9654 17.8443 41.7605 17.7873 41.5595C17.6471 41.0046 17.4234 40.4741 17.1238 39.9859C16.4181 38.8065 15.3214 37.9097 14.0231 37.4501C12.7248 36.9905 11.3062 36.9971 10.0122 37.4686C9.74717 37.5632 9.48906 37.6761 9.23981 37.8065C8.98717 37.9449 8.74445 38.1005 8.5134 38.2723C8.27765 38.4466 8.0536 38.6361 7.84268 38.8395C7.63505 39.0544 7.44173 39.2825 7.26396 39.5225C6.89746 40.0149 6.61218 40.5624 6.4189 41.1444C6.01214 42.351 6.01214 43.657 6.4189 44.8636C6.61164 45.4458 6.89696 45.9934 7.26396 46.4854C7.4405 46.7264 7.63388 46.9546 7.84268 47.1684C8.05295 47.3733 8.27705 47.5636 8.5134 47.738C8.74445 47.9098 8.98717 48.0655 9.23981 48.2038C9.48954 48.3333 9.74758 48.4462 10.0122 48.5417C11.3063 49.0097 12.7233 49.0147 14.0207 48.5559C15.318 48.0971 16.415 47.2031 17.1238 46.0269C17.4239 45.5381 17.6476 45.0067 17.7873 44.4509C17.8445 44.2507 17.8866 44.0466 17.9132 43.8402C17.9277 43.7485 17.9447 43.6665 17.952 43.5989C17.9592 43.5313 17.952 43.4541 17.9665 43.3913C17.9665 43.2707 17.981 43.179 17.9859 43.109C17.9877 43.0765 17.9918 43.0443 17.998 43.0124C18.0007 43.0445 18.0007 43.0768 17.998 43.109C17.998 43.179 17.998 43.2731 17.998 43.3913V43.6013C17.998 43.6785 17.9762 43.7606 17.9665 43.8427C17.9424 44.0511 17.9036 44.2575 17.8503 44.4605C17.7162 45.0239 17.4966 45.5635 17.1989 46.0607C16.7623 46.7953 16.1733 47.4285 15.4713 47.918C14.7693 48.4075 13.9706 48.7419 13.1286 48.8989C12.0753 49.0935 10.989 49.0061 9.98076 48.6455C9.71128 48.5484 9.44841 48.4339 9.19381 48.3028C8.67342 48.017 8.19376 47.6631 7.76761 47.2505C7.55469 47.0328 7.35728 46.8005 7.1768 46.5554C6.80008 46.0533 6.5081 45.4932 6.31236 44.8974C6.11282 44.2835 6.00751 43.6431 6 42.9979C6.00888 42.3536 6.11416 41.7143 6.31236 41.1009C6.50913 40.5062 6.80104 39.9471 7.1768 39.4453C7.35787 39.1999 7.55525 38.9669 7.76761 38.7478C7.9834 38.5411 8.21229 38.3484 8.45286 38.171C9.11701 37.6827 9.87482 37.3358 10.6792 37.1519C11.4836 36.9679 12.3173 36.9509 13.1286 37.1018C13.9665 37.2623 14.7606 37.5985 15.4582 38.0883C16.1558 38.5781 16.7409 39.2101 17.1747 39.9425C17.4719 40.439 17.6915 40.9778 17.826 41.5402C17.8792 41.744 17.918 41.9513 17.9423 42.1605C17.9423 42.2498 17.9689 42.3342 17.9738 42.4018V42.6094C17.9738 42.73 17.9738 42.8242 17.9738 42.8942C17.9851 42.9287 17.9932 42.9643 17.998 43.0004Z" fill="#159C9C"/>
</svg>
