<svg width="80" height="80" viewBox="0 0 80 80" fill="none" xmlns="http://www.w3.org/2000/svg">
<g clip-path="url(#clip0_1152_16232)">
<rect width="80" height="80" rx="40" fill="#19BBBB" fill-opacity="0.08"/>
<g clip-path="url(#clip1_1152_16232)">
<path d="M49.3465 40.6278C49.3465 40.6278 45.6905 39.6004 43.3602 38.4115C41.03 37.2226 39.4532 36.7618 38.6333 36.8645C37.8135 36.9673 35.9856 36.9672 34.6635 37.1742C33.3414 37.3811 32.5108 37.5866 32.2686 38.1018C32.0264 38.617 33.0884 40.0612 34.4105 40.3709C35.7326 40.6806 38.3876 42.1234 38.3876 42.1234C38.3876 42.1234 26.8565 51.147 27.2978 52.0746C27.739 53.0022 32.7799 56.7713 33.4723 56.8183C34.1648 56.8652 44.5639 54.2395 45.1936 54.1367C46.5981 53.8801 47.9373 53.4251 49.1509 52.7923C49.9711 52.3622 50.7319 51.8608 51.4202 51.2967L56.6512 49.44L50.7313 40.1082L49.3465 40.6278Z" fill="white"/>
<path d="M33.4832 56.8905H33.4581C32.649 56.8318 27.6243 52.9819 27.2064 52.1013C26.7651 51.1737 36.7265 43.3199 38.2388 42.134C37.7562 41.8771 35.548 40.7117 34.3873 40.4417C33.4904 40.2318 32.7262 39.5331 32.3674 38.9343C32.1539 38.5777 32.0893 38.2724 32.188 38.0742C32.4517 37.5385 33.2643 37.3198 34.6492 37.1011C35.5145 36.9874 36.3873 36.9154 37.2629 36.8854C37.819 36.8575 38.2998 36.8325 38.6227 36.7914C39.5286 36.6769 41.1844 37.2171 43.4106 38.3487C45.5884 39.4568 48.9716 40.4417 49.3448 40.5503L50.6992 40.0469C50.7202 40.0395 50.7439 40.0389 50.7655 40.0452C50.7871 40.0514 50.805 40.0641 50.8158 40.0806L56.7356 49.4124C56.7409 49.4216 56.7436 49.4316 56.7436 49.4418C56.7436 49.4519 56.7409 49.462 56.7356 49.4711C56.7314 49.4805 56.725 49.4891 56.7166 49.4964C56.7083 49.5037 56.6983 49.5096 56.6872 49.5137L51.4831 51.3616C50.7912 51.9225 50.0301 52.4232 49.212 52.8557C47.9823 53.4935 46.6262 53.9509 45.2045 54.2075C45.0054 54.2398 43.7694 54.5407 42.2051 54.9208C37.9267 55.9585 34.0429 56.8905 33.4832 56.8905ZM38.8738 36.9294C38.7982 36.9291 38.7226 36.9335 38.6478 36.9426C38.3159 36.9852 37.8316 37.0087 37.2719 37.038C36.4034 37.0671 35.5378 37.1387 34.6797 37.2523C33.3486 37.4592 32.5827 37.6618 32.3477 38.1329C32.2723 38.287 32.3477 38.5644 32.527 38.8741C32.8679 39.4436 33.5908 40.107 34.434 40.3052C35.7561 40.6134 38.3213 42.0077 38.4289 42.0664C38.4404 42.0726 38.4499 42.0808 38.4567 42.0905C38.4636 42.1002 38.4676 42.1111 38.4684 42.1222C38.4701 42.1331 38.4685 42.1441 38.4638 42.1543C38.4591 42.1645 38.4515 42.1737 38.4415 42.1809C33.824 45.7945 27.0646 51.4056 27.3714 52.0529C27.8145 52.9819 32.8284 56.7012 33.4706 56.7496C33.9155 56.7819 39.073 55.5329 42.1495 54.7858C43.7801 54.3895 44.9587 54.1033 45.1668 54.0695C46.5631 53.8151 47.8952 53.3652 49.1044 52.7398C49.9165 52.3113 50.6711 51.8139 51.3557 51.2559C51.3647 51.2487 51.375 51.2428 51.3862 51.2383L56.5329 49.4154L50.692 40.2142L49.3824 40.7015C49.372 40.7051 49.3607 40.707 49.3493 40.707C49.3379 40.707 49.3266 40.7051 49.3161 40.7015C49.2802 40.6912 45.626 39.655 43.3119 38.4778C41.3315 37.4651 39.7744 36.9221 38.8738 36.9221V36.9294Z" fill="#263238"/>
<path d="M44.0403 49.3008C44.0403 49.3008 46.6988 51.2411 46.9876 52.066C47.1506 52.6098 47.1258 53.1799 46.9159 53.7128L45.1866 54.1355L44.0403 49.3008Z" fill="#263238"/>
<path d="M45.1866 54.2093C45.1702 54.2096 45.154 54.206 45.1399 54.199C45.1192 54.1877 45.1045 54.1704 45.0987 54.1506L43.9488 49.3144C43.9453 49.2993 43.9478 49.2836 43.9558 49.2697C43.9638 49.2557 43.977 49.2442 43.9935 49.2367C44.01 49.2293 44.0289 49.2262 44.0476 49.2281C44.0663 49.2299 44.0838 49.2365 44.0977 49.2469C44.2071 49.3262 46.7885 51.2107 47.072 52.0459C47.242 52.6045 47.2165 53.1909 46.9984 53.7382C46.9933 53.7489 46.9853 53.7585 46.9751 53.7664C46.9648 53.7742 46.9526 53.7801 46.9392 53.7837L45.2117 54.2064L45.1866 54.2093ZM44.1784 49.5038L45.2548 54.042L46.8423 53.653C47.0342 53.1444 47.054 52.6027 46.8998 52.0855C46.6701 51.4221 44.7991 49.972 44.1784 49.5038Z" fill="#263238"/>
<path d="M52.3083 43.3008L54.7516 50.0068L56.6567 49.4432L52.3083 43.3008Z" fill="#263238"/>
<path d="M54.7515 50.0809C54.7376 50.0807 54.7241 50.0777 54.712 50.0721C54.701 50.0677 54.6913 50.0615 54.6832 50.0539C54.6752 50.0464 54.6692 50.0376 54.6654 50.0281L52.2221 43.322C52.2165 43.3049 52.2186 43.2868 52.228 43.2709C52.2374 43.255 52.2535 43.2424 52.2734 43.2354C52.2932 43.2285 52.3155 43.2276 52.336 43.233C52.3566 43.2384 52.3741 43.2497 52.3853 43.2648L56.7337 49.4072C56.739 49.4169 56.7417 49.4274 56.7417 49.438C56.7417 49.4486 56.739 49.4591 56.7337 49.4689C56.7293 49.479 56.7221 49.4882 56.7128 49.4958C56.7035 49.5034 56.6923 49.5092 56.6799 49.5129L54.7748 50.0765C54.7673 50.0789 54.7595 50.0803 54.7515 50.0809ZM52.6114 43.8753L54.8107 49.9121L56.5256 49.4057L52.6114 43.8753Z" fill="#263238"/>
<path d="M34.4104 40.3701C34.4104 40.3701 39.0745 41.0394 39.9571 41.3491C40.8397 41.6587 45.6276 45.8344 47.33 47.1231C49.0324 48.4118 49.9132 50.424 49.976 51.7127C50.0388 53.0014 49.4091 54.7024 48.5893 54.9608C47.7695 55.2191 47.2026 54.858 46.9515 54.3429C46.7004 53.8277 46.573 52.8472 46.573 52.8472L45.563 51.1461C45.6309 51.818 45.5887 52.4942 45.4375 53.1569C45.1845 54.1359 44.7432 56.1981 43.7351 56.7132C42.7269 57.2284 41.5304 56.9202 41.403 56.6619C41.3002 56.4263 41.2157 56.1856 41.1501 55.9412C41.1501 55.9412 40.8343 56.8688 39.8943 57.1257C38.9543 57.3825 37.6269 57.0743 37.6269 57.0743C37.6269 57.0743 36.5505 58.1017 35.6733 57.8992C34.7961 57.6966 33.9081 56.9202 33.9081 56.9202C33.9081 56.9202 30.9464 55.4246 28.2376 53.8776C25.5289 52.3306 20.6746 47.4842 20.6746 47.4842L18.3425 46.2982L25.4643 38.1523L28.4888 39.6993L34.4104 40.3701Z" fill="white"/>
<path d="M35.9156 58.0001C35.8246 58.0004 35.7341 57.9905 35.6465 57.9707C34.7872 57.7696 33.9477 57.0622 33.8526 56.977C33.6606 56.8787 30.7904 55.4227 28.1875 53.9374C25.5558 52.4359 20.8594 47.7817 20.6173 47.5396L18.2978 46.3654C18.2871 46.3601 18.2779 46.3531 18.2708 46.3448C18.2637 46.3364 18.2588 46.3269 18.2565 46.3169C18.2527 46.2969 18.2585 46.2764 18.2726 46.2597L25.389 38.1138C25.4021 38.0985 25.4219 38.0879 25.4444 38.0843C25.4668 38.0808 25.4901 38.0845 25.5092 38.0947L28.5211 39.6285L34.4248 40.2963C34.615 40.3242 39.1087 40.9715 39.9859 41.2812C40.5797 41.4896 42.8292 43.3463 44.8115 44.9842C45.834 45.8282 46.7991 46.6266 47.3857 47.0699C49.054 48.3336 49.994 50.3605 50.0604 51.7094C50.1232 52.9878 49.4935 54.7534 48.6163 55.0294C47.7014 55.3229 47.1112 54.8826 46.8637 54.3689C46.6161 53.8552 46.5049 52.9892 46.4798 52.8674L45.6743 51.5083C45.7015 52.0656 45.6503 52.6235 45.5218 53.1712L45.4573 53.4237C45.19 54.4937 44.7397 56.2843 43.78 56.776C43.491 56.9213 43.1674 57.0147 42.8309 57.0498C42.4944 57.085 42.1526 57.0612 41.8282 56.98C41.7236 56.9611 41.6245 56.9254 41.5368 56.875C41.449 56.8246 41.3743 56.7605 41.317 56.6864C41.2452 56.5236 41.1853 56.3575 41.1376 56.1889C40.9761 56.4912 40.6102 57.0049 39.9231 57.1928C39.062 57.4276 37.9229 57.2104 37.6574 57.1546C37.4727 57.3234 36.6833 58.0001 35.9156 58.0001ZM18.4754 46.2773L20.7267 47.4221C20.7347 47.4267 20.742 47.4321 20.7482 47.4383C20.7967 47.4867 25.624 52.295 28.2915 53.817C30.959 55.3391 33.9297 56.842 33.9602 56.8567L33.9782 56.8699C33.9871 56.8699 34.8536 57.6302 35.7021 57.8283C36.5183 58.0191 37.5516 57.0372 37.5624 57.027C37.5736 57.0162 37.5883 57.0083 37.6048 57.0042C37.6214 57 37.639 56.9998 37.6556 57.0035C37.6682 57.0035 38.9634 57.3044 39.8711 57.0563C40.7788 56.8083 41.0694 55.9291 41.073 55.9203C41.0782 55.9049 41.0894 55.8914 41.105 55.8818C41.1206 55.8723 41.1396 55.8672 41.1591 55.8674C41.1793 55.8674 41.1989 55.8731 41.2146 55.8835C41.2303 55.894 41.2411 55.9085 41.2452 55.9247C41.3103 56.1653 41.393 56.4025 41.4928 56.6351C41.5918 56.7405 41.7337 56.8134 41.8928 56.8406C42.1912 56.9145 42.5053 56.9358 42.8146 56.9032C43.1238 56.8706 43.421 56.7847 43.6867 56.6512C44.5836 56.1933 45.0214 54.4408 45.2833 53.3943L45.3478 53.1404C45.4969 52.4849 45.5386 51.8161 45.4716 51.1516C45.4697 51.1344 45.4752 51.1172 45.4872 51.103C45.4992 51.0889 45.5169 51.0786 45.5372 51.074C45.5576 51.0695 45.5793 51.0709 45.5984 51.0781C45.6176 51.0853 45.633 51.0979 45.642 51.1135L46.6502 52.8146C46.6551 52.8224 46.6581 52.8308 46.6592 52.8395C46.6592 52.8483 46.7865 53.8141 47.0305 54.3146C47.1363 54.5289 47.5561 55.2055 48.5535 54.8914C49.2711 54.6639 49.9492 53.0612 49.8828 51.7152C49.8182 50.3943 48.8979 48.4143 47.2655 47.177C46.6771 46.7367 45.7102 45.9339 44.6859 45.0884C42.8131 43.54 40.4792 41.6129 39.9177 41.4191C39.0603 41.1182 34.5002 40.4607 34.3925 40.4446L28.4727 39.7738C28.4605 39.7726 28.4489 39.7691 28.4386 39.7635L25.4841 38.2532L18.4754 46.2773Z" fill="#263238"/>
<path d="M26.3526 40.418L21.457 48.125L20.6731 47.4836L26.3526 40.418Z" fill="#263238"/>
<path d="M21.457 48.1996C21.4336 48.1997 21.4111 48.1923 21.3942 48.179L20.6103 47.5376C20.5954 47.5258 20.5861 47.5101 20.5838 47.4932C20.5815 47.4764 20.5864 47.4594 20.5977 47.4451L26.2772 40.378C26.29 40.3625 26.3096 40.3516 26.3319 40.3475C26.3543 40.3434 26.3777 40.3464 26.3974 40.356C26.4174 40.3653 26.4322 40.3806 26.4386 40.3987C26.445 40.4169 26.4424 40.4363 26.4315 40.4529L21.5359 48.1599C21.5297 48.1702 21.5206 48.1791 21.5094 48.186C21.4982 48.1929 21.4851 48.1975 21.4713 48.1996H21.457ZM20.7879 47.476L21.4337 48.0043L25.4717 41.655L20.7879 47.476Z" fill="#263238"/>
<path d="M35.7975 37.1199C35.7975 37.1199 33.1479 37.0642 32.52 37.2755C31.4437 37.6366 31.3863 38.8225 31.3863 39.028C31.3863 39.2335 30.6311 40.8847 30.5037 41.5026C30.3763 42.1205 31.2607 42.4316 33.277 41.8636C35.2934 41.2956 35.8603 40.575 35.8603 39.028" fill="white"/>
<path d="M31.5064 42.2362C31.1965 42.2548 30.8883 42.1848 30.6346 42.038C30.541 41.9718 30.4712 41.8861 30.4326 41.7899C30.3941 41.6937 30.3882 41.5907 30.4158 41.492C30.5632 40.9679 30.7465 40.4509 30.9647 39.9436C31.0973 39.6444 31.2081 39.3391 31.2966 39.0292C31.2966 38.8824 31.3306 37.5982 32.4859 37.2092C33.1245 36.9934 35.6916 37.0463 35.7992 37.0478C35.8112 37.0479 35.8229 37.0501 35.8338 37.054C35.8447 37.058 35.8546 37.0637 35.8628 37.0708C35.871 37.0779 35.8773 37.0863 35.8815 37.0954C35.8857 37.1046 35.8876 37.1143 35.8871 37.1241C35.8857 37.1432 35.8755 37.1611 35.8585 37.1742C35.8415 37.1873 35.819 37.1946 35.7956 37.1945C35.7687 37.1945 33.1586 37.1417 32.5541 37.3413C31.5064 37.695 31.4777 38.8912 31.4777 39.0263C31.4777 39.1261 31.3557 39.4402 31.1369 39.9861C30.9229 40.4869 30.7432 40.997 30.5987 41.5141C30.5768 41.5876 30.5798 41.6647 30.6077 41.7369C30.6355 41.8091 30.687 41.8736 30.7566 41.9236C31.1297 42.1819 32.0392 42.1334 33.2537 41.7929C35.1624 41.2557 35.7759 40.5835 35.7759 39.0263C35.7764 39.0069 35.786 38.9885 35.8027 38.9748C35.8194 38.9611 35.8419 38.9532 35.8656 38.9529C35.8894 38.9529 35.9122 38.9606 35.929 38.9744C35.9458 38.9881 35.9553 39.0068 35.9553 39.0263C35.9553 40.6628 35.3131 41.3746 33.3111 41.9324C32.7332 42.1119 32.124 42.2145 31.5064 42.2362Z" fill="#263238"/>
<path d="M30.6938 41.2157C30.6774 41.216 30.6612 41.2124 30.6472 41.2054C30.6287 41.1967 30.6147 41.1829 30.6078 41.1664C30.6009 41.15 30.6015 41.132 30.6095 41.1159L31.3666 39.5175C31.3718 39.5042 31.3826 39.4928 31.397 39.4852C31.692 39.3203 32.0375 39.2263 32.3944 39.2137C32.4976 39.2093 32.6006 39.2231 32.6966 39.2543C32.7926 39.2854 32.8792 39.3332 32.9506 39.3942C33.1389 39.563 33.2161 39.8345 33.1766 40.2206C33.1686 40.3151 33.1364 40.4073 33.082 40.491C33.0276 40.5747 32.9522 40.6481 32.8609 40.7064C32.5111 40.9397 31.9101 40.9999 31.5011 40.9588C31.3643 40.9469 31.2259 40.9617 31.0975 41.002C30.969 41.0423 30.854 41.107 30.762 41.1907C30.7534 41.1985 30.7428 41.2047 30.7311 41.209C30.7194 41.2133 30.7067 41.2156 30.6938 41.2157ZM31.5226 39.5924L30.8966 40.9133C31.0859 40.8225 31.3066 40.7854 31.5244 40.8076C31.8957 40.8458 32.4393 40.793 32.7478 40.5875C32.8201 40.5415 32.8798 40.4837 32.923 40.4177C32.9663 40.3517 32.9922 40.2791 32.999 40.2044C33.0331 39.8668 32.9721 39.6261 32.8196 39.4896C32.7652 39.4435 32.6991 39.4076 32.626 39.3846C32.5528 39.3615 32.4744 39.3518 32.3962 39.3561C32.0845 39.3699 31.783 39.4515 31.5226 39.5924Z" fill="#263238"/>
<path d="M45.5631 51.2188C45.5435 51.2187 45.5244 51.2133 45.5089 51.2035C45.4933 51.1937 45.4821 51.18 45.477 51.1645C45.477 51.1645 45.2402 50.5275 43.2903 48.6693C42.9392 48.3096 42.6451 47.9151 42.4148 47.4952C42.3216 47.3396 42.2354 47.1928 42.1458 47.0695C42.1341 47.0526 42.1312 47.0326 42.1376 47.0139C42.144 46.9951 42.1592 46.9793 42.1798 46.9697C42.2003 46.9601 42.2246 46.9575 42.2475 46.9624C42.2703 46.9674 42.2898 46.9795 42.3018 46.9961C42.3915 47.1238 42.4812 47.2721 42.5763 47.4365C42.8003 47.8451 43.0859 48.2292 43.4266 48.5798C45.4178 50.4805 45.642 51.1087 45.6492 51.1337C45.6527 51.143 45.6539 51.1528 45.6526 51.1626C45.6513 51.1723 45.6476 51.1817 45.6418 51.1902C45.6359 51.1987 45.628 51.2062 45.6184 51.2121C45.6089 51.218 45.598 51.2223 45.5864 51.2247L45.5631 51.2188Z" fill="#263238"/>
<path d="M42.0132 46.8006C41.9973 46.8006 41.9816 46.7972 41.9678 46.7908C41.9539 46.7844 41.9424 46.7751 41.9343 46.7639L41.7064 46.438C41.6994 46.4299 41.6957 46.4201 41.6957 46.4102L41.5683 45.3828C41.5667 45.3634 41.5742 45.3443 41.5892 45.3293C41.6042 45.3144 41.6256 45.3046 41.649 45.302C41.6728 45.3004 41.6963 45.3063 41.7147 45.3187C41.7332 45.331 41.745 45.3487 41.7477 45.3681L41.8715 46.3837L42.0903 46.6949C42.1022 46.7119 42.1055 46.732 42.0994 46.7509C42.0934 46.7699 42.0785 46.7861 42.0581 46.7962C42.0437 46.8004 42.0284 46.8019 42.0132 46.8006Z" fill="#263238"/>
<path d="M41.1537 56.021C41.1366 56.0211 41.1198 56.0173 41.1052 56.0099C41.0907 56.0025 41.079 55.9918 41.0717 55.9791C41.0643 55.9665 41.0616 55.9523 41.0637 55.9384C41.0658 55.9245 41.0728 55.9114 41.0838 55.9006C41.3026 55.6775 41.5699 54.4755 41.2058 54.0278C40.8416 53.5801 38.3445 49.6011 38.2387 49.4323C38.2324 49.4228 38.2287 49.4123 38.2279 49.4015L38.1651 48.1642C38.1646 48.1546 38.1665 48.145 38.1705 48.1359C38.1746 48.1269 38.1808 48.1185 38.1888 48.1115C38.1968 48.1044 38.2065 48.0986 38.2172 48.0946C38.2279 48.0906 38.2394 48.0883 38.2512 48.0879C38.2749 48.0875 38.2978 48.0946 38.3152 48.1077C38.3326 48.1209 38.3431 48.139 38.3445 48.1584L38.4073 49.3795C38.5741 49.6481 40.9941 53.5053 41.3547 53.9471C41.7511 54.4329 41.5089 55.7084 41.2237 55.9931C41.2153 56.0017 41.2046 56.0086 41.1925 56.0134C41.1804 56.0182 41.1672 56.0208 41.1537 56.021Z" fill="#263238"/>
<path d="M37.6253 57.1476C37.6024 57.1476 37.5804 57.1405 37.5637 57.1277C37.5471 57.1148 37.537 57.0973 37.5356 57.0786C37.5356 57.0624 37.3993 55.4406 36.4198 54.4367C36.0363 54.0284 35.6852 53.6004 35.3686 53.1554C35.3622 53.1471 35.3579 53.1379 35.3559 53.1283C35.354 53.1187 35.3544 53.1088 35.3573 53.0994C35.3601 53.0899 35.3653 53.081 35.3725 53.0732C35.3797 53.0654 35.3888 53.0589 35.3991 53.0541C35.4194 53.0443 35.4435 53.0415 35.4663 53.0461C35.4892 53.0508 35.5088 53.0626 35.5211 53.079C35.8342 53.5187 36.1817 53.9413 36.5616 54.3442C37.5751 55.3819 37.7096 56.9993 37.715 57.0668C37.7158 57.0765 37.7141 57.0862 37.7103 57.0953C37.7065 57.1044 37.7004 57.1128 37.6926 57.1201C37.6848 57.1273 37.6753 57.1332 37.6647 57.1374C37.654 57.1416 37.6425 57.1441 37.6307 57.1446L37.6253 57.1476Z" fill="#263238"/>
<path d="M35.1084 52.7215C35.0925 52.7217 35.0768 52.7184 35.0629 52.712C35.049 52.7055 35.0375 52.6962 35.0295 52.6848C34.5272 51.9627 34.1451 51.3389 34.1415 51.3331C34.1358 51.3229 34.1327 51.3119 34.1326 51.3008V50.63C34.1326 50.6106 34.142 50.5919 34.1588 50.5781C34.1757 50.5644 34.1985 50.5566 34.2223 50.5566C34.2461 50.5566 34.2689 50.5644 34.2857 50.5781C34.3025 50.5919 34.312 50.6106 34.312 50.63V51.2832C34.3729 51.383 34.7281 51.9569 35.1856 52.6041C35.1973 52.6213 35.2003 52.6415 35.1939 52.6605C35.1875 52.6794 35.1723 52.6956 35.1515 52.7054C35.1392 52.7138 35.1243 52.7194 35.1084 52.7215Z" fill="#263238"/>
<path d="M24.0364 51.236C24.0364 51.236 22.5206 50.8838 22.0954 50.4434C21.6703 50.0031 21.4873 48.5779 21.4568 48.1303C21.4263 47.6826 21.098 47.235 21.76 47.0368C22.4219 46.8387 23.3117 47.4346 23.6453 48.032C23.979 48.6293 24.0041 49.4483 24.0041 49.5731C24.0041 49.6978 24.5208 50.3686 24.5208 50.3686C24.5208 50.3686 25.0123 51.1362 24.0364 51.236Z" fill="white"/>
<path d="M24.0365 51.3103H24.0132C23.9504 51.2957 22.4597 50.9493 22.0202 50.4884C21.5 49.9409 21.3654 48.1518 21.3636 48.14C21.3532 48.035 21.3346 47.9306 21.308 47.8274C21.2327 47.5075 21.1484 47.1449 21.726 46.9732C22.422 46.7663 23.3549 47.3475 23.7226 48.0006C24.0904 48.6538 24.0993 49.5637 24.0993 49.5637C24.2359 49.8294 24.4048 50.0831 24.6034 50.3211C24.616 50.3431 24.8528 50.7247 24.6662 51.0139C24.6022 51.1012 24.5122 51.174 24.4046 51.2253C24.2971 51.2766 24.1754 51.3048 24.0509 51.3074L24.0365 51.3103ZM22.0364 47.0686C21.9527 47.068 21.8695 47.0795 21.7906 47.1024C21.378 47.2257 21.4049 47.4341 21.4874 47.7907C21.5166 47.9005 21.5363 48.0119 21.5466 48.1239C21.5843 48.6934 21.787 49.9967 22.1655 50.3959C22.544 50.7952 23.8787 51.121 24.0473 51.1621C24.1391 51.1601 24.229 51.1399 24.3093 51.1034C24.3895 51.0668 24.4578 51.015 24.5083 50.9522C24.6519 50.7291 24.4491 50.4033 24.4473 50.3989C24.2913 50.1978 23.9199 49.7017 23.9199 49.5696C23.9199 49.5608 23.9199 48.689 23.5612 48.0579C23.2777 47.5471 22.6014 47.0686 22.0364 47.0686Z" fill="#263238"/>
<path d="M21.6325 49.0751C21.6325 49.0751 22.1707 49.5154 22.5635 49.4934C22.9564 49.4714 22.6837 48.3852 22.6837 48.3852C22.4061 48.3287 22.1487 48.2196 21.9321 48.0667C21.7529 47.9352 21.5828 47.7955 21.4226 47.6484L21.6325 49.0751Z" fill="white"/>
<path d="M22.5331 49.5622C22.1116 49.5622 21.5913 49.141 21.568 49.1219C21.5551 49.1098 21.5465 49.0951 21.5429 49.0794L21.333 47.6542C21.3305 47.6386 21.3343 47.6227 21.3436 47.609C21.353 47.5953 21.3675 47.5843 21.385 47.5779C21.4025 47.5713 21.4222 47.5696 21.441 47.573C21.4598 47.5765 21.4767 47.5849 21.4891 47.5969C21.6483 47.741 21.8166 47.8782 21.9932 48.0079C22.1994 48.1541 22.4455 48.2578 22.7107 48.3103C22.7274 48.3137 22.7427 48.3209 22.7547 48.331C22.7667 48.3411 22.7751 48.3537 22.7789 48.3675C22.8022 48.4556 22.987 49.2335 22.761 49.4786C22.7401 49.5022 22.7133 49.5219 22.6823 49.5363C22.6514 49.5507 22.617 49.5596 22.5816 49.5622H22.5331ZM21.7169 49.0353C21.8784 49.1616 22.2856 49.4287 22.5565 49.4155C22.5677 49.4144 22.5784 49.4114 22.588 49.4066C22.5976 49.4018 22.6058 49.3953 22.6121 49.3876C22.7394 49.2496 22.6802 48.7521 22.6121 48.4409C22.3412 48.3784 22.0907 48.2676 21.8784 48.1165C21.742 48.0153 21.6326 47.9272 21.5483 47.8582L21.7169 49.0353Z" fill="#263238"/>
<path d="M26.8673 53.6721C26.8673 53.6721 25.2528 53.9451 24.8617 53.4974C24.4706 53.0498 23.6759 51.2591 23.7064 50.6383C23.7369 50.0174 25.7425 48.4998 26.7453 47.8775C27.7481 47.2552 28.3867 47.057 28.9948 47.355C29.6029 47.6529 30.0891 48.0272 29.9079 48.5482C29.7267 49.0693 28.2665 51.309 28.0225 51.7068C27.7786 52.1045 27.5364 53.4974 27.5364 53.4974L26.8673 53.6721Z" fill="white"/>
<path d="M25.8862 53.8277C25.4485 53.8277 24.9892 53.7675 24.7883 53.5415C24.3883 53.0865 23.5846 51.2929 23.6169 50.6353C23.6492 49.9778 25.6691 48.4528 26.6916 47.8188C27.6263 47.2405 28.3438 46.9499 29.0416 47.2919C29.5529 47.5443 30.2095 47.9494 29.9942 48.5688C29.8453 48.993 28.891 50.4974 28.3797 51.3061C28.2523 51.5057 28.1537 51.6598 28.1052 51.7464C27.8702 52.1295 27.6298 53.5077 27.6263 53.5077C27.6245 53.5215 27.6178 53.5346 27.6069 53.5453C27.596 53.556 27.5816 53.5639 27.5653 53.5679L26.8961 53.7425H26.8872C26.5574 53.7957 26.2223 53.8242 25.8862 53.8277ZM28.4192 47.2933C28.0048 47.2933 27.5079 47.4973 26.8047 47.9362C25.7714 48.5761 23.8286 50.0703 23.8017 50.6412C23.7712 51.2621 24.5605 53.0248 24.939 53.4549C25.235 53.7895 26.4136 53.675 26.8495 53.6016L27.4612 53.4416C27.5061 53.1936 27.7231 52.0414 27.9474 51.6804L28.2236 51.2401C28.7331 50.4372 29.6838 48.9416 29.8256 48.5321C29.9673 48.1226 29.6982 47.7865 28.9537 47.421C28.7939 47.3379 28.6085 47.2937 28.4192 47.2933Z" fill="#263238"/>
<path d="M26.2593 48.2997C26.2593 48.2997 25.5902 48.8222 25.9257 49.22C26.2611 49.6177 27.1114 49.9905 27.4756 49.8907C27.8397 49.7909 29.0255 48.7723 29.239 48.4494C29.4524 48.1265 28.1447 47.3545 28.1447 47.3545C27.4307 47.5377 26.7831 47.8624 26.2593 48.2997Z" fill="white"/>
<path d="M27.3389 49.9809C26.8761 49.9809 26.1424 49.6081 25.8518 49.2617C25.4823 48.8214 26.1514 48.2842 26.1962 48.249C26.7286 47.8003 27.3906 47.4687 28.1211 47.2847C28.1339 47.2819 28.1474 47.2815 28.1604 47.2835C28.1735 47.2855 28.1858 47.29 28.1964 47.2964C28.426 47.4315 29.5544 48.1228 29.3176 48.4838C29.0808 48.8449 27.9004 49.8532 27.504 49.9618C27.4505 49.9752 27.3948 49.9816 27.3389 49.9809ZM28.1265 47.4359C27.4454 47.6202 26.8276 47.9341 26.3236 48.3517C26.3236 48.3517 25.7137 48.8361 26.0007 49.1781C26.3362 49.5773 27.1524 49.9031 27.4484 49.8209C27.7444 49.7387 28.9481 48.7378 29.1615 48.4134C29.2764 48.2417 28.6252 47.7353 28.1265 47.4359Z" fill="#263238"/>
<path d="M29.5008 55.5796C29.5008 55.5796 27.741 55.8732 27.3087 55.3903C26.8764 54.9074 26.0153 52.9451 26.053 52.2655C26.0906 51.586 28.2774 49.9289 29.3734 49.2508C30.4695 48.5727 31.1673 48.354 31.8311 48.6798C32.4948 49.0057 33.0258 49.4137 32.8267 49.9832C32.6276 50.5527 31.0328 52.9994 30.7691 53.4338C30.5054 53.8683 30.2309 55.3903 30.2309 55.3903L29.5008 55.5796Z" fill="white"/>
<path d="M28.4279 55.75C27.9508 55.75 27.4521 55.6839 27.2368 55.4388C26.8098 54.956 25.9237 52.9686 25.9577 52.2685C25.9918 51.5684 28.1965 49.8894 29.3141 49.1981C30.3312 48.5669 31.108 48.2514 31.8722 48.6227C32.4283 48.8957 33.1423 49.3375 32.9073 50.0097C32.7458 50.472 31.7018 52.1159 31.1421 52.9995C31.004 53.2167 30.8963 53.3855 30.8425 53.4721C30.5878 53.8919 30.3223 55.3919 30.3205 55.4065C30.3181 55.4202 30.3111 55.433 30.3004 55.4437C30.2896 55.4543 30.2754 55.4623 30.2595 55.4667L29.5276 55.6561H29.5186C29.1594 55.7151 28.7943 55.7466 28.4279 55.75ZM31.1959 48.611C30.742 48.611 30.1967 48.8341 29.4217 49.314C28.2916 50.0156 26.1676 51.6492 26.1371 52.2744C26.1048 52.954 26.9677 54.8826 27.3821 55.3566C27.7068 55.7236 28.9966 55.5988 29.4791 55.5181L30.1501 55.3434C30.1985 55.0807 30.4371 53.8126 30.6882 53.4104C30.742 53.3224 30.8479 53.1536 30.9878 52.9349C31.5457 52.0543 32.5844 50.4207 32.7404 49.973C32.8965 49.5254 32.6005 49.1526 31.7843 48.7519C31.6083 48.6604 31.4044 48.6116 31.1959 48.611Z" fill="#263238"/>
<path d="M28.8371 49.7174C28.8371 49.7174 28.107 50.2883 28.4783 50.7228C28.8497 51.1572 29.7735 51.5652 30.1718 51.4566C30.57 51.348 31.8652 50.234 32.0984 49.8803C32.3316 49.5266 30.9037 48.6855 30.9037 48.6855C30.1207 48.8836 29.4105 49.2383 28.8371 49.7174Z" fill="white"/>
<path d="M30.0138 51.5484C29.5115 51.5484 28.7151 51.1418 28.3993 50.7646C28.0011 50.2906 28.7276 49.7035 28.776 49.6668C29.3577 49.1785 30.0791 48.8168 30.8749 48.6144C30.8878 48.6119 30.9011 48.6116 30.9141 48.6137C30.9271 48.6157 30.9394 48.6199 30.9502 48.6261C31.1996 48.7729 32.4284 49.5259 32.1719 49.9163C31.9297 50.2847 30.6273 51.409 30.1986 51.5308C30.1386 51.545 30.0762 51.551 30.0138 51.5484ZM30.8785 48.7671C30.1325 48.9677 29.4559 49.3114 28.9052 49.7695C28.9052 49.7695 28.2343 50.3023 28.5464 50.681C28.8873 51.0875 29.7806 51.4838 30.1376 51.3855C30.4946 51.2871 31.7718 50.2113 32.0122 49.8458C32.1432 49.6462 31.44 49.1032 30.8785 48.7671Z" fill="#263238"/>
<path d="M32.9234 56.4514C32.9234 56.4514 32.4588 55.3124 32.4588 55.2097C32.4588 55.107 33.3037 53.4484 33.2194 52.7248C33.1351 52.0012 32.4176 51.172 31.9529 51.3789C31.4883 51.5859 30.6452 52.173 29.8864 53.105C29.1276 54.037 28.8746 54.7606 29.1276 55.1055C29.3805 55.4504 30.8999 56.7625 31.5314 56.9695C32.1628 57.1764 33.4652 56.8227 33.4652 56.8227L32.9234 56.4514Z" fill="white"/>
<path d="M32.0356 57.1063C31.8525 57.1109 31.67 57.0875 31.4974 57.0373C30.8534 56.8245 29.3071 55.4947 29.0595 55.1395C28.7797 54.7565 29.0595 53.9976 29.822 53.0598C30.5395 52.1791 31.3934 51.5451 31.919 51.3102C31.991 51.2807 32.071 51.2669 32.1514 51.27C32.2319 51.273 32.31 51.293 32.3782 51.3278C32.8231 51.5201 33.2519 52.1556 33.3165 52.7134C33.381 53.2711 32.929 54.3279 32.685 54.8974C32.6222 55.0441 32.563 55.1821 32.5576 55.21C32.5576 55.276 32.7926 55.8719 33.0097 56.4047L33.5317 56.7555C33.5441 56.764 33.5536 56.7749 33.5592 56.7872C33.5649 56.7996 33.5665 56.8129 33.564 56.8259C33.5609 56.8389 33.5536 56.8509 33.5429 56.8607C33.5321 56.8705 33.5184 56.8778 33.503 56.8817C33.0291 57.0121 32.5351 57.0877 32.0356 57.1063ZM32.1092 51.4203C32.0696 51.4197 32.0306 51.4278 31.9961 51.4438C31.4885 51.6698 30.6633 52.2833 29.9619 53.1449C29.2605 54.0064 28.9645 54.7403 29.2049 55.0691C29.4452 55.3978 30.9539 56.7012 31.571 56.9008C32.0392 57.0549 32.9272 56.8729 33.286 56.7863L32.8716 56.5089C32.859 56.4999 32.8497 56.4882 32.8447 56.4752C32.7334 56.2051 32.3747 55.3171 32.3747 55.21C32.4052 55.0876 32.4509 54.9681 32.511 54.8533C32.7334 54.3352 33.1963 53.2594 33.1353 52.7325C33.0743 52.2055 32.6814 51.6317 32.2903 51.4614C32.2349 51.4359 32.1727 51.4218 32.1092 51.4203Z" fill="#263238"/>
<path d="M29.9707 53.4146C29.9707 53.4146 30.5196 53.6905 30.8999 53.6905C31.2802 53.6905 32.2489 52.9669 32.2059 52.2418C32.1628 51.5168 31.6157 51.69 31.6157 51.69C31.6157 51.69 30.1357 52.5868 29.9707 53.4146Z" fill="white"/>
<path d="M30.8981 53.7648C30.4981 53.7648 29.9474 53.4903 29.9241 53.4786C29.9092 53.4706 29.8974 53.4593 29.8901 53.4461C29.8828 53.4328 29.8802 53.4181 29.8828 53.4037C30.0622 52.5568 31.4973 51.6689 31.5619 51.6322L31.5834 51.6219C31.6527 51.6024 31.7263 51.5956 31.7992 51.6019C31.872 51.6082 31.9423 51.6276 32.005 51.6586C32.1844 51.754 32.2794 51.9521 32.2956 52.2457C32.3261 52.7682 31.8794 53.2114 31.6857 53.3773C31.4058 53.6107 31.0973 53.7648 30.8981 53.7648ZM30.0712 53.3788C30.3231 53.5053 30.6049 53.5869 30.8981 53.618C31.0237 53.618 31.2892 53.4991 31.5547 53.2701C31.7263 53.1375 31.8642 52.9785 31.9606 52.8022C32.0569 52.6259 32.1098 52.4358 32.1162 52.2427C32.1036 52.0064 32.0301 51.8464 31.9081 51.7804C31.8713 51.7616 31.83 51.7495 31.787 51.7449C31.7439 51.7403 31.7002 51.7434 31.6588 51.754C31.526 51.8391 30.2703 52.6449 30.0712 53.3788Z" fill="#263238"/>
<path d="M50.2327 39.779L56.7373 51.3006L60.6408 49.9224L53.8294 38.4639L50.2327 39.779Z" fill="white"/>
<path d="M56.7375 51.3729C56.7205 51.373 56.7037 51.369 56.6894 51.3615C56.6751 51.3539 56.6637 51.3431 56.6568 51.3304L50.1521 39.8087C50.1473 39.7999 50.1448 39.7904 50.1448 39.7808C50.1448 39.7712 50.1473 39.7617 50.1521 39.7529C50.1558 39.7437 50.1618 39.7352 50.1699 39.7281C50.1779 39.721 50.1878 39.7155 50.1988 39.7118L53.7955 38.3909C53.806 38.3867 53.8173 38.3843 53.8289 38.3839C53.8405 38.3834 53.8521 38.3849 53.863 38.3881C53.8739 38.3914 53.8839 38.3965 53.8923 38.403C53.9008 38.4095 53.9075 38.4174 53.9121 38.4261L60.7289 49.8832C60.7337 49.8922 60.7362 49.902 60.7362 49.9118C60.7362 49.9217 60.7337 49.9314 60.7289 49.9404C60.7247 49.9498 60.7183 49.9584 60.71 49.9657C60.7016 49.973 60.6916 49.9789 60.6805 49.983L56.777 51.3597C56.7655 51.3669 56.7519 51.3714 56.7375 51.3729ZM50.3531 39.8146L56.7824 51.2027L60.519 49.8817L53.7884 38.5538L50.3531 39.8146Z" fill="#263238"/>
<path d="M81.7513 24.6338L52.5288 38.6521L62.1907 54.8059L81.7513 46.8214V24.6338Z" fill="#F28B74"/>
<path d="M62.1907 54.8785H62.162C62.1394 54.8716 62.1208 54.858 62.11 54.8403L52.4481 38.6836C52.4383 38.6669 52.4365 38.6478 52.4432 38.6301C52.4498 38.6124 52.4644 38.5974 52.484 38.5882L81.7065 24.5684C81.7202 24.5619 81.7358 24.5585 81.7516 24.5586C81.7675 24.5586 81.783 24.5621 81.7967 24.5687C81.8104 24.5752 81.8217 24.5847 81.8295 24.596C81.8372 24.6073 81.8412 24.62 81.841 24.633V46.8207C81.8407 46.834 81.836 46.847 81.8275 46.8583C81.819 46.8697 81.8069 46.879 81.7926 46.8852L62.2392 54.8712C62.2245 54.878 62.2074 54.8806 62.1907 54.8785ZM52.6472 38.6806L62.232 54.7068L81.6616 46.781V24.7578L52.6472 38.6806Z" fill="#263238"/>
<path d="M27.5058 41.2328L18.6279 52.5035L15.2607 51.1253L24.5961 39.793L27.5058 41.2328Z" fill="white"/>
<path d="M18.6277 50.246C18.6139 50.246 18.6002 50.243 18.5883 50.2372L15.2211 48.8605C15.2097 48.8558 15.1995 48.8492 15.1914 48.841C15.1834 48.8329 15.1775 48.8234 15.1743 48.8133C15.171 48.8031 15.1705 48.7925 15.1727 48.7822C15.1749 48.7718 15.1798 48.762 15.1871 48.7533L24.5153 37.421C24.5281 37.4055 24.5477 37.3945 24.57 37.3904C24.5924 37.3864 24.6158 37.3894 24.6355 37.399L27.5434 38.8388C27.564 38.8492 27.5789 38.8658 27.5846 38.885C27.5903 38.9043 27.5864 38.9246 27.5739 38.9416L18.6959 50.2123C18.6887 50.222 18.6787 50.2301 18.6669 50.236C18.655 50.2419 18.6416 50.2453 18.6277 50.246ZM15.3987 48.7665L18.6026 50.0772L27.3927 38.9225L24.6355 37.5575L15.3987 48.7665Z" fill="#263238"/>
<path d="M-1.9104 23.0732V47.0545L12.5322 54.3784L25.9738 37.5245L-1.9104 23.0732Z" fill="#19BBBB"/>
<path d="M12.5323 54.453C12.5157 54.4527 12.4996 54.4486 12.4857 54.4412L-1.95695 47.1173C-1.97003 47.1109 -1.98087 47.1019 -1.98842 47.0911C-1.99597 47.0803 -1.99996 47.0681 -2 47.0556V23.0744C-1.99986 23.0612 -1.99547 23.0483 -1.98728 23.037C-1.97909 23.0256 -1.96739 23.0163 -1.95336 23.0098C-1.93939 23.0034 -1.92364 23 -1.90761 23C-1.89159 23 -1.87584 23.0034 -1.86187 23.0098L26.0224 37.4611C26.0424 37.472 26.0566 37.4888 26.0618 37.508C26.0667 37.5273 26.0622 37.5473 26.0493 37.5638L12.6077 54.4192C12.5998 54.4297 12.5887 54.4384 12.5755 54.4443C12.5623 54.4502 12.5474 54.4532 12.5323 54.453ZM-1.81882 47.0145L12.5072 54.2783L25.8519 37.5462L-1.82061 23.208L-1.81882 47.0145Z" fill="#263238"/>
</g>
</g>
<defs>
<clipPath id="clip0_1152_16232">
<rect width="80" height="80" rx="40" fill="white"/>
</clipPath>
<clipPath id="clip1_1152_16232">
<rect width="80" height="80" fill="white"/>
</clipPath>
</defs>
</svg>
