<svg width="80" height="80" viewBox="0 0 80 80" fill="none" xmlns="http://www.w3.org/2000/svg">
<g clip-path="url(#clip0_1159_19763)">
<rect width="80" height="80" rx="40" fill="#19BBBB" fill-opacity="0.08"/>
<path d="M52.1568 14.6211C52.1568 14.6211 53.7673 14.6471 53.0784 18.4019C52.3896 22.1566 52.478 22.8659 52.478 24.3539C52.4685 24.8395 52.5751 25.3185 52.7858 25.7362C52.9964 26.1539 53.3026 26.4934 53.6694 26.7161H51.4848L49.8784 17.9505V14.6211H52.1568Z" fill="#E0E0E0"/>
<path d="M52.6307 44.174H30.575L30.7719 18.7726L51.5458 17.4941L52.6307 44.174Z" fill="#E0E0E0"/>
<path d="M51.8734 43.5187H29.8176L30.0146 18.1173L51.4299 17.625L51.8734 43.5187Z" fill="#EBEBEB"/>
<path d="M51.4162 42.8108H29.4058V17.4094L51.4299 17.3486L51.4162 42.8108Z" fill="#FAFAFA"/>
<path d="M51.4161 42.8107C51.4161 42.5739 51.4161 32.6216 51.4056 17.3486L51.4298 17.3771L29.4404 17.4416H29.4057L29.4331 17.4093C29.4331 26.7019 29.4331 35.4154 29.4331 42.8107L29.4099 42.7834L51.4246 42.8107L29.4099 42.8392H29.3867V42.8107C29.3867 35.4154 29.3867 26.7019 29.3867 17.4093V17.3771H29.4478L51.4383 17.3213H51.4614V17.3486C51.4309 32.6216 51.4161 42.5739 51.4161 42.8107Z" fill="#263238"/>
<path d="M51.4299 17.2796C50.2923 15.7209 51.6121 14.5677 52.0619 14.5429L31.1005 14.5293C30.8431 14.529 30.5887 14.595 30.3552 14.7227C30.1216 14.8504 29.9147 15.0367 29.7488 15.2685C29.5829 15.5003 29.4621 15.772 29.3948 16.0646C29.3275 16.3572 29.3155 16.6635 29.3594 16.9622C29.3804 17.0928 29.4089 17.2217 29.4447 17.3478" fill="#F5F5F5"/>
<path d="M51.985 26.7166H52.0144H52.0987H52.4273L53.6692 26.7079V26.7463C53.4812 26.6777 53.3082 26.5613 53.1626 26.4053C53.002 26.2256 52.8738 26.0097 52.7855 25.7704C52.687 25.5098 52.6111 25.2381 52.559 24.9595C52.5306 24.8144 52.5053 24.6668 52.4821 24.5156C52.4686 24.4389 52.4584 24.3615 52.4516 24.2837C52.4424 24.2048 52.4375 24.1253 52.4368 24.0456C52.4297 23.7146 52.4389 23.3834 52.4642 23.0536C52.4853 22.7163 52.5179 22.3704 52.5527 22.017C52.6243 21.3114 52.7139 20.5761 52.8202 19.8222C52.8645 19.501 52.9193 19.1823 52.9646 18.8711C53.0098 18.5598 53.0436 18.2511 53.0773 17.9436C53.111 17.636 53.1384 17.3384 53.1689 17.0446C53.1826 16.8982 53.1994 16.7532 53.2026 16.6106C53.2055 16.4692 53.1988 16.3278 53.1826 16.1877C53.152 15.9142 53.084 15.6483 52.9814 15.4003C52.8897 15.1679 52.7503 14.9659 52.5759 14.8126C52.4082 14.678 52.2031 14.6243 52.0029 14.6625C51.817 14.6896 51.6409 14.7753 51.493 14.9105C51.3623 15.0385 51.2548 15.1962 51.177 15.3743C51.1066 15.5335 51.0549 15.7033 51.0233 15.879C50.9718 16.1624 51.0011 16.4578 51.1065 16.7197C51.1709 16.8862 51.2485 17.0452 51.3382 17.1946L51.4098 17.3099C51.4256 17.336 51.433 17.3508 51.433 17.3508C51.433 17.3508 51.4225 17.3397 51.4046 17.3149L51.3298 17.202C51.2349 17.0552 51.1537 16.8969 51.0875 16.7296C50.9763 16.4638 50.9429 16.162 50.9927 15.8715C51.0239 15.6922 51.0756 15.5186 51.1465 15.3557C51.226 15.1709 51.3368 15.0072 51.472 14.8746C51.6246 14.7335 51.8064 14.6427 51.9986 14.6117C52.2097 14.5708 52.4261 14.6267 52.6033 14.7679C52.7847 14.9263 52.9295 15.1356 53.0246 15.3768C53.1284 15.6287 53.1967 15.8988 53.2268 16.1766C53.2438 16.3199 53.2512 16.4646 53.249 16.6093C53.249 16.7569 53.2289 16.902 53.2152 17.0495C53.1879 17.3434 53.1584 17.6435 53.1247 17.9498C53.0909 18.256 53.0562 18.5698 53.013 18.8798C52.9698 19.1898 52.9129 19.5084 52.8698 19.8308C52.7644 20.5835 52.6728 21.3188 52.6001 22.0219C52.5653 22.3741 52.5327 22.7188 52.5106 23.0561C52.4849 23.3817 52.4747 23.7087 52.48 24.0357C52.4808 24.1136 52.4854 24.1915 52.4937 24.2688C52.499 24.3457 52.5127 24.4226 52.5232 24.4982C52.5464 24.6482 52.5706 24.7958 52.599 24.9396C52.6488 25.2151 52.7222 25.4839 52.8181 25.7419C52.9038 25.9751 53.0281 26.1859 53.1836 26.3619C53.3243 26.5151 53.4919 26.6298 53.6745 26.698L53.7798 26.7376H53.6745L52.4326 26.729H52.104H52.0197L51.985 26.7166Z" fill="#263238"/>
<path d="M38.4107 15.3195C38.4191 15.327 38.3559 15.4249 38.2937 15.606C38.258 15.7112 38.2316 15.8205 38.2147 15.9321C38.1961 16.0694 38.1904 16.2087 38.1979 16.3475C38.208 16.4858 38.2317 16.6223 38.2685 16.7542C38.2991 16.8622 38.3394 16.9661 38.3885 17.0642C38.4739 17.2304 38.5486 17.3122 38.5413 17.3258C38.5339 17.3395 38.5181 17.3085 38.4844 17.27C38.4357 17.2153 38.3926 17.1541 38.3559 17.0878C38.3003 16.99 38.255 16.8847 38.2211 16.774C38.1361 16.5016 38.1168 16.2067 38.1652 15.9222C38.1848 15.8066 38.2159 15.6943 38.2579 15.5874C38.2863 15.515 38.3216 15.4468 38.3633 15.384C38.3896 15.3406 38.4075 15.317 38.4107 15.3195Z" fill="#263238"/>
<path d="M37.8871 14.4404C37.7832 14.5627 37.6901 14.6968 37.609 14.8409C37.416 15.1929 37.3448 15.6186 37.41 16.0304C37.4752 16.4423 37.672 16.8091 37.9597 17.0556C38.0791 17.1555 38.2065 17.2415 38.34 17.3123C38.3002 17.3055 38.2613 17.293 38.2241 17.2751C38.1214 17.2297 38.024 17.1688 37.9345 17.094C37.7832 16.9723 37.6539 16.8167 37.554 16.6359C37.4541 16.4552 37.3855 16.253 37.3522 16.0409C37.3189 15.8289 37.3216 15.6112 37.3601 15.4003C37.3985 15.1895 37.472 14.9897 37.5763 14.8124C37.6354 14.7049 37.7062 14.6069 37.787 14.521C37.817 14.4888 37.8507 14.4617 37.8871 14.4404Z" fill="#263238"/>
<path d="M49.733 34.2708H49.6646H49.4623L48.6839 34.277L45.8189 34.2931L36.3799 34.3031H32.2825V34.2721C32.2825 31.0977 32.2898 28.3672 32.293 26.4278C32.293 25.4606 32.2983 24.6918 32.3004 24.1611C32.3004 23.8995 32.3004 23.6961 32.3004 23.556C32.3004 23.489 32.3004 23.4382 32.3004 23.401C32.3004 23.3638 32.3004 23.3477 32.3004 23.3477C32.3004 23.3477 32.3004 23.365 32.3004 23.401C32.3004 23.4369 32.3004 23.489 32.3004 23.556C32.3004 23.6961 32.3004 23.8995 32.3004 24.1611C32.3004 24.6918 32.3004 25.4606 32.3078 26.4278C32.3078 28.3672 32.3141 31.0977 32.3183 34.2721L32.292 34.2411H36.3631L45.802 34.251L48.6629 34.2609L49.4413 34.2671H49.6435L49.733 34.2708Z" fill="#263238"/>
<path d="M35.4886 31.5713H33.7285V33.6433H35.4886V31.5713Z" fill="#159C9C"/>
<path d="M38.0685 30.0908H36.3083V33.6434H38.0685V30.0908Z" fill="#159C9C"/>
<path d="M40.6586 28.4082H38.8984V33.6435H40.6586V28.4082Z" fill="#159C9C"/>
<path d="M43.1695 26.5352H41.4094V33.6428H43.1695V26.5352Z" fill="#159C9C"/>
<path d="M45.7386 24.1387H43.9785V33.6433H45.7386V24.1387Z" fill="#159C9C"/>
<path d="M48.2889 22.3096H46.5288V33.5452H48.2889V22.3096Z" fill="#159C9C"/>
<path d="M33.7285 29.4448C33.7351 29.4367 33.7425 29.4296 33.7506 29.4237L33.8191 29.3679L34.0877 29.1571L35.0957 28.3747L38.5875 25.6876L38.6286 25.6566V25.7136C38.6286 26.0075 38.6286 26.3212 38.6286 26.6412L38.5865 26.6151L39.9621 25.5289L44.818 21.7097L46.2927 20.5577L46.695 20.2477L46.8004 20.1684L46.8372 20.1436C46.8268 20.1547 46.8155 20.1646 46.8035 20.1733L46.6982 20.2589L46.3011 20.5788L44.8412 21.7568L39.9958 25.5921L38.6191 26.6771L38.577 26.7106V25.7186L38.6181 25.7446L35.1147 28.4119L34.0982 29.1794L33.8254 29.3816L33.7548 29.4336L33.7285 29.4448Z" fill="#263238"/>
<path d="M46.8396 21.0239C46.8245 20.94 46.8181 20.8542 46.8206 20.7685C46.8206 20.6097 46.8132 20.389 46.8122 20.1485L46.8396 20.1807H46.7721C46.5467 20.1807 46.3424 20.1807 46.1949 20.1708C46.1148 20.1736 46.0346 20.1661 45.9558 20.1485C46.0345 20.1299 46.1147 20.122 46.1949 20.1249C46.3424 20.1249 46.5467 20.1162 46.7721 20.1162H46.8669V20.1447C46.8669 20.3927 46.8669 20.6122 46.8585 20.7647C46.8612 20.8517 46.8549 20.9387 46.8396 21.0239Z" fill="#263238"/>
<path d="M37.5406 35.9404C37.5406 35.959 36.997 35.9727 36.3261 35.9727C35.6551 35.9727 35.1116 35.959 35.1116 35.9404C35.1116 35.9218 35.6551 35.9082 36.3261 35.9082C36.997 35.9082 37.5406 35.9231 37.5406 35.9404Z" fill="#263238"/>
<path d="M36.2935 36.9206C36.257 36.6994 36.257 36.4721 36.2935 36.251C36.33 36.4721 36.33 36.6994 36.2935 36.9206Z" fill="#263238"/>
<path d="M39.2702 37.2568C39.2702 37.2742 37.8092 37.2891 36.0048 37.2891C34.2005 37.2891 32.7395 37.2742 32.7395 37.2568C32.7395 37.2395 34.1994 37.2246 36.0048 37.2246C37.8102 37.2246 39.2702 37.2382 39.2702 37.2568Z" fill="#263238"/>
<path d="M32.7911 38.2088C32.7545 37.9011 32.7545 37.5889 32.7911 37.2812C32.8276 37.5889 32.8276 37.9011 32.7911 38.2088Z" fill="#263238"/>
<path d="M35.1116 38.1062C35.0751 37.8417 35.0751 37.5721 35.1116 37.3076C35.1481 37.5721 35.1481 37.8417 35.1116 38.1062Z" fill="#263238"/>
<path d="M37.4974 38.1567C37.4608 37.8665 37.4608 37.5715 37.4974 37.2812C37.5339 37.5715 37.5339 37.8665 37.4974 38.1567Z" fill="#263238"/>
<path d="M39.3133 38.1564C39.2768 37.8574 39.2768 37.5538 39.3133 37.2549C39.3498 37.5538 39.3498 37.8574 39.3133 38.1564Z" fill="#263238"/>
<path d="M33.6002 38.4662C33.3385 38.4981 33.0753 38.5089 32.8123 38.4984C32.5494 38.5089 32.2861 38.4981 32.0244 38.4662C32.2861 38.4336 32.5494 38.4228 32.8123 38.434C33.0753 38.4228 33.3385 38.4336 33.6002 38.4662Z" fill="#263238"/>
<path d="M35.6151 38.4668C35.2146 38.5098 34.8116 38.5098 34.4111 38.4668C34.8116 38.4238 35.2146 38.4238 35.6151 38.4668Z" fill="#263238"/>
<path d="M38.1759 38.544C37.7462 38.5869 37.3142 38.5869 36.8845 38.544C37.3142 38.501 37.7462 38.501 38.1759 38.544Z" fill="#263238"/>
<path d="M40.255 38.4151C39.7962 38.458 39.3351 38.458 38.8762 38.4151C39.3351 38.3721 39.7962 38.3721 40.255 38.4151Z" fill="#263238"/>
<path d="M32.8133 39.3649C32.7768 39.1872 32.7768 39.0019 32.8133 38.8242C32.8498 39.0019 32.8498 39.1872 32.8133 39.3649Z" fill="#263238"/>
<path d="M34.3111 39.3643C34.3111 39.3816 33.6739 39.3965 32.8891 39.3965C32.1044 39.3965 31.4661 39.3816 31.4661 39.3643C31.4661 39.3469 32.1033 39.332 32.8891 39.332C33.6749 39.332 34.3111 39.3494 34.3111 39.3643Z" fill="#263238"/>
<path d="M34.3111 40.1407C34.2746 39.885 34.2746 39.6239 34.3111 39.3682C34.3476 39.6239 34.3476 39.885 34.3111 40.1407Z" fill="#263238"/>
<path d="M31.4661 40.1928C31.4296 39.9196 31.4296 39.6413 31.4661 39.3682C31.5026 39.6413 31.5026 39.9196 31.4661 40.1928Z" fill="#263238"/>
<path d="M37.5555 39.3649C37.5189 39.1872 37.5189 39.0019 37.5555 38.8242C37.592 39.0019 37.592 39.1872 37.5555 39.3649Z" fill="#263238"/>
<path d="M41.0146 39.3643C41.0146 39.3816 39.9381 39.3965 38.6109 39.3965C37.2837 39.3965 36.2083 39.3816 36.2083 39.3643C36.2083 39.3469 37.2837 39.332 38.6109 39.332C39.9381 39.332 41.0146 39.3494 41.0146 39.3643Z" fill="#263238"/>
<path d="M39.0533 40.1407C39.0167 39.885 39.0167 39.6239 39.0533 39.3682C39.0898 39.6239 39.0898 39.885 39.0533 40.1407Z" fill="#263238"/>
<path d="M41.1126 40.1407C41.0761 39.885 41.0761 39.6239 41.1126 39.3682C41.1491 39.6239 41.1491 39.885 41.1126 40.1407Z" fill="#263238"/>
<path d="M36.2081 40.1928C36.1715 39.9196 36.1715 39.6413 36.2081 39.3682C36.2446 39.6413 36.2446 39.9196 36.2081 40.1928Z" fill="#263238"/>
<path d="M32.0265 40.668C31.6538 40.711 31.2785 40.711 30.9058 40.668C31.2785 40.625 31.6538 40.625 32.0265 40.668Z" fill="#263238"/>
<path d="M34.8135 40.5733C34.4102 40.6162 34.0044 40.6162 33.6011 40.5733C34.0044 40.5303 34.4102 40.5303 34.8135 40.5733Z" fill="#263238"/>
<path d="M36.8265 40.5733C36.4718 40.6162 36.1143 40.6162 35.7595 40.5733C36.1143 40.5303 36.4718 40.5303 36.8265 40.5733Z" fill="#263238"/>
<path d="M39.541 40.5733C39.1556 40.6164 38.7677 40.6164 38.3823 40.5733C38.7677 40.5302 39.1556 40.5302 39.541 40.5733Z" fill="#263238"/>
<path d="M41.7107 40.4883C41.3197 40.5313 40.9261 40.5313 40.5352 40.4883C40.9261 40.4453 41.3197 40.4453 41.7107 40.4883Z" fill="#263238"/>
<path d="M49.716 40.9905H42.2869V35.5742H49.716V40.9905ZM42.2911 40.9843H49.716V35.5804H42.2921L42.2911 40.9843Z" fill="#263238"/>
<path d="M47.9253 39.4885C47.4103 39.2591 46.8183 39.894 46.3127 39.6349C46.0199 39.4848 45.8861 39.093 45.7418 38.7569C45.5975 38.4209 45.3499 38.0638 45.0318 38.1035C44.7137 38.1431 44.4504 38.5809 44.1397 38.4755C43.9437 38.4085 43.8468 38.1531 43.7973 37.9199C43.7478 37.6868 43.7141 37.4301 43.5645 37.2665C43.415 37.1028 43.1053 37.1425 43.0811 37.3905V40.2586H48.8881C48.8881 40.2586 48.1002 39.5679 47.9253 39.4885Z" fill="#159C9C"/>
<path d="M49.04 40.2534C49.04 40.2596 47.6327 40.2645 45.8968 40.2645C44.1609 40.2645 42.7537 40.2645 42.7537 40.2534C42.7537 40.2422 44.1609 40.2422 45.8968 40.2422C47.6327 40.2422 49.04 40.2472 49.04 40.2534Z" fill="#E0E0E0"/>
<path d="M49.04 39.0014C49.04 39.0076 47.6327 39.0126 45.8968 39.0126C44.1609 39.0126 42.7537 39.0126 42.7537 39.0014C42.7537 38.9902 44.1609 38.9902 45.8968 38.9902C47.6327 38.9902 49.04 38.9927 49.04 39.0014Z" fill="#263238"/>
<path d="M49.04 37.7524C49.04 37.7524 47.6327 37.7623 45.8968 37.7623C44.1609 37.7623 42.7537 37.7623 42.7537 37.7524C42.7537 37.7425 44.1609 37.7412 45.8968 37.7412C47.6327 37.7412 49.04 37.7425 49.04 37.7524Z" fill="#263238"/>
<path d="M49.04 36.5571C49.04 36.5571 47.6327 36.5682 45.8968 36.5682C44.1609 36.5682 42.7537 36.5682 42.7537 36.5571C42.7537 36.5459 44.1609 36.5459 45.8968 36.5459C47.6327 36.5459 49.04 36.5509 49.04 36.5571Z" fill="#263238"/>
<path d="M32.3141 19.1887C32.3141 19.1887 32.3141 19.1887 32.3246 19.1887H32.3541C32.393 19.1885 32.4318 19.1927 32.47 19.2011C32.531 19.2138 32.59 19.2377 32.6448 19.2718C32.718 19.3178 32.7816 19.3822 32.8313 19.4603C32.8928 19.5552 32.935 19.6655 32.9545 19.7827C32.9711 19.9192 32.9562 20.0584 32.9113 20.1857C32.8882 20.2548 32.8596 20.3212 32.826 20.3841C32.791 20.4489 32.759 20.516 32.7302 20.585C32.6689 20.7303 32.6256 20.8852 32.6017 21.045V21.0562H32.5922L32.3173 21.0487L32.0286 21.0401H32.0202V21.0277C32.0131 20.8671 31.9722 20.7112 31.9012 20.5738C31.8706 20.5044 31.8359 20.4399 31.8032 20.3742C31.77 20.3122 31.7397 20.248 31.7126 20.182C31.6654 20.0556 31.6547 19.9145 31.6821 19.7802C31.7022 19.6645 31.7428 19.5551 31.8011 19.4591C31.8498 19.3824 31.9129 19.32 31.9855 19.2768C32.0403 19.2441 32.0988 19.2207 32.1593 19.2073C32.197 19.1977 32.2354 19.1919 32.2741 19.19H32.3036C32.3109 19.19 32.3141 19.19 32.3141 19.19H32.3036H32.2741C32.2361 19.1935 32.1984 19.2005 32.1614 19.2111C32.102 19.2261 32.0447 19.2503 31.9907 19.283C31.9191 19.3268 31.8568 19.3891 31.8085 19.4653C31.7527 19.5603 31.7143 19.668 31.6958 19.7815C31.6694 19.9113 31.6801 20.0477 31.7263 20.1696C31.7535 20.2347 31.7838 20.2981 31.8169 20.3593C31.8496 20.4238 31.8843 20.4895 31.9159 20.5589C31.989 20.6999 32.0307 20.8602 32.0371 21.0252L32.0276 21.0115L32.3162 21.0202L32.5911 21.0289L32.5806 21.0388C32.6054 20.877 32.6494 20.7201 32.7112 20.5726C32.7407 20.5031 32.7734 20.4356 32.8092 20.3705C32.8424 20.3089 32.8706 20.2437 32.8934 20.1758C32.9385 20.052 32.9538 19.916 32.9377 19.7827C32.9192 19.6687 32.8792 19.5611 32.8207 19.4677C32.7724 19.3898 32.7107 19.3248 32.6396 19.2768C32.5861 19.2426 32.5286 19.218 32.4689 19.2036C32.4311 19.1949 32.3927 19.1895 32.3541 19.1875H32.3236L32.3141 19.1887Z" fill="#263238"/>
<path d="M32.3941 21.0126C32.3943 21.0089 32.3943 21.0052 32.3941 21.0015V20.9717C32.3941 20.9444 32.3877 20.9047 32.3825 20.8477C32.3741 20.7448 32.3604 20.5997 32.354 20.4125C32.354 20.3666 32.354 20.3182 32.354 20.2686C32.354 20.219 32.354 20.1657 32.354 20.1112C32.3572 20.0547 32.3697 19.9995 32.3909 19.9487C32.4139 19.893 32.4531 19.849 32.5015 19.8247C32.5274 19.8139 32.5554 19.8121 32.5821 19.8195C32.6088 19.827 32.6332 19.8435 32.6521 19.8669C32.662 19.8789 32.6696 19.893 32.6747 19.9086C32.6798 19.9241 32.6821 19.9407 32.6816 19.9574C32.6797 19.9915 32.6686 20.0241 32.65 20.0504C32.6309 20.0764 32.6072 20.0971 32.5805 20.1112C32.5538 20.1244 32.5259 20.134 32.4973 20.1397C32.3801 20.162 32.2606 20.162 32.1434 20.1397C32.1147 20.134 32.087 20.1231 32.0612 20.1074C32.035 20.0926 32.0117 20.0714 31.9927 20.0454C31.9736 20.0202 31.9605 19.9893 31.9548 19.9562C31.9502 19.923 31.955 19.889 31.9685 19.8594C31.9814 19.8298 32.0032 19.8069 32.0296 19.7949C32.0426 19.7899 32.0563 19.7881 32.0699 19.7896C32.0835 19.7911 32.0967 19.7958 32.1086 19.8036C32.132 19.8178 32.1517 19.8392 32.1655 19.8656C32.1787 19.8911 32.1876 19.9193 32.1918 19.9487C32.1987 20.0041 32.2016 20.0601 32.2002 20.1161C32.2002 20.224 32.2002 20.3257 32.2002 20.4174C32.2002 20.6009 32.2002 20.7497 32.2002 20.8527V21.0126C32.2005 21.0093 32.2005 21.006 32.2002 21.0027V20.9717C32.2002 20.9444 32.2002 20.9031 32.2002 20.8477C32.2002 20.7448 32.2002 20.5997 32.1939 20.4125C32.1939 20.3207 32.1939 20.2203 32.1939 20.1112C32.1953 20.0556 32.1924 20 32.1855 19.945C32.1814 19.9169 32.1728 19.89 32.1602 19.8656C32.1468 19.8407 32.1279 19.8206 32.1054 19.8073C32.0945 19.8 32.0823 19.7956 32.0698 19.7943C32.0573 19.793 32.0446 19.7949 32.0328 19.7999C32.0086 19.811 31.9887 19.8322 31.9769 19.8594C31.9643 19.8867 31.9598 19.9181 31.9643 19.9487C31.9699 19.9803 31.9822 20.0098 32.0001 20.0343C32.0389 20.083 32.0905 20.1149 32.1465 20.1248C32.2042 20.1372 32.2627 20.1435 32.3214 20.1434C32.38 20.1449 32.4386 20.1395 32.4962 20.1273C32.5246 20.1227 32.5522 20.1135 32.5784 20.1C32.6038 20.0869 32.6264 20.0674 32.6448 20.0429C32.6621 20.0184 32.6724 19.988 32.6742 19.9562C32.6749 19.9406 32.6728 19.9251 32.6681 19.9106C32.6634 19.8961 32.6562 19.8829 32.6469 19.8718C32.6291 19.8499 32.6063 19.8345 32.5813 19.8275C32.5562 19.8205 32.53 19.8221 32.5057 19.8322C32.4597 19.8546 32.4223 19.896 32.4004 19.9487C32.379 19.9981 32.3665 20.0521 32.3635 20.1074C32.3635 20.1607 32.3635 20.2128 32.3582 20.2637C32.353 20.3145 32.3582 20.3616 32.3582 20.4075C32.3635 20.591 32.3762 20.7398 32.3835 20.8415C32.3835 20.8924 32.3909 20.932 32.3941 20.9655V20.9953V21.0126Z" fill="#263238"/>
<path d="M32.0274 21.0127C32.0274 21.0127 32.0274 21.0536 32.0274 21.1218C32.0274 21.19 32.0274 21.2954 32.0274 21.4058L32.2065 21.6687H32.197H32.414H32.4055L32.5182 21.5186L32.5751 21.4442V21.4541C32.5751 21.3041 32.5751 21.1627 32.5814 21.0338L32.593 21.0474L32.1875 21.0325H32.0706H32.0274C32.04 21.0305 32.0527 21.0305 32.0653 21.0325H32.1801H32.6015V21.0462C32.6015 21.1702 32.6015 21.3165 32.6015 21.4665L32.5446 21.5422L32.4319 21.691H32.4266H32.2086L32.02 21.4169C32.02 21.3041 32.0253 21.2074 32.0274 21.1255C32.0247 21.088 32.0247 21.0502 32.0274 21.0127Z" fill="#263238"/>
<path d="M32.5742 21.4119L32.5531 21.4007C32.5355 21.3897 32.5172 21.3802 32.4984 21.3722C32.4363 21.3432 32.3702 21.3281 32.3035 21.3276C32.237 21.3267 32.171 21.3401 32.1086 21.3672C32.0896 21.3749 32.0709 21.3841 32.0528 21.3945L32.0317 21.4057C32.0374 21.3997 32.0438 21.3946 32.0507 21.3908L32.1065 21.3598C32.1694 21.3312 32.2361 21.3165 32.3035 21.3164C32.3712 21.3177 32.438 21.3341 32.5005 21.3648C32.5193 21.3742 32.5375 21.385 32.5552 21.397C32.5622 21.4008 32.5685 21.4059 32.5742 21.4119Z" fill="#263238"/>
<path d="M32.5773 21.3103L32.5573 21.2979L32.5015 21.2694C32.4391 21.2416 32.3732 21.2265 32.3066 21.2248C32.2401 21.2249 32.1741 21.2387 32.1117 21.2657C32.0926 21.2734 32.074 21.2825 32.0559 21.293L32.0359 21.3029L32.0548 21.2893C32.0723 21.277 32.0906 21.2666 32.1096 21.2583C32.1726 21.2289 32.2399 21.2142 32.3077 21.2149C32.375 21.2163 32.4414 21.2327 32.5036 21.2632C32.5225 21.2722 32.5409 21.283 32.5583 21.2955C32.5652 21.2993 32.5716 21.3043 32.5773 21.3103Z" fill="#263238"/>
<path d="M32.5751 21.2124C32.5681 21.2096 32.5614 21.2058 32.5551 21.2012C32.537 21.1902 32.5184 21.1807 32.4993 21.1727C32.3737 21.1165 32.235 21.1165 32.1095 21.1727C32.0864 21.1826 32.0674 21.1925 32.0537 21.2L32.0337 21.2111L32.0527 21.1963C32.0653 21.1888 32.0842 21.1777 32.1074 21.1665C32.1704 21.1368 32.2377 21.122 32.3054 21.1231C32.3731 21.1236 32.44 21.1396 32.5024 21.1702C32.5256 21.1826 32.5446 21.1938 32.5572 21.2025L32.5751 21.2124Z" fill="#263238"/>
<path d="M34.5871 23.8818C34.5871 23.8818 34.3765 26.1696 34.6472 27.422L37.2436 27.2881C37.2436 27.2881 36.6875 25.0326 37.033 24.0331L34.5871 23.8818Z" fill="#EBEBEB"/>
<path d="M34.5977 23.8086C34.5977 23.8086 34.6156 26.2787 34.7219 27.0326L37.3553 26.8863C37.3553 26.8863 37.1235 24.4584 37.2131 23.8098L34.5977 23.8086Z" fill="#159C9C"/>
<path d="M36.8137 24.8466C36.8137 24.8578 36.4198 24.895 35.9321 24.9297C35.4444 24.9644 35.0494 24.983 35.0483 24.9706C35.0473 24.9582 35.4423 24.9223 35.93 24.8875C36.4177 24.8528 36.8137 24.8342 36.8137 24.8466Z" fill="white"/>
<path d="M36.8149 25.3685C36.8149 25.3809 36.421 25.4181 35.9333 25.4515C35.4456 25.485 35.0496 25.5049 35.0496 25.4937C35.0496 25.4825 35.4435 25.4453 35.9312 25.4106C36.4189 25.3759 36.8139 25.3523 36.8149 25.3685Z" fill="white"/>
<path d="M36.3673 25.8831C36.3194 25.898 36.2703 25.9063 36.2208 25.9079C36.1303 25.9179 36.0049 25.929 35.8659 25.9389C35.7268 25.9489 35.6004 25.9551 35.5098 25.9575C35.4606 25.9652 35.4106 25.9652 35.3613 25.9575C35.4091 25.9421 35.4582 25.9338 35.5077 25.9327C35.5994 25.9228 35.7247 25.9117 35.8638 25.9017C36.0028 25.8918 36.1282 25.8844 36.2198 25.8819C36.2688 25.8749 36.3184 25.8753 36.3673 25.8831Z" fill="white"/>
<path d="M40.5965 19.7988C40.5965 19.8174 39.0575 19.8311 37.1594 19.8311C35.2613 19.8311 33.7224 19.8174 33.7224 19.7988C33.7224 19.7802 35.2613 19.7666 37.1594 19.7666C39.0575 19.7666 40.5965 19.7815 40.5965 19.7988Z" fill="#263238"/>
<path d="M36.247 20.5361C36.247 20.5547 35.6698 20.5684 34.9577 20.5684C34.2457 20.5684 33.6685 20.5547 33.6685 20.5361C33.6685 20.5175 34.2457 20.5039 34.9577 20.5039C35.6698 20.5039 36.247 20.5163 36.247 20.5361Z" fill="#263238"/>
<path d="M37.6164 20.5361C37.286 20.5791 36.9525 20.5791 36.6221 20.5361C36.9525 20.4932 37.286 20.4932 37.6164 20.5361Z" fill="#263238"/>
<path d="M51.9849 28.3164C51.9839 28.307 51.9839 28.2974 51.9849 28.2879C51.9849 28.2656 51.9849 28.2383 51.9786 28.2048C51.9733 28.1267 51.966 28.0201 51.9565 27.8862C51.9407 27.6022 51.9175 27.2029 51.8891 26.7119C51.8364 25.7137 51.7637 24.346 51.6837 22.8344C51.6036 21.3228 51.5446 19.9539 51.4951 18.9557C51.4741 18.4597 51.4572 18.0641 51.4446 17.7802C51.4446 17.6462 51.4361 17.5396 51.434 17.4602C51.434 17.4268 51.434 17.3995 51.434 17.3772C51.4325 17.3677 51.4325 17.3581 51.434 17.3486C51.4344 17.3581 51.4344 17.3677 51.434 17.3772L51.4404 17.4602C51.4456 17.5384 51.453 17.645 51.4614 17.7789C51.4783 18.0629 51.5014 18.4622 51.5299 18.9532C51.5826 19.9452 51.6552 21.3191 51.7342 22.8307C51.8132 24.3422 51.8743 25.7112 51.9228 26.7082C51.9449 27.2042 51.9618 27.601 51.9744 27.8849C51.9744 28.0188 51.9828 28.1255 51.9849 28.2048C51.9849 28.2383 51.9849 28.2656 51.9849 28.2879C51.9865 28.2973 51.9865 28.307 51.9849 28.3164Z" fill="#263238"/>
<path d="M51.4298 14.5431H51.3687H51.1896H50.4997H47.9664L39.604 14.5443L30.9509 14.5121C30.5208 14.6367 30.1356 14.9195 29.8512 15.3193C29.6386 15.6193 29.4917 15.9761 29.4236 16.3584C29.3798 16.5982 29.366 16.8443 29.3825 17.0888C29.3888 17.1719 29.3951 17.2351 29.4014 17.2773C29.4049 17.2986 29.4073 17.3201 29.4088 17.3418C29.3911 17.2603 29.3788 17.1774 29.3719 17.0938C29.3507 16.8478 29.3614 16.5994 29.4036 16.3572C29.4681 15.97 29.6128 15.6075 29.8249 15.302C30.1115 14.8926 30.5021 14.6023 30.9393 14.4736L39.5935 14.486L47.9517 14.517L50.486 14.5344L51.1749 14.5418H51.354L51.4298 14.5431Z" fill="#263238"/>
<path d="M53.8547 62.3888L53.683 64.9345C53.683 64.9345 51.5468 65.743 51.5342 66.2142L55.7138 66.2786L55.837 62.3838L53.8547 62.3888Z" fill="#E45D4D"/>
<path d="M54.9711 64.6763C55.0117 64.6894 55.0469 64.7196 55.0698 64.7612C55.0927 64.8028 55.1018 64.8529 55.0954 64.9019C55.0856 64.9499 55.0606 64.9917 55.0256 65.0189C54.9906 65.046 54.9482 65.0565 54.9069 65.0483C54.863 65.0355 54.8248 65.0039 54.7998 64.9596C54.7748 64.9152 54.7649 64.8615 54.772 64.8089C54.7867 64.7602 54.8168 64.72 54.8561 64.6969C54.8954 64.6737 54.9408 64.6695 54.9827 64.6849" fill="#EBEBEB"/>
<path d="M55.7137 66.2791L55.7053 65.8848L51.7469 65.9133C51.7469 65.9133 51.5204 66.072 51.5267 66.2258L55.7137 66.2791Z" fill="#EBEBEB"/>
<path d="M53.6133 64.9077C53.6133 64.9313 53.7186 64.9387 53.8239 65.0131C53.9293 65.0875 53.983 65.1855 54.0009 65.1756C54.0188 65.1656 53.9862 65.0268 53.8608 64.94C53.7355 64.8532 53.6133 64.8904 53.6133 64.9077Z" fill="#263238"/>
<path d="M53.1816 65.1418C53.1816 65.1653 53.267 65.2025 53.3386 65.3017C53.4102 65.4009 53.4334 65.5076 53.4545 65.5063C53.4755 65.5051 53.4839 65.3675 53.3923 65.2459C53.3007 65.1244 53.1816 65.1182 53.1816 65.1418Z" fill="#263238"/>
<path d="M52.9477 65.7687C52.9667 65.7687 52.9919 65.6521 52.9361 65.5207C52.8803 65.3893 52.7834 65.3421 52.776 65.3632C52.7686 65.3843 52.8287 65.4513 52.8729 65.5591C52.9172 65.667 52.9277 65.7675 52.9477 65.7687Z" fill="#263238"/>
<path d="M53.6365 64.3307C53.646 64.3518 53.7418 64.3158 53.8545 64.3208C53.9672 64.3257 54.0652 64.3654 54.0715 64.3443C54.0778 64.3233 53.9925 64.2402 53.8608 64.2365C53.7292 64.2327 53.6259 64.3121 53.6365 64.3307Z" fill="#263238"/>
<path d="M53.6133 63.8189C53.6828 63.8391 53.7558 63.8361 53.8239 63.8102C53.8994 63.7922 53.9727 63.763 54.042 63.7234C54.0829 63.7003 54.1223 63.6738 54.16 63.6441C54.183 63.6274 54.2039 63.6069 54.2221 63.5833C54.2332 63.5653 54.2392 63.5436 54.2392 63.5213C54.2392 63.499 54.2332 63.4773 54.2221 63.4593C54.2115 63.4429 54.1978 63.4296 54.1821 63.4206C54.1664 63.4115 54.149 63.4069 54.1315 63.4072C54.105 63.4081 54.0787 63.4135 54.0536 63.4234C54.009 63.4379 53.9657 63.4569 53.924 63.4804C53.8543 63.52 53.7906 63.5728 53.7355 63.6366C53.6407 63.7458 53.6101 63.8363 53.6175 63.8412C53.6249 63.8462 53.6723 63.7718 53.7681 63.68C53.8248 63.6279 53.8867 63.5842 53.9525 63.5498C53.991 63.5304 54.0308 63.5147 54.0715 63.5027C54.1147 63.4866 54.1526 63.4854 54.1652 63.5027C54.1779 63.5201 54.1652 63.5151 54.1652 63.5312C54.1516 63.5477 54.1364 63.5623 54.1199 63.5746C54.0862 63.6032 54.051 63.6293 54.0146 63.6528C53.9508 63.6933 53.8837 63.7266 53.8145 63.752C53.7462 63.7688 53.679 63.7912 53.6133 63.8189Z" fill="#263238"/>
<path d="M53.6438 63.8525C53.6815 63.7805 53.6985 63.6962 53.6923 63.6119C53.6939 63.5206 53.6821 63.4295 53.6575 63.3428C53.642 63.2917 53.6226 63.2424 53.5996 63.1953C53.5881 63.1622 53.5694 63.1333 53.5453 63.1115C53.5213 63.0898 53.4927 63.0759 53.4626 63.0713C53.444 63.0722 53.426 63.0795 53.4109 63.0923C53.3957 63.1051 53.3841 63.1228 53.3773 63.1432C53.3675 63.1722 53.3612 63.2027 53.3584 63.2337C53.3509 63.2888 53.3509 63.3448 53.3584 63.3999C53.3728 63.4905 53.4057 63.5756 53.4542 63.6479C53.5395 63.7719 53.6249 63.7979 53.627 63.7905C53.6291 63.783 53.5606 63.7334 53.4953 63.6132C53.4571 63.5439 53.4323 63.4656 53.4226 63.3838C53.4173 63.3364 53.4173 63.2885 53.4226 63.2412C53.4226 63.1891 53.4437 63.1457 53.4605 63.1506C53.4774 63.1556 53.5174 63.1878 53.5364 63.2288C53.5576 63.2708 53.5759 63.3147 53.5912 63.3602C53.6165 63.4399 53.6325 63.5234 53.6386 63.6082C53.6522 63.7582 53.6322 63.8488 53.6438 63.8525Z" fill="#263238"/>
<path d="M62.8922 61.9648L63.3746 64.9408L64.3331 67.1629C64.3494 67.2008 64.359 67.2422 64.3611 67.2845C64.3633 67.3269 64.358 67.3693 64.3457 67.4092C64.3333 67.4491 64.3141 67.4855 64.2893 67.5163C64.2645 67.5471 64.2346 67.5716 64.2015 67.5882C64.1628 67.6079 64.1207 67.6162 64.0787 67.6125C64.0367 67.6089 63.996 67.5933 63.9603 67.5672C63.4978 67.2311 61.8009 65.9862 61.7756 65.7654C61.7472 65.5174 61.0889 62.6654 61.0889 62.6654L62.8922 61.9648Z" fill="#E45D4D"/>
<path d="M64.2015 67.5859L61.7388 65.5635L61.7619 65.6875C61.7815 65.7961 61.8335 65.8928 61.9084 65.9603C62.1085 66.1413 62.6699 66.6249 63.9529 67.5661C63.9898 67.5931 64.0318 67.6089 64.0752 67.6122C64.1186 67.6154 64.1619 67.606 64.2015 67.5847V67.5859Z" fill="#EBEBEB"/>
<path d="M62.0822 64.692C62.118 64.7107 62.1468 64.7443 62.1627 64.7865C62.1787 64.8287 62.1807 64.8763 62.1685 64.9202C62.1539 64.9631 62.1259 64.9976 62.0902 65.0168C62.0545 65.036 62.0139 65.0382 61.9768 65.0231C61.9379 65.0029 61.907 64.966 61.8902 64.9201C61.8734 64.8741 61.872 64.8223 61.8862 64.7751C61.9058 64.7323 61.9386 64.7 61.9778 64.685C62.0171 64.67 62.0597 64.6734 62.0969 64.6945" fill="#EBEBEB"/>
<path d="M63.3904 66.4388C63.4339 66.3309 63.4943 66.2338 63.5685 66.1523C63.6533 66.0867 63.7475 66.0397 63.8465 66.0135C63.8465 66.006 63.8107 65.9911 63.7507 65.9961C63.6714 66.0056 63.596 66.0417 63.5337 66.1003C63.4707 66.1578 63.4234 66.2358 63.3978 66.3247C63.3799 66.3954 63.3841 66.4375 63.3904 66.4388Z" fill="#263238"/>
<path d="M63.6422 66.7898C63.6559 66.7998 63.7191 66.6832 63.8413 66.6063C63.919 66.5676 63.9985 66.5341 64.0794 66.5059C64.0354 66.4878 63.9885 66.4821 63.9423 66.4894C63.8962 66.4968 63.8522 66.5169 63.8139 66.548C63.6749 66.6361 63.6275 66.7849 63.6422 66.7898Z" fill="#263238"/>
<path d="M62.9639 66.0154C63.0546 65.9047 63.1521 65.8019 63.2556 65.7079C63.3693 65.6319 63.4876 65.566 63.6096 65.5107C63.4722 65.5135 63.3385 65.5625 63.224 65.652C63.1096 65.7414 63.0193 65.8675 62.9639 66.0154Z" fill="#263238"/>
<path d="M62.7532 65.1263C62.7627 65.1424 62.8891 65.0395 63.0692 64.985C63.2493 64.9304 63.401 64.9465 63.4031 64.9267C63.2895 64.8882 63.1692 64.8865 63.0549 64.9216C62.9405 64.9567 62.8363 65.0274 62.7532 65.1263Z" fill="#263238"/>
<path d="M62.593 64.2582C62.6944 64.1882 62.8036 64.1352 62.9174 64.1008C63.0347 64.0871 63.153 64.0917 63.2693 64.1144C63.2693 64.1082 63.2377 64.0772 63.1723 64.0524C63.0865 64.0223 62.9958 64.0164 62.9076 64.0351C62.8194 64.0539 62.7362 64.0967 62.6646 64.1603C62.6109 64.2099 62.5877 64.252 62.593 64.2582Z" fill="#263238"/>
<path d="M62.8828 63.9371C62.8828 63.9371 62.8828 63.895 62.8659 63.8243C62.8395 63.7235 62.7957 63.6303 62.7374 63.5502C62.6991 63.4873 62.6443 63.4407 62.5815 63.4176C62.5603 63.4122 62.5382 63.4147 62.5182 63.4246C62.4982 63.4346 62.4813 63.4516 62.4699 63.4734C62.4497 63.5174 62.444 63.5686 62.4541 63.6172C62.478 63.7153 62.5302 63.8006 62.6017 63.8583C62.6732 63.916 62.7596 63.9425 62.8459 63.9334C62.9311 63.9221 63.0114 63.8813 63.0769 63.8162C63.1423 63.7511 63.1899 63.6646 63.2135 63.5676C63.2201 63.5432 63.2221 63.5174 63.2196 63.492C63.2171 63.4665 63.21 63.442 63.1988 63.42C63.1847 63.4004 63.1658 63.3864 63.1447 63.3799C63.1235 63.3735 63.1012 63.3749 63.0808 63.3841C63.0223 63.4159 62.9719 63.465 62.9344 63.5267C62.8778 63.6083 62.834 63.7011 62.8048 63.8007C62.7916 63.8358 62.7847 63.8739 62.7848 63.9123C62.83 63.7845 62.8907 63.665 62.9649 63.5577C62.9989 63.504 63.0438 63.4614 63.0956 63.4337C63.1067 63.4286 63.1189 63.4279 63.1304 63.4314C63.1419 63.435 63.1522 63.4427 63.1598 63.4535C63.1665 63.4682 63.1706 63.4844 63.1719 63.501C63.1731 63.5176 63.1715 63.5344 63.1672 63.5502C63.1449 63.632 63.1034 63.7046 63.0475 63.7597C62.9915 63.8148 62.9235 63.8501 62.8512 63.8615C62.7784 63.869 62.7057 63.8472 62.6448 63.7997C62.584 63.7521 62.5386 63.6817 62.5162 63.5998C62.5079 63.5662 62.5101 63.5301 62.5225 63.4982C62.5288 63.4861 62.5379 63.4766 62.5488 63.4708C62.5597 63.4651 62.5719 63.4634 62.5836 63.4659C62.6368 63.4857 62.6835 63.5242 62.7174 63.5763C62.7908 63.6836 62.8469 63.8059 62.8828 63.9371Z" fill="#263238"/>
<path d="M53.8241 38.9913C53.7978 38.9913 53.4775 63.9339 53.4775 63.9339L56.0382 63.8298L56.924 51.5662L57.1347 42.5638L58.8801 50.8953L61.0531 63.9637L63.6096 63.2085L60.3548 38.8326L57.2917 38.1357L53.8241 38.9913Z" fill="#263238"/>
<path d="M59.3909 23.5847C59.6974 22.8729 59.7933 21.5932 59.4425 20.8852C59.0918 20.1771 58.3797 19.665 57.7119 19.4319C57.6022 19.3831 57.4825 19.3745 57.3685 19.4071C57.3124 19.4258 57.2645 19.4688 57.2344 19.5275C57.2043 19.5862 57.1942 19.6562 57.2063 19.7233C57.0801 19.602 56.9377 19.5061 56.785 19.4393C56.7087 19.4071 56.6269 19.3973 56.5467 19.4107C56.4665 19.4241 56.3903 19.4603 56.3247 19.5162C56.2936 19.5458 56.2678 19.5823 56.2488 19.6236C56.2297 19.665 56.2178 19.7104 56.2137 19.7571C56.2096 19.8039 56.2134 19.8512 56.2248 19.8962C56.2363 19.9413 56.2552 19.9832 56.2804 20.0197C56.1877 19.9727 56.0854 19.9581 55.9858 19.9776C55.8862 19.9972 55.7934 20.05 55.7186 20.1299C55.6438 20.2097 55.59 20.3132 55.5638 20.428C55.5375 20.5428 55.5398 20.664 55.5705 20.7773C55.6489 21.0112 55.7643 21.2254 55.9107 21.4085C56.0434 21.5746 56.0561 21.7358 56.016 21.9603" fill="#263238"/>
<path d="M56.866 29.4512C56.885 29.109 56.9324 26.0164 56.9313 26.0028C56.9303 25.9891 55.9559 25.8602 55.9138 24.7181C55.8938 24.1663 55.9306 23.0268 55.9738 21.9963C55.9961 21.4623 56.1882 20.9577 56.5119 20.5828C56.8357 20.2079 57.2674 19.9901 57.7213 19.9727H57.8151C58.8263 20.0049 59.3677 21.0341 59.3118 22.2233L59.1739 28.8411" fill="#FFBE9D"/>
<path d="M56.9315 26.0027C57.3799 25.9849 57.8145 25.8162 58.1839 25.5166C58.1839 25.5166 57.8921 26.2308 56.9199 26.1639L56.9315 26.0027Z" fill="#EB996E"/>
<path d="M56.1414 22.7679C56.1424 22.8104 56.1574 22.8507 56.1831 22.8805C56.2088 22.9103 56.2433 22.9273 56.2793 22.9279C56.297 22.9289 56.3147 22.9257 56.3313 22.9185C56.348 22.9114 56.3632 22.9004 56.3762 22.8861C56.3891 22.8719 56.3995 22.8548 56.4068 22.8358C56.414 22.8168 56.418 22.7962 56.4184 22.7754C56.4182 22.7542 56.4146 22.7333 56.4076 22.7138C56.4005 22.6943 56.3903 22.6766 56.3775 22.6617C56.3647 22.6469 56.3495 22.6352 56.3329 22.6272C56.3162 22.6193 56.2984 22.6153 56.2804 22.6154C56.2627 22.6144 56.245 22.6176 56.2284 22.6248C56.2118 22.6319 56.1965 22.643 56.1836 22.6572C56.1706 22.6714 56.1602 22.6885 56.1529 22.7075C56.1457 22.7266 56.1418 22.7471 56.1414 22.7679Z" fill="#263238"/>
<path d="M56.1972 22.5478C56.2151 22.5676 56.3172 22.4722 56.4668 22.4672C56.6164 22.4622 56.727 22.5466 56.7428 22.5242C56.7586 22.5019 56.7322 22.4771 56.6827 22.4374C56.617 22.3873 56.5398 22.3622 56.4615 22.3655C56.385 22.3691 56.3113 22.4007 56.2509 22.456C56.2024 22.4994 56.1887 22.5379 56.1972 22.5478Z" fill="#263238"/>
<path d="M57.6309 22.7923C57.6317 22.8348 57.6465 22.8753 57.6723 22.9052C57.6981 22.935 57.7327 22.9519 57.7688 22.9522C57.7866 22.9534 57.8043 22.9503 57.821 22.9432C57.8377 22.9361 57.853 22.9251 57.866 22.9109C57.879 22.8966 57.8894 22.8794 57.8966 22.8603C57.9038 22.8412 57.9076 22.8206 57.9079 22.7997C57.9071 22.7571 57.8922 22.7166 57.8664 22.6868C57.8407 22.6569 57.8061 22.64 57.7699 22.6397C57.7343 22.6384 57.6997 22.6537 57.6737 22.6822C57.6476 22.7108 57.6322 22.7504 57.6309 22.7923Z" fill="#263238"/>
<path d="M57.6634 22.5273C57.6813 22.5471 57.7845 22.4516 57.933 22.4467C58.0815 22.4417 58.1943 22.526 58.209 22.5037C58.2237 22.4814 58.1985 22.4566 58.15 22.4169C58.0838 22.367 58.0063 22.3419 57.9278 22.345C57.8513 22.3488 57.7777 22.3804 57.7171 22.4355C57.6697 22.4789 57.655 22.5173 57.6634 22.5273Z" fill="#263238"/>
<path d="M57.1567 23.8486C57.0776 23.8213 56.9958 23.8067 56.9134 23.8052C56.8755 23.8052 56.8386 23.794 56.8312 23.7642C56.8272 23.718 56.8349 23.6714 56.8533 23.6303L56.9587 23.2856C57.103 22.7896 57.2052 22.3891 57.1883 22.3829C57.1715 22.3767 57.0419 22.7698 56.8976 23.2608C56.8639 23.3848 56.8302 23.4976 56.7996 23.608C56.7766 23.663 56.771 23.7259 56.7838 23.7853C56.7899 23.8008 56.7988 23.8145 56.8099 23.8254C56.821 23.8364 56.8341 23.8443 56.8481 23.8486C56.8695 23.8544 56.8914 23.8569 56.9134 23.856C56.9944 23.8657 57.0762 23.8632 57.1567 23.8486Z" fill="#263238"/>
<path d="M57.5992 23.9542C57.575 23.9542 57.5792 24.1439 57.4444 24.284C57.3096 24.4242 57.1368 24.408 57.1358 24.4366C57.1347 24.4651 57.1758 24.4713 57.2485 24.4713C57.3443 24.4715 57.4372 24.432 57.5107 24.3597C57.5791 24.2889 57.6217 24.1899 57.6298 24.0832C57.6298 23.9988 57.6098 23.9517 57.5992 23.9542Z" fill="#263238"/>
<path d="M57.6065 21.84C57.6234 21.8871 57.7708 21.8586 57.9467 21.8772C58.1226 21.8958 58.2627 21.9467 58.287 21.9033C58.2975 21.8822 58.2712 21.8388 58.2132 21.7941C58.1357 21.7397 58.0484 21.7074 57.9583 21.6999C57.8687 21.6905 57.7785 21.7062 57.695 21.7458C57.6318 21.7793 57.6002 21.8177 57.6065 21.84Z" fill="#263238"/>
<path d="M56.2383 22.037C56.2656 22.0767 56.3678 22.037 56.4911 22.0246C56.6143 22.0122 56.7196 22.0432 56.7428 22.001C56.7523 21.9799 56.7354 21.9403 56.688 21.9043C56.6247 21.8595 56.551 21.8392 56.4774 21.846C56.4048 21.85 56.3351 21.8808 56.2783 21.9341C56.2393 21.9762 56.2267 22.0184 56.2383 22.037Z" fill="#263238"/>
<path d="M59.2582 23.0685C59.2751 23.0598 59.9187 22.8118 59.9187 23.5942C59.9187 24.3767 59.2519 24.2142 59.2498 24.1919C59.2477 24.1696 59.2582 23.0685 59.2582 23.0685Z" fill="#FFBE9D"/>
<path d="M59.4532 23.8962C59.4532 23.8962 59.4648 23.9062 59.4848 23.9161C59.4985 23.9228 59.5132 23.9262 59.528 23.9262C59.5428 23.9262 59.5575 23.9228 59.5712 23.9161C59.6141 23.884 59.649 23.8391 59.6723 23.786C59.6957 23.7328 59.7066 23.6733 59.7039 23.6135C59.705 23.5466 59.6939 23.4802 59.6712 23.4188C59.665 23.3946 59.6539 23.3724 59.6389 23.3543C59.6238 23.3362 59.6053 23.3226 59.5849 23.3147C59.5716 23.3102 59.5573 23.3116 59.5448 23.3184C59.5322 23.3252 59.5222 23.3371 59.5164 23.3519C59.5069 23.373 59.5164 23.3891 59.508 23.3903C59.4995 23.3916 59.4943 23.3767 59.4995 23.3444C59.5031 23.3254 59.512 23.3084 59.5248 23.2961C59.5432 23.2799 59.5663 23.2728 59.5891 23.2762C59.6167 23.2825 59.6425 23.2973 59.6638 23.3191C59.6851 23.3409 59.7011 23.3689 59.7102 23.4002C59.7385 23.4676 59.7522 23.5421 59.7502 23.6172C59.7533 23.687 59.7389 23.7564 59.7087 23.8166C59.6786 23.8768 59.634 23.9252 59.5806 23.9558C59.5629 23.9617 59.5442 23.9629 59.526 23.9592C59.5077 23.9556 59.4904 23.9472 59.4753 23.9347C59.4542 23.9148 59.4511 23.8975 59.4532 23.8962Z" fill="#EB996E"/>
<path d="M55.5505 20.5154C55.4725 21.5285 56.5332 21.9513 56.9988 21.3834C57.2095 21.1218 57.4012 20.7944 57.694 20.6766C57.7941 20.6412 57.8992 20.6296 58.0032 20.6424C58.1071 20.6551 58.2079 20.6921 58.2997 20.751C58.5735 20.9184 58.7347 21.2917 58.7779 21.6513C58.8369 22.1473 58.7684 22.5937 58.8832 23.0537C58.893 23.1219 58.9219 23.1844 58.9654 23.231C59.0099 23.2563 59.0606 23.2624 59.1086 23.2481C59.1565 23.2338 59.1987 23.2001 59.2276 23.1529C59.3248 23.0038 59.3826 22.8245 59.3941 22.6371C59.4525 22.2161 59.4389 21.7857 59.354 21.371C59.2685 20.9546 59.081 20.5769 58.8147 20.2848C58.4694 19.9328 58.0216 19.7523 57.5655 19.7813C57.1114 19.8145 56.6777 20.0149 56.3257 20.3542C56.1568 20.5023 56.0218 20.6975 55.9328 20.9221" fill="#263238"/>
<path d="M56.2531 19.9614C56.2229 19.953 56.1915 19.953 56.1614 19.9614C56.0785 19.9845 56.0026 20.0343 55.9423 20.1052C55.8513 20.2107 55.793 20.3492 55.777 20.4983C55.7644 20.6828 55.8097 20.8664 55.9044 21.0142C55.9961 21.1608 56.1204 21.275 56.2636 21.344C56.3791 21.3988 56.5016 21.4306 56.6259 21.4382C56.7089 21.4444 56.7921 21.4415 56.8745 21.4296C56.9051 21.428 56.9353 21.4208 56.9641 21.4085C56.9641 21.3973 56.8345 21.4184 56.6291 21.3961C56.5099 21.3824 56.393 21.3477 56.2826 21.2932C56.1482 21.2257 56.0318 21.1169 55.9455 20.9782C55.8606 20.8454 55.8181 20.6817 55.8254 20.5157C55.8371 20.3765 55.8874 20.2457 55.9687 20.1437C56.0231 20.0743 56.0916 20.0222 56.1677 19.9924C56.2215 19.9688 56.2541 19.9676 56.2531 19.9614Z" fill="#455A64"/>
<path d="M56.6975 19.6043C56.6975 19.6043 56.6732 19.5956 56.6343 19.6167C56.6074 19.6339 56.5841 19.6579 56.5659 19.6868C56.5477 19.7157 56.5351 19.7489 56.5289 19.7841C56.5157 19.8876 56.5335 19.9933 56.5795 20.0829C56.6275 20.1922 56.6885 20.2928 56.7607 20.3818C56.8919 20.5441 57.055 20.6659 57.2357 20.7364C57.3085 20.7713 57.3869 20.787 57.4653 20.7823C57.4653 20.7711 57.379 20.7587 57.2484 20.6967C57.0783 20.6178 56.9249 20.4964 56.7986 20.3409C56.7292 20.2556 56.6693 20.1601 56.6206 20.0569C56.5778 19.978 56.5578 19.8849 56.5637 19.7915C56.5725 19.73 56.6007 19.6747 56.6427 19.6365C56.6753 19.6117 56.6985 19.6093 56.6975 19.6043Z" fill="#455A64"/>
<path d="M50.9158 29.7281L46.3454 29.2184L45.6228 29.0138C45.6228 29.0138 43.9712 28.6666 43.8163 28.6083C43.6373 28.5426 43.5667 28.6282 43.5509 28.7075C43.5256 28.8315 43.6299 28.9642 43.7816 29.0262C43.8342 29.0485 44.6759 29.3486 44.6759 29.3486C44.5815 29.3771 44.489 29.4131 44.3988 29.4565C44.2029 29.5445 44.0217 29.8558 43.9385 30.2117C43.8553 30.5675 43.8585 30.6754 43.9743 30.7201C43.9964 30.7275 44.0197 30.7289 44.0423 30.7241C44.0649 30.7194 44.0864 30.7087 44.105 30.6928C44.1698 30.6457 44.2175 30.5719 44.2387 30.4857C44.3799 29.9178 44.6759 29.8595 44.6759 29.8595L44.7707 29.8868C44.7707 29.8868 44.4715 30.1534 44.4873 30.4584C44.4902 30.5015 44.4998 30.5435 44.5158 30.5824C44.4932 30.6604 44.4888 30.744 44.503 30.8246C44.5172 30.9052 44.5495 30.9798 44.5964 31.0408C44.6434 31.1018 44.7034 31.1469 44.7701 31.1714C44.8369 31.1959 44.908 31.1989 44.9761 31.1801C45.0414 31.164 45.1098 31.1156 45.1172 31.0375C45.1178 30.9943 45.1091 30.9517 45.0919 30.9135C45.0844 30.8935 45.0784 30.8728 45.074 30.8515L45.3479 30.8825C45.3479 30.8825 45.9662 30.9147 46.2337 30.9643L50.5387 32.275C50.6805 32.3183 50.8281 32.3279 50.9731 32.3033C51.118 32.2786 51.2573 32.2202 51.3829 32.1314C51.5084 32.0426 51.6176 31.9252 51.7042 31.7862C51.7908 31.6471 51.8529 31.4891 51.887 31.3215C51.9236 31.1406 51.9267 30.9525 51.8962 30.7701C51.8657 30.5876 51.8022 30.415 51.7102 30.264C51.6181 30.1129 51.4995 29.9868 51.3625 29.8944C51.2254 29.8019 51.0731 29.7452 50.9158 29.7281Z" fill="#FFBE9D"/>
<path d="M46.2485 29.3592C46.2404 29.4146 46.218 29.4658 46.1842 29.5055C46.1504 29.5453 46.107 29.5717 46.0599 29.5812C45.9662 29.6085 45.8693 29.5985 45.7745 29.6171C45.4932 29.6754 45.2836 29.9891 44.9992 30.0313C44.9602 30.0313 44.9097 30.0313 44.8939 29.9854C44.8781 29.9395 44.9097 29.9036 44.9371 29.8738L45.6207 29.1025" fill="#FFBE9D"/>
<path d="M45.624 29.1025C45.5946 29.1237 45.5674 29.1486 45.5428 29.1769C45.4933 29.2278 45.4228 29.3009 45.3322 29.3977L45.0288 29.7287C45.0004 29.761 44.9719 29.7932 44.9414 29.8255C44.9108 29.8577 44.8708 29.8887 44.8645 29.9656C44.8646 29.9845 44.8696 30.003 44.8788 30.0185C44.888 30.034 44.901 30.0458 44.9161 30.0524C44.9406 30.0633 44.967 30.0671 44.993 30.0635C45.0393 30.0563 45.0849 30.0434 45.1289 30.0251C45.2827 29.9399 45.4312 29.8421 45.5734 29.7325C45.6359 29.6912 45.7034 29.6615 45.7735 29.6444C45.8388 29.6295 45.9031 29.6283 45.9631 29.6209C46.012 29.6204 46.0601 29.6072 46.1042 29.5824C46.1483 29.5575 46.1871 29.5215 46.218 29.477C46.2302 29.4601 46.2389 29.4401 46.2436 29.4187C46.2484 29.3972 46.249 29.3748 46.2454 29.353C46.2357 29.39 46.2207 29.4248 46.2012 29.4559C46.1699 29.4936 46.1323 29.5232 46.0908 29.5429C46.0492 29.5625 46.0047 29.5718 45.96 29.57C45.8952 29.5716 45.8305 29.577 45.7662 29.5861C45.6926 29.6029 45.6216 29.6326 45.5555 29.6742C45.4134 29.7792 45.266 29.874 45.1141 29.9581C45.0747 29.9753 45.0337 29.9874 44.992 29.9941C44.953 29.9941 44.9182 29.9842 44.9214 29.9594C44.9245 29.9346 44.9519 29.8961 44.9814 29.8639C45.0109 29.8317 45.0394 29.7969 45.0678 29.7659L45.3627 29.4237C45.4459 29.3257 45.5134 29.2451 45.5586 29.1893C45.6039 29.1335 45.6271 29.1063 45.624 29.1025Z" fill="#EB996E"/>
<path d="M44.7781 29.8735C44.7188 29.8593 44.6575 29.8614 44.599 29.8797C44.5377 29.9036 44.4845 29.9501 44.4473 30.0124C44.401 30.0905 44.3655 30.1767 44.342 30.2678C44.318 30.3618 44.2863 30.4527 44.2472 30.5394C44.213 30.6112 44.1637 30.6715 44.1039 30.7142C44.0832 30.7283 44.0599 30.7366 44.0359 30.7383C44.012 30.74 43.988 30.7352 43.966 30.7241C43.9354 30.7068 43.9238 30.6894 43.9249 30.6882C43.9259 30.6869 43.9407 30.6981 43.9702 30.7093C43.9906 30.7165 44.0121 30.7184 44.0333 30.7148C44.0544 30.7111 44.0745 30.702 44.0923 30.6882C44.1463 30.6456 44.1902 30.5876 44.2198 30.5195C44.256 30.4343 44.286 30.3455 44.3093 30.2542C44.3333 30.159 44.3707 30.0693 44.4199 29.9888C44.4621 29.9217 44.5222 29.8732 44.5906 29.8512C44.6358 29.8374 44.6833 29.8374 44.7286 29.8512C44.7464 29.8535 44.7635 29.8612 44.7781 29.8735Z" fill="#EB996E"/>
<path d="M43.7268 29.001C43.7839 29.0148 43.8399 29.0343 43.8943 29.0593L44.2946 29.2118L44.6969 29.3569C44.7538 29.3736 44.8094 29.3956 44.8634 29.4226C44.8047 29.4185 44.7467 29.406 44.6906 29.3854C44.5853 29.3556 44.442 29.3097 44.284 29.2515C44.126 29.1932 43.9859 29.1337 43.8859 29.0865C43.8304 29.0648 43.7771 29.0361 43.7268 29.001Z" fill="#EB996E"/>
<path d="M44.9075 30.167C44.9075 30.167 44.8959 30.1868 44.8738 30.2178C44.8573 30.2371 44.8446 30.2605 44.8366 30.2862C44.8286 30.3119 44.8255 30.3393 44.8275 30.3666C44.8302 30.3841 44.8367 30.4004 44.8466 30.4139C44.8564 30.4275 44.869 30.4377 44.8833 30.4435C44.9192 30.4593 44.9568 30.4697 44.9949 30.4745C45.0425 30.4796 45.0867 30.5053 45.1192 30.5464C45.135 30.5711 45.1457 30.5997 45.1505 30.63C45.1552 30.6604 45.1539 30.6916 45.1466 30.7213C45.1388 30.7502 45.1261 30.777 45.1092 30.8C45.0924 30.823 45.0718 30.8418 45.0487 30.8552C45.0067 30.8813 44.9589 30.8917 44.9117 30.885C44.8383 30.8701 44.7673 30.8421 44.7011 30.8019C44.6546 30.7772 44.6122 30.7432 44.5757 30.7014C44.5614 30.6864 44.5509 30.6672 44.5452 30.6456C44.5452 30.6456 44.5589 30.663 44.5852 30.6903C44.6233 30.7257 44.6655 30.7545 44.7105 30.7758C44.7776 30.811 44.8485 30.8352 44.9212 30.8478C44.9623 30.8532 45.0038 30.8428 45.0393 30.8179C45.0749 30.7931 45.1026 30.7552 45.1182 30.7101C45.1241 30.6867 45.1253 30.662 45.1219 30.6379C45.1184 30.6139 45.1103 30.591 45.0982 30.5712C45.0703 30.5371 45.0329 30.5159 44.9928 30.5117C44.9524 30.505 44.9127 30.4925 44.8749 30.4745C44.857 30.4657 44.8414 30.4516 44.8296 30.4335C44.8178 30.4155 44.8101 30.3942 44.8074 30.3716C44.8089 30.3298 44.8194 30.2891 44.8378 30.2534C44.8562 30.2176 44.882 30.1879 44.9128 30.167H44.9075Z" fill="#EB996E"/>
<path d="M45.0278 30.8286C45.0278 30.8286 45.0467 30.8286 45.0731 30.8522C45.0915 30.8697 45.1062 30.892 45.1159 30.9175C45.1256 30.9429 45.1301 30.9707 45.1289 30.9985C45.1261 31.0399 45.1141 31.0796 45.0941 31.1138C45.0741 31.1479 45.0469 31.1753 45.0151 31.1932C44.9378 31.236 44.8495 31.2417 44.7686 31.2093C44.688 31.1798 44.6173 31.1213 44.5664 31.0419C44.5259 30.9778 44.5008 30.902 44.4937 30.8224C44.4884 30.7693 44.4916 30.7155 44.5032 30.6637C44.5116 30.6278 44.5201 30.6092 44.5222 30.6104C44.5133 30.679 44.5133 30.7489 44.5222 30.8175C44.5319 30.8913 44.5577 30.9609 44.5969 31.0196C44.6448 31.0907 44.7098 31.143 44.7834 31.1696C44.8556 31.199 44.9345 31.1955 45.0046 31.1597C45.0324 31.1451 45.0567 31.1224 45.0751 31.0938C45.0935 31.0652 45.1055 31.0316 45.1099 30.996C45.1114 30.9719 45.1086 30.9476 45.1018 30.9248C45.0949 30.9019 45.084 30.881 45.0699 30.8634C45.0436 30.8386 45.0267 30.8324 45.0278 30.8286Z" fill="#EB996E"/>
<path d="M45.7681 30.3534C45.7698 30.3202 45.7789 30.2881 45.7944 30.2604C45.8307 30.1854 45.887 30.1265 45.9545 30.093V30.129C45.9184 30.1103 45.8832 30.0892 45.8492 30.0657C45.7259 29.99 45.6233 29.8748 45.5532 29.7334C45.6488 29.8462 45.7548 29.946 45.8692 30.031C45.904 30.0546 45.9387 30.0756 45.9746 30.093L46.0104 30.1128L45.9735 30.129C45.9113 30.1586 45.8576 30.2085 45.8187 30.2728C45.7828 30.3212 45.7734 30.3559 45.7681 30.3534Z" fill="#EB996E"/>
<path d="M44.3346 29.8483C44.341 29.8408 44.3915 29.9016 44.4 29.9996C44.4084 30.0975 44.3715 30.1694 44.3631 30.1632C44.3547 30.157 44.3736 30.0901 44.3631 30.0045C44.3526 29.919 44.3262 29.8557 44.3346 29.8483Z" fill="#EB996E"/>
<path d="M50.9968 32.3563L53.9757 31.5515C53.9757 31.5515 53.824 37.9747 53.824 38.0355C53.824 38.0963 53.5786 38.1967 53.5996 38.6642L53.8103 39.2185L60.341 39.3214L60.5179 33.0792L61.1141 28.2432L59.7448 27.245L59.2623 26.4675L57.379 28.8062L56.9102 26.8098L56.9239 26.2158L56.4584 26.811L53.9462 27.6641L50.6271 29.4857L48.3835 29.2836L47.801 31.5949L50.9968 32.3563Z" fill="#E45D4D"/>
<path d="M57.119 28.0893C57.058 28.1283 57.0103 28.1909 56.9841 28.2666C56.9555 28.3527 56.9415 28.4445 56.9431 28.5369C56.9475 28.6631 56.9325 28.7891 56.8988 28.9089L56.8756 28.9722L56.8525 28.9089C56.7896 28.7245 56.7403 28.5341 56.705 28.3398C56.626 27.938 56.5744 27.5697 56.5407 27.3044C56.5176 27.1608 56.5045 27.0152 56.5017 26.8691C56.5354 27.0092 56.5614 27.1517 56.5797 27.2957C56.6228 27.5598 56.685 27.9256 56.7587 28.3249C56.793 28.5152 56.8395 28.7021 56.8978 28.8841H56.8525C56.8851 28.7729 56.9015 28.6559 56.9009 28.5382C56.9026 28.4405 56.9212 28.3443 56.9557 28.2555C56.9781 28.1971 57.0148 28.1479 57.061 28.1141C57.0778 28.0992 57.098 28.0906 57.119 28.0893Z" fill="#263238"/>
<path d="M59.5363 27.1097C59.5191 27.1486 59.4979 27.1848 59.4731 27.2175C59.4289 27.2833 59.3678 27.3787 59.2835 27.4953C59.1213 27.7284 58.8959 28.0471 58.6431 28.398L58.2407 28.9473L58.2091 28.9895L58.1986 28.9362C58.1407 28.6659 58.0933 28.4402 58.0638 28.279C58.0511 28.1984 58.0132 28.155 57.9763 28.155C57.9584 28.1531 57.9405 28.1588 57.9258 28.1711C57.9258 28.1711 57.9332 28.1389 57.9763 28.1364C57.9893 28.1359 58.0021 28.1387 58.0141 28.1445C58.0261 28.1502 58.0369 28.1589 58.0459 28.1699C58.0682 28.1987 58.0842 28.2337 58.0922 28.2715C58.1312 28.4303 58.1849 28.6559 58.246 28.9238L58.2028 28.9126L58.601 28.3559C58.8538 28.0062 59.0844 27.6912 59.254 27.4655C59.3383 27.3527 59.4078 27.2622 59.4563 27.2002C59.5047 27.1382 59.5332 27.1059 59.5363 27.1097Z" fill="#263238"/>
<path d="M56.7586 37.3801C56.7538 37.3528 56.7517 37.3249 56.7523 37.297C56.7523 37.235 56.7523 37.1569 56.7523 37.0577C56.7523 36.8506 56.7523 36.5505 56.7523 36.181C56.7586 35.437 56.7892 34.4165 56.8576 33.2881C56.9261 32.1597 57.0304 31.1429 57.1168 30.4088C57.1589 30.0368 57.1979 29.7454 57.2221 29.5408L57.2568 29.3052C57.26 29.2778 57.2653 29.2508 57.2726 29.2246C57.275 29.2522 57.275 29.2801 57.2726 29.3077C57.2663 29.3684 57.2579 29.4466 57.2484 29.5445C57.2252 29.7578 57.1936 30.0529 57.1547 30.4125C57.0788 31.1478 56.9851 32.1646 56.9124 33.2918C56.8397 34.419 56.8071 35.4407 56.7881 36.1798C56.7807 36.5443 56.7755 36.8419 56.7702 37.0577C56.7702 37.1556 56.7702 37.2338 56.7649 37.2958C56.7645 37.324 56.7624 37.3522 56.7586 37.3801Z" fill="#263238"/>
<path d="M56.2268 38.8836C56.1807 38.705 56.1639 38.5178 56.1773 38.3318C56.1741 38.1462 56.1925 37.961 56.2321 37.7812C56.247 37.9648 56.247 38.1495 56.2321 38.333C56.2247 38.6356 56.2468 38.8811 56.2268 38.8836Z" fill="#263238"/>
<path d="M58.9021 37.0791C58.8478 37.1083 58.7918 37.1331 58.7346 37.1535C58.6293 37.1981 58.465 37.2564 58.2669 37.3246C57.7491 37.4991 57.2238 37.6415 56.6933 37.7512C56.1621 37.8641 55.6263 37.9436 55.088 37.9893C54.8826 38.0054 54.7151 38.0153 54.5992 38.0178C54.5396 38.0236 54.4798 38.0236 54.4202 38.0178C54.4789 38.0051 54.5384 37.9976 54.5982 37.9955L55.0848 37.9459C55.4956 37.9012 56.0623 37.8219 56.6817 37.6979C57.301 37.5739 57.8561 37.4114 58.2543 37.2874L58.7262 37.1349C58.7833 37.1102 58.8422 37.0915 58.9021 37.0791Z" fill="#263238"/>
<path d="M53.9431 32.9025C53.9283 32.9025 53.9188 31.9911 53.922 30.8652C53.9252 29.7393 53.9399 28.8279 53.9557 28.8291C53.9715 28.8303 53.9799 29.7405 53.9768 30.8664C53.9736 31.9923 53.9589 32.9025 53.9431 32.9025Z" fill="#263238"/>
<path d="M60.993 28.1494C60.993 28.1494 61.8156 28.9802 61.8704 29.4514C61.9115 29.8147 62.7215 33.2309 63.0859 34.7611C63.1998 35.2375 63.1754 35.745 63.0164 36.2032L61.9631 39.266L60.262 38.0806L61.1131 35.2087L60.4084 32.7709L60.993 28.1494Z" fill="#E45D4D"/>
<path d="M61.9653 39.2658C61.9541 39.2612 61.9435 39.255 61.9337 39.2472L61.8431 39.1889L61.4987 38.957L60.2494 38.1026L60.2336 38.0915L60.2399 38.0729C60.478 37.2632 60.7666 36.2786 61.0826 35.1973V35.2184C60.9836 34.9034 60.8793 34.5748 60.7729 34.2388C60.5233 33.4489 60.2863 32.695 60.0693 32.0068C59.8534 31.4748 59.6669 30.9602 59.6153 30.4667C59.5894 30.2361 59.5951 30.0021 59.6322 29.7736C59.6663 29.5794 59.7237 29.3919 59.8028 29.2168C59.9149 28.9699 60.0641 28.7489 60.2431 28.5646C60.2901 28.5152 60.3393 28.4688 60.3906 28.4257C60.4076 28.4099 60.426 28.3962 60.4453 28.3848C60.4303 28.4032 60.4137 28.4198 60.3958 28.4344C60.3621 28.4654 60.3137 28.5125 60.2536 28.5782C60.0821 28.7666 59.9395 28.9885 59.8323 29.2342C59.7558 29.4066 59.7011 29.5912 59.6701 29.7822C59.6354 30.0061 59.6315 30.2352 59.6585 30.4605C59.7122 30.9429 59.8987 31.4525 60.1167 31.982L60.8245 34.214C60.9299 34.55 61.0352 34.8786 61.1342 35.1948V35.2048V35.2159C60.8119 36.2947 60.5191 37.278 60.2779 38.0865L60.2684 38.0568L61.5039 38.9248L61.8431 39.1728L61.9305 39.2372C61.9558 39.2558 61.9664 39.2645 61.9653 39.2658Z" fill="#263238"/>
<g opacity="0.3">
<path d="M57.5801 28.5978C57.6369 28.5956 57.6927 28.6159 57.7386 28.6555C57.7844 28.695 57.8176 28.7516 57.8329 28.816C57.854 28.9499 57.8382 29.0888 57.8677 29.2202C57.8972 29.3517 57.9994 29.4806 58.1121 29.4521C58.179 29.4263 58.236 29.3736 58.2732 29.3033C58.4944 28.9508 58.6718 28.5629 58.7999 28.1514C58.7999 28.16 58.2164 28.94 58.2164 28.94C58.194 28.7428 58.1501 28.5498 58.0857 28.3659C58.0657 28.3064 58.0436 28.2059 57.9952 28.1786C57.9162 28.1365 57.8108 28.2729 57.7582 28.3547C57.7043 28.4387 57.6432 28.516 57.5759 28.5854" fill="black"/>
</g>
<g opacity="0.3">
<path d="M56.6292 27.8913C56.6397 28.3269 56.7109 28.7575 56.8398 29.166C56.851 29.208 56.8705 29.2463 56.8967 29.2776C56.9103 29.2936 56.9279 29.3039 56.9469 29.307C56.9659 29.3101 56.9852 29.3059 57.002 29.295C57.0443 29.2111 57.0796 29.1227 57.1074 29.0309C57.1611 28.8535 57.3802 28.8374 57.3802 28.8374C57.3435 28.6372 57.2956 28.44 57.2369 28.2472C57.2261 28.2156 57.2072 28.1888 57.1829 28.1703C57.1585 28.1519 57.1299 28.1428 57.101 28.1443C57.0632 28.1594 57.0294 28.1861 57.0031 28.2216C56.9768 28.2571 56.959 28.3001 56.9515 28.3464C56.9188 28.6651 56.923 28.8101 56.883 28.9217C56.7777 28.5832 56.6976 28.1777 56.6302 27.8789" fill="black"/>
</g>
<g opacity="0.3">
<path d="M58.2479 37.2838C58.2728 37.2629 58.2939 37.2363 58.31 37.2057C58.3261 37.1751 58.3368 37.141 58.3415 37.1054C58.3462 37.0698 58.3448 37.0335 58.3374 36.9985C58.33 36.9636 58.3168 36.9307 58.2985 36.9019C58.2594 36.8454 58.2083 36.802 58.1504 36.7761C58.0926 36.7502 58.0299 36.7427 57.9688 36.7543C57.8471 36.7793 57.7326 36.8398 57.636 36.9304C57.5359 37.016 57.4442 37.1139 57.3389 37.1896C57.0808 37.3756 56.767 37.419 56.4636 37.4239C56.1607 37.4089 55.8572 37.4251 55.5567 37.4723C55.2596 37.5393 54.9626 37.7203 54.8193 38.034C54.8151 38.034 57.4053 37.8133 58.2479 37.2838Z" fill="black"/>
</g>
<path d="M59.9334 41.763C59.6567 41.5534 59.4246 41.2717 59.2551 40.9397C59.2566 40.9353 59.2574 40.9307 59.2574 40.926C59.2574 40.9213 59.2566 40.9167 59.2551 40.9124C59.2486 40.9025 59.2392 40.8959 59.2287 40.8938C59.1559 40.7621 59.0898 40.6255 59.0307 40.4846C59.2414 40.3234 59.5184 40.0779 59.2182 40.0283C58.8485 39.9663 58.5862 39.7542 58.5462 39.6389C58.5399 39.6114 58.5411 39.5822 58.5496 39.5555C58.558 39.5288 58.5733 39.5058 58.5933 39.4898C58.6133 39.4737 58.637 39.4654 58.6612 39.4659C58.6854 39.4664 58.7089 39.4757 58.7284 39.4926C58.8409 39.5597 58.9607 39.6085 59.0844 39.6377C59.1834 39.6649 59.2856 39.6724 59.3867 39.66C59.4489 39.6513 59.669 39.474 59.905 39.3438C59.9378 39.3256 59.9745 39.3196 60.0103 39.3264L60.0998 39.319C60.1476 39.3155 60.1939 39.2974 60.2339 39.2666C60.274 39.2357 60.3066 39.1931 60.3284 39.1429L60.6707 38.3691L61.703 39.0883L60.8856 40.4226C60.5891 40.8894 60.2712 41.3369 59.9334 41.763Z" fill="#FFBE9D"/>
<path d="M60.1503 41.9019C60.0655 41.8736 59.985 41.8292 59.9123 41.7705C59.7301 41.6404 59.5654 41.4791 59.4235 41.2918C59.2819 41.1064 59.1641 40.8975 59.0738 40.6718C59.0329 40.5795 59.0041 40.4804 58.9885 40.3779C59.2247 41.0212 59.6311 41.5575 60.1472 41.9069L60.1503 41.9019Z" fill="#455A64"/>
<path d="M56.8986 42.6843C56.8986 42.6843 56.8881 42.6843 56.8691 42.6744C56.8431 42.6594 56.8187 42.6406 56.7965 42.6186C56.7175 42.5331 56.6593 42.4244 56.6279 42.3036C56.5815 42.1293 56.5432 41.9521 56.5131 41.7729C56.4752 41.572 56.4362 41.3513 56.3972 41.1182C56.3193 40.6532 56.2603 40.2291 56.2224 39.9216C56.2034 39.7678 56.1897 39.6426 56.1824 39.557C56.1755 39.5125 56.173 39.4671 56.175 39.4219C56.189 39.4616 56.1986 39.5033 56.2034 39.5459L56.2603 39.908C56.3088 40.213 56.373 40.6346 56.451 41.0996C56.4899 41.3315 56.5279 41.551 56.5626 41.7543C56.5974 41.9577 56.6248 42.1375 56.6679 42.2826C56.6949 42.3983 56.7447 42.505 56.8133 42.5938C56.8628 42.6595 56.9007 42.6794 56.8986 42.6843Z" fill="#455A64"/>
<path d="M56.8101 39.9008C56.8101 39.9008 56.828 39.8934 56.8565 39.9008C56.8983 39.919 56.9328 39.9548 56.9534 40.0013C56.97 40.0364 56.9778 40.0764 56.9759 40.1165C56.9741 40.1567 56.9626 40.1954 56.9429 40.2282C56.9187 40.2689 56.8847 40.3002 56.8452 40.3178C56.8058 40.3355 56.7627 40.3389 56.7217 40.3274C56.6816 40.313 56.6458 40.2856 56.6184 40.2483C56.591 40.211 56.5731 40.1653 56.5668 40.1166C56.5626 40.0774 56.5665 40.0376 56.578 40.0005C56.5896 39.9634 56.6085 39.9301 56.6332 39.9033C56.7206 39.8153 56.7996 39.8413 56.7954 39.8463C56.7451 39.8632 56.699 39.8938 56.6606 39.9356C56.6424 39.9581 56.6291 39.9853 56.6216 40.015C56.6141 40.0448 56.6126 40.0762 56.6174 40.1067C56.6231 40.1432 56.6372 40.1772 56.6582 40.205C56.6792 40.2328 56.7062 40.2532 56.7364 40.2642C56.767 40.272 56.7988 40.2695 56.8283 40.257C56.8577 40.2445 56.8835 40.2225 56.9028 40.1935C56.9182 40.169 56.9277 40.1401 56.9305 40.1098C56.9333 40.0795 56.9292 40.0489 56.9186 40.0211C56.8786 39.9207 56.8059 39.9095 56.8101 39.9008Z" fill="#455A64"/>
<path d="M54.5709 39.4023C54.5961 39.4943 54.6054 39.5913 54.5983 39.6875C54.591 39.922 54.5381 40.1513 54.4437 40.3579C54.3493 40.5645 54.2159 40.7428 54.0537 40.8792C53.9888 40.9373 53.9147 40.9795 53.8357 41.0032C53.8357 40.9933 53.9147 40.9449 54.0306 40.837C54.1798 40.6954 54.3034 40.5199 54.3939 40.3209C54.4843 40.122 54.5399 39.9036 54.5572 39.6789C54.573 39.5127 54.5614 39.4036 54.5709 39.4023Z" fill="#455A64"/>
<path d="M50.4829 30.7023C50.4879 30.4944 50.5059 30.2871 50.5366 30.0823C50.5495 29.8762 50.5748 29.6715 50.6125 29.4697C50.6289 29.6766 50.6215 29.8852 50.5903 30.0897C50.5778 30.2986 50.5417 30.5046 50.4829 30.7023Z" fill="#263238"/>
<path d="M48.3835 29.2861C48.3826 29.3009 48.3802 29.3155 48.3761 29.3295C48.3698 29.363 48.3603 29.4039 48.3487 29.4535C48.3213 29.5676 48.2845 29.7263 48.2371 29.9247L47.8199 31.6049L47.8031 31.5702C48.3982 31.7438 49.1155 31.8852 49.8813 32.0513C50.2626 32.1357 50.6302 32.2262 50.9694 32.3254H50.9578L53.094 31.7562L53.7165 31.5975L53.8829 31.5566C53.9021 31.5501 53.922 31.5468 53.9419 31.5467C53.9234 31.5554 53.9044 31.5625 53.885 31.5677L53.7207 31.6173L53.1056 31.7996L50.9736 32.3911H50.961C50.6229 32.2931 50.2563 32.2039 49.875 32.1208C49.1113 31.9546 48.3919 31.8095 47.7957 31.6248L47.7715 31.6186L47.7789 31.5901C47.9558 30.9019 48.1043 30.3277 48.2107 29.9173C48.2623 29.7214 48.3045 29.5651 48.335 29.4511C48.3484 29.4015 48.3599 29.3601 48.3698 29.3271C48.3733 29.313 48.3779 29.2993 48.3835 29.2861Z" fill="#263238"/>
<path d="M18.9187 57.9307L18.6143 64.5659L20.6567 65.1462L21.0633 58.6647L18.9187 57.9307Z" fill="#AA6550"/>
<path d="M18.5541 64.5098L18.2065 66.3102H20.5555L20.6566 65.1372L18.5541 64.5098Z" fill="#F28B74"/>
<path d="M20.604 66.049C20.4908 66.0699 20.3761 66.0774 20.2616 66.0713C20.051 66.0713 19.7581 66.0713 19.4358 66.054L18.6111 66.0131C18.4967 66.0133 18.3826 66.0025 18.2698 65.9808C18.3829 65.9592 18.4976 65.9517 18.6121 65.9585C18.8228 65.9585 19.1156 65.9585 19.4379 65.9771L20.2627 66.018C20.377 66.0163 20.4912 66.0266 20.604 66.049Z" fill="#263238"/>
<path d="M19.6085 64.8613C19.6264 64.8613 19.6254 65.123 19.6085 65.4441C19.5917 65.7653 19.5611 66.0232 19.5432 66.022C19.5253 66.0207 19.5253 65.7591 19.5432 65.4392C19.5611 65.1193 19.5906 64.8589 19.6085 64.8613Z" fill="#263238"/>
<g opacity="0.6">
<path d="M18.2065 66.3103H20.5555L20.5786 66.0487L18.2487 65.9805L18.2065 66.2793" fill="white"/>
</g>
<path d="M26.6711 61.1572L27.1673 65.553L28.9737 65.4055L28.5945 61.3742L26.6711 61.1572Z" fill="#AA6550"/>
<path d="M28.9927 64.9277C28.9927 64.9277 31.0235 65.735 31.0572 66.1677L27.1747 66.3041L27.1399 65.11L27.2831 65.1435C27.8584 65.2778 28.4547 65.2025 28.9927 64.9277Z" fill="#F28B74"/>
<g opacity="0.6">
<path d="M27.5959 65.3186C27.5586 65.3329 27.5271 65.3631 27.5076 65.4032C27.4882 65.4433 27.4821 65.4905 27.4905 65.5356C27.5014 65.5797 27.5263 65.6173 27.56 65.6404C27.5938 65.6635 27.6338 65.6703 27.6717 65.6596C27.7101 65.6432 27.7421 65.6108 27.7615 65.5685C27.7809 65.5262 27.7865 65.477 27.777 65.4302C27.7616 65.3855 27.7319 65.3496 27.6944 65.3302C27.6568 65.3108 27.6143 65.3093 27.5759 65.326" fill="white"/>
</g>
<g opacity="0.6">
<path d="M27.1746 66.3046V65.9326L30.897 65.9438C30.897 65.9438 31.0719 66.0269 31.0561 66.1707L27.1746 66.3046Z" fill="white"/>
</g>
<path d="M29.0548 64.9083C29.0548 64.9306 28.9611 64.943 28.8694 65.0187C28.7778 65.0943 28.7304 65.1885 28.7125 65.1811C28.6946 65.1737 28.7199 65.0422 28.8326 64.9542C28.9453 64.8661 29.059 64.8823 29.0548 64.9083Z" fill="#263238"/>
<path d="M29.4678 65.0867C29.4678 65.1078 29.3909 65.1487 29.3287 65.2454C29.2666 65.3421 29.2508 65.4426 29.2318 65.4426C29.2129 65.4426 29.1981 65.3186 29.2771 65.1946C29.3561 65.0706 29.4667 65.0656 29.4678 65.0867Z" fill="#263238"/>
<path d="M29.7131 65.6523C29.6963 65.6523 29.6668 65.5469 29.7131 65.4229C29.7595 65.2989 29.8469 65.2468 29.8553 65.2654C29.8637 65.284 29.81 65.3509 29.7742 65.4526C29.7384 65.5543 29.7321 65.6523 29.7131 65.6523Z" fill="#263238"/>
<path d="M29.0128 64.8903C28.9496 64.9138 28.8821 64.9159 28.8179 64.8965C28.7477 64.8842 28.6791 64.8617 28.6136 64.8296C28.5742 64.8112 28.5362 64.7892 28.4998 64.7639C28.4777 64.75 28.4575 64.7325 28.4398 64.7118C28.4268 64.6966 28.4187 64.6766 28.4166 64.6552C28.4145 64.6339 28.4185 64.6123 28.4282 64.594C28.4373 64.578 28.4495 64.5647 28.4638 64.5553C28.478 64.5458 28.494 64.5404 28.5103 64.5394C28.5349 64.5379 28.5594 64.5413 28.583 64.5493C28.6249 64.5593 28.6659 64.5743 28.7052 64.594C28.7713 64.6266 28.8327 64.6709 28.8874 64.7254C28.9801 64.8209 29.0128 64.904 29.0065 64.9077C29.0001 64.9114 28.9527 64.8469 28.859 64.7688C28.8044 64.724 28.7453 64.6874 28.6831 64.6597C28.6464 64.6441 28.6087 64.632 28.5704 64.6237C28.5293 64.6126 28.4935 64.6126 28.484 64.6349C28.4745 64.6572 28.484 64.6461 28.484 64.6609C28.4966 64.6759 28.5112 64.6885 28.5272 64.6981C28.5613 64.7222 28.5965 64.7441 28.6325 64.7639C28.6935 64.7969 28.757 64.8231 28.8221 64.842C28.8864 64.8536 28.9501 64.8698 29.0128 64.8903Z" fill="#263238"/>
<path d="M28.9884 64.924C28.9507 64.8596 28.9311 64.7828 28.9326 64.7045C28.9274 64.6211 28.9342 64.5373 28.9526 64.4565C28.9634 64.4079 28.979 64.3608 28.999 64.3164C29.008 64.2849 29.024 64.2569 29.0453 64.2351C29.0666 64.2133 29.0924 64.1986 29.1201 64.1924C29.1373 64.1923 29.1541 64.198 29.1687 64.2087C29.1832 64.2195 29.1949 64.2349 29.2023 64.2531C29.2129 64.2795 29.2203 64.3075 29.2244 64.3362C29.2312 64.3876 29.2312 64.4399 29.2244 64.4912C29.2155 64.5771 29.1891 64.6592 29.1475 64.7305C29.0738 64.8545 28.9958 64.8806 28.9937 64.8731C28.9916 64.8657 29.0527 64.8161 29.1075 64.7008C29.1394 64.6342 29.1584 64.5601 29.1633 64.4838C29.1664 64.4394 29.1643 64.3948 29.157 64.3511C29.1496 64.3027 29.1327 64.2643 29.118 64.2705C29.1033 64.2767 29.0664 64.3077 29.0516 64.3474C29.0337 64.3872 29.0185 64.4287 29.0063 64.4714C28.9867 64.5462 28.9761 64.6238 28.9747 64.702C28.9769 64.8372 28.999 64.9203 28.9884 64.924Z" fill="#263238"/>
<path d="M20.4332 38.9004C20.4332 38.9004 18.9954 41.7201 18.9954 43.4053L18.6426 63.9397L20.9072 64.5758L22.6347 44.5077C22.6347 44.5077 26.8186 64.6279 26.9534 64.6279C27.0882 64.6279 29.1475 64.1927 29.1475 64.1927L26.0233 38.9921L20.4332 38.9004Z" fill="#263238"/>
<path d="M21.3202 43.9521C21.3218 43.9695 21.3218 43.9869 21.3202 44.0042C21.3202 44.0414 21.3096 44.0923 21.3022 44.1555C21.2833 44.2919 21.257 44.4866 21.2232 44.7346C21.1537 45.2368 21.0568 45.9634 20.941 46.8637C20.7113 48.6592 20.4238 51.1516 20.1826 53.918C19.9413 56.6845 19.7949 59.1905 19.7117 61.0083C19.6696 61.9173 19.639 62.6526 19.6211 63.161C19.6116 63.409 19.6032 63.6086 19.598 63.7463C19.598 63.8107 19.5916 63.8603 19.5906 63.8988C19.5903 63.9163 19.5886 63.9338 19.5853 63.9509C19.5842 63.9335 19.5842 63.9161 19.5853 63.8988C19.5853 63.8603 19.5853 63.8095 19.5853 63.7463C19.5853 63.6074 19.5916 63.4115 19.5969 63.1597C19.6074 62.6513 19.6306 61.9197 19.6675 61.0059C19.7402 59.1868 19.8781 56.6758 20.1204 53.9106C20.3627 51.1454 20.6555 48.6542 20.8978 46.8562C21.0189 45.9572 21.1221 45.2306 21.2001 44.7296C21.238 44.4816 21.2685 44.2882 21.2896 44.153C21.3001 44.0898 21.3075 44.0402 21.3138 44.003C21.3149 43.9859 21.317 43.9689 21.3202 43.9521Z" fill="#455A64"/>
<path d="M24.9046 44.2959C24.9215 44.2959 25.6125 48.7996 26.4477 54.361C27.283 59.9224 27.9466 64.436 27.9298 64.4397C27.9129 64.4434 27.2219 59.9373 26.3867 54.3734C25.5514 48.8095 24.8878 44.2996 24.9046 44.2959Z" fill="#455A64"/>
<path d="M22.5548 44.473C22.5548 44.473 22.5443 44.4569 22.5306 44.4222C22.5169 44.3875 22.4969 44.3366 22.4727 44.2697C22.4074 44.0806 22.3515 43.8873 22.3052 43.6906C22.1537 43.0386 22.0988 42.3607 22.143 41.6868C22.1546 41.4884 22.1777 41.2974 22.203 41.1139C22.2283 40.9304 22.2715 40.7555 22.3084 40.5906C22.3874 40.262 22.4706 39.9706 22.5422 39.7226C22.6138 39.4746 22.6749 39.2824 22.7192 39.1485L22.7718 38.9935C22.7775 38.9754 22.7846 38.958 22.7929 38.9414C22.7918 38.9611 22.7879 38.9803 22.7813 38.9984L22.7392 39.1572C22.6981 39.3035 22.6444 39.4994 22.5791 39.7362C22.5138 39.9731 22.4337 40.2744 22.3568 40.6042C22.3189 40.7679 22.2799 40.9415 22.2515 41.1213C22.223 41.3011 22.2051 41.4933 22.1935 41.688C22.1511 42.3542 22.1998 43.024 22.3379 43.672C22.3916 43.92 22.4495 44.1172 22.4885 44.2536C22.5144 44.3251 22.5365 44.3984 22.5548 44.473Z" fill="#455A64"/>
<path d="M23.1961 41.0243V41.0627C23.1961 41.0925 23.1961 41.1284 23.2014 41.1718C23.2014 41.2723 23.2098 41.4087 23.2161 41.5773C23.2267 41.9295 23.2414 42.4193 23.2583 43.0058L23.2435 42.981L24.1157 43.3989H24.0914L24.7993 42.8917L24.8456 42.8582L24.8319 42.883C24.8857 42.206 24.9373 41.5686 24.9794 41.023L25.0026 41.054L23.6985 41.0379L23.3267 41.0305H23.2277H23.1919C23.2335 41.0245 23.2754 41.022 23.3172 41.023L23.6827 41.0156L25.0015 41.002H25.0279V41.033C24.9868 41.5823 24.9394 42.2196 24.8878 42.893V42.9091L24.8762 42.9178L24.8298 42.95L24.1199 43.4559L24.1083 43.4646L24.0967 43.4584L23.2267 43.0331L23.213 43.0269V43.0083C23.2056 42.4143 23.1993 41.9183 23.1951 41.5612C23.1951 41.395 23.1951 41.2611 23.1951 41.1619C23.1924 41.1161 23.1928 41.0701 23.1961 41.0243Z" fill="#455A64"/>
<path d="M19.9182 40.4805C19.9182 40.4805 19.9182 40.5313 19.9024 40.6193C19.8866 40.7074 19.874 40.8388 19.854 40.9913C19.8087 41.3175 19.7486 41.7701 19.6728 42.3119L19.6633 42.2847L20.3217 42.8588H20.2985L21.099 42.5971L21.1401 42.5835L21.1211 42.6058C21.2739 41.9858 21.4182 41.4142 21.5425 40.9157L21.5604 40.9517L20.3775 40.6193L20.0404 40.5214C19.9625 40.4978 19.9193 40.4842 19.9182 40.4817C19.9569 40.4873 19.9952 40.4956 20.033 40.5065L20.3669 40.5883L21.5709 40.8959L21.5951 40.9033L21.5888 40.9318L21.1706 42.6232V42.6406H21.1559L21.1148 42.6542L20.3143 42.9146H20.3016L20.2911 42.9059L19.6349 42.3405L19.6233 42.3293V42.3132C19.7086 41.7663 19.7792 41.3088 19.834 40.9802C19.8592 40.8277 19.8793 40.7049 19.894 40.6082C19.8993 40.5649 19.9074 40.5222 19.9182 40.4805Z" fill="#455A64"/>
<path d="M24.4918 44.0762C24.1756 44.1901 23.8542 44.2833 23.5291 44.3552C23.2075 44.4479 22.8819 44.52 22.5537 44.5709C22.8703 44.4569 23.1921 44.3638 23.5175 44.2919C23.8387 44.1991 24.164 44.1271 24.4918 44.0762Z" fill="#455A64"/>
<path d="M21.6763 44.1643C21.5945 44.1772 21.5116 44.1772 21.4298 44.1643C21.2312 44.1455 21.0341 44.1094 20.84 44.0564C20.6459 44.0048 20.4554 43.936 20.2701 43.8506C20.1914 43.822 20.1165 43.7802 20.0479 43.7266C20.128 43.7471 20.2065 43.7753 20.2827 43.8109C20.4271 43.8654 20.6272 43.9349 20.8526 43.9956C21.078 44.0564 21.2834 44.0973 21.434 44.1196C21.5158 44.1261 21.5968 44.141 21.6763 44.1643Z" fill="#455A64"/>
<path d="M21.4254 22.7715C21.5034 23.0368 21.2358 23.2675 21.0041 23.3258C20.7724 23.384 20.4901 23.4274 20.3837 23.6792C20.291 23.8974 20.3837 24.1752 20.3005 24.3971C20.1404 24.82 19.4936 24.7319 19.3672 25.1709C19.2745 25.4759 19.5189 25.7822 19.4852 26.0959C19.4589 26.3675 19.2471 26.5535 19.0639 26.7159C18.8806 26.8784 18.6826 27.1078 18.711 27.3806C18.7447 27.6943 19.0712 27.9113 19.0407 28.2262C19.0101 28.5412 18.6573 28.6801 18.6057 28.9864C18.5456 29.3484 18.9311 29.5816 19.0554 29.9213C19.1502 30.1805 19.0913 30.5153 19.2514 30.7261C19.4115 30.9369 19.7064 30.8984 19.9466 30.8389L22.345 30.24C22.1828 29.7948 22.3345 29.2716 22.5662 28.8698C22.7979 28.468 23.1045 28.1258 23.3035 27.7042C23.5026 27.2826 23.5669 26.7122 23.3035 26.3328" fill="#263238"/>
<path d="M25.642 25.0283C25.6254 24.8773 25.599 24.7281 25.563 24.5819C25.5444 24.5127 25.5114 24.4501 25.4671 24.3996C25.4197 24.3463 25.3618 24.3798 25.3197 24.4554C25.2493 24.6348 25.2128 24.83 25.2128 25.0277C25.2128 25.2253 25.2493 25.4205 25.3197 25.5999C25.3587 25.6768 25.425 25.7103 25.4671 25.657C25.5112 25.6058 25.5441 25.5429 25.563 25.4734C25.5989 25.3276 25.6253 25.1788 25.642 25.0283C25.651 25.0687 25.6539 25.1107 25.6504 25.1523C25.6487 25.2671 25.6335 25.381 25.6051 25.4908C25.5858 25.5712 25.5496 25.6446 25.4998 25.7041C25.4832 25.7229 25.4626 25.7361 25.4401 25.7422C25.4177 25.7483 25.3943 25.7471 25.3723 25.7388C25.3288 25.7199 25.2918 25.6846 25.267 25.6384C25.188 25.4484 25.147 25.2398 25.147 25.0283C25.147 24.8168 25.188 24.6081 25.267 24.4182C25.2918 24.372 25.3288 24.3367 25.3723 24.3178C25.3943 24.3095 25.4177 24.3083 25.4401 24.3144C25.4626 24.3205 25.4832 24.3337 25.4998 24.3525C25.5496 24.412 25.5858 24.4854 25.6051 24.5658C25.6334 24.6752 25.6486 24.7887 25.6504 24.903C25.6538 24.9451 25.651 24.9874 25.642 25.0283Z" fill="#263238"/>
<path d="M21.7299 27.6278C21.2959 26.7598 21.1716 25.6153 21.0621 24.622C21.0104 24.1533 20.9199 23.4874 21.199 23.1948C21.4992 22.8811 21.5276 22.3975 21.8721 22.1557C22.2165 21.9139 22.6831 21.894 23.0076 22.1706" fill="#263238"/>
<path d="M22.9318 30.6845C23.0892 30.6988 23.2474 30.6756 23.3971 30.6163C23.5467 30.557 23.6847 30.4627 23.8026 30.3392C23.9206 30.2157 24.0163 30.0655 24.0838 29.8975C24.1514 29.7294 24.1894 29.5471 24.1958 29.3614C24.2231 28.6075 24.2463 27.8461 24.2463 27.8461C24.2463 27.8461 25.2164 27.742 25.2902 26.6061C25.3639 25.4703 25.3376 22.8663 25.3376 22.8663C24.8061 22.5495 24.2124 22.4054 23.6178 22.449C23.0232 22.4926 22.4493 22.7223 21.9553 23.1143L22.0048 27.0922L21.9996 29.2324C22.0133 29.9529 22.3293 30.6274 22.9318 30.6845Z" fill="#AA6550"/>
<path d="M24.3401 25.2282C24.1758 24.9864 23.9061 24.8896 23.6849 25.0583C23.576 25.1466 23.4972 25.2776 23.4627 25.428C23.4282 25.5783 23.4401 25.7382 23.4964 25.8792C23.546 25.9837 23.6134 26.0749 23.6945 26.1473C23.7755 26.2196 23.8684 26.2715 23.9672 26.2995C24.0556 26.3227 24.1337 26.3831 24.1867 26.4695C24.2397 26.5559 24.2639 26.6622 24.2548 26.7682C24.2264 27.051 23.825 27.1564 23.6428 27.3882C23.3605 27.7528 22.7433 27.9053 22.3272 27.9611C21.9111 28.0169 21.967 28.0219 21.73 27.6251C21.5708 27.3566 21.4895 27.0347 21.4982 26.7075C21.4863 25.8734 21.474 25.0397 21.4614 24.2064C21.4454 23.9062 21.4624 23.6049 21.5119 23.3099C21.561 23.0105 21.7053 22.7444 21.9153 22.5659C22.1492 22.3848 22.442 22.3712 22.7117 22.2708C23.0445 22.1468 23.3279 21.8864 23.6386 21.7004C23.9493 21.5144 24.3327 21.4028 24.6445 21.5888C24.8678 21.7227 25.0174 21.9856 25.2354 22.1331C25.5451 22.3414 25.9728 22.2956 26.1171 22.8337C26.1677 23.0213 26.1654 23.2231 26.1108 23.4091C25.9001 24.1394 25.128 24.4308 24.575 24.1134C24.5645 24.2374 24.6666 24.5127 24.555 24.9045C24.5192 25.0285 24.5065 25.2195 24.3443 25.222" fill="#263238"/>
<path d="M24.1664 25.9336C24.1664 25.9336 24.1664 25.9547 24.1538 25.982C24.141 26.0007 24.1251 26.0161 24.1069 26.027C24.0887 26.0379 24.0688 26.0441 24.0484 26.0452C23.981 26.0404 23.9177 26.0053 23.8716 25.9472C23.8256 25.889 23.8002 25.8122 23.8009 25.7327C23.7984 25.6893 23.8034 25.6457 23.8156 25.6046C23.8277 25.5635 23.8467 25.5257 23.8715 25.4934C23.9115 25.442 23.9642 25.4065 24.0221 25.3917C24.1211 25.3682 24.178 25.4116 24.1738 25.4178C24.1696 25.424 24.1148 25.4178 24.0358 25.4463C23.9858 25.4646 23.9423 25.5017 23.9119 25.5518C23.8815 25.602 23.8658 25.6624 23.8673 25.724C23.8672 25.7849 23.8849 25.844 23.9176 25.8912C23.9502 25.9384 23.9957 25.9709 24.0463 25.9832C24.1274 25.9944 24.1601 25.9262 24.1664 25.9336Z" fill="#995037"/>
<path d="M25.6442 24.9805C25.4338 25.0584 25.2176 25.1128 24.9985 25.1429C24.7825 25.1961 24.5629 25.2259 24.3423 25.2322C24.3423 25.2111 24.6288 25.1392 24.988 25.0697C25.2039 25.0159 25.4236 24.986 25.6442 24.9805Z" fill="#263238"/>
<path d="M21.8027 28.731C21.8336 28.7994 21.8841 28.8527 21.9452 28.8815C22.0063 28.9103 22.0741 28.9128 22.1366 28.8885C22.2604 28.835 22.3711 28.7464 22.4589 28.6306C22.5456 28.5155 22.6538 28.4255 22.7749 28.3677C23.0309 28.2759 23.3448 28.4768 23.5596 28.2896C23.7556 28.1197 23.7303 27.7341 23.923 27.558C24.0284 27.465 24.1674 27.4526 24.2717 27.3621C24.4666 27.1934 24.4339 26.8152 24.2717 26.6044C24.1095 26.3936 23.8619 26.3093 23.6292 26.2324L21.5657 27.2678L21.8027 28.731Z" fill="#263238"/>
<path d="M24.2579 24.3418C24.2579 24.3418 24.2526 24.348 24.241 24.3567C24.2236 24.3702 24.2053 24.3822 24.1863 24.3926C24.1143 24.4339 24.0387 24.4659 23.9609 24.4881C23.8375 24.5225 23.7122 24.5462 23.5859 24.5588C23.4203 24.5725 23.2556 24.5991 23.0929 24.6382C22.8978 24.6808 22.7195 24.796 22.5841 24.9668C22.4451 25.1565 22.3924 25.4293 22.285 25.6946C22.2309 25.8346 22.1485 25.9568 22.0448 26.0505C21.9353 26.142 21.814 26.2123 21.6857 26.2588C21.4318 26.358 21.1527 26.4188 20.942 26.6308C20.838 26.7298 20.7698 26.8717 20.7513 27.0276C20.7397 27.1848 20.7397 27.3429 20.7513 27.5001C20.7628 27.6605 20.7362 27.8215 20.6745 27.9651C20.6075 28.0983 20.511 28.2076 20.3953 28.2813C20.1847 28.4313 19.954 28.5107 19.7739 28.6458C19.6861 28.707 19.6103 28.7894 19.5516 28.8876C19.5013 28.9802 19.4722 29.0866 19.4673 29.1964C19.4671 29.3904 19.4894 29.5836 19.5337 29.7705C19.5644 29.9164 19.5761 30.0669 19.5685 30.2169C19.5637 30.3124 19.5403 30.4054 19.5 30.4885C19.4858 30.5174 19.4681 30.5438 19.4473 30.5666C19.5068 30.4625 19.5403 30.341 19.5442 30.2157C19.5476 30.0688 19.5327 29.9222 19.5 29.7804C19.4512 29.5901 19.4253 29.3927 19.4231 29.1939C19.4268 29.0744 19.4569 28.9582 19.5105 28.8566C19.5721 28.7507 19.6522 28.6615 19.7454 28.595C19.9329 28.4512 20.1604 28.3693 20.3658 28.223C20.4767 28.1566 20.5673 28.0515 20.6254 27.9221C20.6835 27.7927 20.7062 27.6453 20.6903 27.5001C20.6781 27.3388 20.6781 27.1765 20.6903 27.0152C20.711 26.8422 20.7862 26.6846 20.9009 26.5738C21.1305 26.3469 21.4192 26.2886 21.6656 26.1906C21.7881 26.1469 21.904 26.0808 22.009 25.9947C22.1056 25.9076 22.1827 25.7939 22.2334 25.6636C22.3387 25.4156 22.3935 25.1304 22.5441 24.9271C22.6878 24.7481 22.8771 24.6293 23.0834 24.5886C23.2482 24.5511 23.4151 24.5275 23.5827 24.5179C23.7079 24.5085 23.8325 24.4894 23.9556 24.4608C24.0595 24.433 24.1607 24.3931 24.2579 24.3418Z" fill="#455A64"/>
<path d="M23.6987 24.7475C23.6987 24.755 23.6239 24.7475 23.4975 24.781C23.3191 24.832 23.1579 24.9452 23.0351 25.1059C22.9503 25.215 22.8873 25.3451 22.8508 25.4866C22.816 25.6523 22.8032 25.8234 22.8128 25.9937C22.8261 26.191 22.8017 26.3893 22.7412 26.574C22.701 26.6715 22.6387 26.7539 22.5611 26.8121C22.4865 26.8683 22.4091 26.9192 22.3294 26.9646C22.2521 27.0048 22.1826 27.063 22.125 27.1358C22.0746 27.2098 22.0461 27.3013 22.0439 27.3962C22.0323 27.5846 22.0671 27.7942 21.9891 27.9752C21.9141 28.1326 21.8027 28.2616 21.6679 28.3472C21.5467 28.4316 21.4288 28.4948 21.3297 28.5655C21.2385 28.6241 21.1577 28.7028 21.0917 28.7974C21.0413 28.8697 21.0053 28.9545 20.9864 29.0454C20.9722 29.1226 20.9722 29.2025 20.9864 29.2797C20.9756 29.2625 20.9684 29.2425 20.9653 29.2214C20.9523 29.1623 20.9501 29.1006 20.959 29.0404C20.9742 28.9447 21.0077 28.8544 21.0569 28.7763C21.124 28.6763 21.2066 28.5921 21.3003 28.5283C21.4056 28.4526 21.5183 28.3869 21.6342 28.3026C21.7591 28.2205 21.8618 28.0984 21.9301 27.9504C21.9986 27.7942 21.967 27.6008 21.9765 27.3962C21.979 27.286 22.0119 27.1798 22.0702 27.0936C22.1335 27.0127 22.2102 26.9482 22.2957 26.9039C22.4568 26.8109 22.6201 26.7266 22.6864 26.5492C22.7431 26.3747 22.7665 26.1875 22.7549 26.0012C22.7475 25.8241 22.7631 25.6468 22.8013 25.4754C22.8413 25.3266 22.9102 25.1908 23.0024 25.0786C23.1332 24.9144 23.3046 24.8029 23.4922 24.7599C23.5426 24.7489 23.5938 24.7447 23.645 24.7475C23.6628 24.7443 23.6809 24.7443 23.6987 24.7475Z" fill="#455A64"/>
<path d="M24.4855 28.9008L24.2358 28.2969L22.067 28.2002L21.7268 28.9851H24.4507" fill="#F28B74"/>
<path d="M31.9411 34.3629C31.9253 34.2712 32.5141 30.6653 32.6784 29.6757C32.6832 29.6455 32.6823 29.6144 32.6757 29.5846C32.6691 29.5548 32.6571 29.5271 32.6404 29.5035C32.6237 29.4798 32.6028 29.4607 32.5791 29.4476C32.5555 29.4346 32.5297 29.4278 32.5035 29.4277H28.1596C28.1194 29.4274 28.0802 29.4431 28.0486 29.4724C28.0171 29.5017 27.9949 29.5428 27.9858 29.5889L27.0968 34.0021L24.9048 34.1943L24.9817 34.3642L31.9411 34.3629Z" fill="#455A64"/>
<path d="M31.7504 34.0429L32.453 29.6719L28.1838 29.7016L27.2463 34.0491L31.7504 34.0429Z" fill="#EBEBEB"/>
<path d="M27.2432 34.0516L28.1806 29.7029L32.4529 29.6719L31.7493 34.0454L27.2432 34.0516ZM28.1859 29.7116L27.2495 34.0516L31.7483 34.0454L32.4498 29.6806L28.1859 29.7116Z" fill="#263238"/>
<path d="M31.746 34.0733C31.746 34.0906 30.4968 34.1055 28.9568 34.1055C27.4168 34.1055 26.1665 34.0906 26.1665 34.0733C26.1665 34.0559 27.4147 34.041 28.9568 34.041C30.4989 34.041 31.746 34.0559 31.746 34.0733Z" fill="#263238"/>
<path d="M31.4511 32.9693C31.433 32.9727 31.4145 32.9727 31.3963 32.9693L31.2362 32.9755L30.6474 32.9854C30.1502 32.9854 29.4645 32.9953 28.7061 32.9953H28.0488L28.0573 32.9569C28.2089 32.2687 28.3406 31.6673 28.4375 31.2209C28.4849 31.0126 28.5239 30.8489 28.5534 30.715C28.5657 30.6537 28.5819 30.5936 28.6018 30.5352C28.5959 30.598 28.5857 30.6602 28.5713 30.7212C28.546 30.8452 28.5123 31.02 28.4659 31.2308C28.3743 31.6722 28.249 32.2749 28.1047 32.9668L28.0794 32.9284H28.7019C29.4603 32.9284 30.146 32.9284 30.6432 32.9383L31.232 32.9482H31.3921C31.4127 32.951 31.4327 32.9582 31.4511 32.9693Z" fill="#455A64"/>
<path d="M28.3596 32.8034L28.4386 32.3818H28.9885L28.9179 32.8034H28.3596Z" fill="#F28B74"/>
<path d="M29.1064 32.8032L29.2718 31.9736H29.8217L29.6658 32.8032H29.1064Z" fill="#F28B74"/>
<path d="M29.8533 32.8034L29.9333 32.3818H30.4832L30.4126 32.8034H29.8533Z" fill="#F28B74"/>
<path d="M30.6001 32.8034L30.915 31.1914H31.4649L31.1594 32.8034H30.6001Z" fill="#F28B74"/>
<path d="M28.7904 33.2745C28.7194 33.3053 28.6432 33.3156 28.5681 33.3043C28.4459 33.3043 28.3469 33.2881 28.3469 33.2695C28.4925 33.2266 28.6448 33.2266 28.7904 33.2695V33.2745Z" fill="#455A64"/>
<path d="M29.514 33.2733C29.4433 33.3036 29.3675 33.3138 29.2928 33.3031C29.2174 33.312 29.1413 33.3002 29.0706 33.2684C29.1416 33.2379 29.2178 33.2277 29.2928 33.2386C29.3678 33.2291 29.4437 33.241 29.514 33.2733Z" fill="#455A64"/>
<path d="M30.2389 33.2724C30.1678 33.3026 30.0917 33.3128 30.0166 33.3022C29.9416 33.3112 29.8658 33.2993 29.7954 33.2675C29.8664 33.2369 29.9426 33.2267 30.0177 33.2377C30.0927 33.2282 30.1686 33.2401 30.2389 33.2724Z" fill="#455A64"/>
<path d="M30.9667 33.2705C30.8208 33.3135 30.6681 33.3135 30.5222 33.2705C30.6681 33.2275 30.8208 33.2275 30.9667 33.2705Z" fill="#455A64"/>
<path d="M29.8975 30.3564C29.694 30.3883 29.4885 30.3991 29.2834 30.3886C29.0779 30.3991 28.8721 30.3883 28.6682 30.3564C28.8721 30.3245 29.0779 30.3137 29.2834 30.3242C29.4885 30.3138 29.694 30.3245 29.8975 30.3564Z" fill="#455A64"/>
<path d="M29.2519 30.1768C29.072 30.2215 28.8862 30.2215 28.7063 30.1768C28.8863 30.1338 29.0719 30.1338 29.2519 30.1768Z" fill="#455A64"/>
<path d="M28.0742 37.0205L30.5875 34.879L30.4937 34.7004C30.3563 34.4372 30.1501 34.2336 29.906 34.1201L29.5131 34.2032L27.1831 34.6211L28.0742 37.0205Z" fill="#F28B74"/>
<path d="M19.1388 36.5286L21.2276 35.5514L20.7609 33.5166L19.0598 34.1974L19.1388 36.5286Z" fill="#F28B74"/>
<path d="M27.9868 37.0776C28.5071 36.7738 28.6409 36.0435 28.387 35.4284L26.2266 29.9848C26.1769 29.8503 26.1024 29.7304 26.0086 29.6339C25.7659 29.3794 25.4825 29.1845 25.1751 29.0606C24.8676 28.9367 24.5422 28.8862 24.2179 28.9122L21.9617 28.8428C21.9617 28.8428 20.1889 28.8428 19.5243 30.487C19.4758 30.611 18.4457 33.0129 17.7663 34.5976C17.6922 34.7702 17.6499 34.9594 17.6424 35.1526C17.6348 35.3458 17.662 35.5387 17.7223 35.7186C17.7826 35.8985 17.8746 36.0613 17.9922 36.1964C18.1098 36.3315 18.2503 36.4357 18.4046 36.5023C18.6812 36.6237 18.9868 36.6162 19.2589 36.4814C19.531 36.3466 19.7491 36.0946 19.8687 35.7769L20.6061 33.84L21.0653 36.6139L20.3964 38.9004L25.9907 38.9909L25.5609 35.9319L25.4251 33.7519L26.5637 36.5122C26.6242 36.6608 26.7093 36.7937 26.814 36.9031C26.9187 37.0126 27.0408 37.0964 27.1733 37.1496C27.3058 37.2028 27.446 37.2244 27.5857 37.2131C27.7253 37.2018 27.8617 37.1579 27.9868 37.0838V37.0776Z" fill="#F28B74"/>
<g opacity="0.2">
<path d="M21.2581 36.5605C21.6794 36.9325 22.3062 36.8085 22.8276 36.7081C23.3567 36.6178 23.8416 36.3103 24.1969 35.84C24.3623 35.6352 24.4534 35.3625 24.4508 35.0799C24.4297 34.8009 24.2201 34.5319 23.9841 34.5653C23.7145 34.6038 23.5839 34.9609 23.4575 35.2424C23.2435 35.6838 22.9188 36.0367 22.528 36.2527C22.1371 36.4686 21.6991 36.5372 21.2739 36.4489C21.2739 36.4489 21.1833 36.4948 21.2581 36.5605Z" fill="black"/>
</g>
<g opacity="0.2">
<path d="M24.7129 32.2754C24.8446 33.5278 24.7856 33.4336 25.0078 34.6686C25.1132 35.275 25.249 35.9086 25.6051 36.3674L25.4292 33.7522L24.7129 32.2754Z" fill="black"/>
</g>
<path d="M20.4006 38.9006L20.2405 38.3512L20.6576 38.0239L25.7894 37.5254L26.1507 38.3264L25.9948 38.9911L20.4006 38.9006Z" fill="#F28B74"/>
<path d="M21.4603 28.5353C21.3532 28.5843 21.2568 28.6611 21.1784 28.76C21.1 28.8589 21.0415 28.9773 21.0072 29.1064C20.973 29.2356 20.964 29.3721 20.9808 29.506C20.9976 29.6398 21.0398 29.7675 21.1043 29.8795C21.1579 29.9482 21.1921 30.0349 21.2022 30.1275C21.1917 30.3507 20.8862 30.3569 20.7893 30.5491C20.7639 30.6176 20.7581 30.694 20.7729 30.7668C20.7878 30.8395 20.8224 30.9046 20.8715 30.9521C20.9706 31.0452 21.0763 31.1282 21.1875 31.2001C21.2426 31.2373 21.2891 31.2899 21.3229 31.3532C21.3567 31.4166 21.3768 31.4888 21.3813 31.5634C21.4866 31.5634 21.5519 31.4071 21.5361 31.2831C21.5072 31.1615 21.4628 31.0457 21.4045 30.9397C21.3756 30.8866 21.3592 30.8256 21.3568 30.7626C21.3544 30.6997 21.3661 30.6372 21.3908 30.5813C21.4603 30.4635 21.6014 30.4573 21.7173 30.4065C21.8257 30.3509 21.9115 30.2479 21.9565 30.1193C22.0016 29.9906 22.0023 29.8463 21.9585 29.717C21.889 29.536 21.7289 29.3525 21.8068 29.1764C21.85 29.0784 21.9501 29.0412 22.0323 28.9867C22.1174 28.9315 22.1896 28.8522 22.2424 28.7561C22.2951 28.6599 22.3267 28.5498 22.3343 28.4357C22.3419 28.3216 22.3253 28.2071 22.286 28.1024C22.2467 27.9977 22.186 27.9061 22.1091 27.8359" fill="#263238"/>
<path d="M20.5914 34.1055C20.5627 34.2128 20.5246 34.3163 20.4776 34.4142C20.3997 34.6015 20.2859 34.8557 20.149 35.1297C20.012 35.4037 19.8761 35.6418 19.774 35.8129C19.7235 35.9082 19.6649 35.9971 19.5991 36.0783C19.6392 35.9762 19.6871 35.8787 19.7424 35.7869C19.8351 35.6108 19.9646 35.3678 20.1016 35.0962C20.2385 34.8247 20.3565 34.5742 20.4428 34.3931C20.4847 34.292 20.5344 34.1957 20.5914 34.1055Z" fill="#263238"/>
<path d="M20.0995 35.1484C20.1159 35.3015 20.1036 35.457 20.0636 35.6039C20.0236 35.7509 19.9567 35.8857 19.8678 35.9991C19.8541 35.9879 19.9489 35.818 20.011 35.5837C20.0732 35.3493 20.0827 35.1484 20.0995 35.1484Z" fill="#263238"/>
<path d="M28.2955 35.2322C28.2818 35.2396 27.8436 34.1608 27.318 32.8241C26.7924 31.4874 26.3763 30.3962 26.39 30.3887C26.4037 30.3813 26.8419 31.4588 27.3675 32.7968C27.8931 34.1348 28.3091 35.2247 28.2955 35.2322Z" fill="#263238"/>
<path d="M25.6304 29.6719C25.6304 29.6818 25.5356 29.7227 25.3966 29.8244C25.2148 29.9564 25.0599 30.1337 24.9427 30.3439C24.8255 30.5541 24.7489 30.792 24.7183 31.0408C24.694 31.2318 24.7014 31.3533 24.6919 31.3546C24.6695 31.25 24.6652 31.1412 24.6793 31.0346C24.7003 30.7752 24.7748 30.5258 24.8963 30.3079C25.0179 30.0901 25.1827 29.9105 25.3766 29.7847C25.4538 29.7271 25.5402 29.6887 25.6304 29.6719Z" fill="#263238"/>
<path d="M21.0654 36.636C21.0506 36.636 20.7989 35.3787 20.5029 33.8175C20.2069 32.2564 19.9762 30.9891 19.9941 30.9854C20.012 30.9816 20.2606 32.2427 20.5566 33.8039C20.8526 35.365 21.078 36.636 21.0654 36.636Z" fill="#263238"/>
<path d="M30.5875 34.8794L31.6071 34.3623H30.2483L30.5453 34.8161" fill="#AA6550"/>
<path d="M28.4914 35.0128C28.4015 34.9311 28.3186 34.8393 28.2438 34.7388C28.1567 34.6532 28.0763 34.5586 28.0037 34.4561C28.1106 34.5088 28.2058 34.5898 28.2817 34.6929C28.3709 34.7799 28.4425 34.8892 28.4914 35.0128Z" fill="#263238"/>
<path d="M26.611 36.6072C26.5778 36.5548 26.5489 36.4987 26.5246 36.4398C26.472 36.3307 26.3993 36.1708 26.314 35.9724C26.137 35.5743 25.901 35.02 25.644 34.4075C25.387 33.7949 25.15 33.2406 24.9741 32.8426C24.8909 32.6516 24.8203 32.4929 24.7634 32.3714C24.736 32.315 24.7124 32.2561 24.6929 32.1953C24.7267 32.2467 24.7567 32.3015 24.7824 32.359C24.8372 32.4669 24.9141 32.6244 25.0057 32.8215C25.19 33.2146 25.4323 33.7652 25.6893 34.379C25.9463 34.9928 26.1739 35.5384 26.3456 35.9513L26.5436 36.4287C26.5702 36.4859 26.5928 36.5456 26.611 36.6072Z" fill="#263238"/>
<path d="M24.594 34.9229C24.594 34.9229 24.594 34.939 24.594 34.9663C24.59 35.008 24.584 35.0494 24.5761 35.0903C24.5468 35.2407 24.4997 35.3856 24.436 35.5205C24.2169 35.9607 23.885 36.308 23.488 36.5125C23.0953 36.7078 22.6792 36.83 22.2545 36.8746C22.0934 36.8957 21.9617 36.9081 21.8711 36.9155C21.8242 36.922 21.7769 36.922 21.73 36.9155C21.7756 36.9015 21.8221 36.892 21.869 36.887L22.2493 36.825C22.6674 36.7694 23.0766 36.6441 23.4648 36.453C23.8498 36.2533 24.1752 35.9225 24.3991 35.5032C24.4858 35.3208 24.5513 35.1257 24.594 34.9229Z" fill="#263238"/>
<path d="M23.4689 38.1246C23.4689 38.142 22.7758 38.2139 21.9184 38.2846C21.061 38.3553 20.3658 38.3987 20.3647 38.3801C20.3637 38.3615 21.0578 38.2908 21.9153 38.2201C22.7727 38.1494 23.4679 38.0998 23.4689 38.1246Z" fill="#263238"/>
<path d="M24.3632 37.6279C24.4759 38.0304 24.5139 38.4566 24.4749 38.8778C24.4591 38.8778 24.4527 38.5964 24.4211 38.2578C24.3895 37.9193 24.3485 37.6279 24.3632 37.6279Z" fill="#263238"/>
<path d="M24.7235 37.2334C24.7494 37.3128 24.7651 37.3965 24.7698 37.4814C24.814 37.891 24.7893 38.3069 24.6971 38.7053C24.683 38.7893 24.6574 38.8701 24.6213 38.9446C24.6045 38.9446 24.7035 38.5726 24.7266 38.0927C24.7498 37.6128 24.7066 37.2359 24.7235 37.2334Z" fill="#263238"/>
<path d="M24.4918 28.9482C24.1183 28.9568 23.7446 28.9432 23.3721 28.9073C22.7549 28.8663 22.2556 28.818 22.2556 28.8006C22.2556 28.7833 22.7581 28.8006 23.3753 28.8428C23.9926 28.8849 24.4918 28.9271 24.4918 28.9482Z" fill="#263238"/>
</g>
<defs>
<clipPath id="clip0_1159_19763">
<rect width="80" height="80" rx="40" fill="white"/>
</clipPath>
</defs>
</svg>
