<svg width="80" height="80" viewBox="0 0 80 80" fill="none" xmlns="http://www.w3.org/2000/svg">
<rect width="80" height="80" rx="40" fill="#19BBBB" fill-opacity="0.08"/>
<path d="M47.031 67.4607L29.9083 67.3723C28.9204 67.3656 27.9754 66.9286 27.2805 66.1574C26.5856 65.3861 26.1977 64.3435 26.2019 63.2585L26.3825 16.1079C26.3873 15.0225 26.784 13.9836 27.4856 13.2191C28.1871 12.4546 29.136 12.0271 30.1242 12.0303L47.2469 12.1174C48.236 12.1224 49.1827 12.5585 49.8791 13.3299C50.5755 14.1013 50.9645 15.1449 50.9606 16.2312L50.7788 63.3818C50.774 64.4684 50.3765 65.5085 49.6737 66.2734C48.9709 67.0383 48.0204 67.4654 47.031 67.4607Z" fill="#263238"/>
<path d="M47.2224 13.7425L43.9028 13.7265C43.6843 13.7307 43.4762 13.83 43.3243 14.0026C43.1725 14.1752 43.0892 14.407 43.0927 14.647V15.309C43.0967 15.549 43.0137 15.7809 42.862 15.9538C42.7104 16.1267 42.5024 16.2263 42.2839 16.2309L35.8118 16.1974C35.5931 16.1908 35.3858 16.0891 35.2353 15.9148C35.0848 15.7404 35.0035 15.5076 35.009 15.2675V14.6068C35.0146 14.3667 34.9332 14.1339 34.7827 13.9595C34.6322 13.7852 34.4249 13.6835 34.2063 13.6769H33.0387L30.1327 13.6621C29.7895 13.6605 29.4494 13.7332 29.1318 13.876C28.8142 14.0188 28.5253 14.2289 28.2816 14.4943C28.0379 14.7597 27.8442 15.0752 27.7116 15.4229C27.5789 15.7705 27.5099 16.1434 27.5085 16.5204L27.3316 62.5427C27.3286 63.3033 27.6009 64.0341 28.0884 64.5744C28.5759 65.1146 29.2388 65.4201 29.9314 65.4237L47.0199 65.5108C47.363 65.5125 47.7031 65.44 48.0207 65.2974C48.3383 65.1547 48.6272 64.9448 48.8709 64.6795C49.1146 64.4142 49.3083 64.0987 49.441 63.7512C49.5737 63.4036 49.6427 63.0307 49.6441 62.6539L49.8223 16.6302C49.8244 16.2531 49.7587 15.8792 49.6292 15.5299C49.4996 15.1806 49.3087 14.8628 49.0672 14.5946C48.8258 14.3264 48.5386 14.1131 48.222 13.9669C47.9055 13.8207 47.5658 13.7445 47.2224 13.7425Z" fill="#EBEBEB"/>
<path d="M37.8382 61.817C37.8356 61.893 37.8126 61.9664 37.7723 62.0282C37.7319 62.0899 37.6759 62.1372 37.6112 62.1643C37.5465 62.1913 37.4761 62.1968 37.4085 62.1801C37.341 62.1635 37.2795 62.1253 37.2315 62.0705C37.1836 62.0157 37.1514 61.9465 37.139 61.8718C37.1266 61.797 37.1345 61.7199 37.1617 61.65C37.1889 61.5801 37.2343 61.5205 37.2921 61.4788C37.3499 61.437 37.4176 61.4148 37.4868 61.415C37.534 61.4161 37.5804 61.4273 37.6236 61.4481C37.6667 61.4689 37.7057 61.4988 37.7383 61.5361C37.771 61.5734 37.7966 61.6174 37.8137 61.6657C37.8309 61.7139 37.8392 61.7653 37.8382 61.817Z" fill="#455A64"/>
<path d="M38.9302 61.8219C38.9276 61.8979 38.9047 61.9713 38.8643 62.033C38.824 62.0948 38.7679 62.1421 38.7033 62.1691C38.6386 62.1962 38.5681 62.2017 38.5006 62.185C38.4331 62.1683 38.3715 62.1302 38.3236 62.0754C38.2756 62.0205 38.2435 61.9514 38.2311 61.8767C38.2186 61.8019 38.2265 61.7247 38.2538 61.6549C38.281 61.585 38.3263 61.5254 38.3841 61.4837C38.442 61.4419 38.5097 61.4197 38.5789 61.4199C38.626 61.4208 38.6726 61.4319 38.7158 61.4526C38.759 61.4733 38.7981 61.5032 38.8308 61.5406C38.8634 61.578 38.889 61.6221 38.9061 61.6703C38.9232 61.7186 38.9314 61.7701 38.9302 61.8219Z" fill="#455A64"/>
<path d="M40.0233 61.8278C40.0206 61.9037 39.9977 61.9772 39.9573 62.0389C39.917 62.1006 39.861 62.148 39.7963 62.175C39.7316 62.202 39.6611 62.2075 39.5936 62.1909C39.5261 62.1742 39.4645 62.1361 39.4166 62.0812C39.3687 62.0264 39.3365 61.9573 39.3241 61.8825C39.3117 61.8077 39.3196 61.7306 39.3468 61.6607C39.374 61.5908 39.4193 61.5313 39.4772 61.4895C39.535 61.4477 39.6027 61.4256 39.6719 61.4258C39.719 61.4268 39.7655 61.4381 39.8086 61.4588C39.8518 61.4796 39.8908 61.5095 39.9234 61.5468C39.956 61.5842 39.9816 61.6282 39.9988 61.6764C40.0159 61.7246 40.0242 61.776 40.0233 61.8278Z" fill="#455A64"/>
<path d="M48.6305 36.3618C48.596 36.3582 48.564 36.3407 48.5406 36.3125C48.5173 36.2844 48.5044 36.2477 48.5044 36.2097C48.5044 36.1717 48.5173 36.135 48.5406 36.1069C48.564 36.0787 48.596 36.0612 48.6305 36.0576C48.6649 36.0612 48.697 36.0787 48.7203 36.1069C48.7436 36.135 48.7565 36.1717 48.7565 36.2097C48.7565 36.2477 48.7436 36.2844 48.7203 36.3125C48.697 36.3407 48.6649 36.3582 48.6305 36.3618Z" fill="#E0E0E0"/>
<path d="M48.5634 37.3779C48.5298 37.3708 48.5 37.3496 48.4802 37.3189C48.4605 37.2882 48.4522 37.2503 48.4573 37.2131C48.4603 37.1762 48.476 37.1418 48.5011 37.117C48.5262 37.0921 48.5589 37.0786 48.5927 37.0791C48.6267 37.086 48.6569 37.1072 48.6767 37.1383C48.6966 37.1694 48.7045 37.2078 48.6988 37.2453C48.6966 37.2825 48.6812 37.3173 48.6558 37.3421C48.6305 37.3669 48.5973 37.3798 48.5634 37.3779Z" fill="#E0E0E0"/>
<path d="M48.4133 38.3826C48.3808 38.3709 48.3532 38.3465 48.3359 38.3141C48.3186 38.2816 48.3127 38.2433 48.3193 38.2064C48.3259 38.1695 48.3445 38.1365 48.3718 38.1137C48.399 38.0909 48.4328 38.0797 48.467 38.0824C48.4995 38.0941 48.5271 38.1185 48.5444 38.1509C48.5617 38.1834 48.5676 38.2217 48.561 38.2586C48.5544 38.2955 48.5358 38.3285 48.5085 38.3513C48.4813 38.3742 48.4475 38.3853 48.4133 38.3826Z" fill="#E0E0E0"/>
<path d="M48.1802 39.3667C48.1489 39.3517 48.1237 39.3247 48.1092 39.2907C48.0947 39.2568 48.092 39.2182 48.1016 39.1822C48.1112 39.1462 48.1324 39.1152 48.1612 39.0952C48.1901 39.0751 48.2246 39.0673 48.2583 39.0732C48.2896 39.0882 48.3148 39.1152 48.3293 39.1491C48.3438 39.1831 48.3465 39.2217 48.3369 39.2577C48.3273 39.2937 48.3061 39.3246 48.2773 39.3447C48.2484 39.3647 48.2139 39.3726 48.1802 39.3667Z" fill="#E0E0E0"/>
<path d="M47.8655 40.324C47.8378 40.3164 47.8129 40.2996 47.7942 40.276C47.7754 40.2524 47.7636 40.2231 47.7604 40.1919C47.7572 40.1608 47.7627 40.1293 47.7762 40.1017C47.7897 40.0741 47.8106 40.0517 47.836 40.0374C47.8614 40.0231 47.8901 40.0177 47.9184 40.0219C47.9467 40.026 47.9732 40.0396 47.9943 40.0606C48.0154 40.0817 48.0301 40.1094 48.0365 40.1399C48.0429 40.1705 48.0407 40.2024 48.0302 40.2316C48.0249 40.2495 48.0165 40.2662 48.0054 40.2806C47.9942 40.2949 47.9806 40.3068 47.9653 40.3154C47.95 40.324 47.9333 40.3291 47.9162 40.3306C47.8991 40.3321 47.8818 40.3299 47.8655 40.324Z" fill="#E0E0E0"/>
<path d="M47.4725 41.2427C47.4484 41.2204 47.4319 41.1898 47.4255 41.156C47.4191 41.1221 47.4233 41.0868 47.4374 41.0559C47.4515 41.0249 47.4747 41.0001 47.5032 40.9854C47.5317 40.9706 47.5638 40.9669 47.5945 40.9747C47.6186 40.997 47.6352 41.0275 47.6415 41.0614C47.6479 41.0953 47.6437 41.1305 47.6296 41.1614C47.6155 41.1924 47.5924 41.2172 47.5639 41.232C47.5354 41.2467 47.5032 41.2505 47.4725 41.2427Z" fill="#E0E0E0"/>
<path d="M47.0053 42.125C46.9777 42.1021 46.9594 42.0683 46.9542 42.0307C46.9489 41.9932 46.9572 41.9549 46.9772 41.924C46.9937 41.891 47.0214 41.8664 47.0543 41.8556C47.0872 41.8448 47.1226 41.8487 47.1529 41.8664C47.1788 41.8903 47.196 41.9237 47.2013 41.9604C47.2065 41.9971 47.1995 42.0347 47.1815 42.0662C47.1636 42.0977 47.1358 42.121 47.1034 42.1318C47.071 42.1426 47.0362 42.1402 47.0053 42.125Z" fill="#E0E0E0"/>
<path d="M46.4673 42.9536C46.4425 42.9274 46.4274 42.8922 46.4247 42.8545C46.4221 42.8169 46.4321 42.7795 46.4528 42.7495C46.4736 42.7194 46.5037 42.6987 46.5374 42.6914C46.571 42.6841 46.606 42.6906 46.6356 42.7097C46.6604 42.7359 46.6755 42.7711 46.6782 42.8087C46.6809 42.8463 46.6709 42.8837 46.6501 42.9138C46.6294 42.9438 46.5993 42.9645 46.5656 42.9718C46.5319 42.9792 46.4969 42.9727 46.4673 42.9536Z" fill="#E0E0E0"/>
<path d="M45.8635 43.7243C45.8418 43.6957 45.8303 43.6593 45.8311 43.6221C45.8319 43.5848 45.845 43.5491 45.8679 43.5217C45.8909 43.4942 45.9221 43.4768 45.9558 43.4726C45.9895 43.4685 46.0235 43.4779 46.0514 43.4992C46.0731 43.5279 46.0846 43.5642 46.0837 43.6014C46.0829 43.6387 46.0698 43.6744 46.0469 43.7019C46.024 43.7293 45.9928 43.7467 45.959 43.7509C45.9253 43.755 45.8914 43.7456 45.8635 43.7243Z" fill="#E0E0E0"/>
<path d="M45.1973 44.4319C45.1781 44.4011 45.1696 44.3638 45.1736 44.3267C45.1775 44.2896 45.1935 44.2553 45.2187 44.2303C45.2439 44.2052 45.2766 44.1911 45.3105 44.1905C45.3445 44.1898 45.3776 44.2028 45.4035 44.2269C45.4143 44.2415 45.4223 44.2584 45.4271 44.2764C45.4319 44.2945 45.4334 44.3134 45.4314 44.3321C45.4295 44.3508 45.4242 44.3689 45.4158 44.3854C45.4075 44.4018 45.3963 44.4163 45.3828 44.4279C45.3709 44.4416 45.3566 44.4526 45.3408 44.4602C45.3251 44.4679 45.3081 44.472 45.2908 44.4723C45.2736 44.4727 45.2564 44.4693 45.2404 44.4624C45.2243 44.4555 45.2097 44.4451 45.1973 44.4319Z" fill="#E0E0E0"/>
<path d="M44.4775 45.0708C44.4573 45.0487 44.4437 45.0203 44.4386 44.9894C44.4334 44.9586 44.437 44.9267 44.4488 44.8982C44.4605 44.8696 44.48 44.8456 44.5045 44.8295C44.529 44.8134 44.5574 44.8059 44.5859 44.808C44.6143 44.81 44.6416 44.8216 44.6639 44.8411C44.6863 44.8606 44.7027 44.8872 44.7109 44.9172C44.7191 44.9472 44.7189 44.9793 44.7101 45.0092C44.7013 45.039 44.6844 45.0652 44.6617 45.0842C44.6489 45.0968 44.6339 45.1064 44.6177 45.1126C44.6014 45.1187 44.5842 45.1212 44.567 45.12C44.5499 45.1187 44.5331 45.1137 44.5178 45.1053C44.5024 45.0969 44.4887 45.0851 44.4775 45.0708Z" fill="#E0E0E0"/>
<path d="M43.7076 45.6344C43.6916 45.601 43.6883 45.562 43.6983 45.5258C43.7084 45.4897 43.731 45.4594 43.7613 45.4415C43.7894 45.4197 43.8242 45.4109 43.8581 45.4169C43.8921 45.4229 43.9226 45.4433 43.9431 45.4736C43.9562 45.5075 43.9578 45.5453 43.9477 45.5804C43.9376 45.6154 43.9165 45.6454 43.888 45.6648C43.8596 45.6842 43.8258 45.6918 43.7927 45.6862C43.7596 45.6807 43.7294 45.6623 43.7076 45.6344Z" fill="#E0E0E0"/>
<path d="M42.8928 46.1195C42.8857 46.0858 42.8891 46.0504 42.9025 46.0191C42.9159 45.9878 42.9385 45.9624 42.9667 45.9469C42.9949 45.9315 43.027 45.9269 43.0578 45.9338C43.0887 45.9408 43.1165 45.959 43.1368 45.9855C43.1439 46.0192 43.1404 46.0545 43.127 46.0858C43.1136 46.1171 43.091 46.1426 43.0628 46.158C43.0347 46.1735 43.0026 46.1781 42.9717 46.1711C42.9409 46.1641 42.9131 46.146 42.8928 46.1195Z" fill="#E0E0E0"/>
<path d="M42.0425 46.5217C42.0328 46.4855 42.0363 46.4465 42.0522 46.4131C42.0681 46.3796 42.0953 46.3542 42.1279 46.3422C42.1592 46.3265 42.1948 46.3249 42.2272 46.3376C42.2595 46.3504 42.2861 46.3766 42.3011 46.4105C42.3088 46.4466 42.3044 46.4846 42.2887 46.5174C42.2731 46.5502 42.2471 46.5757 42.2157 46.5893C42.1842 46.6028 42.1494 46.6034 42.1176 46.591C42.0858 46.5786 42.0591 46.554 42.0425 46.5217Z" fill="#E0E0E0"/>
<path d="M41.1617 46.8365C41.1563 46.7995 41.1634 46.7616 41.1817 46.7299C41.1999 46.6982 41.2281 46.6749 41.2609 46.6644C41.2936 46.6539 41.3288 46.6568 41.3597 46.6727C41.3906 46.6886 41.4152 46.7164 41.4288 46.7507C41.4342 46.7878 41.4271 46.8257 41.4088 46.8574C41.3906 46.8891 41.3624 46.9124 41.3296 46.9229C41.2969 46.9334 41.2617 46.9304 41.2308 46.9145C41.1999 46.8986 41.1753 46.8709 41.1617 46.8365Z" fill="#E0E0E0"/>
<path d="M40.2589 47.0604C40.2578 47.0237 40.2687 46.9879 40.2895 46.9593C40.3103 46.9306 40.3398 46.9111 40.3725 46.9042C40.4053 46.8972 40.4392 46.9033 40.4683 46.9214C40.4973 46.9395 40.5195 46.9683 40.5309 47.0027C40.532 47.0394 40.5211 47.0752 40.5003 47.1038C40.4795 47.1325 40.45 47.152 40.4173 47.1589C40.3845 47.1659 40.3506 47.1598 40.3215 47.1417C40.2925 47.1236 40.2703 47.0948 40.2589 47.0604Z" fill="#E0E0E0"/>
<path d="M39.3401 47.1929C39.3412 47.1555 39.3547 47.1199 39.378 47.0926C39.4013 47.0653 39.4329 47.0483 39.4668 47.0447C39.5007 47.0411 39.5346 47.0511 39.5623 47.073C39.5899 47.0948 39.6094 47.127 39.617 47.1634C39.6159 47.2008 39.6024 47.2365 39.5791 47.2638C39.5558 47.2911 39.5242 47.3081 39.4903 47.3117C39.4564 47.3153 39.4225 47.3052 39.3948 47.2834C39.3672 47.2615 39.3477 47.2294 39.3401 47.1929Z" fill="#E0E0E0"/>
<path d="M38.4141 47.2344C38.4185 47.1974 38.4351 47.1634 38.4607 47.1388C38.4863 47.1142 38.5191 47.1006 38.5531 47.1006C38.5872 47.1006 38.62 47.1142 38.6456 47.1388C38.6712 47.1634 38.6877 47.1974 38.6922 47.2344C38.6877 47.2714 38.6712 47.3054 38.6456 47.33C38.62 47.3547 38.5872 47.3682 38.5531 47.3682C38.5191 47.3682 38.4863 47.3547 38.4607 47.33C38.4351 47.3054 38.4185 47.2714 38.4141 47.2344Z" fill="#E0E0E0"/>
<path d="M37.488 47.1854C37.4937 47.148 37.5125 47.1145 37.5402 47.092C37.568 47.0695 37.6027 47.0597 37.6369 47.0648C37.6712 47.0658 37.7038 47.0815 37.7277 47.1086C37.7516 47.1356 37.765 47.1718 37.765 47.2095C37.7576 47.2457 37.7386 47.2778 37.7114 47.2998C37.6842 47.3219 37.6507 47.3324 37.617 47.3294C37.5833 47.3265 37.5517 47.3103 37.528 47.2839C37.5043 47.2574 37.4901 47.2224 37.488 47.1854Z" fill="#E0E0E0"/>
<path d="M36.572 47.0429C36.5807 47.0063 36.602 46.975 36.6314 46.9554C36.6608 46.9359 36.6959 46.9298 36.7294 46.9383C36.7644 46.9418 36.7967 46.9601 36.8195 46.9894C36.8423 47.0187 36.8538 47.0566 36.8514 47.0951C36.8415 47.1312 36.82 47.1621 36.7908 47.1819C36.7616 47.2017 36.7269 47.2091 36.6931 47.2027C36.6592 47.1963 36.6288 47.1764 36.6074 47.147C36.586 47.1175 36.5751 47.0805 36.5769 47.0429H36.572Z" fill="#E0E0E0"/>
<path d="M35.6693 46.8103C35.6824 46.7758 35.7065 46.7478 35.7371 46.7314C35.7677 46.715 35.8027 46.7114 35.8356 46.7212C35.8684 46.7311 35.8969 46.7537 35.9156 46.7849C35.9344 46.8161 35.9423 46.8537 35.9377 46.8907C35.9245 46.9252 35.9004 46.9533 35.8698 46.9696C35.8392 46.986 35.8042 46.9896 35.7714 46.9798C35.7385 46.97 35.71 46.9474 35.6913 46.9162C35.6725 46.885 35.6647 46.8474 35.6693 46.8103Z" fill="#E0E0E0"/>
<path d="M34.7894 46.488C34.8052 46.4548 34.8315 46.429 34.8633 46.4156C34.8952 46.4021 34.9304 46.4018 34.9624 46.4148C34.9944 46.4278 35.021 46.4531 35.0372 46.4861C35.0534 46.519 35.0582 46.5573 35.0505 46.5938C35.0347 46.627 35.0085 46.6528 34.9766 46.6662C34.9448 46.6797 34.9096 46.68 34.8776 46.667C34.8456 46.654 34.819 46.6287 34.8028 46.5958C34.7866 46.5628 34.7818 46.5245 34.7894 46.488Z" fill="#E0E0E0"/>
<path d="M33.9415 46.0779C33.9591 46.0454 33.9874 46.0216 34.0206 46.0113C34.0537 46.0011 34.0892 46.0053 34.1196 46.023C34.1514 46.0376 34.1768 46.0651 34.1905 46.0999C34.2041 46.1346 34.205 46.1738 34.1928 46.2092C34.1747 46.242 34.1461 46.2662 34.1126 46.2771C34.0791 46.2879 34.0431 46.2846 34.0116 46.2679C33.9802 46.2511 33.9556 46.2221 33.9426 46.1865C33.9297 46.1508 33.9293 46.1112 33.9415 46.0752V46.0779Z" fill="#E0E0E0"/>
<path d="M33.1316 45.585C33.1409 45.5674 33.1532 45.552 33.168 45.5396C33.1827 45.5273 33.1995 45.5182 33.2174 45.513C33.2353 45.5078 33.2539 45.5065 33.2723 45.5092C33.2906 45.5119 33.3083 45.5185 33.3243 45.5287C33.3404 45.5389 33.3544 45.5525 33.3656 45.5687C33.3769 45.5848 33.3851 45.6033 33.3899 45.6229C33.3946 45.6426 33.3958 45.6631 33.3934 45.6832C33.3909 45.7034 33.3849 45.7228 33.3756 45.7404C33.3568 45.776 33.326 45.8019 33.2898 45.8124C33.2537 45.823 33.2152 45.8173 33.1828 45.7967C33.1505 45.7761 33.1269 45.7422 33.1173 45.7025C33.1077 45.6628 33.1128 45.6205 33.1316 45.585Z" fill="#E0E0E0"/>
<path d="M32.3653 45.0133C32.3889 44.9868 32.4204 44.9704 32.454 44.9673C32.4876 44.9642 32.5211 44.9745 32.5483 44.9963C32.5756 45.0181 32.5948 45.05 32.6024 45.0861C32.61 45.1222 32.6056 45.1601 32.5898 45.1928C32.5663 45.2193 32.5348 45.2356 32.5012 45.2387C32.4676 45.2418 32.4341 45.2315 32.4068 45.2097C32.3796 45.1879 32.3604 45.1561 32.3527 45.12C32.3451 45.0839 32.3496 45.046 32.3653 45.0133Z" fill="#E0E0E0"/>
<path d="M31.6492 44.3673C31.6747 44.3423 31.7076 44.3284 31.7418 44.3281C31.776 44.3279 31.8091 44.3414 31.8349 44.3661C31.8607 44.3908 31.8773 44.4249 31.8818 44.4622C31.8862 44.4994 31.8781 44.5371 31.859 44.5683C31.847 44.5817 31.8327 44.5924 31.8169 44.5996C31.8011 44.6069 31.7841 44.6106 31.7669 44.6106C31.7498 44.6106 31.7328 44.6069 31.717 44.5996C31.7012 44.5924 31.6869 44.5817 31.6748 44.5683C31.6474 44.5452 31.6294 44.5112 31.6246 44.4736C31.6198 44.436 31.6286 44.3978 31.6492 44.3673Z" fill="#E0E0E0"/>
<path d="M30.9903 43.6547C31.0178 43.6331 31.0515 43.6232 31.0852 43.6267C31.1189 43.6302 31.1503 43.6469 31.1736 43.6739C31.1969 43.7008 31.2106 43.736 31.2121 43.7731C31.2136 43.8103 31.2029 43.8467 31.1819 43.8758C31.1544 43.8974 31.1207 43.9074 31.087 43.9039C31.0533 43.9004 31.0219 43.8836 30.9986 43.8567C30.9753 43.8298 30.9616 43.7945 30.9601 43.7574C30.9586 43.7203 30.9693 43.6838 30.9903 43.6547Z" fill="#E0E0E0"/>
<path d="M30.3926 42.8757C30.4218 42.8568 30.4563 42.8503 30.4896 42.8572C30.5229 42.8641 30.5528 42.884 30.5738 42.9132C30.5948 42.9425 30.6054 42.9791 30.6037 43.0163C30.602 43.0535 30.5881 43.0888 30.5646 43.1156C30.5354 43.1344 30.5009 43.141 30.4676 43.1341C30.4343 43.1272 30.4043 43.1073 30.3834 43.078C30.3624 43.0488 30.3518 43.0122 30.3534 42.975C30.3551 42.9378 30.369 42.9025 30.3926 42.8757Z" fill="#E0E0E0"/>
<path d="M29.862 42.0464C29.8925 42.0309 29.927 42.028 29.9593 42.0382C29.9916 42.0483 30.0195 42.0708 30.038 42.1016C30.0565 42.1324 30.0642 42.1695 30.0599 42.2061C30.0556 42.2427 30.0395 42.2764 30.0145 42.301C29.984 42.3165 29.9495 42.3194 29.9172 42.3093C29.8849 42.2991 29.857 42.2766 29.8385 42.2458C29.8201 42.215 29.8123 42.1779 29.8166 42.1413C29.8209 42.1047 29.837 42.071 29.862 42.0464Z" fill="#E0E0E0"/>
<path d="M29.4008 41.1606C29.4322 41.1496 29.466 41.1511 29.4965 41.1647C29.5269 41.1784 29.5521 41.2033 29.5675 41.2353C29.5829 41.2672 29.5876 41.304 29.5807 41.3394C29.5739 41.3747 29.556 41.4063 29.5301 41.4286C29.4988 41.4396 29.465 41.4382 29.4345 41.4245C29.404 41.4109 29.3789 41.3859 29.3635 41.354C29.3481 41.3221 29.3434 41.2852 29.3502 41.2499C29.357 41.2145 29.375 41.1829 29.4008 41.1606Z" fill="#E0E0E0"/>
<path d="M29.0154 40.2364C29.048 40.2271 29.0827 40.231 29.113 40.2474C29.1432 40.2639 29.1671 40.2918 29.1802 40.326C29.1932 40.3602 29.1946 40.3984 29.184 40.4337C29.1735 40.4689 29.1517 40.4988 29.1227 40.5178C29.09 40.5272 29.0554 40.5233 29.0251 40.5068C28.9948 40.4904 28.971 40.4625 28.9579 40.4283C28.9449 40.3941 28.9435 40.3558 28.954 40.3206C28.9646 40.2853 28.9864 40.2555 29.0154 40.2364Z" fill="#E0E0E0"/>
<path d="M28.7078 39.2765C28.7411 39.2704 28.7753 39.2777 28.8042 39.297C28.833 39.3163 28.8545 39.3465 28.8647 39.3818C28.875 39.4172 28.8733 39.4554 28.8599 39.4895C28.8465 39.5236 28.8224 39.5512 28.792 39.5673C28.7587 39.5735 28.7244 39.5662 28.6956 39.5469C28.6668 39.5275 28.6453 39.4974 28.635 39.4621C28.6248 39.4267 28.6265 39.3885 28.6399 39.3544C28.6532 39.3203 28.6774 39.2927 28.7078 39.2765Z" fill="#E0E0E0"/>
<path d="M28.4832 38.2942C28.5166 38.2922 28.5494 38.3033 28.576 38.3255C28.6025 38.3477 28.621 38.3796 28.628 38.4155C28.6351 38.4513 28.6303 38.4887 28.6145 38.521C28.5987 38.5533 28.5729 38.5784 28.5418 38.5917C28.5085 38.5937 28.4756 38.5826 28.449 38.5603C28.4225 38.5381 28.404 38.5062 28.397 38.4704C28.3899 38.4345 28.3947 38.3971 28.4105 38.3648C28.4263 38.3325 28.4521 38.3075 28.4832 38.2942Z" fill="#E0E0E0"/>
<path d="M28.3405 37.2836C28.3747 37.2821 28.408 37.2952 28.4335 37.3202C28.459 37.3452 28.4746 37.3801 28.4772 37.4176C28.4836 37.4547 28.4765 37.4931 28.4573 37.5245C28.4381 37.5558 28.4084 37.5776 28.3747 37.5851C28.3409 37.5844 28.3084 37.5704 28.2833 37.5456C28.2582 37.5207 28.242 37.4868 28.2379 37.4499C28.2337 37.4131 28.2418 37.3758 28.2607 37.345C28.2795 37.3142 28.3079 37.2919 28.3405 37.2822V37.2836Z" fill="#E0E0E0"/>
<path d="M28.2821 36.2686C28.3161 36.2722 28.3476 36.2893 28.3709 36.3167C28.3942 36.344 28.4076 36.3798 28.4087 36.4172C28.4097 36.4546 28.3983 36.4912 28.3766 36.5201C28.3549 36.5489 28.3243 36.5681 28.2907 36.5741C28.2567 36.5704 28.2252 36.5533 28.2019 36.526C28.1786 36.4986 28.1652 36.4629 28.1641 36.4254C28.1631 36.388 28.1745 36.3514 28.1962 36.3226C28.2179 36.2937 28.2485 36.2745 28.2821 36.2686Z" fill="#E0E0E0"/>
<path d="M28.3063 35.251C28.3402 35.2577 28.3706 35.2778 28.3918 35.3075C28.413 35.3372 28.4236 35.3744 28.4215 35.4121C28.4194 35.4498 28.4048 35.4853 28.3804 35.5119C28.356 35.5385 28.3236 35.5544 28.2893 35.5565C28.2554 35.5498 28.225 35.5297 28.2038 35.5C28.1825 35.4703 28.172 35.4331 28.1741 35.3954C28.1762 35.3577 28.1908 35.3222 28.2152 35.2956C28.2396 35.2689 28.272 35.2531 28.3063 35.251Z" fill="#E0E0E0"/>
<path d="M28.4138 34.2412C28.446 34.252 28.4736 34.2752 28.4916 34.3064C28.5095 34.3377 28.5167 34.3751 28.5116 34.4116C28.5066 34.4482 28.4898 34.4816 28.4642 34.5056C28.4386 34.5297 28.406 34.5429 28.3723 34.5427C28.3401 34.5319 28.3125 34.5088 28.2946 34.4775C28.2766 34.4462 28.2695 34.4089 28.2745 34.3723C28.2796 34.3357 28.2964 34.3024 28.322 34.2783C28.3475 34.2542 28.3801 34.2411 28.4138 34.2412Z" fill="#E0E0E0"/>
<path d="M28.6053 33.2436C28.6378 33.2566 28.6648 33.2824 28.6811 33.316C28.6974 33.3496 28.7018 33.3886 28.6935 33.4255C28.6852 33.4624 28.6647 33.4947 28.636 33.516C28.6073 33.5374 28.5725 33.5463 28.5382 33.5411C28.5056 33.5281 28.4786 33.5023 28.4623 33.4688C28.446 33.4352 28.4416 33.3962 28.4499 33.3592C28.4582 33.3223 28.4787 33.2901 28.5074 33.2687C28.5361 33.2474 28.5709 33.2384 28.6053 33.2436Z" fill="#E0E0E0"/>
<path d="M28.8786 32.2724C28.9086 32.2895 28.932 32.3178 28.9445 32.3523C28.957 32.3868 28.9578 32.425 28.9466 32.4601C28.9355 32.4951 28.9132 32.5246 28.8839 32.543C28.8546 32.5615 28.8202 32.5677 28.7871 32.5605C28.7571 32.5435 28.7336 32.5151 28.7211 32.4807C28.7086 32.4462 28.7079 32.4079 28.719 32.3729C28.7301 32.3378 28.7524 32.3084 28.7817 32.2899C28.811 32.2715 28.8454 32.2653 28.8786 32.2724Z" fill="#E0E0E0"/>
<path d="M29.2312 31.3264C29.2612 31.3452 29.2837 31.3756 29.2944 31.4117C29.3051 31.4478 29.3032 31.487 29.289 31.5216C29.2749 31.5562 29.2495 31.5838 29.2178 31.599C29.1861 31.6142 29.1504 31.6159 29.1177 31.6038C29.0877 31.5849 29.0651 31.5545 29.0544 31.5184C29.0437 31.4823 29.0457 31.4431 29.0598 31.4085C29.074 31.3739 29.0994 31.3463 29.131 31.3311C29.1627 31.3159 29.1984 31.3142 29.2312 31.3264Z" fill="#E0E0E0"/>
<path d="M29.662 30.4299C29.6912 30.4515 29.7119 30.4844 29.7201 30.5221C29.7282 30.5597 29.7232 30.5993 29.706 30.6331C29.6888 30.6668 29.6607 30.6922 29.6272 30.7042C29.5937 30.7163 29.5574 30.714 29.5253 30.6979C29.4961 30.6763 29.4754 30.6435 29.4672 30.6058C29.459 30.5682 29.4641 30.5286 29.4813 30.4948C29.4985 30.4611 29.5266 30.4357 29.5601 30.4236C29.5936 30.4116 29.6299 30.4139 29.662 30.4299Z" fill="#E0E0E0"/>
<path d="M30.1645 29.5751C30.1893 29.6004 30.2049 29.6346 30.2086 29.6715C30.2122 29.7085 30.2036 29.7456 30.1843 29.7761C30.165 29.8066 30.1363 29.8284 30.1035 29.8375C30.0707 29.8466 30.036 29.8424 30.0059 29.8257C29.9811 29.8005 29.9654 29.7662 29.9618 29.7293C29.9581 29.6924 29.9667 29.6552 29.986 29.6247C30.0053 29.5942 30.034 29.5724 30.0668 29.5633C30.0996 29.5542 30.1343 29.5584 30.1645 29.5751Z" fill="#E0E0E0"/>
<path d="M30.7366 28.7804C30.7604 28.8076 30.7736 28.8438 30.7736 28.8816C30.7736 28.9193 30.7604 28.9555 30.7366 28.9827C30.7161 29.0131 30.6856 29.0335 30.6517 29.0395C30.6177 29.0455 30.5829 29.0367 30.5548 29.0149C30.5319 28.9874 30.5189 28.9517 30.5181 28.9144C30.5173 28.8771 30.5289 28.8408 30.5506 28.8122C30.5724 28.7836 30.6028 28.7646 30.6363 28.7587C30.6699 28.7529 30.7042 28.7606 30.7329 28.7804H30.7366Z" fill="#E0E0E0"/>
<path d="M31.371 28.0325C31.3938 28.0514 31.4109 28.0775 31.4198 28.1074C31.4288 28.1373 31.4292 28.1694 31.421 28.1996C31.4128 28.2297 31.3965 28.2563 31.3741 28.276C31.3517 28.2956 31.3244 28.3072 31.2959 28.3093C31.2673 28.3114 31.2389 28.3038 31.2143 28.2877C31.1898 28.2715 31.1703 28.2474 31.1586 28.2188C31.1468 28.1901 31.1434 28.1582 31.1486 28.1273C31.1539 28.0964 31.1676 28.068 31.188 28.0459C31.1992 28.0318 31.2128 28.0202 31.2281 28.0119C31.2433 28.0036 31.2599 27.9986 31.2769 27.9974C31.2939 27.9961 31.311 27.9986 31.3271 28.0046C31.3433 28.0106 31.3582 28.0201 31.371 28.0325Z" fill="#E0E0E0"/>
<path d="M32.0652 27.3582C32.0867 27.3788 32.102 27.4061 32.1091 27.4366C32.1161 27.467 32.1145 27.499 32.1045 27.5284C32.0944 27.5578 32.0765 27.5832 32.053 27.6011C32.0295 27.6189 32.0016 27.6285 31.9731 27.6285C31.9445 27.6285 31.9166 27.6189 31.8931 27.6011C31.8696 27.5832 31.8517 27.5578 31.8417 27.5284C31.8316 27.499 31.83 27.467 31.8371 27.4366C31.8441 27.4061 31.8594 27.3788 31.881 27.3582C31.9054 27.3314 31.9385 27.3164 31.9731 27.3164C32.0076 27.3164 32.0407 27.3314 32.0652 27.3582Z" fill="#E0E0E0"/>
<path d="M32.8107 26.756C32.8261 26.7894 32.8299 26.8277 32.8215 26.8639C32.8131 26.9001 32.793 26.9317 32.765 26.9528C32.7369 26.974 32.7028 26.9832 32.6691 26.9788C32.6353 26.9744 32.6041 26.9567 32.5813 26.9289C32.566 26.8956 32.5621 26.8573 32.5705 26.8211C32.5789 26.7849 32.599 26.7533 32.6271 26.7321C32.6551 26.711 32.6892 26.7018 32.723 26.7062C32.7568 26.7106 32.7879 26.7283 32.8107 26.756Z" fill="#E0E0E0"/>
<path d="M33.6036 26.2344C33.6171 26.2695 33.6184 26.3088 33.6071 26.3448C33.5959 26.3808 33.5728 26.4109 33.5425 26.4294C33.5122 26.4479 33.4767 26.4534 33.443 26.4449C33.4092 26.4363 33.3795 26.4143 33.3596 26.3831C33.352 26.3662 33.3476 26.3478 33.3466 26.329C33.3457 26.3101 33.3482 26.2913 33.354 26.2735C33.3598 26.2558 33.3688 26.2395 33.3804 26.2256C33.3921 26.2118 33.4061 26.2006 33.4218 26.1929C33.4362 26.1824 33.4523 26.1751 33.4693 26.1715C33.4862 26.1679 33.5037 26.1681 33.5206 26.172C33.5375 26.1758 33.5535 26.1833 33.5678 26.194C33.582 26.2048 33.5942 26.2185 33.6036 26.2344Z" fill="#E0E0E0"/>
<path d="M34.4356 25.7855C34.4451 25.8212 34.4425 25.8595 34.4283 25.8933C34.414 25.9271 34.3891 25.954 34.3582 25.9692C34.3273 25.9844 34.2924 25.9868 34.2599 25.9759C34.2275 25.9651 34.1998 25.9417 34.1819 25.9101C34.1724 25.8743 34.175 25.836 34.1892 25.8023C34.2035 25.7685 34.2284 25.7415 34.2593 25.7263C34.2902 25.7111 34.3251 25.7087 34.3576 25.7196C34.39 25.7305 34.4177 25.7539 34.4356 25.7855Z" fill="#E0E0E0"/>
<path d="M35.3032 25.4307C35.3112 25.4674 35.306 25.5061 35.2887 25.5388C35.2715 25.5715 35.2435 25.5956 35.2105 25.6062C35.1785 25.6202 35.1429 25.6201 35.1111 25.6059C35.0792 25.5916 35.0536 25.5644 35.0397 25.5299C35.0326 25.493 35.038 25.4546 35.0549 25.4219C35.0718 25.3891 35.099 25.3643 35.1315 25.3521C35.1639 25.3399 35.1993 25.3411 35.2309 25.3556C35.2625 25.3701 35.2883 25.3968 35.3032 25.4307Z" fill="#E0E0E0"/>
<path d="M36.195 25.1623C36.1981 25.1991 36.1891 25.2359 36.1695 25.266C36.15 25.2961 36.1213 25.3174 36.0886 25.3262C36.0559 25.335 36.0215 25.3305 35.9915 25.3137C35.9616 25.297 35.9381 25.2689 35.9254 25.2347C35.9223 25.1979 35.9313 25.1611 35.9509 25.131C35.9704 25.101 35.9991 25.0796 36.0318 25.0708C36.0645 25.062 36.0989 25.0665 36.1289 25.0833C36.1589 25.1001 36.1823 25.1281 36.195 25.1623Z" fill="#E0E0E0"/>
<path d="M37.1076 24.9763C37.1085 25.014 37.0968 25.0508 37.0747 25.0796C37.0526 25.1085 37.0216 25.1274 36.9876 25.1329C36.9536 25.1383 36.919 25.1299 36.8903 25.1092C36.8616 25.0885 36.8408 25.0569 36.8318 25.0205C36.8307 25.0017 36.8329 24.9828 36.8384 24.9649C36.8439 24.947 36.8526 24.9305 36.8639 24.9163C36.8753 24.9021 36.8891 24.8905 36.9045 24.8822C36.9199 24.8738 36.9367 24.8689 36.9538 24.8677C36.9704 24.8636 36.9876 24.8631 37.0044 24.8664C37.0211 24.8696 37.0371 24.8765 37.0514 24.8866C37.0657 24.8967 37.0781 24.9098 37.0877 24.9252C37.0973 24.9406 37.1041 24.958 37.1076 24.9763Z" fill="#E0E0E0"/>
<path d="M38.0359 24.8942C38.0413 24.925 38.038 24.9569 38.0265 24.9856C38.015 25.0144 37.9957 25.0385 37.9714 25.0549C37.947 25.0713 37.9186 25.0791 37.8901 25.0773C37.8616 25.0755 37.8342 25.0642 37.8117 25.0449C37.7892 25.0256 37.7726 24.9991 37.7641 24.9692C37.7557 24.9392 37.7557 24.9071 37.7643 24.8772C37.7729 24.8472 37.7896 24.8209 37.8122 24.8017C37.8348 24.7824 37.8621 24.7713 37.8907 24.7696C37.925 24.765 37.9595 24.7756 37.9867 24.799C38.0139 24.8223 38.0316 24.8566 38.0359 24.8942Z" fill="#E0E0E0"/>
<path d="M38.9571 24.8938C38.9516 24.9308 38.934 24.9643 38.9076 24.9881C38.8812 25.0119 38.8478 25.0242 38.8137 25.0229C38.7796 25.0216 38.7471 25.0067 38.7223 24.981C38.6975 24.9552 38.6821 24.9204 38.679 24.8831C38.6845 24.8461 38.7021 24.8126 38.7285 24.7888C38.7549 24.7651 38.7882 24.7527 38.8223 24.754C38.8564 24.7553 38.8889 24.7702 38.9137 24.796C38.9386 24.8217 38.954 24.8565 38.9571 24.8938Z" fill="#E0E0E0"/>
<path d="M39.8792 24.9877C39.8704 25.0236 39.85 25.0548 39.8218 25.0755C39.7936 25.0962 39.7596 25.105 39.726 25.1002C39.6923 25.0955 39.6614 25.0776 39.6389 25.0497C39.6164 25.0219 39.6038 24.986 39.6035 24.9488C39.6124 24.9129 39.6328 24.8817 39.661 24.861C39.6891 24.8403 39.7232 24.8315 39.7568 24.8362C39.7904 24.841 39.8213 24.8589 39.8438 24.8867C39.8664 24.9146 39.8789 24.9504 39.8792 24.9877Z" fill="#E0E0E0"/>
<path d="M40.7908 25.1746C40.7794 25.2102 40.7566 25.2399 40.7267 25.2582C40.6968 25.2766 40.6617 25.2822 40.6283 25.2742C40.5948 25.2661 40.5651 25.2448 40.545 25.2144C40.5248 25.1839 40.5154 25.1465 40.5187 25.109C40.53 25.0734 40.5528 25.0437 40.5828 25.0254C40.6127 25.007 40.6477 25.0014 40.6812 25.0095C40.7147 25.0175 40.7443 25.0388 40.7645 25.0692C40.7847 25.0997 40.794 25.1372 40.7908 25.1746Z" fill="#E0E0E0"/>
<path d="M41.6825 25.4521C41.6686 25.4868 41.6435 25.5147 41.6119 25.5304C41.5804 25.5461 41.5448 25.5484 41.5118 25.5369C41.4788 25.5254 41.4508 25.501 41.4333 25.4683C41.4157 25.4356 41.4098 25.3969 41.4166 25.3596C41.4305 25.3248 41.4556 25.2969 41.4872 25.2813C41.5187 25.2656 41.5544 25.2633 41.5873 25.2748C41.6203 25.2862 41.6483 25.3107 41.6658 25.3434C41.6834 25.3761 41.6894 25.4148 41.6825 25.4521Z" fill="#E0E0E0"/>
<path d="M42.55 25.818C42.5327 25.8498 42.5055 25.8737 42.4734 25.8853C42.4413 25.8969 42.4065 25.8954 42.3754 25.8811C42.3442 25.8667 42.3188 25.8405 42.3039 25.8073C42.2889 25.774 42.2853 25.736 42.2938 25.7001C42.3112 25.6682 42.3384 25.6443 42.3705 25.6327C42.4025 25.6211 42.4374 25.6226 42.4685 25.637C42.4997 25.6513 42.5251 25.6775 42.54 25.7108C42.555 25.744 42.5586 25.7821 42.55 25.818Z" fill="#E0E0E0"/>
<path d="M43.3759 26.2687C43.3573 26.3005 43.3281 26.3231 43.2946 26.3316C43.2611 26.3401 43.2259 26.3339 43.1965 26.3143C43.1805 26.3073 43.166 26.2967 43.154 26.2832C43.142 26.2696 43.1327 26.2535 43.1268 26.2357C43.1209 26.2179 43.1185 26.199 43.1197 26.1801C43.1209 26.1613 43.1258 26.1429 43.1339 26.1263C43.1421 26.1096 43.1533 26.095 43.167 26.0835C43.1806 26.0719 43.1963 26.0637 43.2131 26.0593C43.2298 26.0549 43.2472 26.0545 43.2641 26.058C43.281 26.0615 43.2971 26.069 43.3112 26.0798C43.3268 26.0874 43.3409 26.0984 43.3526 26.1121C43.3643 26.1258 43.3734 26.1419 43.3794 26.1594C43.3854 26.177 43.3882 26.1957 43.3876 26.2145C43.387 26.2332 43.383 26.2517 43.3759 26.2687Z" fill="#E0E0E0"/>
<path d="M44.1653 26.8026C44.1441 26.8321 44.1133 26.8514 44.0793 26.8564C44.0454 26.8614 44.011 26.8517 43.9835 26.8294C43.9537 26.8103 43.9318 26.7792 43.9224 26.7427C43.9131 26.7062 43.9171 26.6671 43.9335 26.6338C43.9558 26.6056 43.9867 26.5874 44.0204 26.5824C44.0541 26.5775 44.0883 26.5861 44.1167 26.6067C44.145 26.6274 44.1655 26.6586 44.1745 26.6946C44.1834 26.7307 44.1802 26.769 44.1653 26.8026Z" fill="#E0E0E0"/>
<path d="M44.9082 27.411C44.8836 27.4364 44.8515 27.4513 44.8177 27.4528C44.784 27.4543 44.7508 27.4424 44.7244 27.4193C44.698 27.3962 44.6801 27.3633 44.674 27.3268C44.6678 27.2904 44.6739 27.2527 44.691 27.2207C44.7156 27.1952 44.7477 27.1804 44.7815 27.1788C44.8152 27.1773 44.8483 27.1892 44.8747 27.2123C44.9012 27.2355 44.9191 27.2683 44.9252 27.3048C44.9314 27.3413 44.9253 27.379 44.9082 27.411Z" fill="#E0E0E0"/>
<path d="M45.6 28.0911C45.5733 28.1139 45.5401 28.1255 45.5063 28.1236C45.4726 28.1216 45.4406 28.1064 45.4162 28.0806C45.3919 28.0549 45.3768 28.0203 45.3738 27.9834C45.3708 27.9464 45.3801 27.9094 45.3999 27.8794C45.4265 27.8565 45.4598 27.845 45.4935 27.8469C45.5273 27.8488 45.5593 27.864 45.5836 27.8898C45.608 27.9156 45.623 27.9501 45.626 27.9871C45.629 28.0241 45.6198 28.061 45.6 28.0911Z" fill="#E0E0E0"/>
<path d="M46.2259 28.8362C46.1977 28.858 46.1632 28.8676 46.1291 28.863C46.0949 28.8585 46.0634 28.8402 46.0408 28.8117C46.0182 28.7832 46.006 28.7465 46.0066 28.7087C46.0072 28.6709 46.0206 28.6347 46.0441 28.607C46.0722 28.5852 46.1067 28.5757 46.1409 28.5802C46.1751 28.5847 46.2065 28.603 46.2291 28.6315C46.2517 28.66 46.2639 28.6967 46.2633 28.7345C46.2627 28.7723 46.2494 28.8086 46.2259 28.8362Z" fill="#E0E0E0"/>
<path d="M46.7919 29.6418C46.7621 29.6583 46.728 29.6625 46.6956 29.6538C46.6632 29.6451 46.6347 29.624 46.6152 29.5944C46.5957 29.5647 46.5864 29.5284 46.5891 29.4919C46.5917 29.4554 46.6061 29.4212 46.6296 29.3953C46.6594 29.3789 46.6935 29.3746 46.7259 29.3833C46.7582 29.392 46.7867 29.4131 46.8062 29.4427C46.8258 29.4724 46.835 29.5087 46.8324 29.5452C46.8298 29.5817 46.8154 29.6159 46.7919 29.6418Z" fill="#E0E0E0"/>
<path d="M47.2897 30.4998C47.2737 30.5101 47.256 30.5167 47.2376 30.5194C47.2192 30.5221 47.2006 30.5208 47.1827 30.5156C47.1648 30.5103 47.148 30.5013 47.1333 30.4889C47.1186 30.4766 47.1062 30.4612 47.0969 30.4436C47.0876 30.426 47.0816 30.4065 47.0791 30.3864C47.0767 30.3662 47.0779 30.3457 47.0826 30.3261C47.0874 30.3064 47.0956 30.288 47.1069 30.2718C47.1181 30.2556 47.1321 30.2421 47.1482 30.2318C47.1805 30.2112 47.219 30.2056 47.2551 30.2161C47.2913 30.2267 47.3221 30.2526 47.3409 30.2881C47.3597 30.3237 47.3648 30.3659 47.3552 30.4056C47.3456 30.4453 47.322 30.4792 47.2897 30.4998Z" fill="#E0E0E0"/>
<path d="M47.7129 31.4039C47.6806 31.4158 47.6455 31.4144 47.614 31.4C47.5826 31.3855 47.557 31.359 47.542 31.3254C47.5271 31.2917 47.5238 31.2533 47.5328 31.2171C47.5418 31.181 47.5625 31.1498 47.5909 31.1292C47.6232 31.1172 47.6584 31.1186 47.6898 31.133C47.7213 31.1475 47.7469 31.174 47.7618 31.2076C47.7767 31.2413 47.78 31.2798 47.771 31.3159C47.762 31.352 47.7414 31.3833 47.7129 31.4039Z" fill="#E0E0E0"/>
<path d="M48.0594 32.3478C48.0263 32.3578 47.9909 32.3531 47.9608 32.3349C47.9307 32.3166 47.9083 32.2861 47.8984 32.25C47.8851 32.2152 47.8845 32.1761 47.8967 32.1409C47.909 32.1057 47.9332 32.0771 47.9643 32.061C47.9974 32.0533 48.0319 32.0589 48.0615 32.0769C48.0911 32.0949 48.1138 32.124 48.1254 32.1589C48.137 32.1939 48.1367 32.2322 48.1246 32.2669C48.1124 32.3016 48.0893 32.3303 48.0594 32.3478Z" fill="#E0E0E0"/>
<path d="M48.3267 33.3211C48.2933 33.3252 48.2596 33.316 48.2318 33.2951C48.2041 33.2742 48.1841 33.243 48.1755 33.2073C48.167 33.1715 48.1704 33.1336 48.1851 33.1004C48.1999 33.0672 48.225 33.0409 48.2559 33.0263C48.2894 33.0223 48.323 33.0315 48.3508 33.0524C48.3785 33.0733 48.3985 33.1045 48.4071 33.1402C48.4157 33.1759 48.4123 33.2139 48.3975 33.2471C48.3828 33.2803 48.3576 33.3066 48.3267 33.3211Z" fill="#E0E0E0"/>
<path d="M48.5121 34.3183C48.4778 34.3203 48.4441 34.3084 48.4173 34.2849C48.3905 34.2614 48.3724 34.2279 48.3666 34.1907C48.3607 34.1536 48.3674 34.1154 48.3855 34.0834C48.4035 34.0513 48.4316 34.0276 48.4645 34.0168C48.4988 34.0149 48.5325 34.0268 48.5593 34.0503C48.5861 34.0738 48.6042 34.1073 48.61 34.1444C48.6159 34.1815 48.6092 34.2197 48.5911 34.2518C48.5731 34.2838 48.545 34.3075 48.5121 34.3183Z" fill="#E0E0E0"/>
<path d="M48.6121 35.3305C48.5785 35.328 48.5468 35.3122 48.5228 35.2861C48.4989 35.26 48.4844 35.2253 48.4818 35.1883C48.4793 35.1514 48.489 35.1147 48.5091 35.0849C48.5292 35.0552 48.5584 35.0344 48.5914 35.0264C48.625 35.0289 48.6567 35.0447 48.6806 35.0708C48.7046 35.0969 48.7191 35.1316 48.7216 35.1686C48.7242 35.2055 48.7145 35.2423 48.6944 35.272C48.6742 35.3017 48.645 35.3225 48.6121 35.3305Z" fill="#E0E0E0"/>
<path d="M48.4059 18.2211C48.4079 18.245 48.4052 18.2691 48.3982 18.2918C48.3912 18.3145 48.38 18.3354 48.3653 18.3531C48.3505 18.3708 48.3326 18.3849 48.3126 18.3945C48.2926 18.4042 48.271 18.4092 48.2492 18.4092C48.2273 18.4092 48.2057 18.4042 48.1858 18.3945C48.1658 18.3849 48.1478 18.3708 48.1331 18.3531C48.1184 18.3354 48.1071 18.3145 48.1001 18.2918C48.0931 18.2691 48.0905 18.245 48.0924 18.2211C48.0959 18.1781 48.1139 18.138 48.1429 18.1088C48.1719 18.0797 48.2098 18.0635 48.2492 18.0635C48.2885 18.0635 48.3264 18.0797 48.3555 18.1088C48.3845 18.138 48.4025 18.1781 48.4059 18.2211Z" fill="#263238"/>
<path d="M48.4058 18.8418C48.4058 18.876 48.3966 18.9094 48.3793 18.9378C48.362 18.9663 48.3374 18.9884 48.3087 19.0015C48.2799 19.0146 48.2483 19.018 48.2177 19.0113C48.1872 19.0047 48.1592 18.9882 48.1372 18.964C48.1151 18.9399 48.1002 18.9091 48.0941 18.8755C48.088 18.842 48.0911 18.8072 48.103 18.7757C48.115 18.7441 48.1351 18.7171 48.161 18.6981C48.1869 18.6791 48.2173 18.669 48.2484 18.669C48.2692 18.6688 48.2897 18.6731 48.3089 18.6817C48.328 18.6904 48.3454 18.7031 48.3601 18.7192C48.3747 18.7353 48.3863 18.7544 48.3942 18.7754C48.402 18.7965 48.406 18.8191 48.4058 18.8418Z" fill="#263238"/>
<path d="M48.4059 19.4604C48.4079 19.4843 48.4052 19.5083 48.3982 19.5311C48.3912 19.5538 48.38 19.5746 48.3653 19.5923C48.3505 19.61 48.3326 19.6241 48.3126 19.6338C48.2926 19.6435 48.271 19.6485 48.2492 19.6485C48.2273 19.6485 48.2057 19.6435 48.1858 19.6338C48.1658 19.6241 48.1478 19.61 48.1331 19.5923C48.1184 19.5746 48.1071 19.5538 48.1001 19.5311C48.0931 19.5083 48.0905 19.4843 48.0924 19.4604C48.0959 19.4173 48.1139 19.3773 48.1429 19.3481C48.1719 19.3189 48.2098 19.3027 48.2492 19.3027C48.2885 19.3027 48.3264 19.3189 48.3555 19.3481C48.3845 19.3773 48.4025 19.4173 48.4059 19.4604Z" fill="#263238"/>
<path d="M29.7498 17.9141C29.7702 17.9275 29.7891 17.9437 29.8059 17.9623L29.9681 18.1151L30.5696 18.698H30.5769V18.71C30.5769 19.0062 30.5769 19.3505 30.5769 19.7284V19.7592H30.5489H29.9645H29.934V19.7257C29.934 19.5301 29.934 19.3237 29.934 19.116L29.9657 19.1495H29.5668L29.5985 19.116C29.5985 19.3237 29.5985 19.5274 29.5985 19.7257V19.7592H29.568H28.9409H28.9128V19.7284C28.9128 19.3505 28.9128 19.0075 28.9128 18.71V18.698H28.9214L29.5228 18.1151L29.6851 17.9623C29.7019 17.9437 29.7207 17.9275 29.7412 17.9141C29.724 17.9365 29.7052 17.9576 29.6851 17.977L29.5277 18.1432L28.9604 18.7301L28.9677 18.7114C28.9677 19.0088 28.9677 19.3519 28.9738 19.7298L28.9446 19.6976H29.5716L29.5411 19.7311C29.5411 19.5328 29.5411 19.3291 29.5411 19.1214V19.0866H30.0023V19.7311L29.9718 19.6976H30.5562L30.5269 19.7298C30.5269 19.3519 30.5269 19.0075 30.533 18.7114L30.5403 18.7301L29.9645 18.1378L29.8059 17.9717C29.7861 17.9538 29.7673 17.9346 29.7498 17.9141Z" fill="#263238"/>
<path d="M36.7025 51.1797V53.0168H36.3145V52.2637H35.5557V53.0168H35.1677V51.1797H35.5557V51.9046H36.3145V51.1797H36.7025Z" fill="#19BBBB"/>
<path d="M38.324 52.4258H37.348C37.3676 52.5136 37.4154 52.5907 37.4826 52.6429C37.5499 52.6951 37.632 52.7189 37.714 52.7098C37.7732 52.7129 37.8323 52.7026 37.8877 52.6795C37.9431 52.6565 37.9936 52.6212 38.0361 52.5758L38.2349 52.8117C38.1671 52.8902 38.0844 52.9514 37.9927 52.991C37.901 53.0306 37.8026 53.0476 37.7042 53.0408C37.2601 53.0408 36.9722 52.734 36.9722 52.3132C36.9711 52.2152 36.9883 52.118 37.0227 52.0275C37.057 51.9371 37.1079 51.8554 37.1721 51.7873C37.2364 51.7193 37.3126 51.6664 37.3961 51.6319C37.4797 51.5975 37.5687 51.5822 37.6579 51.5869C37.7467 51.5817 37.8355 51.5971 37.9186 51.632C38.0017 51.6669 38.0772 51.7206 38.1402 51.7895C38.2032 51.8585 38.2524 51.9412 38.2844 52.0323C38.3165 52.1235 38.3308 52.221 38.3264 52.3186C38.3313 52.348 38.3264 52.3923 38.324 52.4258ZM37.348 52.1872H37.9812C37.9688 52.1048 37.9302 52.0299 37.8722 51.9758C37.8142 51.9218 37.7406 51.8921 37.6646 51.8921C37.5885 51.8921 37.5149 51.9218 37.4569 51.9758C37.399 52.0299 37.3603 52.1048 37.348 52.1872Z" fill="#19BBBB"/>
<path d="M38.5801 51.0703H38.9461V53.0173H38.5801V51.0703Z" fill="#19BBBB"/>
<path d="M39.2986 51.0703H39.6707V53.0173H39.2986V51.0703Z" fill="#19BBBB"/>
<path d="M39.9221 52.3103C39.9221 51.8855 40.221 51.584 40.6297 51.584C41.0384 51.584 41.3337 51.8855 41.3337 52.3103C41.3337 52.735 41.0384 53.0379 40.6297 53.0379C40.221 53.0379 39.9221 52.7364 39.9221 52.3103ZM40.9567 52.3103C40.9515 52.2401 40.9277 52.1732 40.8884 52.1177C40.8491 52.0621 40.7959 52.0204 40.7353 51.9975C40.6747 51.9747 40.6093 51.9718 40.5472 51.9891C40.4852 52.0064 40.429 52.0433 40.3857 52.0951C40.3424 52.1469 40.3138 52.2115 40.3034 52.281C40.2929 52.3504 40.3012 52.4216 40.3271 52.486C40.353 52.5504 40.3954 52.605 40.4492 52.6433C40.5029 52.6816 40.5657 52.7018 40.6297 52.7015C40.6754 52.7024 40.7207 52.6926 40.7627 52.6728C40.8047 52.6529 40.8424 52.6236 40.8733 52.5866C40.9041 52.5496 40.9276 52.5059 40.9419 52.4583C40.9563 52.4106 40.9613 52.3602 40.9567 52.3103Z" fill="#19BBBB"/>
<path d="M41.5276 52.7997C41.5276 52.7329 41.5518 52.6689 41.5948 52.6216C41.6378 52.5744 41.6961 52.5478 41.7569 52.5478C41.8178 52.5478 41.8761 52.5744 41.9191 52.6216C41.9621 52.6689 41.9863 52.7329 41.9863 52.7997C41.9863 52.8666 41.9621 52.9306 41.9191 52.9779C41.8761 53.0251 41.8178 53.0517 41.7569 53.0517C41.6961 53.0517 41.6378 53.0251 41.5948 52.9779C41.5518 52.9306 41.5276 52.8666 41.5276 52.7997ZM41.5349 51.1797H41.979L41.9046 52.379H41.6081L41.5349 51.1797Z" fill="#19BBBB"/>
<path d="M46.8919 55.8563C46.8919 55.8723 43.011 55.8857 38.2299 55.8857C33.4487 55.8857 29.5618 55.8723 29.5618 55.8563C29.5618 55.8402 33.4414 55.8281 38.2299 55.8281C43.0184 55.8281 46.8919 55.8482 46.8919 55.8563Z" fill="#263238"/>
<path d="M46.8919 57.7596C46.8919 57.7757 43.011 57.7877 38.2299 57.7877C33.4487 57.7877 29.5618 57.7757 29.5618 57.7596C29.5618 57.7435 33.4414 57.7314 38.2299 57.7314C43.0184 57.7314 46.8919 57.7435 46.8919 57.7596Z" fill="#263238"/>
<path d="M41.9888 59.661C41.9888 59.677 40.304 59.6904 38.2251 59.6904C36.1462 59.6904 34.4614 59.677 34.4614 59.661C34.4614 59.6449 36.1462 59.6328 38.2251 59.6328C40.304 59.6328 41.9888 59.6462 41.9888 59.661Z" fill="#263238"/>
<path d="M44.9329 43.3248C48.5929 39.3048 48.5929 32.787 44.9329 28.767C41.2728 24.747 35.3388 24.747 31.6788 28.767C28.0188 32.787 28.0188 39.3048 31.6788 43.3248C35.3388 47.3448 41.2728 47.3448 44.9329 43.3248Z" fill="white"/>
<path d="M44.0994 33.0347C44.075 32.2763 44.4996 31.4991 44.2495 30.7929C44.0628 30.2676 43.5516 29.9514 43.3467 29.4355C43.1417 28.9196 43.271 28.3635 43.354 27.8275C43.4369 27.2915 43.454 26.6697 43.11 26.2798C42.8257 25.9595 42.3707 25.8885 42.0718 25.5843C41.7997 25.3163 41.6997 24.8835 41.6765 24.4775C41.6533 24.0715 41.6948 23.6628 41.6472 23.2594C41.5953 22.8455 41.4532 22.4515 41.233 22.1109C41.0127 21.7703 40.7208 21.4931 40.3821 21.303C39.7037 20.9319 38.8558 20.9587 38.2214 21.6769L40.4992 31.1909C41.779 31.4361 42.9672 32.1075 44.0994 33.0347Z" fill="#263238"/>
<path d="M44.1494 29.1459C44.1753 29.1536 44.1995 29.1673 44.2202 29.1861C44.2819 29.2396 44.3232 29.3166 44.3361 29.4018C44.3497 29.4684 44.3481 29.5377 44.3312 29.6035C44.3144 29.6692 44.283 29.7293 44.2397 29.7784C44.1778 29.8383 44.1026 29.8794 44.0217 29.8976C43.9407 29.9157 43.8569 29.9101 43.7785 29.8815C43.6839 29.8468 43.5986 29.7871 43.5299 29.7076C43.4612 29.6282 43.4112 29.5315 43.3845 29.4259C43.3207 29.187 43.3241 28.9324 43.3942 28.6956C43.4552 28.4451 43.5614 28.1998 43.6382 27.9372C43.7214 27.6678 43.7403 27.3794 43.6931 27.0997C43.6505 26.8289 43.5502 26.5729 43.4002 26.3528C43.2503 26.1328 43.0551 25.9548 42.8306 25.8334C42.6232 25.7235 42.4097 25.6512 42.2206 25.5493C42.0568 25.47 41.9115 25.3508 41.7957 25.2009C41.6799 25.051 41.5966 24.8741 41.552 24.6837C41.5205 24.5554 41.5073 24.4225 41.513 24.2897C41.5166 24.2059 41.5284 24.1228 41.5484 24.0418C41.554 24.0123 41.5626 23.9835 41.574 23.9561C41.5502 24.0645 41.5367 24.1755 41.5337 24.287C41.5275 24.5441 41.5913 24.7973 41.717 25.0143C41.8426 25.2313 42.0243 25.4022 42.2389 25.5051C42.4243 25.6016 42.6366 25.6726 42.8489 25.7838C43.0811 25.9075 43.2831 26.0901 43.4382 26.3166C43.5933 26.5431 43.697 26.807 43.7407 27.0863C43.7894 27.3749 43.7701 27.6725 43.6846 27.9506C43.6053 28.2186 43.4992 28.4625 43.4406 28.7064C43.3724 28.9336 43.3673 29.1781 43.426 29.4085C43.4504 29.5079 43.4965 29.5992 43.5602 29.6746C43.624 29.75 43.7035 29.8073 43.792 29.8413C43.8646 29.8687 43.9424 29.875 44.0179 29.8595C44.0934 29.844 44.1639 29.8073 44.2226 29.7529C44.2634 29.7076 44.2935 29.6521 44.3103 29.5911C44.3271 29.5302 44.3301 29.4657 44.319 29.4032C44.3084 29.322 44.2722 29.2475 44.2165 29.1928C44.175 29.1593 44.1482 29.1499 44.1494 29.1459Z" fill="#263238"/>
<path d="M36.0694 22.5537C35.7424 23.5292 35.596 24.3212 35.2751 25.0997C35.0946 25.5392 34.8542 25.9801 34.8762 26.4625C34.8921 26.7921 35.0324 27.1084 35.0238 27.4394C35.0104 28.0223 34.5602 28.4604 34.1601 28.8437C33.7599 29.2269 33.3427 29.7334 33.4281 30.3083C33.4634 30.5589 33.594 30.7867 33.6135 31.0399C33.6379 31.3481 33.4915 31.6429 33.3195 31.8868C33.1302 32.1163 32.9561 32.3604 32.7985 32.6171L32.7363 33.0821L37.7383 31.3401" fill="#263238"/>
<path d="M48.2937 31.0397C48.1717 30.1205 48.2876 29.1892 48.2547 28.7095C48.1937 27.817 48.1205 27.8197 48.0265 27.8438C47.774 27.9055 48.0802 29.4156 47.8423 29.1289C47.6044 28.8421 47.663 27.2381 47.4019 27.3145C47.0615 27.4137 47.4092 28.9909 47.4287 29.1262C47.4482 29.2615 47.2713 29.2937 47.2591 29.1704C47.2408 28.9922 47.0151 27.135 46.676 27.2301C46.4905 27.2824 46.615 27.6321 46.615 27.6321C46.615 27.6321 46.948 29.3567 46.7882 29.3955C46.6284 29.4344 46.399 28.4281 46.3454 28.0837C46.2917 27.7393 46.1221 27.6294 46.0038 27.7768C45.9232 27.8773 46.0672 28.9359 46.1258 29.2749C46.1843 29.614 46.3698 30.5426 45.9391 30.1553C45.5084 29.7681 45.0485 29.6448 44.9045 29.7037C44.7606 29.7627 44.7899 30.0066 44.9558 30.0562C45.1296 30.1303 45.2937 30.2294 45.4438 30.351C45.5636 30.4507 45.6725 30.5654 45.7683 30.6927C45.8781 30.8267 46.2734 31.3533 46.3685 31.8866L48.2876 31.033" fill="#FFBE9D"/>
<path d="M47.7607 30.5679C47.7607 30.5773 47.7082 30.5907 47.6387 30.647C47.5366 30.722 47.4621 30.8346 47.4289 30.9646L47.4106 31.0396L47.3752 30.9726C47.3241 30.879 47.2585 30.796 47.1812 30.7274C47.0303 30.5933 46.8463 30.5121 46.6529 30.4942C46.5041 30.4795 46.4089 30.509 46.4089 30.4942C46.4844 30.4529 46.5689 30.4352 46.6529 30.4433C46.8592 30.4472 47.0582 30.5275 47.2178 30.6711C47.301 30.7453 47.3706 30.8363 47.4228 30.9391L47.3703 30.9472C47.3887 30.8763 47.4198 30.8103 47.4617 30.7528C47.5036 30.6953 47.5555 30.6475 47.6143 30.6122C47.6577 30.5811 47.7089 30.5657 47.7607 30.5679Z" fill="#EB996E"/>
<path d="M48.3583 30.8613L46.2331 31.7819L46.8504 37.0079L46.4026 36.2575L45.5621 35.0515C43.3087 30.7916 40.4234 31.4643 40.4234 31.4643L36.6256 31.14C36.6256 31.14 34.2209 31.1869 32.835 32.9142C32.4788 33.3577 30.417 37.8869 29.5654 39.7737C30.0876 41.244 30.9108 42.5626 31.9713 43.6275L34.138 38.7097L34.504 40.4343C34.7506 41.3705 34.754 42.3637 34.5137 43.3019L33.9306 45.1444C35.3277 45.9509 36.8875 46.3572 38.4655 46.3258C40.0436 46.2944 41.589 45.8263 42.9586 44.9648L42.4047 43.5203C42.0324 42.5432 41.9351 41.466 42.1253 40.4276L42.5316 38.1992L44.8008 40.571C45.037 40.862 45.2949 41.131 45.5718 41.375C46.6222 42.2915 47.4433 42.313 47.4433 42.313C51.0411 42.1562 48.3583 30.8613 48.3583 30.8613Z" fill="#F28B74"/>
<path d="M35.4093 35.5008C35.4093 35.5313 35.401 35.5611 35.3856 35.5864C35.3702 35.6117 35.3483 35.6315 35.3227 35.6432C35.297 35.6548 35.2688 35.6579 35.2416 35.6519C35.2144 35.646 35.1894 35.6313 35.1698 35.6097C35.1501 35.5882 35.1368 35.5607 35.1314 35.5308C35.1259 35.501 35.1287 35.47 35.1393 35.4418C35.15 35.4137 35.1679 35.3896 35.191 35.3727C35.2141 35.3557 35.2412 35.3467 35.269 35.3467C35.2874 35.3465 35.3057 35.3504 35.3228 35.3581C35.3399 35.3657 35.3555 35.3771 35.3685 35.3914C35.3816 35.4058 35.3919 35.4228 35.3989 35.4416C35.4059 35.4604 35.4094 35.4805 35.4093 35.5008Z" fill="#FAFAFA"/>
<path d="M34.4041 37.0951C34.4041 37.1254 34.396 37.1549 34.3807 37.18C34.3654 37.2051 34.3437 37.2247 34.3183 37.2363C34.2929 37.2478 34.2649 37.2509 34.2379 37.245C34.2109 37.2391 34.1862 37.2245 34.1667 37.2032C34.1473 37.1818 34.134 37.1546 34.1286 37.1249C34.1233 37.0953 34.126 37.0646 34.1366 37.0367C34.1471 37.0088 34.1649 36.9849 34.1878 36.9681C34.2107 36.9513 34.2375 36.9424 34.2651 36.9424C34.3019 36.9424 34.3373 36.9585 34.3634 36.9871C34.3895 37.0158 34.4041 37.0546 34.4041 37.0951Z" fill="#FAFAFA"/>
<path d="M37.5748 35.5008C37.5745 35.5309 37.5662 35.5603 37.5508 35.5853C37.5353 35.6102 37.5135 35.6296 37.4881 35.641C37.4627 35.6523 37.4347 35.6551 37.4078 35.6491C37.3809 35.6431 37.3563 35.6284 37.3369 35.607C37.3176 35.5856 37.3045 35.5583 37.2992 35.5288C37.2939 35.4992 37.2968 35.4685 37.3073 35.4407C37.3179 35.4128 37.3357 35.3891 37.3586 35.3723C37.3814 35.3556 37.4083 35.3467 37.4357 35.3467C37.4541 35.3467 37.4723 35.3507 37.4892 35.3584C37.5062 35.3662 37.5216 35.3776 37.5345 35.3919C37.5474 35.4062 37.5576 35.4232 37.5646 35.4419C37.5715 35.4606 37.5749 35.4806 37.5748 35.5008Z" fill="#FAFAFA"/>
<path d="M34.3651 32.3045C34.3648 32.3346 34.3565 32.364 34.341 32.389C34.3256 32.4139 34.3038 32.4333 34.2784 32.4447C34.2529 32.456 34.225 32.4589 34.1981 32.4528C34.1712 32.4468 34.1466 32.4321 34.1272 32.4107C34.1079 32.3893 34.0948 32.3621 34.0895 32.3325C34.0842 32.3029 34.0871 32.2722 34.0976 32.2444C34.1082 32.2166 34.126 32.1928 34.1488 32.176C34.1717 32.1593 34.1985 32.1504 34.226 32.1504C34.2444 32.1504 34.2625 32.1544 34.2795 32.1621C34.2965 32.1699 34.3118 32.1813 34.3248 32.1956C34.3377 32.2099 34.3479 32.2269 34.3548 32.2456C34.3618 32.2643 34.3652 32.2843 34.3651 32.3045Z" fill="#FAFAFA"/>
<path d="M38.5777 37.3211C38.5775 37.3512 38.5691 37.3806 38.5537 37.4056C38.5383 37.4305 38.5165 37.4499 38.491 37.4613C38.4656 37.4726 38.4377 37.4755 38.4108 37.4694C38.3839 37.4634 38.3592 37.4487 38.3399 37.4273C38.3205 37.4059 38.3074 37.3787 38.3021 37.3491C38.2969 37.3195 38.2997 37.2888 38.3103 37.261C38.3208 37.2332 38.3386 37.2094 38.3615 37.1926C38.3843 37.1759 38.4112 37.167 38.4386 37.167C38.457 37.167 38.4752 37.171 38.4921 37.1787C38.5091 37.1865 38.5245 37.1979 38.5374 37.2122C38.5503 37.2265 38.5606 37.2435 38.5675 37.2622C38.5744 37.2809 38.5779 37.3009 38.5777 37.3211Z" fill="#FAFAFA"/>
<path d="M40.2967 36.6766C40.2967 36.707 40.2885 36.7368 40.2731 36.7622C40.2577 36.7875 40.2357 36.8073 40.2101 36.8189C40.1845 36.8306 40.1563 36.8336 40.129 36.8277C40.1018 36.8218 40.0768 36.8071 40.0572 36.7855C40.0376 36.764 40.0242 36.7365 40.0188 36.7066C40.0134 36.6767 40.0162 36.6457 40.0268 36.6176C40.0374 36.5894 40.0554 36.5654 40.0785 36.5484C40.1015 36.5315 40.1287 36.5225 40.1564 36.5225C40.1936 36.5225 40.2293 36.5387 40.2556 36.5676C40.2819 36.5965 40.2967 36.6357 40.2967 36.6766Z" fill="#FAFAFA"/>
<path d="M43.0672 35.1508C43.0672 35.181 43.0591 35.2106 43.0438 35.2357C43.0285 35.2608 43.0068 35.2804 42.9814 35.2919C42.956 35.3035 42.928 35.3065 42.901 35.3006C42.874 35.2947 42.8492 35.2802 42.8298 35.2588C42.8103 35.2375 42.7971 35.2102 42.7917 35.1806C42.7864 35.151 42.7891 35.1203 42.7997 35.0923C42.8102 35.0644 42.828 35.0406 42.8509 35.0238C42.8737 35.007 42.9006 34.998 42.9281 34.998C42.965 34.998 43.0004 35.0141 43.0265 35.0428C43.0526 35.0714 43.0672 35.1103 43.0672 35.1508Z" fill="#FAFAFA"/>
<path d="M45.6366 37.6615C45.6366 37.6918 45.6284 37.7213 45.6131 37.7464C45.5978 37.7715 45.5761 37.7911 45.5507 37.8027C45.5253 37.8142 45.4973 37.8173 45.4703 37.8114C45.4434 37.8055 45.4186 37.7909 45.3991 37.7696C45.3797 37.7482 45.3664 37.721 45.3611 37.6914C45.3557 37.6617 45.3585 37.631 45.369 37.6031C45.3795 37.5752 45.3973 37.5513 45.4202 37.5345C45.4431 37.5177 45.47 37.5088 45.4975 37.5088C45.5344 37.5088 45.5697 37.5249 45.5958 37.5535C45.6219 37.5822 45.6366 37.621 45.6366 37.6615Z" fill="#FAFAFA"/>
<path d="M46.9932 38.517C46.9935 38.5476 46.9855 38.5775 46.9702 38.603C46.9549 38.6285 46.9331 38.6485 46.9075 38.6603C46.8819 38.6722 46.8536 38.6755 46.8263 38.6697C46.799 38.6639 46.7739 38.6493 46.7542 38.6278C46.7344 38.6063 46.7209 38.5789 46.7154 38.5489C46.7099 38.519 46.7126 38.4879 46.7232 38.4597C46.7338 38.4315 46.7518 38.4073 46.7749 38.3903C46.798 38.3733 46.8251 38.3643 46.8529 38.3643C46.8713 38.3641 46.8895 38.3679 46.9065 38.3755C46.9236 38.3831 46.939 38.3943 46.9521 38.4085C46.9651 38.4227 46.9755 38.4396 46.9825 38.4583C46.9896 38.4769 46.9932 38.4968 46.9932 38.517Z" fill="#FAFAFA"/>
<path d="M47.3787 40.6752C47.3787 40.7054 47.3706 40.735 47.3553 40.7601C47.34 40.7852 47.3183 40.8048 47.2929 40.8164C47.2675 40.8279 47.2395 40.8309 47.2125 40.825C47.1856 40.8192 47.1608 40.8046 47.1413 40.7832C47.1219 40.7619 47.1086 40.7347 47.1033 40.705C47.0979 40.6754 47.1006 40.6447 47.1112 40.6168C47.1217 40.5888 47.1395 40.565 47.1624 40.5482C47.1853 40.5314 47.2122 40.5225 47.2397 40.5225C47.2766 40.5225 47.3119 40.5386 47.338 40.5672C47.3641 40.5959 47.3787 40.6347 47.3787 40.6752Z" fill="#FAFAFA"/>
<path d="M48.7013 39.1414C48.701 39.1716 48.6926 39.201 48.6772 39.2259C48.6618 39.2509 48.64 39.2702 48.6146 39.2816C48.5891 39.2929 48.5612 39.2958 48.5343 39.2897C48.5074 39.2837 48.4827 39.269 48.4634 39.2476C48.4441 39.2262 48.4309 39.199 48.4257 39.1694C48.4204 39.1398 48.4232 39.1091 48.4338 39.0813C48.4444 39.0535 48.4622 39.0297 48.485 39.013C48.5079 38.9962 48.5347 38.9873 48.5622 38.9873C48.5805 38.9873 48.5987 38.9913 48.6157 38.9991C48.6326 39.0068 48.648 39.0182 48.6609 39.0325C48.6739 39.0468 48.6841 39.0638 48.691 39.0825C48.6979 39.1012 48.7014 39.1212 48.7013 39.1414Z" fill="#FAFAFA"/>
<path d="M47.8106 37.0951C47.8109 37.1257 47.8028 37.1556 47.7876 37.1811C47.7723 37.2066 47.7505 37.2266 47.7249 37.2385C47.6992 37.2503 47.671 37.2536 47.6437 37.2478C47.6164 37.242 47.5913 37.2274 47.5716 37.2059C47.5518 37.1844 47.5383 37.157 47.5328 37.127C47.5273 37.0971 47.53 37.0661 47.5406 37.0378C47.5512 37.0096 47.5692 36.9854 47.5923 36.9684C47.6154 36.9515 47.6425 36.9424 47.6703 36.9424C47.7073 36.9424 47.7428 36.9584 47.7691 36.987C47.7954 37.0157 47.8103 37.0545 47.8106 37.0951Z" fill="#FAFAFA"/>
<path d="M48.7013 35.3461C48.7013 35.3763 48.6931 35.4059 48.6778 35.431C48.6625 35.4561 48.6408 35.4757 48.6154 35.4873C48.59 35.4988 48.562 35.5018 48.535 35.4959C48.5081 35.49 48.4833 35.4755 48.4638 35.4541C48.4444 35.4328 48.4311 35.4056 48.4258 35.3759C48.4204 35.3463 48.4232 35.3156 48.4337 35.2877C48.4442 35.2597 48.462 35.2359 48.4849 35.2191C48.5078 35.2023 48.5347 35.1934 48.5622 35.1934C48.599 35.1937 48.6342 35.2099 48.6602 35.2385C48.6862 35.2671 48.7009 35.3057 48.7013 35.3461Z" fill="#FAFAFA"/>
<path d="M47.5899 33.8168C47.5902 33.8474 47.5821 33.8774 47.5668 33.9029C47.5515 33.9285 47.5296 33.9484 47.5039 33.9603C47.4782 33.9721 47.4499 33.9753 47.4226 33.9694C47.3952 33.9635 47.3701 33.9488 47.3504 33.9271C47.3307 33.9055 47.3173 33.8779 47.312 33.8479C47.3066 33.8179 47.3095 33.7868 47.3202 33.7586C47.331 33.7304 47.3492 33.7063 47.3724 33.6895C47.3957 33.6726 47.423 33.6638 47.4508 33.6641C47.4877 33.6641 47.5231 33.6802 47.5492 33.7088C47.5753 33.7375 47.5899 33.7763 47.5899 33.8168Z" fill="#FAFAFA"/>
<path d="M48.373 32.1505C48.3748 32.1718 48.3726 32.1934 48.3664 32.2137C48.3602 32.2341 48.3502 32.2528 48.337 32.2686C48.3239 32.2845 48.3079 32.2971 48.29 32.3058C48.2722 32.3145 48.2528 32.3189 48.2333 32.3189C48.2138 32.3189 48.1945 32.3145 48.1766 32.3058C48.1588 32.2971 48.1427 32.2845 48.1296 32.2686C48.1164 32.2528 48.1065 32.2341 48.1003 32.2137C48.0941 32.1934 48.0918 32.1718 48.0936 32.1505C48.0969 32.1123 48.113 32.0768 48.1388 32.0509C48.1647 32.0251 48.1984 32.0107 48.2333 32.0107C48.2683 32.0107 48.302 32.0251 48.3278 32.0509C48.3536 32.0768 48.3698 32.1123 48.373 32.1505Z" fill="#FAFAFA"/>
<path d="M45.3206 39.9022C45.3206 39.9326 45.3124 39.9624 45.297 39.9878C45.2816 40.0131 45.2597 40.0329 45.234 40.0445C45.2084 40.0562 45.1802 40.0592 45.153 40.0533C45.1258 40.0473 45.1008 40.0327 45.0811 40.0111C45.0615 39.9896 45.0481 39.9621 45.0427 39.9322C45.0373 39.9023 45.0401 39.8713 45.0507 39.8432C45.0613 39.815 45.0793 39.791 45.1024 39.774C45.1255 39.7571 45.1526 39.7481 45.1803 39.7481C45.1988 39.7479 45.2171 39.7517 45.2342 39.7594C45.2513 39.7671 45.2669 39.7784 45.2799 39.7928C45.293 39.8071 45.3033 39.8242 45.3103 39.843C45.3173 39.8617 45.3208 39.8819 45.3206 39.9022Z" fill="#FAFAFA"/>
<path d="M43.7701 37.474C43.7701 37.5043 43.7619 37.5338 43.7467 37.5589C43.7314 37.584 43.7097 37.6036 43.6842 37.6152C43.6588 37.6267 43.6309 37.6298 43.6039 37.6239C43.5769 37.618 43.5521 37.6034 43.5327 37.5821C43.5132 37.5607 43.5 37.5335 43.4946 37.5039C43.4893 37.4742 43.492 37.4435 43.5025 37.4156C43.5131 37.3877 43.5309 37.3638 43.5538 37.347C43.5766 37.3302 43.6035 37.3213 43.631 37.3213C43.6679 37.3213 43.7033 37.3374 43.7294 37.366C43.7555 37.3947 43.7701 37.4335 43.7701 37.474Z" fill="#FAFAFA"/>
<path d="M45.6366 35.8569C45.6366 35.8871 45.6284 35.9166 45.6131 35.9417C45.5978 35.9669 45.5761 35.9864 45.5507 35.998C45.5253 36.0096 45.4973 36.0126 45.4703 36.0067C45.4434 36.0008 45.4186 35.9862 45.3991 35.9649C45.3797 35.9435 45.3664 35.9163 45.3611 35.8867C45.3557 35.857 45.3585 35.8263 45.369 35.7984C45.3795 35.7705 45.3973 35.7466 45.4202 35.7298C45.4431 35.7131 45.47 35.7041 45.4975 35.7041C45.5343 35.7045 45.5695 35.7207 45.5955 35.7492C45.6215 35.7778 45.6362 35.8165 45.6366 35.8569Z" fill="#FAFAFA"/>
<path d="M36.0243 33.6649C36.1011 33.6649 36.1634 33.5965 36.1634 33.5121C36.1634 33.4278 36.1011 33.3594 36.0243 33.3594C35.9475 33.3594 35.8853 33.4278 35.8853 33.5121C35.8853 33.5965 35.9475 33.6649 36.0243 33.6649Z" fill="#FAFAFA"/>
<path d="M32.408 36.9422C32.4078 36.9723 32.3994 37.0017 32.384 37.0267C32.3686 37.0516 32.3468 37.071 32.3213 37.0824C32.2959 37.0937 32.268 37.0966 32.2411 37.0905C32.2142 37.0845 32.1895 37.0698 32.1702 37.0484C32.1509 37.027 32.1377 36.9998 32.1325 36.9702C32.1272 36.9406 32.13 36.9099 32.1406 36.8821C32.1511 36.8542 32.169 36.8305 32.1918 36.8137C32.2147 36.797 32.2415 36.7881 32.269 36.7881C32.2873 36.7881 32.3055 36.7921 32.3225 36.7998C32.3394 36.8076 32.3548 36.819 32.3677 36.8333C32.3807 36.8476 32.3909 36.8646 32.3978 36.8833C32.4047 36.902 32.4082 36.922 32.408 36.9422Z" fill="#FAFAFA"/>
<path d="M32.2691 40.9741C32.2694 41.0046 32.2613 41.0346 32.246 41.0602C32.2307 41.0857 32.2088 41.1057 32.1831 41.1175C32.1574 41.1293 32.1291 41.1325 32.1018 41.1266C32.0744 41.1207 32.0493 41.106 32.0296 41.0844C32.0099 41.0627 31.9965 41.0351 31.9912 41.0051C31.9858 40.9751 31.9887 40.944 31.9994 40.9158C32.0102 40.8876 32.0284 40.8635 32.0516 40.8467C32.0749 40.8299 32.1022 40.821 32.13 40.8213C32.1669 40.8213 32.2023 40.8374 32.2284 40.866C32.2545 40.8947 32.2691 40.9335 32.2691 40.9741Z" fill="#FAFAFA"/>
<path d="M30.9345 42.0038C31.0113 42.0038 31.0736 41.9354 31.0736 41.851C31.0736 41.7666 31.0113 41.6982 30.9345 41.6982C30.8577 41.6982 30.7954 41.7666 30.7954 41.851C30.7954 41.9354 30.8577 42.0038 30.9345 42.0038Z" fill="#FAFAFA"/>
<path d="M35.6876 37.6615C35.6876 37.6918 35.6794 37.7213 35.6641 37.7464C35.6489 37.7715 35.6271 37.7911 35.6017 37.8027C35.5763 37.8142 35.5484 37.8173 35.5214 37.8114C35.4944 37.8055 35.4696 37.7909 35.4502 37.7696C35.4307 37.7482 35.4175 37.721 35.4121 37.6914C35.4067 37.6617 35.4095 37.631 35.42 37.6031C35.4305 37.5752 35.4484 37.5513 35.4712 37.5345C35.4941 37.5177 35.521 37.5088 35.5485 37.5088C35.5854 37.5088 35.6208 37.5249 35.6468 37.5535C35.6729 37.5822 35.6876 37.621 35.6876 37.6615Z" fill="#FAFAFA"/>
<path d="M37.6236 38.6694C37.6239 38.7 37.6158 38.7299 37.6005 38.7555C37.5852 38.781 37.5633 38.801 37.5376 38.8128C37.5119 38.8246 37.4836 38.8278 37.4562 38.8219C37.4289 38.816 37.4038 38.8013 37.3841 38.7797C37.3644 38.758 37.351 38.7305 37.3457 38.7004C37.3403 38.6704 37.3432 38.6393 37.3539 38.6111C37.3647 38.5829 37.3829 38.5588 37.4061 38.542C37.4294 38.5252 37.4567 38.5163 37.4845 38.5166C37.5214 38.5166 37.5568 38.5327 37.5829 38.5613C37.609 38.59 37.6236 38.6289 37.6236 38.6694Z" fill="#FAFAFA"/>
<path d="M41.086 38.8227C41.086 38.8529 41.0779 38.8824 41.0626 38.9076C41.0473 38.9327 41.0256 38.9523 41.0002 38.9638C40.9748 38.9754 40.9468 38.9784 40.9198 38.9725C40.8928 38.9666 40.868 38.9521 40.8486 38.9307C40.8291 38.9093 40.8159 38.8821 40.8105 38.8525C40.8052 38.8229 40.8079 38.7921 40.8184 38.7642C40.829 38.7363 40.8468 38.7125 40.8697 38.6957C40.8925 38.6789 40.9194 38.6699 40.9469 38.6699C40.9837 38.6703 41.0189 38.6865 41.0449 38.715C41.0709 38.7436 41.0857 38.7823 41.086 38.8227Z" fill="#FAFAFA"/>
<path d="M41.9887 36.7882C41.9905 36.8095 41.9883 36.8311 41.9821 36.8514C41.9759 36.8718 41.9659 36.8904 41.9528 36.9063C41.9396 36.9222 41.9236 36.9348 41.9057 36.9435C41.8879 36.9522 41.8686 36.9566 41.849 36.9566C41.8295 36.9566 41.8102 36.9522 41.7923 36.9435C41.7745 36.9348 41.7585 36.9222 41.7453 36.9063C41.7322 36.8904 41.7222 36.8718 41.716 36.8514C41.7098 36.8311 41.7075 36.8095 41.7094 36.7882C41.7126 36.75 41.7287 36.7145 41.7546 36.6886C41.7804 36.6628 41.8141 36.6484 41.849 36.6484C41.884 36.6484 41.9177 36.6628 41.9435 36.6886C41.9694 36.7145 41.9855 36.75 41.9887 36.7882Z" fill="#FAFAFA"/>
<path d="M41.3128 43.9369C41.3128 43.9672 41.3047 43.9967 41.2894 44.0218C41.2741 44.0469 41.2524 44.0665 41.227 44.0781C41.2016 44.0896 41.1736 44.0927 41.1466 44.0868C41.1196 44.0809 41.0949 44.0663 41.0754 44.045C41.056 44.0236 41.0427 43.9964 41.0373 43.9667C41.032 43.9371 41.0347 43.9064 41.0453 43.8785C41.0558 43.8506 41.0736 43.8267 41.0965 43.8099C41.1194 43.7931 41.1462 43.7842 41.1737 43.7842C41.2106 43.7842 41.246 43.8003 41.2721 43.8289C41.2982 43.8576 41.3128 43.8964 41.3128 43.9369Z" fill="#FAFAFA"/>
<path d="M41.3128 45.5307C41.3128 45.5609 41.3047 45.5904 41.2894 45.6156C41.2741 45.6407 41.2524 45.6603 41.227 45.6718C41.2016 45.6834 41.1736 45.6864 41.1466 45.6805C41.1196 45.6746 41.0949 45.6601 41.0754 45.6387C41.056 45.6173 41.0427 45.5901 41.0373 45.5605C41.032 45.5309 41.0347 45.5001 41.0453 45.4722C41.0558 45.4443 41.0736 45.4205 41.0965 45.4037C41.1194 45.3869 41.1462 45.3779 41.1737 45.3779C41.2105 45.3783 41.2457 45.3945 41.2717 45.4231C41.2978 45.4516 41.3125 45.4903 41.3128 45.5307Z" fill="#FAFAFA"/>
<path d="M41.8485 41.2836C41.8485 41.3138 41.8403 41.3434 41.825 41.3685C41.8097 41.3936 41.788 41.4132 41.7626 41.4247C41.7372 41.4363 41.7092 41.4393 41.6823 41.4334C41.6553 41.4275 41.6305 41.413 41.611 41.3916C41.5916 41.3703 41.5784 41.3431 41.573 41.3134C41.5676 41.2838 41.5704 41.2531 41.5809 41.2252C41.5914 41.1972 41.6093 41.1734 41.6321 41.1566C41.655 41.1398 41.6819 41.1309 41.7094 41.1309C41.7462 41.1312 41.7814 41.1474 41.8074 41.176C41.8334 41.2046 41.8482 41.2432 41.8485 41.2836Z" fill="#FAFAFA"/>
<path d="M39.461 40.0512C39.461 40.0814 39.4529 40.1109 39.4376 40.1361C39.4223 40.1612 39.4006 40.1808 39.3752 40.1923C39.3498 40.2039 39.3218 40.2069 39.2948 40.201C39.2678 40.1951 39.243 40.1806 39.2236 40.1592C39.2041 40.1379 39.1909 40.1106 39.1855 40.081C39.1802 40.0514 39.1829 40.0207 39.1934 39.9927C39.204 39.9648 39.2218 39.941 39.2447 39.9242C39.2675 39.9074 39.2944 39.8984 39.3219 39.8984C39.3588 39.8984 39.3942 39.9145 39.4203 39.9432C39.4464 39.9718 39.461 40.0107 39.461 40.0512Z" fill="#FAFAFA"/>
<path d="M40.0172 42.0033C40.0172 42.0336 40.009 42.0631 39.9937 42.0882C39.9785 42.1133 39.9567 42.1329 39.9313 42.1445C39.9059 42.156 39.8779 42.1591 39.851 42.1532C39.824 42.1473 39.7992 42.1327 39.7797 42.1114C39.7603 42.09 39.7471 42.0628 39.7417 42.0331C39.7363 42.0035 39.7391 41.9728 39.7496 41.9449C39.7601 41.917 39.778 41.8931 39.8008 41.8763C39.8237 41.8595 39.8506 41.8506 39.8781 41.8506C39.915 41.8506 39.9504 41.8667 39.9764 41.8953C40.0025 41.924 40.0172 41.9628 40.0172 42.0033Z" fill="#FAFAFA"/>
<path d="M37.3443 41.1313C37.3443 41.1615 37.3362 41.191 37.3209 41.2161C37.3056 41.2413 37.2839 41.2608 37.2585 41.2724C37.2331 41.284 37.2051 41.287 37.1781 41.2811C37.1511 41.2752 37.1263 41.2607 37.1069 41.2393C37.0874 41.2179 37.0742 41.1907 37.0688 41.1611C37.0635 41.1314 37.0662 41.1007 37.0767 41.0728C37.0873 41.0449 37.1051 41.021 37.128 41.0043C37.1508 40.9875 37.1777 40.9785 37.2052 40.9785C37.2421 40.9785 37.2775 40.9946 37.3036 41.0233C37.3297 41.0519 37.3443 41.0908 37.3443 41.1313Z" fill="#FAFAFA"/>
<path d="M36.7574 44.7328C36.7574 44.763 36.7493 44.7926 36.734 44.8177C36.7187 44.8428 36.697 44.8624 36.6716 44.874C36.6461 44.8855 36.6182 44.8886 36.5912 44.8827C36.5642 44.8768 36.5394 44.8622 36.52 44.8409C36.5005 44.8195 36.4873 44.7923 36.4819 44.7626C36.4766 44.733 36.4793 44.7023 36.4898 44.6744C36.5004 44.6465 36.5182 44.6226 36.5411 44.6058C36.5639 44.589 36.5908 44.5801 36.6183 44.5801C36.6552 44.5801 36.6906 44.5962 36.7167 44.6248C36.7428 44.6535 36.7574 44.6923 36.7574 44.7328Z" fill="#FAFAFA"/>
<path d="M38.0677 43.2924C38.0677 43.3226 38.0596 43.3522 38.0443 43.3773C38.029 43.4024 38.0073 43.422 37.9819 43.4335C37.9564 43.4451 37.9285 43.4481 37.9015 43.4422C37.8745 43.4363 37.8497 43.4218 37.8303 43.4004C37.8108 43.3791 37.7976 43.3518 37.7922 43.3222C37.7869 43.2926 37.7896 43.2619 37.8001 43.2339C37.8107 43.206 37.8285 43.1822 37.8514 43.1654C37.8742 43.1486 37.9011 43.1396 37.9286 43.1396C37.9655 43.1396 38.0009 43.1557 38.027 43.1844C38.0531 43.213 38.0677 43.2519 38.0677 43.2924Z" fill="#FAFAFA"/>
<path d="M35.2887 45.226C35.2887 45.2562 35.2805 45.2857 35.2652 45.3109C35.2499 45.336 35.2282 45.3556 35.2028 45.3671C35.1774 45.3787 35.1494 45.3817 35.1224 45.3758C35.0955 45.3699 35.0707 45.3554 35.0512 45.334C35.0318 45.3127 35.0185 45.2854 35.0132 45.2558C35.0078 45.2262 35.0106 45.1955 35.0211 45.1675C35.0316 45.1396 35.0494 45.1158 35.0723 45.099C35.0952 45.0822 35.1221 45.0732 35.1496 45.0732C35.1865 45.0732 35.2218 45.0893 35.2479 45.118C35.274 45.1466 35.2887 45.1855 35.2887 45.226Z" fill="#FAFAFA"/>
<path d="M38.0678 46.2508C38.1446 46.2508 38.2069 46.1824 38.2069 46.0981C38.2069 46.0137 38.1446 45.9453 38.0678 45.9453C37.991 45.9453 37.9287 46.0137 37.9287 46.0981C37.9287 46.1824 37.991 46.2508 38.0678 46.2508Z" fill="#FAFAFA"/>
<path d="M39.5865 44.8862C39.5865 44.9164 39.5784 44.9459 39.5631 44.971C39.5478 44.9962 39.5261 45.0157 39.5007 45.0273C39.4752 45.0389 39.4473 45.0419 39.4203 45.036C39.3933 45.0301 39.3685 45.0155 39.3491 44.9942C39.3296 44.9728 39.3164 44.9456 39.311 44.916C39.3057 44.8863 39.3084 44.8556 39.3189 44.8277C39.3295 44.7998 39.3473 44.7759 39.3702 44.7591C39.393 44.7424 39.4199 44.7334 39.4474 44.7334C39.4842 44.7337 39.5194 44.75 39.5454 44.7785C39.5714 44.8071 39.5862 44.8458 39.5865 44.8862Z" fill="#FAFAFA"/>
<path d="M35.5484 40.0512C35.5487 40.0818 35.5406 40.1118 35.5253 40.1373C35.51 40.1629 35.4881 40.1828 35.4624 40.1946C35.4367 40.2065 35.4084 40.2096 35.381 40.2037C35.3537 40.1978 35.3286 40.1831 35.3089 40.1615C35.2892 40.1399 35.2758 40.1123 35.2705 40.0823C35.2651 40.0523 35.268 40.0212 35.2787 39.993C35.2895 39.9647 35.3077 39.9407 35.3309 39.9239C35.3542 39.907 35.3815 39.8982 35.4093 39.8984C35.4462 39.8984 35.4816 39.9145 35.5077 39.9432C35.5338 39.9718 35.5484 40.0107 35.5484 40.0512Z" fill="#FAFAFA"/>
<path d="M35.4777 43.1424C35.5545 43.1424 35.6168 43.074 35.6168 42.9897C35.6168 42.9053 35.5545 42.8369 35.4777 42.8369C35.4009 42.8369 35.3386 42.9053 35.3386 42.9897C35.3386 43.074 35.4009 43.1424 35.4777 43.1424Z" fill="#FAFAFA"/>
<path d="M30.8233 39.2934C30.8236 39.324 30.8155 39.354 30.8002 39.3795C30.7849 39.4051 30.763 39.425 30.7373 39.4368C30.7116 39.4487 30.6833 39.4518 30.656 39.4459C30.6286 39.44 30.6035 39.4253 30.5838 39.4037C30.5641 39.3821 30.5507 39.3545 30.5454 39.3245C30.54 39.2944 30.5429 39.2633 30.5536 39.2351C30.5644 39.2069 30.5826 39.1829 30.6058 39.166C30.6291 39.1492 30.6564 39.1404 30.6842 39.1406C30.7211 39.1406 30.7565 39.1567 30.7826 39.1854C30.8087 39.214 30.8233 39.2529 30.8233 39.2934Z" fill="#FAFAFA"/>
<path d="M32.8729 39.1414C32.8726 39.1716 32.8643 39.201 32.8489 39.2259C32.8334 39.2509 32.8116 39.2702 32.7862 39.2816C32.7608 39.2929 32.7328 39.2958 32.7059 39.2897C32.679 39.2837 32.6544 39.269 32.635 39.2476C32.6157 39.2262 32.6026 39.199 32.5973 39.1694C32.592 39.1398 32.5949 39.1091 32.6054 39.0813C32.616 39.0535 32.6338 39.0297 32.6567 39.013C32.6795 38.9962 32.7063 38.9873 32.7338 38.9873C32.7522 38.9873 32.7704 38.9913 32.7873 38.9991C32.8043 39.0068 32.8196 39.0182 32.8326 39.0325C32.8455 39.0468 32.8557 39.0638 32.8626 39.0825C32.8696 39.1012 32.873 39.1212 32.8729 39.1414Z" fill="#FAFAFA"/>
<path d="M33.5476 34.3823C33.5443 34.4205 33.5282 34.456 33.5024 34.4819C33.4765 34.5077 33.4428 34.5221 33.4079 34.5221C33.3729 34.5221 33.3392 34.5077 33.3134 34.4819C33.2876 34.456 33.2714 34.4205 33.2682 34.3823C33.2664 34.361 33.2686 34.3394 33.2748 34.3191C33.281 34.2988 33.291 34.2801 33.3042 34.2642C33.3173 34.2483 33.3333 34.2357 33.3512 34.227C33.369 34.2183 33.3884 34.2139 33.4079 34.2139C33.4274 34.2139 33.4467 34.2183 33.4646 34.227C33.4824 34.2357 33.4985 34.2483 33.5116 34.2642C33.5248 34.2801 33.5347 34.2988 33.5409 34.3191C33.5471 34.3394 33.5494 34.361 33.5476 34.3823Z" fill="#FAFAFA"/>
<g opacity="0.2">
<path d="M34.1382 38.7204C34.1382 38.7204 34.5042 37.8012 34.4883 37.8146C34.4725 37.828 34.8397 41.3174 34.6774 42.3143C34.6774 42.3143 34.5347 40.2789 34.1382 38.7204Z" fill="black"/>
</g>
<g opacity="0.2">
<path d="M39.988 33.391L39.0803 34.4724C39.0486 34.9762 39.3377 35.7106 39.6049 36.1219C39.7269 36.3082 39.8867 36.4931 40.0929 36.5105C40.2027 36.5108 40.3114 36.4866 40.4125 36.4395L42.8354 35.5203C42.7683 35.401 42.7012 35.2818 42.6354 35.1625C42.7879 35.2725 42.9607 35.3442 43.1414 35.3722C43.3221 35.4003 43.5062 35.3841 43.6805 35.3248C43.8549 35.2655 44.0151 35.1646 44.1497 35.0292C44.2843 34.8939 44.3901 34.7275 44.4593 34.5421C44.0492 34.3526 43.6981 34.0365 43.4484 33.6322C43.1987 33.2278 43.0612 32.7526 43.0526 32.2641L42.6036 31.9854L39.988 33.391Z" fill="black"/>
</g>
<g opacity="0.2">
<path d="M41.4996 40.6381C41.524 40.7131 40.437 41.217 39.0987 41.8441C37.7603 42.4712 36.6733 42.9697 36.6416 42.8973C36.6099 42.825 37.653 42.2072 38.9986 41.5828C40.3443 40.9584 41.4752 40.5724 41.4996 40.6381Z" fill="black"/>
</g>
<path d="M47.1714 39.1237C47.158 39.1237 47.0641 38.648 46.9616 38.0517C46.8922 37.6949 46.8393 37.3344 46.803 36.9717C46.8905 37.3246 46.9605 37.6825 47.0128 38.0437C47.0829 38.4004 47.1358 38.7609 47.1714 39.1237Z" fill="#263238"/>
<path d="M47.6485 38.9065C47.5856 38.8305 47.5307 38.7469 47.485 38.6572C47.3666 38.4474 47.2607 38.2294 47.1678 38.0047C47.0755 37.7794 46.9972 37.5475 46.9336 37.3105C46.9025 37.2139 46.8816 37.1136 46.8713 37.0117C46.9101 37.1044 46.9423 37.2003 46.9677 37.2985C47.0251 37.4767 47.108 37.7192 47.2117 37.9805C47.3154 38.2418 47.4301 38.4723 47.5131 38.6371C47.5639 38.7233 47.6092 38.8133 47.6485 38.9065Z" fill="#263238"/>
<path d="M34.5334 37.0981C34.5334 37.0981 34.5334 37.0807 34.5334 37.0458C34.5334 37.011 34.5334 36.956 34.5395 36.8971C34.5468 36.7631 34.5554 36.5741 34.5676 36.349C34.6071 35.749 34.5755 35.1459 34.4736 34.5548C34.3644 33.9643 34.108 33.4188 33.7331 32.9789C33.5715 32.8044 33.3908 32.6527 33.1951 32.5273C33.2104 32.5322 33.2251 32.5389 33.239 32.5474C33.2811 32.567 33.3218 32.5899 33.361 32.6158C33.5065 32.7077 33.6406 32.8198 33.7599 32.9494C34.148 33.3892 34.4127 33.9423 34.5224 34.5427C34.6256 35.1387 34.6527 35.7475 34.6029 36.3517C34.5883 36.5835 34.5712 36.7698 34.5578 36.8984C34.5517 36.9574 34.5468 37.007 34.5419 37.0472C34.5413 37.0645 34.5384 37.0816 34.5334 37.0981Z" fill="#263238"/>
<path d="M42.4391 35.2285C42.4665 35.3404 42.4844 35.4548 42.4928 35.5702C42.5159 35.7833 42.5391 36.0794 42.5464 36.4077C42.5538 36.736 42.5464 37.0322 42.5281 37.2466C42.5259 37.3625 42.5128 37.4779 42.4891 37.5909C42.4823 37.4754 42.4823 37.3594 42.4891 37.2439C42.4952 37.0308 42.4989 36.7347 42.4891 36.4091C42.4793 36.0834 42.4647 35.7873 42.4501 35.5742C42.4392 35.4594 42.4355 35.3439 42.4391 35.2285Z" fill="#263238"/>
<path d="M37.0662 31.0398C37.143 29.9758 38.2605 30.6231 38.1361 29.5658C37.8555 27.1817 37.7506 24.7766 37.8226 22.374" fill="#263238"/>
<path d="M40.4565 31.0665L40.8884 23.797C39.7904 22.1327 38.2959 21.787 36.4842 22.3726C36.4842 22.3726 35.7156 25.8861 35.8071 27.5651C35.9023 29.3258 37.0918 29.6769 37.0918 29.6769C37.0918 29.6769 37.0503 30.2692 36.9917 30.9955C36.6843 31.0504 36.361 31.1228 36.0243 31.2139C35.895 31.2501 38.4191 35.2567 38.4191 35.2567L41.5704 31.5047C41.2188 31.3041 40.8441 31.1567 40.4565 31.0665Z" fill="#FFBE9D"/>
<path d="M36.4866 25.1261C36.4807 25.1839 36.4957 25.2419 36.5283 25.2878C36.5609 25.3336 36.6086 25.3636 36.6611 25.3713C36.6867 25.3763 36.7129 25.3756 36.7382 25.3693C36.7636 25.363 36.7875 25.3512 36.8086 25.3346C36.8298 25.318 36.8477 25.2969 36.8613 25.2726C36.8749 25.2483 36.884 25.2213 36.888 25.1931C36.8939 25.1352 36.8789 25.0772 36.8463 25.0314C36.8137 24.9855 36.766 24.9555 36.7135 24.9478C36.6879 24.9427 36.6616 24.9432 36.6362 24.9494C36.6108 24.9557 36.5868 24.9675 36.5657 24.9841C36.5445 25.0007 36.5266 25.0219 36.513 25.0462C36.4994 25.0706 36.4904 25.0978 36.4866 25.1261Z" fill="#263238"/>
<path d="M36.2438 24.9343C36.2658 24.9651 36.4305 24.8579 36.6489 24.8821C36.8672 24.9062 37.0149 25.0429 37.0417 25.0161C37.0685 24.9893 37.0332 24.9491 36.9685 24.8821C36.8809 24.7998 36.7722 24.7497 36.6574 24.7387C36.544 24.7253 36.4298 24.7526 36.3317 24.8164C36.2597 24.87 36.2328 24.9196 36.2438 24.9343Z" fill="#263238"/>
<path d="M38.7119 25.409C38.7067 25.4669 38.7221 25.5248 38.7548 25.5705C38.7876 25.6162 38.8352 25.6462 38.8876 25.6543C38.9132 25.6594 38.9395 25.6589 38.9649 25.6527C38.9903 25.6464 39.0143 25.6347 39.0355 25.618C39.0567 25.6014 39.0746 25.5803 39.0882 25.5559C39.1017 25.5315 39.1107 25.5043 39.1145 25.476C39.1198 25.4182 39.1044 25.3603 39.0717 25.3146C39.0389 25.2689 38.9913 25.2388 38.9389 25.2308C38.9133 25.2258 38.887 25.2265 38.8617 25.2328C38.8364 25.2391 38.8124 25.2509 38.7913 25.2675C38.7702 25.2841 38.7523 25.3052 38.7386 25.3295C38.725 25.3538 38.7159 25.3808 38.7119 25.409Z" fill="#263238"/>
<path d="M38.4728 25.2131C38.4948 25.2452 38.6595 25.1367 38.8779 25.1608C39.0962 25.1849 39.2439 25.3216 39.2707 25.2948C39.2975 25.268 39.2622 25.2292 39.1975 25.1608C39.1092 25.0843 39.0022 25.0381 38.8901 25.0282C38.7768 25.0162 38.6629 25.0433 38.5643 25.1059C38.4887 25.1488 38.4618 25.1983 38.4728 25.2131Z" fill="#263238"/>
<path d="M37.4955 26.8624C37.3848 26.8099 37.2683 26.7734 37.149 26.7538C37.0929 26.7418 37.0417 26.723 37.0368 26.6801C37.0373 26.6166 37.0556 26.5549 37.0893 26.5032L37.2954 26.0557C37.5834 25.4192 37.7981 24.8926 37.7737 24.8792C37.7493 24.8658 37.498 25.3736 37.21 26.0115L37.0112 26.4617C36.9696 26.5318 36.9519 26.6158 36.9612 26.6989C36.9674 26.7211 36.9781 26.7416 36.9924 26.7587C37.0068 26.7759 37.0244 26.7893 37.0441 26.798C37.0738 26.8109 37.105 26.819 37.1368 26.8222C37.2544 26.8521 37.3749 26.8656 37.4955 26.8624Z" fill="#263238"/>
<path d="M37.0918 29.6764C37.8323 29.7685 38.5815 29.6331 39.2561 29.2852C39.2561 29.2852 38.6363 30.4215 37.0723 30.0892L37.0918 29.6764Z" fill="#EB996E"/>
<path d="M37.537 27.4479C37.5836 27.3952 37.6417 27.3564 37.7057 27.3351C37.7697 27.3138 37.8376 27.3106 37.903 27.326C37.9505 27.3363 37.9957 27.357 38.0359 27.3866C38.0761 27.4163 38.1106 27.4544 38.1372 27.4988C38.1629 27.5418 38.1758 27.5924 38.1743 27.6437C38.1728 27.695 38.1568 27.7446 38.1287 27.7856C38.0899 27.8249 38.0413 27.8506 37.9891 27.8592C37.9368 27.8678 37.8835 27.8589 37.8359 27.8338C37.7365 27.7831 37.6474 27.7111 37.5736 27.6221C37.5512 27.6 37.5326 27.5737 37.5187 27.5444C37.5119 27.5303 37.509 27.5143 37.5103 27.4983C37.5116 27.4824 37.5171 27.4672 37.526 27.4546" fill="#EB996E"/>
<path d="M38.1226 27.0968C38.0872 27.0901 38.0628 27.3501 37.8445 27.5122C37.6261 27.6743 37.376 27.6194 37.3711 27.6556C37.3711 27.6717 37.4223 27.7119 37.5285 27.7266C37.6669 27.7435 37.8064 27.7065 37.9225 27.6221C38.0338 27.5406 38.1117 27.4146 38.1397 27.271C38.158 27.1638 38.1385 27.0968 38.1226 27.0968Z" fill="#263238"/>
<path d="M36.9893 24.5832C36.9759 24.6194 36.8258 24.5832 36.6428 24.5832C36.4598 24.5832 36.3098 24.6127 36.2976 24.5832C36.2854 24.5537 36.4342 24.4492 36.6441 24.4492C36.8539 24.4492 37.0027 24.5497 36.9893 24.5832Z" fill="#263238"/>
<path d="M39.1815 24.6869C39.1742 24.6869 39.1742 24.6681 39.1815 24.6453V24.6815C39.0718 24.6358 38.9575 24.6048 38.8411 24.589C38.6349 24.5649 38.4751 24.6386 38.4532 24.6038C38.4312 24.5689 38.4788 24.5462 38.5495 24.5086C38.644 24.4605 38.7485 24.441 38.8521 24.4524C38.9201 24.4558 38.9867 24.4741 39.0481 24.5064C39.1095 24.5386 39.1644 24.584 39.2096 24.64L39.2242 24.6668L39.2144 24.6748C39.1998 24.6882 39.1876 24.6922 39.1815 24.6869Z" fill="#263238"/>
<path d="M39.2377 26.2449C39.2207 26.2449 39.2036 26.2208 39.1999 26.1873C39.1963 26.1538 39.2072 26.123 39.2243 26.1203C39.2414 26.1176 39.2585 26.1444 39.2621 26.1793C39.2658 26.2141 39.256 26.2436 39.2377 26.2449Z" fill="#EB996E"/>
<path d="M38.7376 26.2223C38.7205 26.2223 38.7095 26.1902 38.7217 26.1567C38.7339 26.1232 38.7632 26.1111 38.7754 26.1245C38.781 26.1331 38.784 26.1434 38.784 26.154C38.784 26.1645 38.781 26.1749 38.7754 26.1835C38.7681 26.2049 38.7559 26.2237 38.7376 26.2223Z" fill="#EB996E"/>
<path d="M39.0119 26.4583C39.0039 26.4597 38.9958 26.4583 38.9885 26.4544C38.9813 26.4504 38.9754 26.4441 38.9715 26.4364C38.9677 26.4286 38.9661 26.4197 38.9671 26.4109C38.968 26.4021 38.9714 26.3938 38.9768 26.3872C38.9822 26.3807 38.9893 26.3761 38.9972 26.3741C39.0051 26.3722 39.0133 26.3729 39.0207 26.3763C39.0282 26.3797 39.0345 26.3855 39.0388 26.393C39.0431 26.4005 39.0452 26.4092 39.0448 26.4181C39.0452 26.4231 39.0446 26.4282 39.0431 26.433C39.0416 26.4377 39.0392 26.4421 39.0361 26.4459C39.0331 26.4496 39.0293 26.4527 39.0252 26.4548C39.021 26.4569 39.0165 26.4581 39.0119 26.4583Z" fill="#EB996E"/>
<path d="M36.1584 26.115C36.1413 26.115 36.1303 26.0829 36.134 26.048C36.1377 26.0132 36.1547 25.9877 36.1718 25.9904C36.1889 25.9931 36.1999 26.0226 36.1962 26.0561C36.1926 26.0896 36.1755 26.1164 36.1584 26.115Z" fill="#EB996E"/>
<path d="M36.6609 26.1253C36.6439 26.1253 36.6304 26.0999 36.6317 26.0731C36.6329 26.0463 36.6487 26.0222 36.6658 26.0235C36.6829 26.0248 36.6963 26.0476 36.6951 26.0758C36.6939 26.1039 36.678 26.1267 36.6609 26.1253Z" fill="#EB996E"/>
<path d="M36.4158 26.3C36.3987 26.3 36.384 26.2732 36.384 26.2384C36.384 26.2036 36.3975 26.1768 36.4145 26.1768C36.4316 26.1768 36.4463 26.2036 36.4463 26.2384C36.4463 26.2732 36.4328 26.3 36.4158 26.3Z" fill="#EB996E"/>
<path d="M38.0092 21.5362C37.942 22.3749 37.6276 23.1667 37.1137 23.7915C36.6013 24.4092 36.0242 24.9492 35.2751 25.098C35.4789 24.3891 35.5191 23.8196 35.6875 23.222C35.8559 22.6243 36.0828 22.0374 36.5037 21.6273C36.7702 21.3754 37.0949 21.2092 37.4419 21.1472C37.789 21.0853 38.1449 21.1299 38.4703 21.2763" fill="#263238"/>
<path d="M35.4363 24.4305C35.5971 24.429 35.7571 24.407 35.9133 24.3649C36.0795 24.3081 36.2364 24.2226 36.3781 24.1116C36.5525 23.9756 36.7158 23.8232 36.8661 23.656C37.1362 23.3465 37.3759 23.0065 37.581 22.6416L37.7689 22.3107C37.7893 22.2684 37.8134 22.2285 37.8409 22.1914C37.8276 22.2384 37.8092 22.2834 37.786 22.3254C37.747 22.4071 37.6884 22.5251 37.6115 22.6671C37.4144 23.0419 37.1764 23.3888 36.9027 23.7002C36.7495 23.8699 36.5825 24.0237 36.4037 24.1599C36.2569 24.2712 36.094 24.3546 35.9218 24.4064C35.8057 24.4401 35.6857 24.455 35.5656 24.4506C35.5218 24.4508 35.4783 24.444 35.4363 24.4305Z" fill="#455A64"/>
<path d="M35.9206 24.5176C35.9076 24.5406 35.8925 24.5622 35.8755 24.5819C35.845 24.6248 35.8011 24.6864 35.7535 24.7722C35.6088 25.0105 35.5058 25.2763 35.4497 25.5561C35.4096 25.7484 35.3932 25.9458 35.4009 26.143C35.4139 26.3688 35.4445 26.593 35.4924 26.813C35.5486 27.0626 35.5833 27.3174 35.5961 27.5741C35.6044 27.8518 35.5517 28.1276 35.4424 28.3781C35.3341 28.6275 35.1741 28.8455 34.9751 29.0146C34.7811 29.1754 34.5689 29.2826 34.4042 29.4367C34.3224 29.5018 34.2549 29.5861 34.2065 29.6834C34.1582 29.7808 34.1303 29.8888 34.1248 29.9995C34.1385 30.1948 34.1963 30.3832 34.2931 30.5476C34.3736 30.6869 34.4422 30.834 34.4981 30.9871C34.5388 31.105 34.5566 31.231 34.5506 31.3569C34.5466 31.4368 34.5243 31.5142 34.4859 31.5821C34.4728 31.6058 34.4568 31.6275 34.4383 31.6464C34.45 31.6223 34.463 31.599 34.4774 31.5767C34.5107 31.5086 34.5291 31.4329 34.531 31.3556C34.533 31.2332 34.5127 31.1115 34.4713 30.9978C34.4123 30.8483 34.3421 30.7044 34.2614 30.5677C34.1589 30.398 34.0972 30.2025 34.0821 29.9995C34.0807 29.8838 34.1081 29.7698 34.1614 29.6699C34.2175 29.5677 34.2893 29.477 34.3737 29.4019C34.5445 29.2411 34.7567 29.1339 34.9446 28.9758C35.1367 28.8114 35.2909 28.5998 35.3948 28.358C35.5005 28.1172 35.5523 27.8521 35.5461 27.5848C35.5333 27.3347 35.5002 27.0862 35.4473 26.8425C35.3995 26.6185 35.3701 26.3902 35.3594 26.1604C35.3533 25.9598 35.3722 25.7592 35.4155 25.5641C35.4763 25.2809 35.5856 25.0131 35.7376 24.7749C35.7787 24.7105 35.8235 24.6492 35.8718 24.5913C35.8851 24.5645 35.9015 24.5397 35.9206 24.5176Z" fill="#455A64"/>
<path d="M34.1321 28.1957C34.1321 28.1957 34.1431 28.2265 34.1748 28.2788C34.2195 28.3538 34.2819 28.414 34.3553 28.453C34.4711 28.5167 34.6025 28.5374 34.7299 28.5119C34.8131 28.4942 34.8919 28.4568 34.9607 28.4024C35.0296 28.3481 35.0869 28.278 35.1288 28.197C35.2334 27.9996 35.2738 27.7691 35.2435 27.5431C35.2036 27.2843 35.1101 27.0391 34.9702 26.8262C34.8324 26.5931 34.642 26.384 34.4908 26.1214C34.4124 25.9876 34.3585 25.8383 34.3322 25.6819C34.3063 25.5199 34.3142 25.3536 34.3553 25.1954C34.3975 25.0404 34.4681 24.8965 34.5627 24.7726C34.6573 24.6486 34.774 24.5472 34.9056 24.4745C35.0304 24.4093 35.1631 24.3642 35.2996 24.3405C35.4302 24.311 35.5583 24.2816 35.6803 24.244C36.1756 24.11 36.5343 23.7576 36.8234 23.491C37.0559 23.277 37.2611 23.0295 37.4334 22.7553C37.4928 22.6519 37.5438 22.5429 37.5859 22.4297C37.5794 22.461 37.5713 22.4919 37.5615 22.5221C37.5311 22.6073 37.494 22.6894 37.4505 22.7674C37.2805 23.0491 37.0751 23.3031 36.8405 23.5218C36.6827 23.6761 36.517 23.8202 36.3439 23.9533C36.1441 24.1081 35.9212 24.2233 35.6851 24.2936C35.5631 24.3338 35.4326 24.3633 35.3033 24.3941C35.1707 24.4178 35.042 24.4629 34.9214 24.5281C34.7962 24.5978 34.6852 24.6947 34.595 24.8128C34.5048 24.931 34.4374 25.068 34.3968 25.2155C34.3579 25.3654 34.3504 25.523 34.3749 25.6765C34.4004 25.8259 34.4522 25.9683 34.5274 26.0959C34.6725 26.3505 34.8629 26.5636 35.0032 26.8008C35.146 27.021 35.2404 27.2747 35.2789 27.5418C35.3092 27.7773 35.2662 28.0172 35.1569 28.2225C35.0775 28.3726 34.9482 28.4831 34.7962 28.5306C34.6442 28.5781 34.4813 28.5589 34.3419 28.4771C34.2672 28.4334 34.2047 28.3681 34.1614 28.2882C34.1471 28.2593 34.1372 28.2281 34.1321 28.1957Z" fill="#263238"/>
<path d="M43.4931 32.5037C43.5662 32.3972 43.6311 32.2843 43.6871 32.166C43.7458 32.0254 43.7869 31.8766 43.8091 31.7238C43.8419 31.521 43.8394 31.3132 43.8018 31.1114C43.7587 30.8661 43.6615 30.636 43.5188 30.4414C43.3472 30.2244 43.1549 30.0281 42.9454 29.8559C42.7081 29.6642 42.5019 29.43 42.3354 29.1631C42.2505 29.0172 42.1932 28.8541 42.167 28.6834C42.1442 28.5053 42.1657 28.3238 42.2292 28.1581C42.3512 27.8244 42.5672 27.5618 42.6818 27.2603C42.7431 27.1191 42.7668 26.9618 42.7502 26.8065C42.7335 26.6513 42.6773 26.5043 42.5879 26.3826C42.4247 26.1593 42.2238 25.9727 41.9962 25.8332C41.8011 25.7068 41.6187 25.5581 41.4521 25.3896C41.3136 25.2435 41.2044 25.0674 41.1312 24.8724C41.0762 24.7244 41.0577 24.5631 41.0775 24.4047C41.0854 24.3473 41.098 24.2908 41.1154 24.2359C41.1337 24.1903 41.1471 24.1501 41.1617 24.1207L41.1983 24.0537C41.2069 24.0389 41.2105 24.0322 41.2117 24.0322C41.213 24.0322 41.2117 24.0416 41.2032 24.0577L41.1715 24.126C41.1581 24.1555 41.1459 24.1957 41.13 24.2413C41.115 24.2955 41.1044 24.3511 41.0983 24.4074C41.082 24.5615 41.1026 24.7176 41.1581 24.8603C41.2319 25.0495 41.3408 25.2197 41.4777 25.3602C41.6472 25.5273 41.8329 25.6734 42.0316 25.7957C42.2661 25.9366 42.4733 26.1264 42.6416 26.3544C42.7362 26.4834 42.7958 26.639 42.8137 26.8035C42.8316 26.9679 42.8071 27.1346 42.7428 27.2844C42.6208 27.5966 42.4086 27.8606 42.2914 28.1822C42.232 28.3388 42.2113 28.5098 42.2317 28.678C42.2576 28.8409 42.3123 28.9966 42.3927 29.1363C42.5552 29.398 42.756 29.6284 42.9868 29.8183C43.1975 29.9941 43.3906 30.194 43.5627 30.4146C43.7083 30.6147 43.8064 30.8514 43.8482 31.1034C43.8842 31.3101 43.8842 31.5225 43.8482 31.7292C43.8213 31.8847 43.7749 32.0353 43.7103 32.1767C43.6686 32.2649 43.6192 32.3484 43.5627 32.426L43.5163 32.4849L43.4931 32.5037Z" fill="#455A64"/>
<path d="M42.6842 32.2177C42.6012 31.4218 42.4597 31.0935 42.4633 30.2922C42.4633 29.5578 41.8533 28.581 42.2315 27.718C42.097 27.1743 41.9198 26.6443 41.7021 26.1341C41.574 25.8152 41.1079 24.8491 40.9896 24.5261C41.0677 23.9298 41.4581 23.9741 41.3824 23.3791C41.2921 22.6649 40.9859 21.9507 40.4345 21.5607C40.0775 21.3326 39.6768 21.1995 39.2645 21.1721C38.9798 21.1298 38.6905 21.1443 38.4105 21.215C38.1282 21.289 37.8834 21.4814 37.7285 21.751L37.8725 21.6009C37.8166 21.9362 37.8307 22.2811 37.9137 22.6095C37.9968 22.938 38.1466 23.2414 38.3519 23.497C38.7689 24.0058 39.3191 24.3601 39.927 24.5114C39.9217 24.7342 39.9674 24.9549 40.0599 25.1533L40.0453 25.176L40.0807 25.1975C40.1187 25.2719 40.1628 25.3423 40.2124 25.4079C40.2801 25.4936 40.3576 25.5692 40.443 25.633C40.5035 25.7674 40.5349 25.9152 40.5349 26.0651C40.5349 26.215 40.5035 26.3629 40.443 26.4973C40.2917 26.8068 39.988 27.0333 39.927 27.3723C39.8574 27.7596 40.1258 28.1307 40.1197 28.5247C40.1063 28.7337 40.045 28.9356 39.9416 29.1116C39.2901 30.0309 39.4048 30.9769 39.7732 32.0677C39.9099 32.4697 40.1209 32.8971 40.0172 33.3139C39.916 33.7065 39.5561 33.9651 39.4438 34.3537C39.2865 34.8897 39.6488 35.4337 39.988 35.8612C40.7115 35.5044 41.4666 35.2304 42.2413 35.0438C42.1629 34.6867 42.1244 34.3204 42.1266 33.953C42.1591 34.1477 42.2461 34.3263 42.3755 34.464C42.5049 34.6017 42.6702 34.6916 42.8484 34.7211C43.0266 34.7506 43.2087 34.7183 43.3693 34.6286C43.5299 34.539 43.661 34.3965 43.7443 34.221C43.0965 33.8391 42.7683 33.015 42.6842 32.2177Z" fill="#263238"/>
<path d="M41.646 23.7052C41.646 23.7052 41.635 23.7213 41.6106 23.7441C41.5758 23.7803 41.5392 23.8143 41.5008 23.8459C41.3598 23.9635 41.2061 24.0616 41.0433 24.1381C40.8027 24.2548 40.5456 24.3255 40.2833 24.3471C39.961 24.3768 39.6367 24.3311 39.3317 24.2131C39.0277 24.0906 38.7519 23.8962 38.524 23.6436C38.2125 23.2998 37.9902 22.871 37.8799 22.4014C37.8628 22.3344 37.8555 22.2822 37.8494 22.2473C37.8453 22.2293 37.8428 22.2109 37.842 22.1924C37.8643 22.2586 37.883 22.3262 37.8982 22.3947C37.9496 22.5798 38.0166 22.7592 38.0982 22.9307C38.2178 23.1826 38.3726 23.4123 38.557 23.6114C38.7816 23.8566 39.0517 24.0458 39.3487 24.1662C39.6476 24.2797 39.9643 24.3253 40.2796 24.3002C40.5375 24.2797 40.7908 24.2141 41.0299 24.1059C41.2492 24 41.456 23.8655 41.646 23.7052Z" fill="#455A64"/>
<path d="M41.5336 22.8215C41.497 22.8396 41.4585 22.8527 41.4189 22.8604C41.3132 22.8892 41.2055 22.9085 41.0969 22.918C40.7356 22.9531 40.3719 22.8968 40.0335 22.7535C39.6951 22.6102 39.3911 22.3836 39.1449 22.0912C39.0705 22.0038 39.0024 21.9101 38.9411 21.8112C38.917 21.776 38.8969 21.7378 38.8813 21.6973C38.8899 21.6973 38.9802 21.85 39.1717 22.0631C39.4199 22.3432 39.7201 22.5616 40.0518 22.7033C40.3835 22.845 40.7391 22.9068 41.0944 22.8845C41.3665 22.8617 41.5312 22.8108 41.5336 22.8215Z" fill="#455A64"/>
<path d="M41.646 23.2139C41.5504 23.3687 41.4205 23.4942 41.2685 23.5786C41.1166 23.663 40.9475 23.7035 40.7773 23.6963C40.9381 23.6568 41.095 23.6003 41.2458 23.5274C41.3883 23.4377 41.5223 23.3326 41.646 23.2139Z" fill="#455A64"/>
<path d="M41.4665 35.2568C41.4665 35.2568 41.4568 35.2125 41.4348 35.1321C41.4049 35.0144 41.3427 34.9096 41.2567 34.832C41.2006 34.7811 41.1347 34.7355 41.0627 34.6698C40.9882 34.5981 40.9294 34.5088 40.8907 34.4085C40.8696 34.3532 40.852 34.2964 40.8382 34.2384C40.8224 34.1768 40.813 34.1134 40.8102 34.0494C40.8006 33.9074 40.8346 33.7659 40.9066 33.6474C40.9865 33.5201 41.0955 33.4179 41.2225 33.3513C41.354 33.2845 41.4595 33.1687 41.5202 33.0243C41.5497 32.9486 41.5643 32.8668 41.5629 32.7845C41.5577 32.6985 41.5391 32.6142 41.508 32.5352C41.4381 32.3695 41.3565 32.21 41.264 32.0582C41.0693 31.7131 40.9788 31.3093 41.0054 30.9044C41.0303 30.4694 41.1866 30.0559 41.4495 29.7293C41.5715 29.5631 41.6935 29.3822 41.6935 29.1732C41.6807 28.9683 41.6098 28.7729 41.491 28.6144C41.3824 28.4482 41.2469 28.3022 41.153 28.132C41.043 27.97 40.9851 27.7725 40.9883 27.5705C41.0137 27.3812 41.0911 27.2049 41.2103 27.0653C41.316 26.938 41.4036 26.7939 41.4702 26.6379C41.5285 26.4981 41.557 26.3454 41.5534 26.1917C41.5498 26.038 41.5142 25.8871 41.4495 25.7508C41.3871 25.6362 41.304 25.5368 41.2055 25.4587C41.1128 25.381 41.0188 25.3166 40.9346 25.2496C40.8526 25.1904 40.78 25.1165 40.7199 25.0312C40.6709 24.9585 40.6323 24.8781 40.6052 24.7927C40.5635 24.6759 40.5537 24.5483 40.5772 24.4255C40.5858 24.3827 40.6029 24.3425 40.6272 24.3076C40.6107 24.3464 40.5976 24.3867 40.5882 24.4282C40.5684 24.5488 40.5811 24.6732 40.6247 24.786C40.652 24.8684 40.6907 24.9457 40.7394 25.0151C40.7991 25.0969 40.8709 25.1671 40.9517 25.2228C41.0359 25.2885 41.1298 25.3568 41.2262 25.4305C41.3302 25.5101 41.4182 25.6123 41.4848 25.7307C41.5538 25.8723 41.5922 26.0294 41.5973 26.1899C41.6024 26.3504 41.5739 26.5101 41.5141 26.6566C41.4463 26.8168 41.3571 26.9649 41.2494 27.0962C41.1371 27.2287 41.0639 27.3955 41.0395 27.5745C41.038 27.7643 41.0933 27.9494 41.1969 28.1012C41.2945 28.2673 41.4238 28.412 41.5349 28.5822C41.6611 28.75 41.7359 28.9573 41.7484 29.1745C41.7464 29.287 41.7187 29.3971 41.6678 29.4948C41.6172 29.5894 41.5592 29.679 41.4946 29.7628C41.2382 30.0802 41.0854 30.4824 41.0603 30.9058C41.033 31.2985 41.1183 31.6907 41.3043 32.0274C41.3972 32.1822 41.4788 32.3448 41.5483 32.5138C41.5821 32.5985 41.6015 32.6894 41.6056 32.7818C41.6073 32.8712 41.5911 32.96 41.558 33.0417C41.4934 33.1957 41.3803 33.319 41.2396 33.3888C41.118 33.4511 41.0133 33.5472 40.9358 33.6675C40.8673 33.7781 40.8342 33.9106 40.8419 34.0441C40.8488 34.164 40.8739 34.2817 40.9163 34.3925C40.9515 34.489 41.0066 34.5753 41.0774 34.6444C41.142 34.71 41.2116 34.7569 41.2677 34.8105C41.3555 34.8917 41.4175 35.0016 41.4446 35.1241C41.4522 35.1549 41.4579 35.1862 41.4617 35.2179C41.4655 35.2304 41.4671 35.2436 41.4665 35.2568Z" fill="#455A64"/>
<path d="M41.6631 23.4966C41.6555 23.5133 41.6456 23.5287 41.6339 23.5422C41.6034 23.5848 41.5708 23.6255 41.5363 23.6641C41.4086 23.8058 41.2607 23.9235 41.0983 24.0125C40.8562 24.1458 40.5895 24.2163 40.3187 24.2189C39.9867 24.2209 39.659 24.1369 39.3622 23.9737C39.2089 23.8874 39.0709 23.7717 38.9547 23.632C38.8483 23.5006 38.7611 23.3518 38.6961 23.1911C38.5741 22.8869 38.4972 22.5988 38.4131 22.3683C38.3534 22.1842 38.2713 22.0097 38.1691 21.8498C38.0934 21.7385 38.0397 21.6876 38.0471 21.6836C38.0614 21.6933 38.0745 21.705 38.0861 21.7184C38.1224 21.755 38.1562 21.7944 38.1874 21.8364C38.2996 21.993 38.3897 22.1674 38.4545 22.3536C38.5436 22.5841 38.6217 22.8708 38.7473 23.1683C38.8108 23.3236 38.8956 23.4673 38.9987 23.5944C39.112 23.7287 39.2457 23.8402 39.3939 23.9241C39.6836 24.0823 40.0025 24.1653 40.326 24.1666C40.7725 24.1664 41.2025 23.9812 41.5302 23.648C41.6143 23.5542 41.6583 23.4926 41.6631 23.4966Z" fill="#455A64"/>
</svg>
