<svg width="80" height="80" viewBox="0 0 80 80" fill="none" xmlns="http://www.w3.org/2000/svg">
<rect width="80" height="80" rx="40" fill="#19BBBB" fill-opacity="0.08"/>
<g clip-path="url(#clip0_1159_20118)">
<path d="M39.4999 67.0002C55.24 67.0002 67.9998 65.9886 67.9998 64.7408C67.9998 63.493 55.24 62.4814 39.4999 62.4814C23.7598 62.4814 11 63.493 11 64.7408C11 65.9886 23.7598 67.0002 39.4999 67.0002Z" fill="white"/>
<path d="M65.001 31.8322L54.6571 64.5972C54.5848 64.8253 54.4256 65.0152 54.2144 65.1252C54.0031 65.2352 53.7572 65.2562 53.5306 65.1838L30.973 57.9652C30.8606 57.9296 30.7563 57.872 30.6661 57.7957C30.5758 57.7195 30.5014 57.6261 30.447 57.5208C30.3927 57.4156 30.3595 57.3005 30.3493 57.1823C30.3391 57.0641 30.3522 56.9451 30.3878 56.832L40.7316 24.0625C40.8042 23.8343 40.9638 23.6444 41.1752 23.5345C41.3866 23.4245 41.6327 23.4035 41.8595 23.476L64.4239 30.699C64.6507 30.7716 64.8396 30.9318 64.9493 31.1444C65.059 31.3571 65.0804 31.6049 65.0089 31.8334L65.001 31.8322Z" fill="#F97F75"/>
<path d="M65.0001 31.8325L54.6563 64.5975C54.584 64.8256 54.4247 65.0155 54.2135 65.1255C54.0023 65.2355 53.7564 65.2565 53.5298 65.1841L30.973 57.9653C30.7526 57.895 30.5675 57.742 30.4561 57.5381L64.8984 31.0674C64.9705 31.1794 65.017 31.3061 65.0346 31.4384C65.0522 31.5708 65.0404 31.7053 65.0001 31.8325Z" fill="#ED564A"/>
<path opacity="0.5" d="M32.6353 56.7588L42.2675 26.2365L63.4978 33.0308L53.8655 63.553L32.6353 56.7588Z" fill="#BC7F59"/>
<path d="M45.2605 29.0957L46.2246 26.0406L59.3674 30.2466L58.4033 33.3017L45.2605 29.0957Z" fill="#B3B3B3"/>
<path opacity="0.5" d="M59.3698 30.2527L59.1379 30.986L46.1055 26.4377L46.2295 26.0449L59.3698 30.2527Z" fill="#B3B3B3"/>
<path d="M32.3315 56.2324L41.8045 25.6611L63.0699 32.3433L53.5969 62.9146L32.3315 56.2324Z" fill="white"/>
<path d="M59.7705 31.3587L59.285 32.8984C59.2724 32.9397 59.2517 32.9781 59.2242 33.0112C59.1967 33.0444 59.1629 33.0717 59.1248 33.0915C59.0867 33.1114 59.045 33.1233 59.0022 33.1267C58.9594 33.1301 58.9164 33.1248 58.8757 33.1112L55.6228 32.0701C55.627 31.9913 55.6051 31.9133 55.5608 31.8482C55.5164 31.7831 55.4519 31.7347 55.3773 31.7103L48.9589 29.65C48.8837 29.6266 48.8029 29.6287 48.7289 29.656C48.655 29.6833 48.592 29.7342 48.5496 29.8011L45.2954 28.76C45.2131 28.7335 45.1447 28.6752 45.105 28.598C45.0654 28.5207 45.0579 28.4307 45.084 28.3479L45.5696 26.811L45.2013 26.6943L44.7171 28.2298C44.6602 28.4103 44.6768 28.6062 44.7632 28.7744C44.8497 28.9425 44.9989 29.0693 45.1781 29.1267L48.4228 30.1663C48.4056 30.2529 48.4207 30.3429 48.4652 30.4189C48.5098 30.495 48.5807 30.5518 48.6643 30.5785L55.0745 32.6387C55.1577 32.6646 55.2473 32.6591 55.3267 32.6232C55.406 32.5872 55.4696 32.5234 55.5056 32.4436L58.7517 33.4819C58.8416 33.5113 58.9365 33.5223 59.0308 33.5142C59.125 33.5062 59.2167 33.4792 59.3005 33.4349C59.3842 33.3906 59.4584 33.3299 59.5185 33.2564C59.5786 33.1828 59.6234 33.0979 59.6505 33.0066L60.136 31.4711L59.7705 31.3587Z" fill="#CCCCCC"/>
<path d="M56.9224 28.6838C56.8924 28.78 56.8432 28.8689 56.7778 28.9453L49.0936 26.4854C49.0844 26.3855 49.0946 26.2847 49.1236 26.1887C49.1477 26.1163 49.1821 26.0478 49.2258 25.9854C49.3579 25.8199 49.538 25.7001 49.7411 25.643C49.9441 25.5858 50.1598 25.5942 50.3579 25.6668L56.2227 27.543C56.4268 27.5973 56.6085 27.7152 56.7418 27.88C56.8751 28.0447 56.9531 28.2478 56.9648 28.4599C56.963 28.5364 56.9487 28.612 56.9224 28.6838Z" fill="#B3B3B3"/>
<path opacity="0.5" d="M56.9224 28.6848C56.8924 28.7809 56.8432 28.8699 56.7778 28.9462L49.0936 26.4864C49.0844 26.3864 49.0946 26.2857 49.1236 26.1897C49.1477 26.1173 49.1821 26.0488 49.2258 25.9863L56.9556 28.4585C56.9562 28.5352 56.945 28.6115 56.9224 28.6848Z" fill="#B3B3B3"/>
<path d="M58.6737 33.2206L45.0948 28.8722C44.9153 28.8143 44.766 28.687 44.6796 28.5184C44.5932 28.3497 44.5767 28.1534 44.6338 27.9726L45.2216 26.1088C45.2786 25.9276 45.4047 25.7766 45.5723 25.689C45.7398 25.6014 45.935 25.5845 46.115 25.6418L59.694 29.9847C59.8733 30.0424 60.0225 30.1694 60.1089 30.3379C60.1954 30.5063 60.2119 30.7023 60.1549 30.883L59.5657 32.7481C59.509 32.9289 59.3833 33.0796 59.2163 33.1672C59.0494 33.2547 58.8547 33.272 58.6751 33.2152L58.6737 33.2206ZM46.0018 26.0155C45.9196 25.9891 45.8304 25.9965 45.7537 26.0362C45.677 26.0759 45.6191 26.1445 45.5925 26.2271L45.0033 28.0922C44.9771 28.1751 44.9847 28.2651 45.0243 28.3423C45.0639 28.4196 45.1324 28.4779 45.2146 28.5044L58.7935 32.8527C58.8342 32.866 58.877 32.871 58.9196 32.8675C58.9622 32.864 59.0037 32.8521 59.0417 32.8325C59.0797 32.8128 59.1135 32.7858 59.1411 32.753C59.1687 32.7201 59.1896 32.6821 59.2026 32.6411L59.7864 30.776C59.7996 30.735 59.8046 30.6919 59.8012 30.649C59.7977 30.6061 59.7859 30.5643 59.7664 30.526C59.7469 30.4877 59.72 30.4536 59.6874 30.4258C59.6548 30.398 59.617 30.377 59.5763 30.3639L46.0018 26.0155Z" fill="#666666"/>
<path d="M46.46 25.4054L59.5534 29.5945C59.6458 29.6242 59.7228 29.6895 59.7677 29.7761C59.8126 29.8628 59.8217 29.9637 59.7931 30.0571L59.6908 30.3825C59.6782 30.4237 59.6574 30.462 59.6299 30.495C59.6023 30.528 59.5685 30.5552 59.5304 30.5749C59.4923 30.5946 59.4506 30.6065 59.4079 30.6098C59.3652 30.6131 59.3222 30.6077 59.2816 30.5941L46.1049 26.3761C46.0639 26.3634 46.0259 26.3426 45.9931 26.3149C45.9602 26.2871 45.9333 26.253 45.9138 26.2146C45.8943 26.1761 45.8827 26.1341 45.8797 26.0911C45.8767 26.048 45.8823 26.0048 45.8962 25.964L45.9985 25.6371C46.0277 25.5438 46.0925 25.4661 46.1786 25.4208C46.2647 25.3756 46.3651 25.3666 46.4578 25.3957L46.46 25.4054Z" fill="#CCCCCC"/>
<path d="M53.7464 28.5068L51.822 27.8901C51.7695 27.8725 51.7258 27.8349 51.7004 27.7854C51.6749 27.7359 51.6696 27.6784 51.6856 27.625C51.7031 27.5721 51.7404 27.5282 51.7895 27.5025C51.8387 27.4769 51.8958 27.4715 51.9488 27.4876L53.8719 28.1029C53.9242 28.1208 53.9676 28.1584 53.993 28.2078C54.0184 28.2573 54.0239 28.3146 54.0083 28.368C53.9908 28.4206 53.9538 28.4644 53.905 28.4903C53.8562 28.5161 53.7994 28.5221 53.7464 28.5068Z" fill="#666666"/>
<path d="M48.4021 29.6972L48.3709 29.7959C48.2987 30.0246 48.4243 30.2689 48.6514 30.3415L54.9235 32.3488C55.1506 32.4215 55.3932 32.295 55.4654 32.0663L55.4965 31.9676C55.5687 31.7389 55.4431 31.4946 55.216 31.422L48.9439 29.4147C48.7168 29.3421 48.4742 29.4685 48.4021 29.6972Z" fill="#999999"/>
<path d="M45.2156 43.3115L45.2763 43.1191L57.0255 46.8791L56.9648 47.0716L45.2156 43.3115Z" fill="#CCCCCC"/>
<path d="M44.8811 44.3662L44.9418 44.1738L56.691 47.9338L56.6303 48.1262L44.8811 44.3662Z" fill="#CCCCCC"/>
<path d="M43.7891 47.8252L43.8498 47.6327L55.599 51.3928L55.5382 51.5852L43.7891 47.8252Z" fill="#CCCCCC"/>
<path d="M43.4888 48.7793L43.5495 48.5868L55.2987 52.3469L55.2379 52.5393L43.4888 48.7793Z" fill="#CCCCCC"/>
<path d="M42.3638 52.3418L42.4245 52.1493L54.1737 55.9094L54.1129 56.1018L42.3638 52.3418Z" fill="#CCCCCC"/>
<path d="M42.0637 53.292L42.1245 53.0995L53.8736 56.8596L53.8129 57.052L42.0637 53.292Z" fill="#CCCCCC"/>
<path d="M53.6124 62.6263L52.3235 61.8489C52.2806 61.8315 52.2326 61.8316 52.1898 61.8493C52.147 61.867 52.1128 61.9009 52.0944 61.9436C51.4628 62.997 51.5243 64.6479 51.5243 64.6479C51.5243 64.6479 53.0024 63.931 53.6287 62.8761C53.6591 62.8406 53.6744 62.7945 53.6713 62.7478C53.6682 62.7011 53.6471 62.6574 53.6124 62.6263Z" fill="#A7A9AC"/>
<path d="M53.5699 59.7811L54.8587 60.5599C54.9296 60.6002 55.1492 60.3648 55.3497 60.0297L65.1385 43.6573C65.3348 43.3208 65.4441 43.0159 65.3732 42.9706L64.7308 42.582L64.0899 42.1934C64.019 42.1508 63.7981 42.3885 63.5989 42.7222L53.7936 59.1027C53.5978 59.4338 53.4922 59.7399 53.5699 59.7811Z" fill="#A7A9AC"/>
<path d="M65.218 42.8856L65.6272 42.199C65.6842 42.1257 65.7113 42.0333 65.7029 41.9407C65.6946 41.848 65.6514 41.7621 65.5823 41.7003L65.0843 41.3986C64.9981 41.3655 64.9024 41.3673 64.8175 41.4037C64.7325 41.44 64.6648 41.5082 64.6287 41.5937L64.2195 42.2804L65.218 42.8856Z" fill="#159E9A"/>
<path d="M53.8945 61.8606C53.9554 61.9271 53.9931 62.0117 54.0021 62.1017C54.0111 62.1916 53.9909 62.2821 53.9445 62.3595C53.898 62.4369 53.8279 62.4971 53.7447 62.5309C53.6614 62.5648 53.5695 62.5705 53.4827 62.5472L52.4557 61.9263C52.3869 61.8643 52.3437 61.7785 52.3346 61.6859C52.3255 61.5934 52.3511 61.5007 52.4065 61.4263C52.4444 61.3408 52.5138 61.2734 52.6 61.2383C52.6862 61.2032 52.7826 61.2031 52.8689 61.238L53.8945 61.8606Z" fill="#159E9A"/>
<path d="M53.8944 61.86L53.3761 61.5469L52.967 62.2336L53.484 62.5467C53.5703 62.5806 53.6662 62.5798 53.752 62.5446C53.8377 62.5093 53.9068 62.4423 53.9449 62.3573C54.0022 62.284 54.0289 62.1911 54.0195 62.0984C54.01 62.0056 53.9652 61.9202 53.8944 61.86Z" fill="#19BBBB"/>
<path d="M54.3067 61.171C54.3755 61.233 54.4188 61.3186 54.4284 61.411C54.438 61.5034 54.413 61.5961 54.3584 61.671C54.3207 61.7571 54.2512 61.825 54.1647 61.8604C54.0781 61.8958 53.9813 61.8958 53.8947 61.8605L52.8686 61.2384C52.7999 61.1764 52.7566 61.0907 52.7473 60.9982C52.7379 60.9058 52.7632 60.8131 52.8181 60.7384C52.8558 60.653 52.9248 60.5856 53.0107 60.5503C53.0967 60.515 53.1928 60.5145 53.2791 60.5489L54.3067 61.171Z" fill="#159E9A"/>
<path d="M54.3067 61.1711L53.7938 60.8525L53.3845 61.5392L53.9014 61.8538C53.9879 61.8877 54.0841 61.8869 54.17 61.8517C54.256 61.8165 54.3254 61.7494 54.3638 61.6643C54.4199 61.5908 54.4454 61.4982 54.4347 61.406C54.4241 61.3139 54.3781 61.2297 54.3067 61.1711Z" fill="#19BBBB"/>
<path d="M54.7172 60.4827C54.7859 60.5445 54.8292 60.6299 54.8386 60.7222C54.8479 60.8145 54.8227 60.9069 54.7677 60.9814C54.7295 61.0667 54.6602 61.1339 54.5741 61.1692C54.488 61.2044 54.3918 61.205 54.3053 61.1708L53.2777 60.5487C53.2089 60.4867 53.1655 60.4011 53.1562 60.3086C53.1469 60.2161 53.1722 60.1234 53.2272 60.0487C53.2651 59.9629 53.3347 59.8953 53.4213 59.8602C53.5078 59.8251 53.6045 59.8253 53.6909 59.8606L54.7172 60.4827Z" fill="#159E9A"/>
<path d="M54.717 60.4831L54.1947 60.1699L53.7854 60.8566L54.3023 61.1712C54.3888 61.2051 54.485 61.2043 54.5709 61.1691C54.6569 61.1338 54.7263 61.0668 54.7647 60.9817C54.8226 60.9086 54.85 60.8157 54.8411 60.7227C54.8321 60.6296 54.7876 60.5437 54.717 60.4831Z" fill="#19BBBB"/>
<path d="M52.9673 62.2337L52.3281 61.8491C52.2854 61.8316 52.2376 61.8315 52.1948 61.849C52.152 61.8664 52.1177 61.8999 52.099 61.9424C51.4838 62.9712 51.5276 64.5602 51.529 64.6399L52.9673 62.2337Z" fill="#959596"/>
<path d="M64.7171 42.5799L64.078 42.1925C64.0071 42.1498 63.7875 42.3862 63.5884 42.7213L53.7984 59.0937C53.6021 59.4288 53.4928 59.7351 53.5651 59.7804L54.2021 60.1678L64.7171 42.5799Z" fill="#959596"/>
<path d="M62.9496 48.4685C62.9139 48.4384 62.8913 48.3955 62.8865 48.3488C62.8816 48.3022 62.8949 48.2555 62.9236 48.2185L64.7757 45.12C64.8046 45.0834 64.818 45.0369 64.8131 44.9904C64.8083 44.9439 64.7855 44.9012 64.7498 44.8714L62.9536 43.7823C62.9233 43.7488 62.9046 43.7063 62.9002 43.6612C62.8959 43.6161 62.9061 43.5707 62.9294 43.532C62.9528 43.4932 62.9879 43.4631 63.0296 43.4461C63.0713 43.429 63.1174 43.426 63.1609 43.4375L64.9571 44.5267C65.1684 44.6544 65.2026 44.9909 65.0336 45.2753L63.1801 48.3738C63.1612 48.4165 63.1267 48.4502 63.0837 48.4679C63.0408 48.4855 62.9927 48.4858 62.9496 48.4685Z" fill="#19BBBB"/>
<path d="M65.5928 41.7057L65.3331 41.5479L64.7166 42.5793L65.2335 42.891L65.6427 42.2044C65.6999 42.1308 65.7266 42.0379 65.7173 41.9449C65.708 41.852 65.6634 41.7663 65.5928 41.7057Z" fill="#19BBBB"/>
<path d="M51.194 64.913C51.1788 64.927 51.1665 64.9438 51.1577 64.9626C51.1489 64.9814 51.1439 65.0017 51.143 65.0224C51.142 65.0432 51.1451 65.0639 51.1521 65.0834C51.1591 65.1029 51.1699 65.1208 51.1837 65.1362C51.1976 65.1515 51.2143 65.1639 51.233 65.1728C51.2516 65.1816 51.2718 65.1866 51.2924 65.1876C51.313 65.1885 51.3336 65.1854 51.3529 65.1784C51.3723 65.1713 51.3901 65.1605 51.4053 65.1465C51.4286 65.126 51.4448 65.0986 51.4517 65.0683L51.7844 64.5107L51.5294 64.3555L51.194 64.913Z" fill="#2F2F30"/>
<path d="M49.7738 35.3711C49.7939 35.3512 49.8197 35.338 49.8476 35.3334C49.8755 35.3287 49.9041 35.3328 49.9296 35.3451C49.9551 35.3574 49.9762 35.3773 49.99 35.4021C50.0039 35.4269 50.0098 35.4554 50.007 35.4837L49.4616 37.9066L50.2677 36.6705C50.2833 36.6458 50.3068 36.6272 50.3343 36.6177C50.3618 36.6082 50.3917 36.6085 50.4191 36.6184C50.4452 36.6285 50.4675 36.6464 50.4831 36.6698C50.4987 36.6931 50.5069 36.7208 50.5064 36.7489L50.4265 37.7282L51.2612 36.3356C51.2789 36.3125 51.3036 36.2957 51.3314 36.2877C51.3593 36.2796 51.389 36.2807 51.4162 36.2909C51.4434 36.301 51.4667 36.3195 51.4827 36.3439C51.4987 36.3682 51.5066 36.3971 51.5053 36.4263L51.1629 38.4248L51.4098 38.076C51.4261 38.0531 51.449 38.0359 51.4753 38.0266C51.5017 38.0173 51.5303 38.0163 51.5572 38.0239L54.379 38.9125L54.5836 38.2628C54.6743 37.9749 54.6479 37.6624 54.51 37.3941C54.3722 37.1258 54.1342 36.9235 53.8483 36.8318L52.1326 36.2825L52.6781 34.5527C52.7232 34.4102 52.74 34.2601 52.7275 34.1111C52.7149 33.9621 52.6733 33.817 52.605 33.6842C52.5368 33.5513 52.4431 33.4334 52.3295 33.3371C52.2159 33.2407 52.0845 33.1679 51.9429 33.1228L51.2214 32.8907C51.0799 32.8453 50.9309 32.8283 50.7829 32.841C50.6349 32.8536 50.4908 32.8955 50.3589 32.9643C50.227 33.033 50.1099 33.1273 50.0143 33.2418C49.9186 33.3562 49.8463 33.4885 49.8015 33.6311L49.2544 35.3532L47.5413 34.8039C47.255 34.7125 46.9444 34.7393 46.6777 34.8783C46.411 35.0174 46.21 35.2573 46.1188 35.5455L45.9087 36.2117L48.5 37.0363L49.7738 35.3711Z" fill="#19BBBB"/>
<path d="M51.046 39.0496C51.0269 39.071 51.0017 39.0857 50.9738 39.0919C50.9459 39.098 50.9169 39.0952 50.8907 39.0838C50.8645 39.0724 50.8425 39.0531 50.8278 39.0285C50.8131 39.0039 50.8064 38.9753 50.8087 38.9467L51.1259 37.0608L50.3649 38.3368C50.3492 38.362 50.3258 38.3814 50.2983 38.392C50.2707 38.4027 50.2405 38.4041 50.2121 38.396C50.1844 38.3859 50.1606 38.3671 50.1444 38.3424C50.1281 38.3176 50.1203 38.2882 50.122 38.2586L50.2039 37.238L49.2851 38.6608C49.2687 38.6842 49.2453 38.7018 49.2184 38.7111C49.1915 38.7205 49.1624 38.7211 49.1351 38.7129H49.1242C49.0962 38.7002 49.0734 38.6784 49.0593 38.651C49.0452 38.6236 49.0407 38.5922 49.0465 38.5619L49.6165 36.0127L48.6536 37.2819C48.6366 37.3029 48.6138 37.3185 48.5881 37.3265C48.5623 37.3346 48.5348 37.3348 48.509 37.3271L45.8467 36.4729C45.8119 36.7378 45.8705 37.0067 46.0123 37.2326C46.1541 37.4585 46.3701 37.6271 46.6227 37.7091L48.337 38.2584L47.7915 39.9835C47.7014 40.2712 47.7283 40.5832 47.8663 40.851C48.0044 41.1187 48.2424 41.3204 48.5279 41.4116L49.2494 41.6437C49.3909 41.6892 49.5399 41.7061 49.6879 41.6936C49.8359 41.6811 49.98 41.6393 50.112 41.5707C50.2439 41.5021 50.3612 41.4079 50.457 41.2937C50.5529 41.1794 50.6254 41.0472 50.6705 40.9047L51.216 39.1784L52.9303 39.7277C53.1867 39.8096 53.4636 39.7967 53.7113 39.6912C53.9591 39.5858 54.1613 39.3948 54.2817 39.1526L51.5607 38.2928L51.046 39.0496Z" fill="#19BBBB"/>
<path d="M54.8124 39.0498L51.5554 38.0081C51.5284 38.0001 51.4997 38.0008 51.4731 38.0099C51.4465 38.019 51.4233 38.0361 51.4068 38.059L51.1585 38.4078L51.498 36.4093C51.4995 36.3799 51.4916 36.3508 51.4754 36.3262C51.4592 36.3017 51.4356 36.2831 51.4081 36.2731C51.3806 36.2631 51.3507 36.2622 51.3227 36.2707C51.2947 36.2791 51.2701 36.2964 51.2526 36.32L50.4261 37.7126L50.506 36.7333C50.5087 36.704 50.5016 36.6747 50.4858 36.6499C50.4701 36.6252 50.4466 36.6064 50.419 36.5967C50.3915 36.5869 50.3615 36.5867 50.3339 36.596C50.3062 36.6053 50.2824 36.6237 50.2663 36.6482L49.4615 37.8844L50.007 35.4657C50.0098 35.4374 50.0037 35.409 49.9897 35.3843C49.9756 35.3596 49.9543 35.34 49.9286 35.328C49.903 35.3161 49.8743 35.3125 49.8465 35.3178C49.8188 35.323 49.7933 35.3369 49.7737 35.3573L48.5026 37.0344L45.5212 36.073C45.4915 36.0677 45.461 36.0723 45.4341 36.0859C45.4072 36.0995 45.3854 36.1216 45.3719 36.1487C45.3585 36.1758 45.3541 36.2066 45.3594 36.2364C45.3647 36.2663 45.3794 36.2936 45.4013 36.3143L45.4413 36.3266L48.5128 37.31C48.5387 37.3176 48.5662 37.3174 48.5919 37.3094C48.6177 37.3013 48.6404 37.2858 48.6574 37.2647L49.6203 35.9943L49.0489 38.5393C49.043 38.5694 49.0473 38.6007 49.0612 38.6281C49.075 38.6555 49.0975 38.6774 49.1252 38.6904H49.1362C49.1636 38.6984 49.1928 38.6975 49.2197 38.6879C49.2466 38.6783 49.2699 38.6605 49.2862 38.6369L50.205 37.218L50.1251 38.2386C50.1232 38.2681 50.1309 38.2973 50.1468 38.3221C50.1628 38.3468 50.1863 38.3657 50.2137 38.376C50.2421 38.3841 50.2724 38.3827 50.2999 38.3721C50.3275 38.3614 50.3509 38.342 50.3665 38.3168L51.1275 37.0408L50.8111 38.9349C50.809 38.9641 50.816 38.9931 50.8314 39.0179C50.8467 39.0427 50.8695 39.062 50.8964 39.0728C50.9233 39.0837 50.953 39.0857 50.9811 39.0784C51.0092 39.0712 51.0342 39.0551 51.0526 39.0325L51.5655 38.2909L54.7283 39.3032C54.7586 39.3079 54.7896 39.3016 54.8157 39.2854C54.8419 39.2693 54.8615 39.2443 54.871 39.215C54.8806 39.1856 54.8796 39.1538 54.8681 39.1252C54.8566 39.0966 54.8354 39.073 54.8082 39.0586L54.8124 39.0498Z" fill="white"/>
<path d="M41.1844 43.8039C41.9926 43.8039 42.6479 43.1441 42.6479 42.3302C42.6479 41.5163 41.9926 40.8564 41.1844 40.8564C40.3762 40.8564 39.7209 41.5163 39.7209 42.3302C39.7209 43.1441 40.3762 43.8039 41.1844 43.8039Z" fill="#19BBBB"/>
<path d="M42.0857 42L40.8759 42.7251L40.4585 42.0973" stroke="white" stroke-width="2" stroke-linecap="round" stroke-linejoin="round"/>
<path d="M39.867 48.1271C40.6753 48.1271 41.3305 47.4673 41.3305 46.6534C41.3305 45.8395 40.6753 45.1797 39.867 45.1797C39.0588 45.1797 38.4036 45.8395 38.4036 46.6534C38.4036 47.4673 39.0588 48.1271 39.867 48.1271Z" fill="#19BBBB"/>
<path d="M40.7683 46.3232L39.5572 47.0497L39.1411 46.4206" stroke="white" stroke-width="2" stroke-linecap="round" stroke-linejoin="round"/>
<path d="M38.4935 52.7697C39.3017 52.7697 39.9569 52.1099 39.9569 51.296C39.9569 50.4821 39.3017 49.8223 38.4935 49.8223C37.6852 49.8223 37.03 50.4821 37.03 51.296C37.03 52.1099 37.6852 52.7697 38.4935 52.7697Z" fill="#19BBBB"/>
<path d="M39.3951 50.9688L38.1839 51.6953L37.7678 51.0675" stroke="white" stroke-width="2" stroke-linecap="round" stroke-linejoin="round"/>
<path d="M37.2386 49.9362C37.2439 49.946 37.2459 49.9572 37.2443 49.9682C37.2427 49.9792 37.2376 49.9893 37.2297 49.9971C37.2218 50.0049 37.2116 50.0098 37.2007 50.0112C37.1898 50.0126 37.1787 50.0104 37.1691 50.0048C36.6141 49.6643 34.8272 48.586 34.4072 48.5023C33.9095 48.4018 33.0938 47.9191 33.0938 47.9191C33.0938 47.9191 34.6267 47.2571 34.886 47.1966C35.1452 47.136 36.0602 47.9396 36.539 48.7417C36.7743 49.1386 37.0075 49.5368 37.2386 49.9362Z" fill="#39B54A"/>
<path d="M37.4596 42.4624C37.5979 42.4981 37.7204 42.5792 37.8078 42.6929C37.8953 42.8065 37.9426 42.9463 37.9423 43.0901C37.9423 43.3071 37.8892 43.4678 37.6695 43.3208C37.2712 43.0593 37.1512 43.1197 36.4543 43.0995C35.7574 43.0794 34.4358 43.1943 34.4358 43.1943C34.4358 43.1943 36.4148 42.3179 36.8907 42.3578C37.0829 42.3769 37.2731 42.4119 37.4596 42.4624Z" fill="#39B54A"/>
<path d="M36.6385 42.9254C36.4188 42.8249 35.6224 42.5244 35.0454 44.1491C34.4684 45.7739 33.9093 45.5734 33.4919 45.9744C33.0744 46.3755 32.4007 47.2175 32.3366 47.5978C32.2948 47.871 32.2681 48.1463 32.2567 48.4225H31.9184C31.9184 48.4225 31.7819 47.6411 32.3378 46.538C32.8937 45.435 32.9352 45.2936 33.3524 44.5315C33.7697 43.7694 33.7319 43.4492 34.269 43.2694C34.5788 43.1627 34.8988 43.0885 35.2238 43.0481L36.6385 42.9254Z" fill="#005B45"/>
<path d="M36.8634 18.464L44.2284 58.6131C44.2699 58.8395 44.2887 59.0696 44.2843 59.2998C44.2828 59.4109 44.275 59.5218 44.2611 59.6321C44.2543 59.6884 44.2461 59.7447 44.238 59.7996C44.1833 60.1232 44.0818 60.437 43.9366 60.7309C43.8641 60.8773 43.7816 61.0184 43.6897 61.1533C43.5977 61.2867 43.497 61.4139 43.3883 61.5338C43.3146 61.6121 43.2369 61.6891 43.1578 61.7631C43.0774 61.8362 42.9932 61.905 42.9055 61.9691C42.7735 62.0666 42.6345 62.154 42.4895 62.2306C42.3922 62.283 42.2915 62.3289 42.1881 62.3679C41.9758 62.4536 41.7556 62.518 41.5308 62.5602L25.1775 65.6054C24.9404 65.6494 24.6994 65.6678 24.4585 65.6603H24.3412L24.2116 65.6493C24.0324 65.6298 23.855 65.5962 23.6811 65.5487C23.5938 65.524 23.5093 65.4978 23.4274 65.4682L23.3116 65.4242C23.2317 65.3926 23.1518 65.3556 23.0743 65.317C22.8326 65.1961 22.606 65.0468 22.3992 64.8721C22.3152 64.8038 22.2359 64.7299 22.1619 64.6508C22.0475 64.5338 21.9417 64.4085 21.8455 64.2759C21.7151 64.0979 21.6031 63.9069 21.5114 63.7059C21.3918 63.447 21.3056 63.1738 21.2549 62.8929L13.8899 22.745C13.7282 21.8602 13.922 20.947 14.4286 20.206C14.9352 19.4651 15.7133 18.957 16.5917 18.7934L32.9448 15.7499C33.8216 15.5881 34.7264 15.783 35.4609 16.2917C36.1954 16.8004 36.6997 17.5816 36.8634 18.464Z" fill="#0A0A09"/>
<path d="M36.1368 18.5998L43.5018 58.7475C43.5344 58.9251 43.5495 59.1054 43.5467 59.286C43.5451 59.37 43.5392 59.454 43.5289 59.5374L43.5072 59.6885C43.465 59.9358 43.3868 60.1755 43.2753 60.3999C43.2189 60.5149 43.1542 60.6256 43.0815 60.7309C43.0092 60.8364 42.9294 60.9365 42.8428 61.0304C42.7991 61.0771 42.7474 61.1294 42.6872 61.1857L42.6627 61.209C42.6121 61.2543 42.5604 61.2983 42.5045 61.3464L42.4663 61.374C42.3745 61.4428 42.2779 61.5048 42.1771 61.5594L42.143 61.5795C42.0611 61.6198 41.9848 61.6564 41.9097 61.6894C41.7424 61.7552 41.5693 61.8048 41.3928 61.8376L25.0423 64.8715C24.8579 64.906 24.6705 64.9207 24.4831 64.9154C24.4196 64.9175 24.3561 64.9134 24.2935 64.9031C24.1517 64.8884 24.0113 64.8615 23.8741 64.8227C23.8072 64.8025 23.7376 64.7824 23.6817 64.7609L23.5984 64.7307L23.5806 64.7225C23.5197 64.6988 23.4601 64.6719 23.4019 64.642C23.2133 64.5464 23.0362 64.4294 22.874 64.2933C22.8059 64.2355 22.7472 64.1806 22.6912 64.1243C22.4916 63.9178 22.3254 63.681 22.1989 63.4225L22.1825 63.3855C22.0896 63.1827 22.0217 62.9691 21.9806 62.7495L14.6158 22.6008C14.4903 21.9105 14.6418 21.1982 15.0371 20.6201C15.4324 20.0421 16.0392 19.6456 16.7244 19.5174L33.0774 16.4738C33.7627 16.3478 34.4697 16.5004 35.0435 16.8981C35.6174 17.2958 36.0114 17.9062 36.1394 18.5958L36.1368 18.5998Z" fill="#FEFFFD"/>
<path d="M38.7316 28.6308L37.8613 23.891C38.0379 23.8601 38.2194 23.9004 38.3666 24.0032C38.5139 24.106 38.6151 24.263 38.6483 24.4403L39.2728 27.8423C39.3025 28.0189 39.2625 28.2002 39.1613 28.3475C39.0602 28.4948 38.9059 28.5964 38.7314 28.6308H38.7316Z" fill="#0A0A08"/>
<path d="M15.6509 30.4834L15.3023 30.5484C15.2183 30.5641 15.1316 30.5455 15.0612 30.4968C14.9909 30.448 14.9426 30.3732 14.9271 30.2886L14.6085 28.5559C14.5929 28.4714 14.6114 28.3841 14.6598 28.3132C14.7081 28.2423 14.7825 28.1937 14.8664 28.1781L15.2151 28.1131L15.6509 30.4834Z" fill="#0A0A09"/>
<path d="M16.1731 33.333L15.8246 33.398C15.7407 33.4136 15.654 33.3951 15.5836 33.3464C15.5133 33.2977 15.465 33.2228 15.4495 33.1383L15.131 31.4061C15.1155 31.3216 15.1339 31.2343 15.1823 31.1634C15.2307 31.0926 15.305 31.044 15.3889 31.0284L15.7374 30.9634L16.1731 33.333Z" fill="#0A0A09"/>
<path d="M27.5168 18.5508L22.6544 19.4559C22.4599 19.493 22.2599 19.4909 22.0661 19.4498C21.8723 19.4087 21.6886 19.3293 21.5254 19.2163C21.3622 19.1034 21.2229 18.9589 21.1154 18.7914C21.0079 18.6239 20.9344 18.4367 20.8992 18.2404L28.7238 16.7832C28.7606 16.9791 28.7585 17.1805 28.7177 17.3756C28.6769 17.5708 28.5981 17.7558 28.4859 17.9202C28.3737 18.0845 28.2303 18.2248 28.0639 18.3331C27.8976 18.4413 27.7116 18.5153 27.5168 18.5508Z" fill="#0A0A08"/>
<path opacity="0.5" d="M16.281 23.9473L35.1704 20.4252L38.7059 39.6538L19.8165 43.1759L16.281 23.9473Z" fill="#ED564A"/>
<path d="M26.783 50.6375C28.2888 50.6375 29.5094 49.4083 29.5094 47.892C29.5094 46.3757 28.2888 45.1465 26.783 45.1465C25.2773 45.1465 24.0566 46.3757 24.0566 47.892C24.0566 49.4083 25.2773 50.6375 26.783 50.6375Z" fill="#99DAFF"/>
<path d="M27.5482 47.017L27.0341 47.5362L26.5186 47.017C26.4922 46.9903 26.4713 46.9585 26.4573 46.9235C26.4432 46.8885 26.4363 46.8511 26.4368 46.8133C26.4373 46.7756 26.4452 46.7384 26.4602 46.7038C26.4752 46.6692 26.4969 46.638 26.524 46.6119C26.5743 46.5638 26.6415 46.5376 26.7109 46.5391C26.7919 46.5394 26.8694 46.572 26.9264 46.6298L26.9606 46.6628L27.0329 46.737L27.1066 46.6628L27.1408 46.6298C27.1978 46.572 27.2753 46.5394 27.3563 46.5391C27.4255 46.5386 27.4923 46.5647 27.5432 46.6119C27.5704 46.6379 27.5923 46.6691 27.6075 46.7036C27.6227 46.7381 27.631 46.7753 27.6319 46.8131C27.6327 46.851 27.6257 46.8888 27.6113 46.9239C27.5969 46.959 27.5754 46.9907 27.5482 47.017ZM28.1906 47.9853C28.1459 47.9591 28.0947 47.9462 28.0431 47.9482C27.9914 47.9502 27.9414 47.9669 27.8988 47.9964C27.8047 48.0513 27.2632 48.5169 27.2632 48.5169H26.7299C26.7167 48.5154 26.7044 48.5094 26.695 48.5C26.6856 48.4905 26.6797 48.4781 26.6782 48.4648C26.6785 48.4511 26.6841 48.4381 26.6937 48.4284C26.7033 48.4187 26.7163 48.4131 26.7299 48.4127H27.0531C27.1127 48.4173 27.1717 48.3979 27.2172 48.3587C27.2627 48.3196 27.2909 48.264 27.2958 48.2039C27.2939 48.1741 27.2861 48.1449 27.2727 48.1181C27.2594 48.0914 27.2409 48.0676 27.2182 48.0483C27.1956 48.0289 27.1693 48.0143 27.1409 48.0055C27.1125 47.9966 27.0826 47.9935 27.0531 47.9966H26.8172C26.7411 48.002 26.6648 47.9889 26.5949 47.9581C26.5081 47.9144 26.4123 47.8918 26.3153 47.8922C26.2359 47.8916 26.1572 47.9068 26.0837 47.937C26.0102 47.9671 25.9434 48.0117 25.887 48.068L25.3306 48.6173L25.9511 49.2422L26.1571 49.0334H27.2045C27.3084 49.0332 27.4087 48.9952 27.4869 48.9262L28.1948 48.1255C28.2042 48.1165 28.2115 48.1056 28.2163 48.0934C28.2212 48.0813 28.2233 48.0683 28.2227 48.0552C28.222 48.0422 28.2186 48.0294 28.2126 48.0179C28.2066 48.0063 28.1982 47.9961 28.188 47.9881L28.1906 47.9853Z" fill="white"/>
<path d="M33.1197 49.1814C34.6254 49.1814 35.8461 47.9522 35.8461 46.4359C35.8461 44.9196 34.6254 43.6904 33.1197 43.6904C31.6139 43.6904 30.3933 44.9196 30.3933 46.4359C30.3933 47.9522 31.6139 49.1814 33.1197 49.1814Z" fill="#FF5C5C"/>
<path d="M33.8821 47.9291V45.358C33.8901 45.2349 33.8496 45.1136 33.7695 45.0203C33.6894 44.927 33.576 44.8692 33.4539 44.8594H32.7978C32.6758 44.8692 32.5626 44.9271 32.4827 45.0204C32.4028 45.1137 32.3626 45.235 32.371 45.358V47.9291H33.8821Z" stroke="white" stroke-width="1.54"/>
<path d="M33.9364 45.9346H34.2827C34.3686 45.9349 34.4508 45.9695 34.5113 46.0308C34.5719 46.0921 34.6059 46.175 34.6059 46.2614V47.6102C34.6061 47.6531 34.5979 47.6956 34.5817 47.7352C34.5655 47.7749 34.5418 47.8109 34.5117 47.8413C34.4817 47.8716 34.446 47.8957 34.4067 47.9122C34.3674 47.9286 34.3253 47.9371 34.2827 47.9371H31.9946C31.952 47.9371 31.9099 47.9286 31.8706 47.9122C31.8313 47.8957 31.7956 47.8716 31.7656 47.8413C31.7355 47.8109 31.7117 47.7749 31.6956 47.7352C31.6794 47.6956 31.6712 47.6531 31.6714 47.6102V46.2614C31.6714 46.175 31.7054 46.0921 31.766 46.0308C31.8265 45.9695 31.9087 45.9349 31.9946 45.9346H32.4282" stroke="white" stroke-width="1.54"/>
<path d="M33.5139 45.7087H33.2275V45.4202C33.2275 45.4159 33.226 45.4118 33.2233 45.4085C33.2205 45.4052 33.2167 45.403 33.2125 45.4023H33.0393C33.0346 45.4023 33.0301 45.4042 33.0267 45.4076C33.0234 45.4109 33.0215 45.4155 33.0215 45.4202V45.7087H32.7337C32.7314 45.7087 32.7292 45.7091 32.7271 45.7101C32.725 45.711 32.7232 45.7123 32.7216 45.714C32.7201 45.7157 32.7189 45.7177 32.7182 45.7198C32.7174 45.722 32.7172 45.7243 32.7173 45.7266V45.8995C32.7177 45.9038 32.7195 45.9078 32.7225 45.9109C32.7255 45.9139 32.7295 45.9157 32.7337 45.916H33.0215V46.2045C33.0215 46.209 33.0232 46.2133 33.0262 46.2167C33.0293 46.22 33.0335 46.222 33.0379 46.2224H33.2107C33.213 46.2224 33.2152 46.2219 33.2173 46.221C33.2194 46.2201 33.2213 46.2187 33.2228 46.2171C33.2243 46.2154 33.2255 46.2134 33.2262 46.2112C33.227 46.2091 33.2273 46.2068 33.2271 46.2045V45.9175H33.5149C33.5172 45.9175 33.5194 45.917 33.5215 45.9161C33.5236 45.9152 33.5255 45.9138 33.527 45.9121C33.5285 45.9105 33.5297 45.9085 33.5304 45.9063C33.5312 45.9041 33.5315 45.9018 33.5313 45.8995V45.7278C33.5315 45.7255 33.5312 45.7232 33.5304 45.721C33.5297 45.7189 33.5285 45.7169 33.527 45.7152C33.5255 45.7135 33.5236 45.7122 33.5215 45.7113C33.5194 45.7103 33.5172 45.7099 33.5149 45.7099L33.5139 45.7087Z" fill="white"/>
<path d="M33.4702 47.9031V47.1049C33.4698 47.0295 33.44 46.9573 33.3871 46.9038C33.3342 46.8504 33.2626 46.82 33.1877 46.8193H33.0309C32.9937 46.8193 32.9568 46.8267 32.9224 46.8411C32.888 46.8554 32.8567 46.8765 32.8304 46.903C32.804 46.9295 32.7832 46.961 32.7689 46.9956C32.7547 47.0303 32.7473 47.0674 32.7473 47.1049V47.9029L33.4702 47.9031Z" stroke="white" stroke-width="1.54"/>
<path d="M29.4139 61.5135C30.9196 61.5135 32.1402 60.2843 32.1402 58.768C32.1402 57.2517 30.9196 56.0225 29.4139 56.0225C27.9081 56.0225 26.6875 57.2517 26.6875 58.768C26.6875 60.2843 27.9081 61.5135 29.4139 61.5135Z" fill="#FF99A1"/>
<path d="M30.798 57.4923C30.6426 57.3166 30.4246 57.2097 30.1914 57.1951C29.9582 57.1804 29.7287 57.2591 29.5528 57.4141L28.6758 58.2973L28.0688 58.9085C27.9276 59.0911 27.8575 59.3195 27.8717 59.5505C27.8859 59.7815 27.9835 59.9994 28.146 60.1631C28.3085 60.3268 28.5249 60.425 28.7543 60.4393C28.9837 60.4536 29.2104 60.383 29.3918 60.2408L29.9988 59.6296L30.8758 58.7464C31.0297 58.5693 31.1079 58.3381 31.0933 58.1032C31.0787 57.8683 30.9726 57.6487 30.798 57.4923ZM29.235 60.0827C29.0956 60.1827 28.9256 60.2298 28.755 60.2155C28.5844 60.2011 28.4244 60.1264 28.3034 60.0045C28.1824 59.8827 28.1082 59.7215 28.094 59.5498C28.0798 59.378 28.1265 59.2068 28.2258 59.0664L28.8328 58.4551L29.842 59.4715L29.235 60.0827Z" fill="white"/>
<path d="M25.5757 56.6805C27.0815 56.6805 28.3021 55.4513 28.3021 53.935C28.3021 52.4187 27.0815 51.1895 25.5757 51.1895C24.07 51.1895 22.8494 52.4187 22.8494 53.935C22.8494 55.4513 24.07 56.6805 25.5757 56.6805Z" fill="#4A90E2"/>
<path d="M26.4122 54.7887V55.1636C26.4122 55.2547 26.3763 55.342 26.3124 55.4064C26.2484 55.4708 26.1617 55.507 26.0713 55.507H24.3655C24.3206 55.5072 24.2762 55.4984 24.2346 55.4812C24.1931 55.4641 24.1554 55.4388 24.1235 55.4069C24.0917 55.375 24.0665 55.3371 24.0493 55.2954C24.0321 55.2536 24.0232 55.2088 24.0232 55.1636V53.4453C24.0232 53.3539 24.0593 53.2662 24.1235 53.2016C24.1877 53.1369 24.2747 53.1006 24.3655 53.1006H24.7338" stroke="white" stroke-width="1.14"/>
<path d="M26.7805 52.3848H25.0742C24.9841 52.3859 24.8981 52.4225 24.8346 52.4868C24.7711 52.5512 24.7352 52.638 24.7346 52.7287V54.4442C24.7346 54.5356 24.7707 54.6233 24.8349 54.688C24.8991 54.7526 24.9862 54.7889 25.077 54.7889H26.7805C26.8713 54.7889 26.9584 54.7526 27.0226 54.688C27.0868 54.6233 27.1228 54.5356 27.1228 54.4442V52.7287C27.1226 52.6374 27.0865 52.5499 27.0223 52.4855C26.9581 52.421 26.8712 52.3848 26.7805 52.3848ZM26.5159 54.1703C26.5159 54.1906 26.5078 54.2102 26.4935 54.2246C26.4792 54.239 26.4598 54.2471 26.4396 54.2471H25.4167C25.3967 54.2471 25.3775 54.2392 25.3632 54.225C25.3489 54.2109 25.3407 54.1916 25.3404 54.1715V54.1274C25.3404 54.107 25.3485 54.0875 25.3628 54.0731C25.3771 54.0587 25.3965 54.0506 25.4167 54.0506H26.441C26.4611 54.0509 26.4803 54.0591 26.4945 54.0735C26.5087 54.0878 26.5169 54.1071 26.5172 54.1274L26.5159 54.1703ZM26.5159 53.7911C26.515 53.8112 26.5067 53.8302 26.4925 53.8445C26.4784 53.8587 26.4595 53.8671 26.4396 53.8679H25.4167C25.3966 53.8676 25.3774 53.8594 25.3632 53.845C25.3489 53.8307 25.3408 53.8114 25.3404 53.7911V53.7527C25.3408 53.7324 25.3489 53.7131 25.3632 53.6988C25.3774 53.6844 25.3966 53.6762 25.4167 53.6759H26.441C26.4612 53.6759 26.4806 53.684 26.4949 53.6984C26.5092 53.7128 26.5172 53.7323 26.5172 53.7527L26.5159 53.7911ZM26.5159 53.4546C26.5155 53.4749 26.5073 53.4942 26.4931 53.5085C26.4789 53.5229 26.4597 53.5311 26.4396 53.5314H25.4167C25.3965 53.5314 25.3771 53.5233 25.3628 53.5089C25.3485 53.4945 25.3404 53.475 25.3404 53.4546V53.4011C25.3404 53.3807 25.3485 53.3612 25.3628 53.3468C25.3771 53.3324 25.3965 53.3243 25.4167 53.3243H26.441C26.4612 53.3243 26.4806 53.3324 26.4949 53.3468C26.5092 53.3612 26.5172 53.3807 26.5172 53.4011L26.5159 53.4546ZM26.5159 53.1044C26.5155 53.1246 26.5074 53.1438 26.4931 53.158C26.4788 53.1721 26.4596 53.1801 26.4396 53.1801H25.4167C25.3967 53.1801 25.3775 53.1721 25.3632 53.158C25.3489 53.1438 25.3407 53.1246 25.3404 53.1044V53.0505C25.3404 53.0301 25.3485 53.0106 25.3628 52.9962C25.3771 52.9818 25.3965 52.9737 25.4167 52.9737H26.441C26.4612 52.9737 26.4806 52.9818 26.4949 52.9962C26.5092 53.0106 26.5172 53.0301 26.5172 53.0505L26.5159 53.1044Z" fill="white" stroke="white" stroke-width="0.5"/>
<path d="M36.011 59.9246C37.5168 59.9246 38.7374 58.6954 38.7374 57.1791C38.7374 55.6628 37.5168 54.4336 36.011 54.4336C34.5053 54.4336 33.2847 55.6628 33.2847 57.1791C33.2847 58.6954 34.5053 59.9246 36.011 59.9246Z" fill="#FFA929"/>
<path d="M34.47 57.5982V58.1956C34.47 58.2874 34.5062 58.3754 34.5706 58.4403C34.6351 58.5052 34.7225 58.5417 34.8137 58.5417H37.1856C37.2308 58.5419 37.2757 58.5331 37.3175 58.5158C37.3594 58.4985 37.3975 58.473 37.4295 58.4408C37.4616 58.4087 37.487 58.3704 37.5044 58.3283C37.5218 58.2863 37.5307 58.2411 37.5307 58.1956V57.6022C37.5303 57.5104 37.494 57.4224 37.4297 57.3573C37.3654 57.2923 37.2781 57.2554 37.187 57.2546H37.157C37.0781 57.2547 37.0016 57.2818 36.9401 57.3315L36.6263 57.5841C36.5653 57.6337 36.4892 57.6608 36.4108 57.6609H35.6648C35.5864 57.6606 35.5104 57.6335 35.4493 57.5841L35.1315 57.3287C35.0735 57.2813 35.0016 57.2547 34.927 57.253H34.8271C34.7818 57.2519 34.7368 57.2599 34.6946 57.2763C34.6524 57.2928 34.6138 57.3175 34.5811 57.3491C34.5484 57.3806 34.5222 57.4183 34.504 57.4601C34.4859 57.5018 34.476 57.5468 34.4752 57.5923L34.47 57.5982Z" fill="white" stroke="white" stroke-width="0.5"/>
<path d="M34.8438 57.2788V56.072C34.8437 55.9821 34.879 55.8959 34.9419 55.8321C35.0047 55.7683 35.0901 55.7321 35.1793 55.7314H36.8227C36.912 55.7318 36.9975 55.7677 37.0606 55.8312C37.1237 55.8948 37.1593 55.9809 37.1597 56.0708V57.2776" stroke="white" stroke-width="1.11"/>
<path d="M37.1116 53.8035C38.6174 53.8035 39.838 52.5743 39.838 51.058C39.838 49.5417 38.6174 48.3125 37.1116 48.3125C35.6059 48.3125 34.3853 49.5417 34.3853 51.058C34.3853 52.5743 35.6059 53.8035 37.1116 53.8035Z" fill="#19BBBB"/>
<path d="M37.4377 50.1035V50.9551C37.4401 51.0539 37.423 51.1523 37.3875 51.2444C37.352 51.3366 37.2987 51.4208 37.2308 51.4921C37.1629 51.5635 37.0816 51.6206 36.9916 51.6602C36.9017 51.6998 36.8049 51.7211 36.7067 51.7229C36.6087 51.7205 36.5122 51.6988 36.4226 51.6589C36.3329 51.619 36.252 51.5617 36.1844 51.4902C36.1167 51.4188 36.0637 51.3347 36.0284 51.2426C35.9931 51.1505 35.9761 51.0524 35.9785 50.9537V50.1228" stroke="white" stroke-width="1.93"/>
<path d="M38.159 50.8838V51.7354C38.163 51.8341 38.1471 51.9326 38.1123 52.025C38.0776 52.1174 38.0246 52.2018 37.9566 52.2731C37.8887 52.3443 37.8071 52.401 37.7168 52.4398C37.6266 52.4785 37.5295 52.4985 37.4314 52.4985C37.3332 52.4985 37.2361 52.4785 37.1459 52.4398C37.0556 52.401 36.974 52.3443 36.9061 52.2731C36.8381 52.2018 36.7852 52.1174 36.7504 52.025C36.7156 51.9326 36.6997 51.8341 36.7037 51.7354V51.7231" stroke="white" stroke-width="1.93"/>
<path d="M38.1222 50.9512C38.257 50.9512 38.3663 50.8454 38.3663 50.7149C38.3663 50.5843 38.257 50.4785 38.1222 50.4785C37.9875 50.4785 37.8782 50.5843 37.8782 50.7149C37.8782 50.8454 37.9875 50.9512 38.1222 50.9512Z" stroke="white" stroke-width="1.93"/>
<path d="M35.9909 50.257C36.1724 50.257 36.3196 50.1094 36.3196 49.9273C36.3196 49.7453 36.1724 49.5977 35.9909 49.5977C35.8093 49.5977 35.6621 49.7453 35.6621 49.9273C35.6621 50.1094 35.8093 50.257 35.9909 50.257Z" fill="white"/>
<path d="M37.4527 50.2754C37.629 50.2754 37.7719 50.1303 37.7719 49.9512C37.7719 49.7721 37.629 49.627 37.4527 49.627C37.2764 49.627 37.1335 49.7721 37.1335 49.9512C37.1335 50.1303 37.2764 50.2754 37.4527 50.2754Z" fill="white"/>
<path d="M28.8262 25.9676C28.8262 25.9676 28.0816 9.61365 38.7158 8.11258C49.3501 6.6115 51.7084 20.5577 51.8761 23.9884C52.0439 27.4192 28.8262 25.9676 28.8262 25.9676Z" fill="#2D3133"/>
<path d="M49.5438 18.0054C50.4986 21.1122 51.0441 19.9283 52.2802 22.1794C53.1435 23.7589 51.6159 27.6801 49.562 27.948C50.6668 27.0306 50.3809 26.2339 50.2357 26.1253C50.2357 26.8848 48.6412 28.3229 48.3263 28.4945C45.6816 29.9847 42.823 29.5094 40.5099 29.7616C37.5979 30.0762 33.5759 29.899 30.5535 28.7467C30.2807 28.6437 29.5047 27.1137 29.3479 26.284C28.6454 26.9707 29.3329 28.1918 29.1378 28.0695C27.7153 27.1754 27.1778 24.379 28.9564 22.7239C31.0119 20.8107 29.9371 21.0963 31.9011 17.0486C37.2378 16.4639 46.9469 15.5757 49.5438 18.0054Z" fill="#222526"/>
<path d="M37.8728 53.9492L39.3417 64.2832C39.3417 64.2832 40.2131 64.6567 40.145 64.459C40.0769 64.2613 40.134 54.7471 40.1012 54.5562C40.0685 54.3654 37.8728 53.9492 37.8728 53.9492Z" fill="#FAD3CA"/>
<path d="M42.8744 54.0703L41.3986 64.4043C41.3986 64.4043 40.5258 64.7778 40.5939 64.5801C40.662 64.3824 40.6061 54.8682 40.6388 54.6773C40.6716 54.4865 42.8744 54.0703 42.8744 54.0703Z" fill="#FAD3CA"/>
<path d="M40.5883 64.2337L41.4284 64.2158C41.4284 64.2158 41.3521 64.4906 41.6643 64.4548C41.9765 64.419 42.8168 64.4727 42.3462 65.1895C42.3462 65.1895 40.8378 65.489 40.5596 64.9258L40.5883 64.2337Z" fill="#2D3133"/>
<path d="M40.1546 64.2171L39.3185 64.1992C39.3185 64.1992 39.3948 64.474 39.084 64.4382C38.7732 64.4024 37.9355 64.4561 38.4089 65.1703C38.4089 65.1703 39.9091 65.4684 40.1819 64.9088L40.1546 64.2171Z" fill="#2D3133"/>
<path d="M43.2275 42.6109C43.2275 42.6109 44.4782 53.6921 44.3977 53.916C44.3172 54.1398 42.4459 54.199 42.0654 54.5491C41.6849 54.8993 39.9828 55.3402 39.3718 55.0574C38.7608 54.7746 39.0363 54.3474 38.4103 54.4297C37.7843 54.5119 36.404 55.1507 35.7085 54.2772L37.442 42.3281L43.2275 42.6109Z" fill="#0F7986"/>
<path d="M41.9112 29.2887C41.918 29.329 41.9248 29.367 41.9312 29.4028C42.0389 29.9521 42.3526 30.4439 42.8969 30.6168C43.2584 30.7335 42.38 35.8359 42.3049 36.4047C42.1251 37.7453 40.6683 38.8769 39.3876 39.0362C37.2598 39.293 37.8532 37.3372 37.8628 35.8772C37.8628 35.4129 37.9992 30.4189 37.3281 30.4974C38.9484 30.3079 39.037 28.7531 39.1012 27.4319C40.0199 27.3916 40.9942 27.6008 41.9174 27.6585C41.7313 28.0622 41.8253 28.8135 41.9112 29.2887Z" fill="#FAD3CA"/>
<path d="M43.1334 30.4513L42.1147 30.1973C42.1147 30.1973 40.6213 32.6284 40.3143 32.7517C40.0073 32.875 38.6873 30.0981 38.3735 30.2121C38.0915 30.3308 37.8201 30.4732 37.562 30.638L37.4883 42.539C37.4883 42.539 42.5865 43.5004 42.8611 42.7258C43.1358 41.9512 43.1334 30.4513 43.1334 30.4513Z" fill="#19BBBB"/>
<path d="M44.5793 43.6348H34.9897V42.4302H44.5793V43.6348Z" fill="#2D3133"/>
<path d="M44.676 43.6348H39.9297V42.4302H44.676V43.6348Z" fill="#495059"/>
<path d="M45.4357 31.358C45.4357 31.358 43.6924 30.2936 42.1924 30.185C40.6924 30.0764 40.6581 52.3143 40.7753 52.3719C40.8926 52.4294 45.1329 53.4198 47.0983 52.1233" fill="#F7F6F1"/>
<path d="M33.4934 52.125C33.4934 52.125 36.2621 33.2986 35.156 31.3581C34.0499 29.4175 36.8977 30.2991 38.3953 30.1915C39.8929 30.0839 39.9332 52.3152 39.8178 52.373C39.7024 52.4307 35.4602 53.4209 33.4934 52.1243" fill="#F7F6F1"/>
<path d="M38.7239 29.6314C39.0349 29.0574 39.0608 28.2661 39.1018 27.4338C40.0206 27.3936 40.9949 27.6028 41.918 27.6605C41.7313 28.0601 41.8254 28.8182 41.9112 29.2935C41.918 29.3337 41.9248 29.3718 41.9312 29.4076C41.9835 29.6971 42.1058 29.9692 42.2871 30.2C41.074 30.2447 39.8638 30.0516 38.7239 29.6314Z" fill="#E0ADA6"/>
<path d="M41.3508 41.5341L44.4807 33.693L42.9014 33.1986L45.2199 32.7865L42.6833 30.1907L42.0613 30.0684L41.3508 41.5341Z" fill="#E0E0E0"/>
<path d="M38.5098 30.0684L37.8878 30.1907L35.3496 32.7893L37.6683 33.2015L36.0888 33.6932L39.2259 41.5343L38.5098 30.0684Z" fill="#E0E0E0"/>
<path d="M35.04 31.4008C34.534 32.4529 34.0398 33.5118 33.5574 34.5775C32.9286 35.9702 31.4189 39.588 31.9208 41.1702C32.5481 43.1522 36.3643 38.3064 36.558 37.1877C36.7763 35.8686 35.782 30.9531 35.04 31.4008Z" fill="#F7F6F1"/>
<path d="M31.3236 32.2892C31.4518 32.5873 30.8135 33.0296 30.5994 33.1627C30.2434 33.3825 29.7661 33.3715 29.365 33.3522C29.2749 33.3522 29.1054 33.3522 29.0486 33.2615C28.9749 33.1474 29.1551 33.0143 29.226 32.9469C29.3381 32.8528 29.4661 32.7797 29.6039 32.7313C29.7513 32.6709 29.8875 32.5939 30.0307 32.5211C30.1607 32.4458 30.3009 32.3899 30.4468 32.3549C30.6529 32.3364 30.8576 32.3033 31.0592 32.256C31.1299 32.2357 31.2813 32.1973 31.3236 32.2892Z" fill="#0F7986"/>
<path d="M29.0608 34.811C29.0608 34.811 30.7697 40.5796 31.7258 41.3254C32.682 42.0712 34.9665 41.151 34.1808 38.8848C33.395 36.6186 32.0191 33.2812 32.0191 33.2812C32.0191 33.2812 29.9023 32.6925 29.0608 34.811Z" fill="#F7F6F1"/>
<path d="M31.7367 30.6713C31.6331 30.8664 31.3275 31.5187 31.3275 31.5187C31.1477 32.2275 30.9402 32.5543 30.7628 32.7136L30.951 33.4224L30.8733 33.4444L29.9867 33.693L29.9104 33.7149L29.7154 32.9884C29.4425 32.6828 29.2296 32.3279 29.088 31.9425C28.9408 31.433 28.8903 31.2385 28.7076 31.0776C28.52 30.8924 28.342 30.6978 28.1743 30.4943C28.1743 30.4943 27.9615 30.2529 28.1211 30.1097C28.2807 29.9665 29.0281 30.8308 29.0281 30.8308C29.0281 30.8308 29.1018 30.9113 29.1496 30.8968C29.1555 30.895 29.1609 30.892 29.1657 30.888C29.1704 30.884 29.1742 30.879 29.1769 30.8734C29.2151 30.793 28.6736 29.6222 28.6736 29.6222C28.6736 29.6222 28.5713 29.3901 28.7609 29.3187C28.9504 29.2473 29.0405 29.5522 29.155 29.7911C29.2694 30.0301 29.5327 30.5768 29.5327 30.5768C29.5327 30.5768 29.6325 30.6496 29.6349 30.5492C29.6373 30.4488 29.3539 29.1674 29.3539 29.1674C29.3539 29.1674 29.2898 28.9009 29.4903 28.8735C29.6908 28.8462 29.71 29.0479 29.7899 29.4568C29.8349 29.6875 29.9385 30.2493 29.9876 30.4649C29.9884 30.4708 29.9913 30.4762 29.9958 30.48C29.9996 30.4838 30.0043 30.4865 30.0094 30.488C30.0145 30.4894 30.0199 30.4895 30.0251 30.4883C30.0303 30.4871 30.035 30.4845 30.039 30.481C30.0429 30.4774 30.0459 30.4728 30.0476 30.4678C30.0484 30.4641 30.0484 30.4603 30.0476 30.4567L30.034 29.2452C30.034 29.2452 30.0462 29.0186 30.1964 29.0103C30.4009 29.0007 30.4283 29.1409 30.456 29.6393C30.471 29.8961 30.4846 30.1777 30.496 30.3891V30.4647C30.5042 30.62 30.5082 30.7216 30.5082 30.7216C30.5358 30.9062 30.6241 31.0762 30.759 31.2043C30.759 31.2043 31.1683 30.6329 31.3982 30.5094C31.6281 30.3859 31.8486 30.4651 31.7367 30.6713Z" fill="#FAD3CA"/>
<path d="M30.7573 32.7178L30.8392 33.0267C30.8742 33.1646 30.8839 33.3077 30.8678 33.4491L29.9812 33.6977C29.9452 33.6745 29.9106 33.6493 29.8775 33.6221L29.7097 32.9929C29.8588 33.0143 30.0102 32.9769 30.1326 32.8885C30.2423 32.9191 30.3582 32.9193 30.4682 32.8893C30.5781 32.8593 30.6779 32.8 30.7573 32.7178Z" fill="#E0ADA6"/>
<path d="M31.7476 33.7402C31.2003 34.3206 30.4929 34.7224 29.7167 34.8939C29.4588 34.9377 29.0839 34.9556 29.0811 34.6191C29.0743 33.9325 29.8531 33.5616 30.355 33.3033C30.7643 33.0945 31.6165 32.7154 31.9589 33.2251C32.038 33.3452 31.9433 33.5326 31.7476 33.7402Z" fill="#7C8084"/>
<path d="M29.6294 34.8976L29.043 33.2564C29.043 33.2564 30.9524 33.5311 31.3233 32.2949L31.8416 33.6449C31.8416 33.6449 30.9524 34.7383 29.6294 34.8976Z" fill="#19BBBB"/>
<path d="M42.0217 29.7492C42.1494 29.9089 42.2665 30.0769 42.3723 30.2521C42.4546 30.4771 42.5252 30.7063 42.5836 30.9387C42.896 32.006 42.9273 33.0662 42.9631 34.1718C42.9922 35.0811 43.0045 35.9912 42.9998 36.9022C42.9998 36.9392 42.9902 37.6096 42.9998 37.6096L43.3136 37.6315C43.3136 37.6315 43.3136 33.3312 43.1117 31.981C43.0402 31.4795 42.9349 30.9834 42.7967 30.4962C42.6872 30.131 42.4911 29.6983 42.0217 29.7492Z" fill="#252F4A"/>
<path d="M43.0611 38.3619L43.0337 37.5996L43.2628 37.6243L43.3297 38.4182L43.0611 38.3619Z" fill="#AAA9A9"/>
<path d="M42.5592 39.1264C42.5592 39.1264 42.5033 38.4068 42.9685 38.2489C43.4337 38.091 43.4594 38.2489 43.4594 38.2489C43.4594 38.2489 43.6054 38.1252 43.7512 38.3396C43.8971 38.554 43.919 38.981 43.8058 39.3752C43.6925 39.7695 43.5329 39.8696 43.3366 39.8696C43.1403 39.8696 42.9903 39.4875 42.9903 39.4875C42.9903 39.4875 42.5361 39.5207 42.5592 39.1264Z" fill="#AAA9A9"/>
<path opacity="0.2" d="M43.5029 38.253C43.4133 38.3224 43.3401 38.4108 43.2883 38.5119C43.2365 38.613 43.2075 38.7244 43.2033 38.8381C43.1758 39.0408 43.1599 39.2449 43.1555 39.4494C43.1555 39.5469 43.2196 39.849 43.3533 39.8532C43.1705 39.8532 43.0804 39.6266 43.0313 39.4823C42.9672 39.2587 42.9611 39.0223 43.0135 38.7957C43.0343 38.6833 43.072 38.5747 43.1254 38.4738C43.1691 38.3928 43.235 38.3262 43.3153 38.2819C43.3956 38.2375 43.4868 38.2174 43.5782 38.2238C43.5518 38.23 43.5265 38.2398 43.5029 38.253Z" fill="#281B13"/>
<g opacity="0.2">
<path d="M43.7498 39.0718V39.1005C43.7505 39.1276 43.7478 39.1547 43.7416 39.181C43.7289 39.2765 43.708 39.3708 43.6789 39.4626C43.6687 39.4923 43.6565 39.5212 43.6422 39.5491C43.6259 39.5818 43.602 39.61 43.5727 39.6315C43.5635 39.6369 43.554 39.6415 43.5441 39.6452C43.5319 39.6466 43.5195 39.6466 43.5073 39.6452H43.4952C43.4888 39.6436 43.4827 39.6408 43.4774 39.637C43.4669 39.6318 43.4573 39.625 43.4488 39.6169C43.4203 39.5876 43.3984 39.5525 43.3847 39.5139C43.3553 39.4397 43.3374 39.3614 43.3316 39.2818C43.324 39.2009 43.324 39.1195 43.3316 39.0386L43.3384 38.9783L43.3466 38.9179C43.3531 38.8781 43.3618 38.8387 43.3725 38.7998C43.3911 38.7219 43.4215 38.6473 43.4626 38.5786C43.4822 38.5427 43.5095 38.5118 43.5425 38.4879C43.5613 38.4747 43.5837 38.4677 43.6066 38.4678H43.6366C43.6479 38.4722 43.6581 38.479 43.6665 38.4879C43.6927 38.5132 43.712 38.5448 43.7225 38.5798C43.7326 38.6099 43.7403 38.6407 43.7456 38.6719C43.7593 38.7669 43.7648 38.863 43.762 38.959V39.0394L43.7498 39.0718ZM43.7498 39.0718V38.9702C43.7499 38.9285 43.7476 38.8868 43.743 38.8453C43.7386 38.7919 43.7291 38.739 43.7145 38.6874C43.7064 38.6586 43.6959 38.6305 43.6831 38.6035C43.6713 38.5758 43.6531 38.5513 43.63 38.5321C43.5862 38.4977 43.5399 38.5555 43.5113 38.6172C43.4832 38.6844 43.4621 38.7544 43.4486 38.826C43.4418 38.863 43.435 38.9002 43.4286 38.9372L43.4219 38.9935V39.0527C43.4178 39.1287 43.4178 39.2048 43.4219 39.2808C43.4234 39.3539 43.433 39.4267 43.4504 39.4978C43.4579 39.529 43.4715 39.5584 43.4904 39.5843L43.5025 39.5965H43.5311C43.5388 39.5981 43.5465 39.599 43.5543 39.5994C43.5799 39.5848 43.6014 39.5641 43.617 39.539C43.6345 39.5143 43.65 39.4882 43.6633 39.461C43.6854 39.4118 43.7032 39.3608 43.7165 39.3085C43.7279 39.269 43.7366 39.2286 43.7424 39.1878C43.7435 39.1607 43.7472 39.1338 43.7534 39.1074L43.7498 39.0718Z" fill="#281B13"/>
</g>
<path d="M36.228 34.3142C36.228 34.3142 36.3644 37.3538 36.7421 38.278C36.7421 38.278 36.9209 39.1103 37.5011 39.0884L38.0604 39.0431L38.0386 38.9058C38.0386 38.9058 37.1658 39.1996 36.9475 38.3892C36.9475 38.3892 36.4769 37.3976 36.365 34.3814C36.3617 34.3802 36.3848 33.9325 36.228 34.3142Z" fill="#AAA9A9"/>
<path d="M37.986 38.9121C37.986 38.9121 38.3148 38.4917 38.5233 38.6277C38.5571 38.6553 38.5849 38.6896 38.6049 38.7285C38.6249 38.7675 38.6366 38.8101 38.6394 38.8539C38.6423 38.8976 38.6361 38.9415 38.6212 38.9827C38.6064 39.0239 38.5832 39.0615 38.5532 39.0933C38.4947 39.1084 37.7188 39.1868 37.986 38.9121Z" fill="#0F7986"/>
<path d="M38.5822 34.4202C38.5822 34.4202 38.4935 36.957 38.3748 37.5724C38.2562 38.1879 38.1951 38.7125 37.7774 38.9074L37.7625 38.983L38.1362 38.8937C38.1362 38.8937 38.4853 38.7316 38.6816 36.6714C38.7573 35.9197 38.7946 35.1647 38.7935 34.4092L38.5822 34.4202Z" fill="#AAA9A9"/>
<path d="M36.9578 38.6682C36.9578 38.6682 36.5555 38.4128 36.5104 38.6682C36.4652 38.9237 36.6302 39.0582 36.8841 38.9828C37.1379 38.9074 37.1663 38.8631 36.9578 38.6682Z" fill="#0F7986"/>
<path d="M38.6787 29.6348C37.4853 29.6925 37.3952 31.4436 37.4511 32.291C37.4511 32.291 36.21 32.2566 36.1431 34.3512L36.4159 34.3415C36.4159 34.3415 36.371 32.5561 37.6571 32.5271C37.6571 32.5271 38.5626 32.5945 38.5287 34.45H38.8297C38.8297 34.45 39.0642 32.6261 37.8572 32.2882C37.7208 32.2511 37.8055 31.4078 37.8172 31.3267C37.9282 30.6881 38.2285 30.0982 38.6787 29.6348Z" fill="#252F4A"/>
<path d="M45.5119 31.3839C46.1093 32.3911 46.6935 33.4019 47.2646 34.4165C48.012 35.7488 49.8314 39.2236 49.4701 40.8415C49.0187 42.8716 44.7947 38.3817 44.5069 37.2802C44.1699 35.9865 44.7306 31.0036 45.5119 31.3839Z" fill="#F7F6F1"/>
<path d="M49.8916 32.0187C49.7743 32.3222 50.4309 32.7397 50.6506 32.8634C51.0133 33.0694 51.4907 33.0406 51.8903 33.0008C51.9804 32.994 52.15 32.9885 52.2027 32.8978C52.2722 32.7812 52.0881 32.6546 52.0146 32.5915C51.8988 32.5019 51.7682 32.4338 51.6287 32.3904C51.4787 32.3369 51.3395 32.2598 51.1937 32.1967C51.061 32.1265 50.9191 32.0756 50.7722 32.0456C50.5652 32.0361 50.3591 32.0113 50.1556 31.9714C50.0837 31.9583 49.9279 31.9257 49.8916 32.0187Z" fill="#0F7986"/>
<path d="M49.6787 30.2161C49.7659 30.4124 50.0238 31.0649 50.0238 31.0649C50.1534 31.7612 50.332 32.0923 50.4944 32.2584L50.2639 32.9314L50.339 32.9576L51.1805 33.2593L51.2542 33.2854L51.4887 32.5987C51.7735 32.3189 52.0046 31.9884 52.1704 31.624C52.3531 31.1391 52.41 30.9551 52.5946 30.8123C52.7888 30.6455 52.9741 30.4686 53.1497 30.2821C53.1497 30.2821 53.372 30.0622 53.2259 29.9126C53.0799 29.7629 52.3012 30.5526 52.3012 30.5526C52.3012 30.5526 52.2249 30.624 52.1797 30.6075C52.1744 30.6053 52.1695 30.6019 52.1655 30.5976C52.1615 30.5934 52.1585 30.5883 52.1566 30.5828C52.1252 30.5023 52.7252 29.4057 52.7252 29.4057C52.7252 29.4057 52.8385 29.1873 52.6611 29.1062C52.4837 29.0252 52.3733 29.3136 52.2518 29.5361C52.1304 29.7585 51.8346 30.2722 51.8346 30.2722C51.8346 30.2722 51.7337 30.3354 51.7377 30.2378C51.7417 30.1403 52.0992 28.9194 52.0992 28.9194C52.0992 28.9194 52.1791 28.6667 51.9942 28.6255C51.8092 28.5843 51.7691 28.7808 51.6654 29.1748C51.6067 29.3961 51.4691 29.9329 51.4076 30.1362C51.406 30.1418 51.4027 30.1466 51.398 30.1499C51.3941 30.1534 51.3895 30.1558 51.3844 30.157C51.3794 30.1581 51.3741 30.1579 51.3692 30.1564C51.3642 30.1549 51.3598 30.1521 51.3562 30.1483C51.3526 30.1445 51.3501 30.1399 51.3489 30.1348V30.1212L51.4415 28.9495C51.4415 28.9495 51.4415 28.7283 51.3051 28.712C51.1054 28.6887 51.0718 28.8218 51.0119 29.3025C50.9805 29.5497 50.9478 29.8217 50.9232 30.025C50.9233 30.05 50.9205 30.0749 50.915 30.0992C50.8972 30.2489 50.8865 30.3464 50.8865 30.3464C50.8475 30.5236 50.7516 30.6829 50.6136 30.7996C50.6136 30.7996 50.2577 30.2187 50.0394 30.0827C49.8211 29.9468 49.5832 30.0055 49.6787 30.2161Z" fill="#FAD3CA"/>
<path d="M50.4942 32.2578L50.3933 32.5517C50.3504 32.6821 50.3319 32.8195 50.3388 32.9568L51.1803 33.2585C51.2168 33.2384 51.2519 33.2159 51.2853 33.1911L51.4885 32.5937C51.3428 32.6047 51.1987 32.5584 51.0862 32.4646C50.9782 32.4883 50.8658 32.4815 50.7613 32.445C50.6569 32.4086 50.5644 32.3438 50.4942 32.2578Z" fill="#E0ADA6"/>
<path d="M52.2512 34.4511C52.2512 34.4511 50.7646 40.2774 49.8385 41.0644C48.9123 41.8515 46.5938 41.0164 47.2948 38.7212C47.9959 36.4261 49.2343 33.0391 49.2343 33.0391C49.2343 33.0391 51.3305 32.3661 52.2512 34.4511Z" fill="#F7F6F1"/>
<path d="M49.5232 33.4859C50.0925 34.0444 50.8152 34.4181 51.5976 34.5586C51.8573 34.5916 52.2332 34.5956 52.2222 34.2633C52.2022 33.5767 51.4033 33.2359 50.8978 32.9984C50.4885 32.8061 49.6157 32.46 49.2925 32.9833C49.219 33.1028 49.3201 33.2814 49.5232 33.4859Z" fill="#7C8084"/>
<path d="M51.6852 34.5603L52.2075 32.8971C52.2075 32.8971 50.3048 33.239 49.8888 32.0195L49.4236 33.3931C49.4236 33.3931 50.3567 34.4511 51.6852 34.5603Z" fill="#19BBBB"/>
<path d="M32.4951 21.1407L32.7228 22.4181C32.7228 22.4181 32.1949 22.6488 32.0271 21.6367C32.0273 21.6371 32.0846 20.8124 32.4951 21.1407Z" fill="#F28B74"/>
<path d="M32.3906 25.5513C32.2467 25.5597 32.1043 25.5175 31.9878 25.432C31.8712 25.3465 31.7877 25.223 31.7515 25.0825C31.7152 24.942 31.7285 24.7931 31.7889 24.6613C31.8494 24.5295 31.9534 24.4229 32.0831 24.3596C32.2129 24.2964 32.3604 24.2803 32.5006 24.3143C32.6408 24.3482 32.765 24.4301 32.8519 24.5459C32.9389 24.6617 32.9834 24.8042 32.9777 24.9493C32.972 25.0944 32.9166 25.233 32.8208 25.3415C32.7664 25.4033 32.7003 25.4536 32.6265 25.4896C32.5527 25.5256 32.4725 25.5466 32.3906 25.5513Z" fill="white"/>
<path d="M32.2795 22.5889H32.3668V24.557H32.2795V22.5889Z" fill="white"/>
<path d="M48.6028 25.5338C48.4588 25.5421 48.3165 25.4999 48.1999 25.4144C48.0834 25.3289 47.9999 25.2054 47.9636 25.0649C47.9274 24.9244 47.9406 24.7755 48.0011 24.6437C48.0616 24.5119 48.1655 24.4053 48.2953 24.342C48.4251 24.2788 48.5726 24.2628 48.7128 24.2967C48.853 24.3307 48.9771 24.4125 49.0641 24.5283C49.1511 24.6441 49.1955 24.7867 49.1899 24.9317C49.1842 25.0768 49.1288 25.2154 49.033 25.324C48.9785 25.3857 48.9125 25.436 48.8386 25.472C48.7648 25.508 48.6847 25.529 48.6028 25.5338Z" fill="white"/>
<path d="M48.4963 22.5703H48.5836V24.5384H48.4963V22.5703Z" fill="white"/>
<path d="M32.5877 20.0823C32.5877 20.0823 31.5866 19.7238 31.5756 20.964C31.5646 22.2043 32.0394 23.0325 32.8154 23.1409L32.5877 20.0823Z" fill="#FAD3CA"/>
<path d="M48.0578 20.0874C48.0578 20.0874 49.0365 19.6685 49.1216 20.9121C49.2067 22.1557 48.7821 23.0039 48.0127 23.1604L48.0578 20.0874Z" fill="#FAD3CA"/>
<path d="M48.2848 21.083L48.0557 22.3604C48.0557 22.3604 48.5836 22.5925 48.7525 21.5802C48.7525 21.5802 48.6968 20.7548 48.2848 21.083Z" fill="#D6A9A5"/>
<path d="M47.8743 21.8334C47.8743 21.8334 48.2725 24.4705 46.7158 26.5032C45.3874 28.2352 42.3514 28.8382 40.7365 28.7927C39.6204 28.7794 38.5114 28.6112 37.4409 28.2927C36.3502 27.9741 35.3482 27.4042 34.514 26.6281C32.0673 24.2959 32.3727 20.9309 32.3727 20.9309C32.3727 20.9309 30.7019 12.0033 38.9343 11.7768C50.441 11.4554 47.8743 21.8334 47.8743 21.8334Z" fill="#FAD3CA"/>
<path d="M32.4951 21.1407L32.7228 22.4181C32.7228 22.4181 32.1949 22.6488 32.0271 21.6367C32.0273 21.6371 32.0846 20.8124 32.4951 21.1407Z" fill="#D6A9A5"/>
<path d="M32.1868 13.1367C32.1868 13.1367 31.6575 19.8434 31.9549 20.4931C32.2524 21.1427 32.1323 20.8845 32.1323 20.8845C32.1323 20.8845 40.0198 20.2994 42.9561 16.9537C42.9561 16.9537 44.6433 15.1312 44.676 15.0789C44.676 15.0789 47.7066 18.742 47.6766 19.8476L47.6521 20.9464C47.6521 20.9464 48.5631 20.7541 49.2 19.0785C49.837 17.4028 48.345 13.4157 47.6998 12.939C47.0547 12.4623 39.6433 7.88184 37.4618 9.60417C35.2803 11.3265 32.1868 13.1367 32.1868 13.1367Z" fill="#2D3133"/>
<path d="M44.8429 14.8889C44.8429 14.8889 42.7561 20.3759 32.2283 20.6259C32.2283 20.6259 44.6016 17.0837 44.5743 14.4219" fill="#222526"/>
<path d="M44.7552 13.6074C44.7552 13.6074 44.2097 14.764 45.0716 15.695C45.9334 16.6261 48.36 19.7563 47.1288 21.8578C47.1288 21.8578 49.7202 19.6753 48.2977 18.1921C46.8752 16.7089 44.2738 15.1224 44.7552 13.6074Z" fill="#222526"/>
<path d="M34.5544 20.4474C34.5544 20.4474 32.9178 20.4968 32.7813 21.1932C32.7039 21.5738 32.6818 21.9638 32.7158 22.3509C32.7158 22.3509 31.8142 21.2233 32.2057 20.634C32.5972 20.0447 33.1918 19.9803 34.4371 20.0352C35.6825 20.0901 34.5544 20.4474 34.5544 20.4474Z" fill="#222526"/>
<path opacity="0.5" d="M41.13 13.9727C39.5 14.0323 37.8679 13.997 36.2419 13.8669C35.9956 13.8615 35.7531 13.8044 35.5299 13.6993C35.4166 13.8367 35.2966 14.0469 35.1017 14.0702C34.7743 14.1105 34.9019 13.7585 34.9039 13.5318C34.6215 13.7406 34.3201 14.1058 33.9852 14.2185C33.6502 14.3311 33.6196 14.1004 33.5857 13.8339C33.3798 13.9713 31.7881 15.8666 31.6203 15.1212C31.5508 14.8122 31.9399 14.3301 32.0963 14.0841C32.3292 13.7381 32.5872 13.4099 32.8682 13.1022C33.1615 12.7993 33.481 12.5233 33.823 12.2775C33.973 12.158 34.4585 11.6182 34.678 11.7487C35.0803 11.9863 34.1557 12.8598 34.0547 13.0686C34.0846 13.0082 34.3275 12.9051 34.3916 12.8558C34.5102 12.7637 34.6207 12.6607 34.734 12.5619C34.9057 12.4123 35.1091 12.1842 35.3627 12.2132C35.45 12.4961 35.304 12.7448 35.2045 13.0016C35.3409 12.856 35.6779 12.617 35.9056 12.7021C36.1784 12.8065 36.0296 13.1911 35.922 13.36C36.0786 13.3422 36.2363 13.3348 36.3939 13.3381C36.8809 13.4342 37.3309 13.5509 37.8206 13.6129C38.4127 13.6897 39.0099 13.7241 39.6061 13.7502C40.6085 13.7846 41.6192 13.7846 42.6203 13.7215C43.0347 13.718 43.4482 13.6826 43.8572 13.6157C44.2633 13.5171 44.6772 13.4546 45.0942 13.4288C45.4049 13.4329 45.7148 13.3965 46.0162 13.3204C46.4254 13.1955 47.1746 12.8286 47.5915 12.9785C46.8125 13.0471 46.1534 13.6239 45.3888 13.6859C44.651 13.745 43.9281 13.8232 43.1957 13.9083C42.5294 13.9892 41.8105 13.9534 41.13 13.9727Z" fill="#A5A5A5"/>
<path d="M36.2595 24.1508C36.8975 24.1508 37.4148 23.9743 37.4148 23.7565C37.4148 23.5388 36.8975 23.3623 36.2595 23.3623C35.6215 23.3623 35.1042 23.5388 35.1042 23.7565C35.1042 23.9743 35.6215 24.1508 36.2595 24.1508Z" fill="#F28B74"/>
<path d="M44.8641 24.0094C45.4704 24.0094 45.962 23.8403 45.962 23.6316C45.962 23.423 45.4704 23.2539 44.8641 23.2539C44.2577 23.2539 43.7661 23.423 43.7661 23.6316C43.7661 23.8403 44.2577 24.0094 44.8641 24.0094Z" fill="#F28B74"/>
<path d="M38.7485 20.7951C38.7225 20.46 37.2387 20.1661 36.3481 20.3337C35.7406 20.4689 35.1595 20.7041 34.6282 21.03C35.3906 20.6207 37.5878 20.427 38.7485 20.7951Z" fill="#2D3133"/>
<path d="M42.0806 20.5516C42.1091 20.2535 43.5958 20.0763 44.4878 20.2769C45.0927 20.4288 45.6722 20.6694 46.2077 20.9911C45.4467 20.582 43.2466 20.2893 42.0806 20.5516Z" fill="#2D3133"/>
<path opacity="0.5" d="M46.3018 24.4796C46.5283 24.2722 47.3342 24.2625 47.3588 24.6073C47.3929 25.0948 45.7549 24.9808 46.3018 24.4796Z" fill="white"/>
<path opacity="0.5" d="M33.9014 24.5869C34.1611 24.3795 34.9626 24.5004 34.9298 24.9087C34.8819 25.4906 33.274 25.0881 33.9014 24.5869Z" fill="white"/>
<path d="M40.6307 26.4867C41.5145 26.499 42.2591 26.0225 42.4405 25.3757C42.4481 25.3387 42.4472 25.3004 42.4377 25.2639C42.4283 25.2274 42.4106 25.1935 42.3861 25.1649C42.3616 25.1364 42.3308 25.1139 42.2963 25.0992C42.2617 25.0846 42.2243 25.0781 42.1868 25.0804L39.1139 25.0402C39.0766 25.0366 39.0389 25.0417 39.0039 25.0553C38.9689 25.0688 38.9375 25.0903 38.9121 25.1181C38.8867 25.1459 38.8681 25.1793 38.8577 25.2155C38.8473 25.2518 38.8454 25.29 38.8521 25.3272C39.0146 25.9759 39.7457 26.4743 40.6307 26.4867Z" fill="#2D3133"/>
<path d="M38.72 22.5969C38.72 22.5969 37.5729 21.1027 35.6676 22.0476L35.3948 21.9694L35.6676 22.3745C35.6676 22.3745 37.0342 21.7771 38.72 22.5969Z" fill="#2D3133"/>
<path d="M42.4978 22.7053C42.4978 22.7053 43.6163 21.2772 45.4752 22.1779L45.7413 22.1037L45.478 22.4911C44.9923 22.3245 44.4783 22.2576 43.9664 22.2944C43.4545 22.3312 42.9552 22.4709 42.4978 22.7053Z" fill="#2D3133"/>
<path d="M26.3534 55.6176C26.2693 55.3224 26.0893 55.064 25.8423 54.8839C25.7961 54.8538 25.7467 54.8289 25.6951 54.8097C25.608 54.7762 25.5155 54.759 25.4223 54.7588H25.3787C24.0353 54.8109 21.6197 57.2599 21.4561 61.3514C21.4495 61.4983 21.4463 61.6453 21.4465 61.7923C21.4571 63.0442 21.6605 64.2868 22.0493 65.4759H23.2154C23.956 62.8567 26.4888 59.3626 26.4888 56.4194C26.4874 56.1465 26.4417 55.8757 26.3534 55.6176Z" fill="#314D11"/>
<path d="M25.726 55.0591C25.7628 55.0014 25.8023 54.9437 25.8419 54.8848L25.6947 54.8105L25.6006 54.9479C24.1328 57.1722 23.1484 59.6838 22.7118 62.3179C22.538 63.3581 22.4658 64.413 22.4963 65.4673H22.6601C22.6125 61.7654 23.6816 58.1361 25.726 55.0591Z" fill="#719218"/>
<path d="M22.2795 65.3283C22.1114 63.5578 21.8344 61.7996 21.4502 60.0637C20.6127 56.2564 19.2243 52.4727 17.4293 52.4727C17.1325 52.4743 16.8421 52.5604 16.5918 52.7213C16.5447 52.7532 16.4991 52.7876 16.4554 52.8242C16.2337 53.0147 16.0586 53.254 15.9436 53.5236C15.8286 53.7933 15.7769 54.086 15.7925 54.379C15.7925 57.9403 20.8258 62.2491 21.4827 65.4753H22.2929C22.2819 65.4271 22.2774 65.3776 22.2795 65.3283Z" fill="#486C1F"/>
<path d="M16.592 52.7188C16.5448 52.7507 16.4993 52.7851 16.4556 52.8217C18.8 56.3557 21.1893 62.0816 21.7339 65.4732H21.9017C21.3614 62.0253 18.9966 56.3295 16.592 52.7188Z" fill="#314D11"/>
</g>
<defs>
<clipPath id="clip0_1159_20118">
<rect width="57" height="59" fill="white" transform="translate(11 8)"/>
</clipPath>
</defs>
</svg>
