<svg width="80" height="80" viewBox="0 0 80 80" fill="none" xmlns="http://www.w3.org/2000/svg">
<rect width="80" height="80" rx="40" fill="#19BBBB" fill-opacity="0.08"/>
<path d="M51.0098 8.10495L29.6635 20.4246C29.4521 20.5626 29.2765 20.7487 29.1509 20.9677C29.0253 21.1867 28.9535 21.4324 28.9412 21.6845V71.9533C28.9412 72.4135 29.2656 72.6003 29.6635 72.3683L51.0098 60.0448C51.2198 59.9071 51.3945 59.7221 51.52 59.5046C51.6454 59.2871 51.7181 59.0432 51.7322 58.7925V8.51611C51.7322 8.05592 51.4078 7.86731 51.0098 8.10495ZM50.693 55.0676C50.693 55.4617 50.4157 55.7126 50.0743 55.9087L30.5273 67.1986C30.1878 67.3872 29.9087 67.2363 29.9087 66.8403V25.036C29.9088 24.8199 29.9658 24.6075 30.0741 24.4205C30.1824 24.2334 30.3381 24.0781 30.5254 23.9704L50.0724 12.6786C50.1352 12.6422 50.2064 12.6229 50.2789 12.6227C50.3515 12.6226 50.4228 12.6415 50.4857 12.6776C50.5486 12.7138 50.6008 12.7658 50.6372 12.8286C50.6736 12.8913 50.6928 12.9625 50.693 13.0351V55.0676Z" fill="#455A64"/>
<path d="M50.6929 55.0669C50.6929 55.4611 50.4157 55.7119 50.0743 55.9081L30.5273 67.1979C30.1878 67.3866 29.9087 67.2357 29.9087 66.8396V25.0353C29.9088 24.8192 29.9658 24.6069 30.0741 24.4198C30.1824 24.2327 30.338 24.0775 30.5254 23.9697L50.0724 12.678C50.1352 12.6415 50.2064 12.6222 50.2789 12.6221C50.3514 12.6219 50.4227 12.6408 50.4856 12.677C50.5485 12.7131 50.6008 12.7652 50.6372 12.8279C50.6736 12.8907 50.6928 12.9619 50.6929 13.0344V55.0669Z" fill="#263238"/>
<path d="M30.5273 67.1989L50.0743 55.9128C50.2115 55.8386 50.3384 55.7467 50.4515 55.6393L29.9087 44.0703V66.8406C29.9087 67.2366 30.1878 67.3951 30.5273 67.1989Z" fill="#37474F"/>
<path d="M49.1105 54.3332V13.2344L30.5254 23.9698C30.338 24.0775 30.1824 24.2327 30.0741 24.4198C29.9658 24.6069 29.9088 24.8192 29.9087 25.0354V65.9042L48.4919 55.1744C48.8333 54.9783 49.1105 54.7274 49.1105 54.3332Z" fill="#FAD3CA"/>
<path d="M29.5727 72.4192C29.3572 72.5101 29.1245 72.5531 28.8907 72.5453C28.6569 72.5375 28.4275 72.479 28.2185 72.374L27.3925 71.8968C27.1817 71.7603 27.0061 71.5758 26.8803 71.3585C26.7544 71.1411 26.6817 70.8971 26.6682 70.6463V20.3643C26.673 20.1779 26.7153 19.9945 26.7927 19.8249C26.8191 19.7664 26.8474 19.7098 26.8795 19.6514L29.1427 20.9716C29.0951 21.0566 29.0535 21.1448 29.0182 21.2356C28.9633 21.3785 28.9333 21.5297 28.9296 21.6826V71.9534C28.9409 72.3777 29.2163 72.5701 29.5727 72.4192Z" fill="#263238"/>
<path d="M40.9741 62.291C41.4362 62.291 41.4852 62.8097 41.4852 63.0322C41.4576 63.4782 41.3269 63.9116 41.1033 64.2984C40.8798 64.6852 40.5696 65.0149 40.197 65.2615C40.0475 65.3565 39.876 65.4111 39.6991 65.42C39.237 65.42 39.188 64.9013 39.188 64.6788C39.2158 64.2328 39.3464 63.7994 39.5696 63.4124C39.7927 63.0253 40.1023 62.6951 40.4743 62.4476C40.625 62.3541 40.7969 62.3002 40.9741 62.291Z" fill="#FAD3CA"/>
<path d="M40.3214 15.0663C40.5099 14.9532 40.6739 15.0436 40.6739 15.2699C40.6671 15.3921 40.6316 15.5111 40.5704 15.6172C40.5092 15.7233 40.4239 15.8135 40.3214 15.8806C40.1329 15.9918 39.967 15.9013 39.967 15.677C39.9735 15.5544 40.009 15.4351 40.0706 15.3289C40.1322 15.2227 40.2182 15.1327 40.3214 15.0663Z" fill="#263238"/>
<path d="M38.0429 18.0445C38.2163 17.9446 38.3558 18.0257 38.3558 18.2331C38.3501 18.3415 38.3187 18.4471 38.2643 18.5411C38.2099 18.6352 38.1341 18.715 38.0429 18.7741C37.8695 18.874 37.73 18.7929 37.73 18.5856C37.736 18.4772 37.7675 18.3717 37.8219 18.2777C37.8762 18.1837 37.9519 18.1038 38.0429 18.0445Z" fill="#263238"/>
<path d="M39.0897 17.4257L42.5959 15.402C42.7845 15.2907 42.9429 15.3699 42.9429 15.5774C42.9337 15.6939 42.8976 15.8067 42.8374 15.9068C42.7771 16.007 42.6945 16.0918 42.5959 16.1545L39.0897 18.1783C38.9011 18.2895 38.7427 18.2103 38.7427 18.0028C38.7519 17.8863 38.788 17.7736 38.8482 17.6734C38.9084 17.5733 38.9911 17.4885 39.0897 17.4257Z" fill="#263238"/>
<path d="M51.7244 8.4013C51.6716 8.02409 51.3717 7.89018 51.0115 8.09953L29.6614 20.4249C29.4478 20.5575 29.2723 20.7434 29.1522 20.9643L26.8889 19.644C27.0109 19.4249 27.1868 19.2405 27.4 19.1084L48.7369 6.78495C48.9608 6.67145 49.2082 6.6123 49.4593 6.6123C49.7103 6.6123 49.9577 6.67145 50.1816 6.78495L51.0115 7.26024C51.2049 7.38853 51.3685 7.55674 51.4915 7.75356C51.6145 7.95037 51.6939 8.17124 51.7244 8.4013Z" fill="#37474F"/>
<path d="M46.1247 9.92753C46.0139 9.9867 45.8907 10.0187 45.7651 10.021C45.6395 10.0233 45.5152 9.99582 45.4023 9.94073C45.3645 9.92461 45.3318 9.89857 45.3075 9.86537C45.2833 9.83217 45.2685 9.79305 45.2646 9.75213C45.2646 9.69932 45.2646 9.50317 45.2646 9.44847C45.2707 9.40141 45.2888 9.35671 45.3172 9.3187C45.3457 9.2807 45.3834 9.25069 45.4268 9.23158L47.7146 7.91134C47.8259 7.85259 47.9494 7.82079 48.0752 7.81849C48.201 7.8162 48.3255 7.84348 48.4389 7.89814C48.476 7.91502 48.508 7.9413 48.5318 7.97438C48.5557 8.00746 48.5704 8.0462 48.5747 8.08675C48.5747 8.14144 48.5747 8.34513 48.5747 8.39794C48.5687 8.44528 48.5507 8.4903 48.5223 8.52862C48.4939 8.56695 48.456 8.5973 48.4125 8.61672L46.1247 9.92753Z" fill="#FAD3CA"/>
<path opacity="0.25" d="M46.1247 9.92753C46.0139 9.9867 45.8907 10.0187 45.7651 10.021C45.6395 10.0233 45.5152 9.99582 45.4023 9.94073C45.3645 9.92461 45.3318 9.89857 45.3075 9.86537C45.2833 9.83217 45.2685 9.79305 45.2646 9.75213C45.2646 9.69932 45.2646 9.50317 45.2646 9.44847C45.2707 9.40141 45.2888 9.35671 45.3172 9.3187C45.3457 9.2807 45.3834 9.25069 45.4268 9.23158L47.7146 7.91134C47.8259 7.85259 47.9494 7.82079 48.0752 7.81849C48.201 7.8162 48.3255 7.84348 48.4389 7.89814C48.476 7.91502 48.508 7.9413 48.5318 7.97438C48.5557 8.00746 48.5704 8.0462 48.5747 8.08675C48.5747 8.14144 48.5747 8.34513 48.5747 8.39794C48.5687 8.44528 48.5507 8.4903 48.5223 8.52862C48.4939 8.56695 48.456 8.5973 48.4125 8.61672L46.1247 9.92753Z" fill="black"/>
<path d="M46.1247 9.62829L48.4125 8.30805C48.6199 8.18735 48.6294 8.00063 48.437 7.88935C48.3237 7.83469 48.1991 7.80741 48.0733 7.8097C47.9475 7.812 47.824 7.8438 47.7127 7.90255L45.425 9.22279C45.2194 9.34161 45.2081 9.52833 45.4023 9.6396C45.5152 9.69453 45.6394 9.72213 45.7649 9.72017C45.8903 9.7182 46.0136 9.68673 46.1247 9.62829Z" fill="#FAD3CA"/>
<path opacity="0.3" d="M46.1247 9.62829L48.4125 8.30805C48.6199 8.18735 48.6294 8.00063 48.437 7.88935C48.3237 7.83469 48.1991 7.80741 48.0733 7.8097C47.9475 7.812 47.824 7.8438 47.7127 7.90255L45.425 9.22279C45.2194 9.34161 45.2081 9.52833 45.4023 9.6396C45.5152 9.69453 45.6394 9.72213 45.7649 9.72017C45.8903 9.7182 46.0136 9.68673 46.1247 9.62829Z" fill="black"/>
<path d="M28.0978 27.9405C28.0933 27.815 28.0592 27.6923 27.9983 27.5825C27.9373 27.4727 27.8512 27.3788 27.747 27.3087C27.7129 27.2835 27.6724 27.2682 27.6302 27.2645C27.5879 27.2609 27.5454 27.269 27.5075 27.2879C27.4641 27.3143 27.2906 27.4105 27.2453 27.4388C27.2074 27.4675 27.1776 27.5055 27.1588 27.5491C27.14 27.5928 27.1327 27.6405 27.1378 27.6878V33.2931C27.1424 33.4184 27.1763 33.5409 27.2369 33.6506C27.2975 33.7604 27.3831 33.8543 27.4867 33.9249C27.5208 33.9479 27.5602 33.9617 27.6012 33.965C27.6422 33.9683 27.6833 33.961 27.7206 33.9438C27.7696 33.9193 27.945 33.8174 27.9922 33.7891C28.0301 33.7604 28.0599 33.7224 28.0787 33.6788C28.0976 33.6352 28.1048 33.5874 28.0997 33.5402L28.0978 27.9405Z" fill="#FAD3CA"/>
<path opacity="0.3" d="M28.0978 27.9405C28.0933 27.815 28.0592 27.6923 27.9983 27.5825C27.9373 27.4727 27.8512 27.3788 27.747 27.3087C27.7129 27.2835 27.6724 27.2682 27.6302 27.2645C27.5879 27.2609 27.5454 27.269 27.5075 27.2879C27.4641 27.3143 27.2906 27.4105 27.2453 27.4388C27.2074 27.4675 27.1776 27.5055 27.1588 27.5491C27.14 27.5928 27.1327 27.6405 27.1378 27.6878V33.2931C27.1424 33.4184 27.1763 33.5409 27.2369 33.6506C27.2975 33.7604 27.3831 33.8543 27.4867 33.9249C27.5208 33.9479 27.5602 33.9617 27.6012 33.965C27.6422 33.9683 27.6833 33.961 27.7206 33.9438C27.7696 33.9193 27.945 33.8174 27.9922 33.7891C28.0301 33.7604 28.0599 33.7224 28.0787 33.6788C28.0976 33.6352 28.1048 33.5874 28.0997 33.5402L28.0978 27.9405Z" fill="black"/>
<path d="M27.8377 28.0965V33.7018C27.8377 33.9395 27.6811 34.0413 27.4869 33.93C27.3832 33.8595 27.2977 33.7655 27.2371 33.6557C27.1765 33.546 27.1425 33.4235 27.1379 33.2982V27.6872C27.1379 27.4477 27.2945 27.3459 27.4869 27.4571C27.5918 27.5283 27.6784 27.6233 27.7394 27.7345C27.8004 27.8457 27.8341 27.9697 27.8377 28.0965Z" fill="#FAD3CA"/>
<path opacity="0.4" d="M27.8377 28.0965V33.7018C27.8377 33.9395 27.6811 34.0413 27.4869 33.93C27.3832 33.8595 27.2977 33.7655 27.2371 33.6557C27.1765 33.546 27.1425 33.4235 27.1379 33.2982V27.6872C27.1379 27.4477 27.2945 27.3459 27.4869 27.4571C27.5918 27.5283 27.6784 27.6233 27.7394 27.7345C27.8004 27.8457 27.8341 27.9697 27.8377 28.0965Z" fill="black"/>
<path d="M28.0978 35.4532C28.0933 35.3277 28.0592 35.205 27.9983 35.0952C27.9373 34.9854 27.8512 34.8915 27.747 34.8214C27.7129 34.7962 27.6724 34.7809 27.6302 34.7772C27.5879 34.7736 27.5454 34.7817 27.5075 34.8006C27.4641 34.827 27.2906 34.9232 27.2453 34.9515C27.2074 34.9802 27.1776 35.0182 27.1588 35.0618C27.14 35.1055 27.1327 35.1532 27.1378 35.2005V37.8409C27.1427 37.9659 27.1768 38.088 27.2374 38.1974C27.2979 38.3068 27.3834 38.4005 27.4867 38.4709C27.5197 38.4953 27.5586 38.5104 27.5994 38.5147C27.6402 38.519 27.6814 38.5124 27.7187 38.4954C27.7678 38.4709 27.9432 38.369 27.9903 38.3407C28.028 38.3123 28.0578 38.2747 28.0766 38.2314C28.0954 38.1881 28.1027 38.1406 28.0978 38.0937V35.4532Z" fill="#FAD3CA"/>
<path opacity="0.3" d="M28.0978 35.4532C28.0933 35.3277 28.0592 35.205 27.9983 35.0952C27.9373 34.9854 27.8512 34.8915 27.747 34.8214C27.7129 34.7962 27.6724 34.7809 27.6302 34.7772C27.5879 34.7736 27.5454 34.7817 27.5075 34.8006C27.4641 34.827 27.2906 34.9232 27.2453 34.9515C27.2074 34.9802 27.1776 35.0182 27.1588 35.0618C27.14 35.1055 27.1327 35.1532 27.1378 35.2005V37.8409C27.1427 37.9659 27.1768 38.088 27.2374 38.1974C27.2979 38.3068 27.3834 38.4005 27.4867 38.4709C27.5197 38.4953 27.5586 38.5104 27.5994 38.5147C27.6402 38.519 27.6814 38.5124 27.7187 38.4954C27.7678 38.4709 27.9432 38.369 27.9903 38.3407C28.028 38.3123 28.0578 38.2747 28.0766 38.2314C28.0954 38.1881 28.1027 38.1406 28.0978 38.0937V35.4532Z" fill="black"/>
<path d="M27.8377 35.5944V38.2349C27.8377 38.4725 27.6811 38.5763 27.4869 38.4631C27.3832 38.3925 27.2977 38.2986 27.2371 38.1888C27.1765 38.0791 27.1425 37.9566 27.1379 37.8313V35.1908C27.1379 34.9532 27.2945 34.8495 27.4869 34.9607C27.5909 35.0315 27.6768 35.1257 27.7377 35.2358C27.7987 35.3459 27.8329 35.4687 27.8377 35.5944Z" fill="#FAD3CA"/>
<path opacity="0.4" d="M27.8377 35.5944V38.2349C27.8377 38.4725 27.6811 38.5763 27.4869 38.4631C27.3832 38.3925 27.2977 38.2986 27.2371 38.1888C27.1765 38.0791 27.1425 37.9566 27.1379 37.8313V35.1908C27.1379 34.9532 27.2945 34.8495 27.4869 34.9607C27.5909 35.0315 27.6768 35.1257 27.7377 35.2358C27.7987 35.3459 27.8329 35.4687 27.8377 35.5944Z" fill="black"/>
<path d="M34.3485 30.7738C34.3673 30.8654 34.3925 30.9555 34.4239 31.0435C34.5465 31.3755 34.7672 31.6885 34.7483 32.0431C34.7276 32.443 34.4126 32.7523 34.1712 33.071C33.8575 33.4924 33.6484 33.9824 33.5611 34.5005C33.4739 35.0186 33.5111 35.55 33.6695 36.051C33.9014 36.6611 34.2231 37.2332 34.6239 37.7484L35.5348 39.0404C35.8103 39.4021 36.1618 39.6989 36.5646 39.9098C37.3474 40.3523 38.2208 40.6103 39.1183 40.6642C40.5936 40.7638 42.0611 40.3791 43.2978 39.5685C44.6086 38.7009 44.0315 36.4753 45.3725 35.6624C46.9945 34.6817 47.7677 31.2755 45.7798 29.8534C45.7798 29.8534 46.1005 27.7674 45.512 27.2356C44.9256 26.7449 44.1999 26.4507 43.4374 26.3944C42.385 26.285 41.3307 26.4906 40.2801 26.4868C39.1987 26.4833 38.1182 26.5507 37.0456 26.6886C36.6683 26.7396 36.1365 26.8772 35.9328 27.245C35.8753 27.3893 35.8596 27.5468 35.8875 27.6996C35.8846 27.9419 35.798 28.1758 35.6423 28.3616C35.4085 28.6445 35.0765 28.835 34.8276 29.1009C34.6221 29.3226 34.4717 29.5896 34.3885 29.8802C34.3053 30.1708 34.2916 30.4769 34.3485 30.7738Z" fill="#263238"/>
<path d="M44.8159 33.7852C46.5134 33.8323 46.734 34.1944 48.2542 35.6995C49.5178 36.9499 53.7049 40.8145 53.7049 40.8145L58.7217 42.1498L57.5373 45.2108C57.5373 45.2108 56.4057 45.1637 54.1424 45.1618C52.7524 45.1618 52.2696 44.8506 50.8701 43.917C50.1572 43.4398 46.1343 40.8069 46.1343 40.8069L44.8159 33.7852Z" fill="#E6E6E6"/>
<path d="M64.2725 35.959L55.0781 39.1992L52.5432 50.1383L52.7488 50.3571L61.4906 47.0961L64.4762 36.1778L64.2725 35.959Z" fill="#FAD3CA"/>
<path opacity="0.35" d="M55.2818 39.418L52.7488 50.3571L52.5432 50.1383L55.0781 39.1992L55.2818 39.418Z" fill="black"/>
<path opacity="0.25" d="M64.4762 36.1787L55.2817 39.4189L52.7488 50.358L61.4906 47.097L64.4762 36.1787Z" fill="black"/>
<g opacity="0.2">
<path d="M60.123 44.8721C60.2079 45.0871 60.9133 45.5605 61.9337 45.4756L62.1053 44.8457L60.123 44.8721Z" fill="black"/>
</g>
<g opacity="0.1">
<path d="M61.7073 38.4184L61.7827 38.0506C61.8242 37.8488 61.2848 37.9544 60.5775 38.2882L58.9178 38.7899C58.2106 39.1238 57.5429 39.3727 57.4995 39.5745L57.4241 39.9404L61.7073 38.4184Z" fill="black"/>
</g>
<path d="M62.2542 36.7588C62.2806 36.6324 62.0656 36.6588 61.777 36.7362L61.2471 36.9153C61.2471 36.9153 61.4639 36.3835 60.2097 36.7267C58.831 37.1039 58.8008 37.7886 58.8008 37.7886C58.5852 37.8821 58.3641 37.9627 58.1388 38.03C57.6805 38.179 57.6315 38.2676 57.5938 38.3959L57.5259 38.6279L62.2127 36.9795C62.2127 36.9795 62.2353 36.8852 62.2542 36.7588Z" fill="#37474F"/>
<path d="M61.7602 37.4623C61.3264 37.6509 61.1472 37.7546 61.0812 38.0677C61.0076 38.4242 60.9926 38.5732 60.9926 38.5732L58.552 39.5351C58.552 39.5351 58.684 39.0088 58.7161 38.8334C58.7482 38.658 58.4256 38.658 58.0032 38.8523L58.1031 38.4147L61.8997 37.0059L61.7602 37.4623Z" fill="#37474F"/>
<path d="M61.8319 38.4251C61.8319 38.4251 61.8677 38.261 61.9092 38.0573C61.9507 37.8536 61.4113 37.9611 60.704 38.2949L59.0443 38.7966C58.337 39.1305 57.6675 39.3794 57.626 39.5812L57.5505 39.9584L61.8319 38.4251Z" fill="#37474F"/>
<path d="M63.4538 39.9203C63.4538 39.9203 63.1275 41.1199 63.0407 41.4292C62.954 41.7385 61.4489 42.4269 60.6964 42.5212C59.2554 42.7004 59.0914 43.0116 59.4365 44.03C59.7571 44.9731 60.6945 45.3314 61.9959 45.1786C62.607 45.107 63.45 44.5657 63.782 43.6208C64.2044 42.4137 63.9706 41.1255 64.146 40.4145C64.3214 39.7034 63.8197 39.4997 63.4538 39.9203Z" fill="#FFA8A7"/>
<path d="M49.2066 56.4158L48.2316 56.9816L47.8223 57.2174L42.4584 60.3124L41.7266 60.7273L40.4912 61.4402L40.8684 57.5908L41.5889 50.1371V50.0598L41.6228 49.726L42.5659 39.9808L42.9789 35.7164L43.1241 34.1868L43.1732 33.6927H43.1996C43.6364 33.5712 44.0981 33.5712 44.5349 33.6927C44.6323 33.7222 44.7269 33.7601 44.8178 33.8058C45.3836 34.0869 45.7608 34.6338 46.0739 35.2091C46.1509 35.3492 46.2201 35.4933 46.2814 35.641C46.5139 36.2 46.6933 36.7797 46.817 37.3724C47.0641 38.4663 47.3828 39.5847 47.5092 41.3482C47.5291 41.8021 47.5051 42.2568 47.4375 42.7061C47.3525 43.8949 47.338 45.0878 47.3941 46.2783C47.5526 48.9753 48.2315 50.1975 49.2066 56.4158Z" fill="#E0E0E0"/>
<path d="M47.8225 57.2128L42.4586 60.3078L41.7268 60.7265L40.4914 61.4394L39.6408 61.9298L34.4768 64.9097C34.5315 62.8351 34.556 60.585 34.507 58.4594C34.4919 57.7484 34.4862 57.0223 34.5164 56.2792C34.6145 53.6991 35.1049 50.9322 36.8627 48.0202L36.9438 47.873C37.1512 49.1046 39.0373 49.9043 40.7347 50.0929L40.9233 50.1099C41.1364 50.1306 41.3571 50.1401 41.5853 50.1401H41.7287C43.1639 50.1269 44.8633 49.7893 46.821 49.1273C47.0096 50.2212 47.1982 51.6565 47.4 53.335C47.4905 54.0895 47.5823 54.8935 47.6754 55.7473C47.7131 56.2245 47.7716 56.713 47.8225 57.2128Z" fill="#FFA8A7"/>
<path d="M48.2317 56.9782L47.8224 57.214L42.4585 60.309L41.7267 60.7277L40.4913 61.4406L39.6407 61.931L34.4767 64.9109L33.9109 65.2372C33.9392 63.0041 33.958 60.8163 33.9562 59.4433C33.9562 58.1664 33.9844 57.031 34.0542 56.0239C34.1919 54.036 34.4786 52.5403 34.9576 51.4087C35.5197 50.1702 36.1847 48.9809 36.9455 47.8535C36.9455 47.8535 37.4171 49.4453 40.944 49.6962H40.9666C41.1741 49.7113 41.3928 49.7207 41.6229 49.7245H41.8908C46.2815 49.7245 46.7662 48.6174 46.7662 48.6174C47.1951 50.2453 47.5345 51.8956 47.7828 53.5607C47.8758 54.1491 47.9657 54.7778 48.0525 55.4467C48.1166 55.9371 48.177 56.4464 48.2317 56.9782Z" fill="#FAD3CA"/>
<path opacity="0.4" d="M48.2317 56.9782L47.8224 57.214L42.4585 60.309L41.7267 60.7277L40.4913 61.4406L39.6407 61.931L34.4767 64.9109L33.9109 65.2372C33.9392 63.0041 33.958 60.8163 33.9562 59.4433C33.9562 58.1664 33.9844 57.031 34.0542 56.0239C34.1919 54.036 34.4786 52.5403 34.9576 51.4087C35.5197 50.1702 36.1847 48.9809 36.9455 47.8535C36.9455 47.8535 37.4171 49.4453 40.944 49.6962H40.9666C41.1741 49.7113 41.3928 49.7207 41.6229 49.7245H41.8908C46.2815 49.7245 46.7662 48.6174 46.7662 48.6174C47.1951 50.2453 47.5345 51.8956 47.7828 53.5607C47.8758 54.1491 47.9657 54.7778 48.0525 55.4467C48.1166 55.9371 48.177 56.4464 48.2317 56.9782Z" fill="black"/>
<path opacity="0.2" d="M45.7137 54.4756C45.7137 54.4756 45.2233 56.0335 43.16 56.9067L43.0619 57.3839L42.4584 60.3091L41.7266 60.7278L42.1641 57.5008L42.3527 56.0976C43.6279 55.9653 44.8167 55.3916 45.7137 54.4756Z" fill="black"/>
<path d="M39.4389 34.1436L37.3642 34.3623C35.9912 34.6981 35.3706 35.3054 35.2292 36.5181C35.1632 37.0839 34.8218 38.5927 35.3009 40.4788C35.7347 42.1913 36.8927 46.3821 36.8927 46.3821C36.8927 46.3821 34.2277 49.86 33.7449 55.8237C38.6222 59.0073 46.1041 57.2967 48.1279 55.3729C47.9581 53.551 46.7944 48.5511 46.6492 46.9272C46.6492 46.9272 46.7567 44.3905 46.9585 43.2909C48.5013 41.6066 48.3052 39.996 47.613 38.6965C46.3342 36.2974 44.4067 34.1888 43.7824 34.1907L39.4389 34.1436Z" fill="#FAD3CA"/>
<path opacity="0.7" d="M39.4389 34.1436L37.3642 34.3623C35.9912 34.6981 35.3706 35.3054 35.2292 36.5181C35.1632 37.0839 34.8218 38.5927 35.3009 40.4788C35.7347 42.1913 36.8927 46.3821 36.8927 46.3821C36.8927 46.3821 34.2277 49.86 33.7449 55.8237C38.6222 59.0073 46.1041 57.2967 48.1279 55.3729C47.9581 53.551 46.7944 48.5511 46.6492 46.9272C46.6492 46.9272 46.7567 44.3905 46.9585 43.2909C48.5013 41.6066 48.3052 39.996 47.613 38.6965C46.3342 36.2974 44.4067 34.1888 43.7824 34.1907L39.4389 34.1436Z" fill="#19BBBB"/>
<path d="M41.2363 47.1286C41.2363 47.1663 41.2363 47.2003 41.2363 47.2285V47.2776C41.2375 47.2933 41.2375 47.309 41.2363 47.3247C41.1647 48.0792 41.0798 48.8807 40.9893 49.6974C40.9893 49.6974 40.9893 49.6974 40.9893 49.7087C40.9761 49.8407 40.961 49.9728 40.9459 50.1067C40.6686 52.568 40.3386 55.199 40.084 57.5943C40.0217 58.1752 39.9651 58.741 39.9142 59.2917C39.835 60.1159 39.7501 61.0193 39.6634 61.9322L34.4994 64.9121L33.9335 65.2384L32.4907 66.0702C32.7812 63.2128 33.4583 56.5928 33.8355 53.6053C33.8789 53.2677 33.9354 52.9301 33.9996 52.5944L34.0505 52.3492L34.0731 52.2492C34.0976 52.136 34.1222 52.0267 34.1486 51.9154C34.175 51.8041 34.1995 51.7098 34.224 51.6098C34.2825 51.3816 34.3447 51.1572 34.4126 50.9384C34.4447 50.8328 34.4748 50.7272 34.5088 50.6234C34.5427 50.5197 34.571 50.416 34.605 50.3141C34.6729 50.1104 34.7389 49.9105 34.8087 49.7162C34.8079 49.7125 34.8079 49.7087 34.8087 49.7049C34.8407 49.6125 34.8747 49.5163 34.9086 49.4296C34.9539 49.3013 35.0011 49.1768 35.0482 49.0524L35.1048 48.9034C35.1331 48.8355 35.1576 48.7695 35.184 48.7034C35.2764 48.4715 35.3726 48.2508 35.4575 48.0452C35.4763 47.9999 35.4971 47.9547 35.5159 47.9113C35.5348 47.8679 35.565 47.8038 35.5876 47.751C35.6442 47.619 35.7008 47.4964 35.7555 47.3738C35.7781 47.321 35.8026 47.27 35.8253 47.221C35.8479 47.172 35.88 47.1078 35.9045 47.055L35.9403 46.9796L35.978 46.906C35.9805 46.8964 35.985 46.8874 35.9912 46.8796C35.9964 46.8659 36.0027 46.8527 36.0101 46.84C36.0147 46.8316 36.0184 46.8227 36.0214 46.8136C36.0371 46.7869 36.051 46.7592 36.0629 46.7306L36.1893 46.4854C36.1893 46.4722 36.2025 46.4628 36.2062 46.4515L36.2553 46.361L34.6861 39.8541L33.9053 36.6214V36.5686C33.9411 36.2819 34.1806 34.9296 35.5612 34.5185C36.3406 34.3173 37.139 34.1984 37.9433 34.1639C38.2526 34.145 38.5317 34.1375 38.7599 34.1318H39.1202H39.3371C39.3376 34.1362 39.3376 34.1407 39.3371 34.145C39.3484 34.1733 39.3805 34.2582 39.4295 34.3902C39.4348 34.4123 39.4424 34.4338 39.4521 34.4543C39.4523 34.4575 39.4523 34.4606 39.4521 34.4638C39.7916 35.3955 40.7441 38.1076 41.2175 40.4633C41.3005 40.8707 41.3684 41.2686 41.4174 41.6459C41.5588 42.8246 41.4551 44.7974 41.2363 47.1286Z" fill="#FAFAFA"/>
<path d="M36.3061 43.2454C36.3061 43.2454 36.4947 42.3156 36.7719 40.3069C37.0944 37.9909 36.9794 36.846 36.6305 36.1143L34.6633 39.8656L36.2325 46.3725C36.2325 46.3725 34.6199 49.326 33.9692 52.5964C35.512 48.2378 37.2 46.9383 37.2 46.9383L36.3061 43.2454Z" fill="#E6E6E6"/>
<path d="M43.1978 32.6914C43.8088 32.6914 43.8805 32.7933 44.4067 33.4986C44.7198 33.9192 46.702 37.1915 46.702 37.1915C46.702 37.1915 45.1253 35.1169 43.9352 34.4869C43.7061 34.3526 43.4582 34.2535 43.1996 34.1927L43.1978 32.6914Z" fill="#EBEBEB"/>
<path d="M38.6789 39.6452C38.6789 39.4566 38.66 39.0492 38.628 38.5362C38.4714 36.0202 38.396 33.757 39.2447 33.5684L39.3183 33.9154C38.6997 34.0493 38.9033 37.2876 38.9807 38.506C39.0146 39.0304 39.041 39.4491 39.0316 39.6527L38.6789 39.6452Z" fill="#FAD3CA"/>
<path d="M35.8499 23.1721L37.1694 24.2523C37.2411 24.1702 37.2953 24.0743 37.3287 23.9705C37.3621 23.8667 37.374 23.7572 37.3636 23.6487C37.3531 23.5401 37.3207 23.4349 37.2682 23.3393C37.2157 23.2438 37.1442 23.1599 37.0582 23.093C36.8847 22.9495 36.6629 22.8778 36.4383 22.8925C36.2136 22.9072 36.0031 23.0073 35.8499 23.1721Z" fill="#263238"/>
<path d="M39.2974 32.8509C39.2974 32.0229 37.3679 30.7762 36.3721 29.0354C35.3763 27.2946 35.8742 24.4316 37.2397 23.9921C37.251 23.9921 37.2887 23.6243 37.2944 23.5979C37.3699 23.2657 37.4972 22.9475 37.6716 22.6549C38.228 21.6968 39.4067 20.9575 40.5006 20.8028C44.8254 20.1729 46.8133 21.8533 47.6073 23.7017C47.8647 24.3234 47.9794 24.995 47.943 25.6669C47.9207 26.1604 47.7376 26.6331 47.4216 27.0128C47.1056 27.3925 46.674 27.6584 46.1927 27.7699L39.2974 32.8509Z" fill="#263238"/>
<path d="M45.2969 23.083C46.1438 23.4602 46.9491 24.7484 46.9359 28.3734C46.9246 31.4476 45.9816 32.2247 45.5063 32.4529C45.031 32.6811 44.1012 32.5642 43.1978 32.4265V34.1918C43.1978 34.1918 43.8749 34.8576 43.6372 35.2763C43.3996 35.695 42.5226 36.0496 41.159 35.6215C39.6143 35.1367 39.2616 34.1126 39.2616 34.1126L39.2258 30.2387C39.2258 30.2387 38.7071 30.7837 37.7924 29.9841C37.0379 29.3221 36.7663 28.1885 37.334 27.5661C37.9017 26.9437 38.6298 26.8947 39.2861 27.5907L39.7576 27.3417C40.5988 27.2436 41.8323 27.1022 42.7413 26.6439C45.0725 25.4575 45.3139 24.1713 45.2969 23.083Z" fill="#FFA8A7"/>
<path d="M39.2993 27.0898L39.3106 28.7864C39.4196 28.7893 39.528 28.7699 39.6291 28.7293C39.7303 28.6888 39.8221 28.628 39.8989 28.5506C39.9757 28.4733 40.0359 28.3811 40.0757 28.2796C40.1156 28.1782 40.1343 28.0697 40.1306 27.9607C40.1286 27.7371 40.0415 27.5227 39.8871 27.361C39.7327 27.1992 39.5226 27.1023 39.2993 27.0898Z" fill="#263238"/>
<path d="M45.3762 27.331C45.377 27.4107 45.4012 27.4884 45.4457 27.5545C45.4903 27.6206 45.5533 27.6722 45.6269 27.7028C45.7005 27.7335 45.7814 27.7418 45.8597 27.7269C45.938 27.7119 46.0102 27.6743 46.0674 27.6187C46.1245 27.5631 46.164 27.492 46.1811 27.4141C46.1982 27.3362 46.192 27.2551 46.1634 27.1807C46.1347 27.1063 46.0849 27.0419 46.02 26.9956C45.9552 26.9493 45.8781 26.923 45.7985 26.92C45.7436 26.9188 45.6891 26.9285 45.638 26.9485C45.587 26.9686 45.5404 26.9986 45.5011 27.0369C45.4618 27.0752 45.4305 27.1209 45.4091 27.1714C45.3876 27.2219 45.3765 27.2761 45.3762 27.331Z" fill="black"/>
<path d="M42.1228 27.512C42.1195 27.5705 42.1277 27.629 42.1471 27.6842C42.1664 27.7395 42.1965 27.7904 42.2355 27.834C42.2746 27.8776 42.3219 27.913 42.3747 27.9383C42.4274 27.9636 42.4847 27.9783 42.5431 27.9814C42.6025 27.9819 42.6613 27.9707 42.7163 27.9484C42.7713 27.9261 42.8213 27.8931 42.8635 27.8514C42.9057 27.8098 42.9393 27.7602 42.9623 27.7055C42.9852 27.6508 42.9972 27.5921 42.9974 27.5328C42.9993 27.4753 42.9898 27.4181 42.9696 27.3643C42.9493 27.3105 42.9186 27.2613 42.8794 27.2194C42.8401 27.1774 42.7929 27.1437 42.7405 27.12C42.6882 27.0963 42.6317 27.0831 42.5743 27.0813C42.5168 27.0794 42.4596 27.0889 42.4058 27.1092C42.352 27.1294 42.3028 27.1601 42.2609 27.1994C42.2189 27.2387 42.1852 27.2858 42.1615 27.3382C42.1378 27.3905 42.1246 27.447 42.1228 27.5045V27.512Z" fill="black"/>
<path d="M46.4545 26.5701L45.4045 26.1535C45.4288 26.0829 45.4674 26.018 45.5179 25.963C45.5684 25.9079 45.6298 25.8639 45.6981 25.8336C45.7664 25.8034 45.8402 25.7875 45.9149 25.7871C45.9896 25.7867 46.0635 25.8017 46.1322 25.8312C46.2705 25.8894 46.3812 25.9986 46.4412 26.1361C46.5012 26.2737 46.506 26.4291 46.4545 26.5701Z" fill="black"/>
<path d="M44.3802 26.999L44.3274 29.515L45.6797 29.2151L44.3802 26.999Z" fill="#F28F8F"/>
<path d="M42.7866 30.0273L44.1061 30.4364C44.087 30.5264 44.0495 30.6114 43.996 30.6863C43.9426 30.7611 43.8743 30.8242 43.7955 30.8716C43.7167 30.9189 43.6289 30.9496 43.5377 30.9617C43.4465 30.9737 43.3539 30.9669 43.2654 30.9416C43.0843 30.8786 42.934 30.7491 42.8451 30.5792C42.7561 30.4094 42.7352 30.212 42.7866 30.0273Z" fill="#B16668"/>
<path d="M43.5161 30.965C43.5146 30.7815 43.4407 30.6061 43.3104 30.4768C43.1801 30.3476 43.004 30.2751 42.8205 30.2751C42.8023 30.2742 42.7841 30.2742 42.7659 30.2751C42.7726 30.4224 42.8235 30.5642 42.9119 30.6822C43.0003 30.8002 43.1222 30.8889 43.2616 30.9368C43.3436 30.9638 43.4302 30.9734 43.5161 30.965Z" fill="#F28F8F"/>
<path d="M43.1977 32.4364C42.2453 32.3233 40.2819 31.7763 39.9631 30.9785C40.0908 31.379 40.3359 31.7318 40.6666 31.9913C41.2588 32.5006 43.1977 33.0305 43.1977 33.0305V32.4364Z" fill="#F28F8F"/>
<path d="M39.2521 32.7013C39.0031 32.6504 38.7824 32.7598 38.5787 33.103C38.3751 33.4463 37.9281 34.1781 37.9281 34.1781C37.9281 34.1781 37.6961 36.5903 37.9281 37.1958C38.128 37.7163 40.3328 39.6684 40.3328 39.6684C40.3328 39.6684 39.7575 41.8354 39.7368 42.5465C39.716 43.2575 41.057 45.9565 41.2192 47.337C41.2192 47.337 41.6964 42.9991 41.4908 41.4356C41.1362 38.7253 39.865 35.2248 39.2653 34.1121L39.2521 32.7013Z" fill="#EBEBEB"/>
<path d="M40.6006 41.6779C40.4535 41.3277 40.2801 40.9892 40.0819 40.6651C39.7689 40.1464 39.3822 39.6485 39.0333 39.5203C38.9804 39.4993 38.9242 39.4878 38.8673 39.4863H38.8485C38.791 39.4896 38.7347 39.5037 38.6825 39.5278C38.4071 39.6504 38.1167 40.0257 37.8809 40.4576C37.6395 40.8914 37.4405 41.3474 37.2868 41.8194C37.1963 42.1117 37.2359 42.7322 37.3434 43.4414C37.5546 44.8182 38.0243 46.5383 38.2864 46.8778C38.4786 47.115 38.7056 47.3216 38.9597 47.4907C38.8041 47.5936 38.6362 47.6767 38.4599 47.7378C38.3602 47.7742 38.2549 47.7927 38.1487 47.7925V48.0396H38.1789C38.291 48.0378 38.4023 48.0193 38.509 47.9849C38.7562 47.9046 38.9896 47.787 39.2012 47.6359C39.4244 47.7689 39.6668 47.8668 39.9197 47.9264C40.0389 47.9549 40.162 47.9626 40.2837 47.949L40.2536 47.7038C40.1479 47.7128 40.0416 47.7045 39.9386 47.6793C39.7572 47.632 39.5823 47.5623 39.4181 47.4719C39.6574 47.2813 39.8672 47.0563 40.0405 46.8042C40.1876 46.5798 40.3686 45.8065 40.5044 44.9181C40.5874 44.3882 40.6553 43.8186 40.693 43.2999C40.7345 42.5757 40.7157 41.9552 40.6006 41.6779ZM39.8217 46.6684C39.6447 46.9237 39.4275 47.1485 39.1785 47.3342C38.914 47.1708 38.6782 46.965 38.4807 46.725C38.2355 46.4062 37.7829 44.7277 37.5792 43.4036C37.4754 42.7341 37.4377 42.1551 37.5207 41.8948C37.6745 41.4171 37.878 40.9569 38.128 40.5218C38.3883 40.0729 38.6655 39.7428 38.8579 39.7353C39.0861 39.7353 39.4558 40.1483 39.8009 40.6783C39.8707 40.782 39.9367 40.8952 40.0008 41.0084C40.1415 41.2521 40.2675 41.504 40.3781 41.7628C40.4818 42.0193 40.4931 42.5983 40.4459 43.2716C40.4195 43.6488 40.3781 44.043 40.3252 44.4353C40.1819 45.4594 39.9801 46.4194 39.8217 46.6627V46.6684Z" fill="#455A64"/>
<path d="M40.6211 47.8041C40.6241 47.876 40.6056 47.9472 40.568 48.0087C40.5305 48.0701 40.4755 48.119 40.4101 48.1492C40.3447 48.1794 40.2719 48.1895 40.2007 48.1782C40.1296 48.167 40.0634 48.1349 40.0106 48.086C39.9577 48.0371 39.9205 47.9736 39.9038 47.9035C39.887 47.8335 39.8914 47.7601 39.9164 47.6925C39.9415 47.625 39.9859 47.5664 40.0443 47.5242C40.1026 47.482 40.1722 47.458 40.2441 47.4553C40.3403 47.4518 40.434 47.4864 40.5047 47.5518C40.5753 47.6172 40.6172 47.7079 40.6211 47.8041Z" fill="#263238"/>
<path d="M38.5068 47.9019C38.5101 47.9739 38.4919 48.0452 38.4546 48.1069C38.4173 48.1686 38.3625 48.2178 38.2972 48.2483C38.2318 48.2788 38.1589 48.2891 38.0877 48.2781C38.0164 48.2671 37.9501 48.2351 37.897 48.1863C37.844 48.1375 37.8066 48.074 37.7897 48.004C37.7728 47.9339 37.7771 47.8604 37.802 47.7927C37.8269 47.7251 37.8714 47.6664 37.9298 47.6241C37.9881 47.5817 38.0577 47.5577 38.1298 47.555C38.1773 47.553 38.2248 47.5604 38.2695 47.5767C38.3142 47.5931 38.3552 47.618 38.3902 47.6503C38.4252 47.6825 38.4535 47.7213 38.4735 47.7645C38.4936 47.8076 38.5048 47.8543 38.5068 47.9019Z" fill="#263238"/>
<path d="M40.6629 43.2961L40.4535 43.281C40.4322 43.2791 40.4124 43.2689 40.3983 43.2528C40.3843 43.2366 40.377 43.2156 40.3781 43.1942C40.4215 42.502 40.3988 41.9928 40.3139 41.7891C39.9481 40.8951 39.1823 39.7748 38.8598 39.788C38.5373 39.8012 37.8696 40.9838 37.5792 41.9042C37.5132 42.1154 37.5339 42.6246 37.6339 43.3112C37.6372 43.3321 37.6321 43.3536 37.6197 43.3708C37.6074 43.3881 37.5888 43.3999 37.5679 43.4036L37.3604 43.4356C37.3387 43.4383 37.3167 43.4323 37.2994 43.4188C37.2821 43.4054 37.2708 43.3857 37.268 43.364C37.1529 42.5945 37.1397 42.0664 37.2265 41.7929C37.3811 41.2987 38.111 39.4485 38.8447 39.4183C39.5784 39.3882 40.4629 41.1686 40.6591 41.6495C40.7666 41.9136 40.7987 42.4417 40.7496 43.2168C40.7482 43.2387 40.7383 43.2591 40.7222 43.2739C40.706 43.2887 40.6848 43.2966 40.6629 43.2961Z" fill="#FAD3CA"/>
<path d="M36.1401 34.4939C34.7595 34.4713 34.1221 34.9372 33.2469 36.1084C32.5529 37.0382 29.852 42.0627 28.9562 43.53L24.0788 40.9235C23.0924 40.2426 22.7737 39.1676 22.1494 38.5395C21.5251 37.9115 20.8782 37.7851 20.1917 37.2664C19.5052 36.7478 19.226 36.3442 19.028 36.8289C18.83 37.3136 19.5938 38.0982 19.739 38.2924C19.8843 38.4867 20.65 38.9186 19.6561 38.9337C18.6621 38.9488 16.695 37.919 16.2159 37.7361C15.7369 37.5531 15.7651 38.1246 16.0009 38.4905C16.2367 38.8564 16.2253 39.8899 16.6233 40.4878C17.0439 41.1215 17.274 41.3969 18.2114 41.808C19.0827 42.1853 20.9122 42.3361 21.8382 42.9151C22.7643 43.4942 25.0596 45.5349 26.4553 46.7589C28.23 48.3149 29.4541 48.5997 30.4424 47.6661C31.4024 46.6608 32.3756 45.4821 32.8509 44.8842C34.1315 43.2716 36.1571 39.6033 36.1571 39.6033C36.1571 39.6033 37.0341 37.7172 36.1401 34.4939Z" fill="#FFA8A7"/>
<path d="M36.3308 34.3555C34.2976 34.3555 33.6903 35.091 32.6492 36.7904C31.6081 38.4897 28.9375 43.3538 28.9375 43.3538L25.0918 41.3395C25.0918 41.3395 24.3996 42.8634 23.6641 44.4345C23.6641 44.4345 25.8406 46.3206 26.8703 47.2127C27.9001 48.1048 29.2656 48.8045 30.5312 47.7125C31.8835 46.5469 36.2685 40.4908 36.2685 40.4908C37.3096 38.601 37.0776 35.7361 36.3308 34.3555Z" fill="#F0F0F0"/>
<path d="M28.9375 43.3544C29.5656 44.0938 30.3256 44.9255 30.2917 45.58C30.2917 45.58 30.7217 44.9991 29.211 42.8584L28.9375 43.3544Z" fill="#E0E0E0"/>
</svg>
