<svg width="80" height="80" viewBox="0 0 80 80" fill="none" xmlns="http://www.w3.org/2000/svg">
<rect width="80" height="80" rx="40" fill="#19BBBB" fill-opacity="0.08"/>
<path d="M57.0928 10.9814H24.8029C24.0554 10.9814 23.4495 11.5874 23.4495 12.3348V55.8513C23.4495 56.5988 24.0554 57.2047 24.8029 57.2047H57.0928C57.8403 57.2047 58.4462 56.5988 58.4462 55.8513V12.3348C58.4462 11.5874 57.8403 10.9814 57.0928 10.9814Z" fill="#455A64"/>
<path d="M56.1012 13.165H25.7917V54.0283H56.1012V13.165Z" fill="white"/>
<path d="M56.1026 54.029C56.1026 53.7503 56.0892 37.3607 56.0705 13.159L56.1026 13.1898H25.7958L25.8307 13.155C25.8307 28.3948 25.8307 42.5157 25.8307 54.025L25.8012 53.9955L56.112 54.025L25.8012 54.0531H25.7731V54.025C25.7731 42.5224 25.7731 28.4015 25.7664 13.155V13.1201H25.8052H56.112H56.1428V13.1523C56.116 37.3567 56.1026 53.7503 56.1026 54.029Z" fill="#263238"/>
<path d="M32.1728 20.0232L31.4666 18.9606H30.6854V20.0232H29.8372V16.2095H31.4237C31.715 16.2026 32.0042 16.2603 32.2706 16.3784C32.4973 16.4794 32.6892 16.6448 32.8227 16.8541C32.9566 17.0756 33.024 17.331 33.017 17.5897C33.0252 17.8498 32.9567 18.1066 32.82 18.3281C32.6853 18.5362 32.4917 18.6995 32.2639 18.7971L33.0867 20.0232H32.1728ZM31.9584 17.1006C31.7917 16.975 31.585 16.9141 31.3768 16.9291H30.6854V18.2584H31.3768C31.5856 18.2728 31.7924 18.2104 31.9584 18.0829C32.0865 17.9515 32.1582 17.7752 32.1582 17.5918C32.1582 17.4083 32.0865 17.232 31.9584 17.1006Z" fill="#159C9C"/>
<path d="M34.0288 22.6595L33.19 21.4106L32.3659 22.6649H31.4426L32.729 20.8277L31.5069 19.0522H32.4208L33.2248 20.2234L34.006 19.0469H34.8744L33.6684 20.7889L34.9641 22.6568L34.0288 22.6595Z" fill="#159C9C"/>
<path d="M45.5769 17.1211H40.375V18.4088H45.5769V17.1211Z" fill="#E0E0E0"/>
<path d="M53.2055 17.9343C53.2055 17.9544 51.7824 17.9691 50.027 17.9691C48.2716 17.9691 46.8499 17.9544 46.8499 17.9343C46.8499 17.9142 48.2716 17.8994 50.027 17.8994C51.7824 17.8994 53.2055 17.9155 53.2055 17.9343Z" fill="#263238"/>
<path d="M53.0862 19.4795C53.0862 19.4983 50.2401 19.5144 46.7306 19.5144C43.2212 19.5144 40.375 19.4983 40.375 19.4795C40.375 19.4608 43.2198 19.4434 46.7306 19.4434C50.2414 19.4434 53.0862 19.4594 53.0862 19.4795Z" fill="#263238"/>
<path d="M53.0862 20.9919C53.0862 21.0106 50.2401 21.0267 46.7306 21.0267C43.2212 21.0267 40.375 21.0106 40.375 20.9919C40.375 20.9731 43.2198 20.957 46.7306 20.957C50.2414 20.957 53.0862 20.9718 53.0862 20.9919Z" fill="#263238"/>
<path d="M55.0693 25.0284C55.0693 25.0471 48.7459 25.0632 40.9484 25.0632C33.151 25.0632 26.8262 25.0471 26.8262 25.0284C26.8262 25.0096 33.147 24.9922 40.9484 24.9922C48.7499 24.9922 55.0693 25.0056 55.0693 25.0284Z" fill="#263238"/>
<path d="M55.0693 47.8698C55.0693 47.8886 48.7459 47.9046 40.9484 47.9046C33.151 47.9046 26.8262 47.8886 26.8262 47.8698C26.8262 47.851 33.147 47.835 40.9484 47.835C48.7499 47.835 55.0693 47.8497 55.0693 47.8698Z" fill="#263238"/>
<path d="M37.8666 27.3369H29.1526V28.9717H37.8666V27.3369Z" fill="#E0E0E0"/>
<path d="M32.9247 50.2012H29.1526V51.836H32.9247V50.2012Z" fill="#E0E0E0"/>
<path d="M45.5902 50.2012H41.8181V51.836H45.5902V50.2012Z" fill="#E0E0E0"/>
<path d="M39.2468 51.3337C39.2468 51.3538 38.0689 51.3685 36.6164 51.3685C35.1638 51.3685 33.9846 51.3538 33.9846 51.3337C33.9846 51.3136 35.1625 51.2988 36.6164 51.2988C38.0703 51.2988 39.2468 51.3149 39.2468 51.3337Z" fill="#263238"/>
<path d="M52.7915 51.3337C52.7915 51.3538 51.6136 51.3685 50.1611 51.3685C48.7085 51.3685 47.5293 51.3538 47.5293 51.3337C47.5293 51.3136 48.7072 51.2988 50.1611 51.2988C51.615 51.2988 52.7915 51.3149 52.7915 51.3337Z" fill="#263238"/>
<path d="M52.4792 31.4333C52.4792 31.452 47.3161 31.4681 40.9552 31.4681C34.5942 31.4681 29.4312 31.452 29.4312 31.4333C29.4312 31.4145 34.5915 31.3984 40.9552 31.3984C47.3188 31.3984 52.4792 31.4132 52.4792 31.4333Z" fill="#263238"/>
<path d="M52.9268 33.2985C52.9268 33.3186 47.6646 33.3334 41.175 33.3334C34.6854 33.3334 29.4219 33.3186 29.4219 33.2985C29.4219 33.2784 34.6827 33.2637 41.175 33.2637C47.6673 33.2637 52.9268 33.2798 52.9268 33.2985Z" fill="#263238"/>
<path d="M40.8159 35.1657C40.8159 35.1845 38.2043 35.2005 34.9843 35.2005C31.7642 35.2005 29.1526 35.1845 29.1526 35.1657C29.1526 35.1469 31.7629 35.1309 34.9843 35.1309C38.2056 35.1309 40.8159 35.1456 40.8159 35.1657Z" fill="#263238"/>
<path d="M52.754 41.932C52.754 41.932 52.7286 41.9427 52.6763 41.9588L52.4485 42.0285C52.1541 42.116 51.8548 42.1858 51.552 42.2375C51.3334 42.276 51.1121 42.297 50.8901 42.3005C50.6246 42.3057 50.3597 42.2728 50.1035 42.2027C49.8085 42.1183 49.5366 41.9675 49.3089 41.7618C49.0521 41.5272 48.8833 41.2118 48.8305 40.868C48.803 40.6823 48.8256 40.4926 48.8962 40.3186C48.9752 40.1377 49.1045 39.9833 49.2687 39.8737C49.3535 39.8149 49.4493 39.7736 49.5503 39.7522C49.6513 39.7308 49.7555 39.7298 49.8569 39.7491C49.9596 39.7744 50.0562 39.8199 50.141 39.8831C50.2238 39.9523 50.2929 40.0364 50.3447 40.131C50.4433 40.327 50.4925 40.5441 50.4881 40.7635C50.489 40.9879 50.4481 41.2106 50.3675 41.4201C50.1926 41.8537 49.9042 42.2323 49.5327 42.5162C49.1435 42.8187 48.6812 43.0129 48.1927 43.079C47.9422 43.1147 47.6877 43.1116 47.4382 43.0696C47.3115 43.0492 47.1866 43.0192 47.0644 42.9799C46.9423 42.9349 46.8232 42.8821 46.7079 42.8217C46.478 42.6935 46.2733 42.5246 46.1036 42.3233C45.9282 42.1177 45.8054 41.8726 45.7458 41.609C45.6804 41.3383 45.7141 41.053 45.841 40.805C45.9669 40.5541 46.1756 40.3543 46.4319 40.2396C46.5616 40.1809 46.7041 40.156 46.846 40.1672C46.9866 40.1812 47.1211 40.232 47.2359 40.3146C47.4538 40.4873 47.6041 40.7311 47.6607 41.0034C47.7223 41.264 47.7368 41.5336 47.7036 41.7993C47.6774 42.0596 47.6193 42.3156 47.5307 42.5618C47.3663 43.0474 47.0759 43.4807 46.6892 43.8174C46.3133 44.1398 45.8433 44.3321 45.3492 44.3654C44.8928 44.4119 44.4347 44.2943 44.0571 44.0338C43.6794 43.7733 43.4069 43.3869 43.2883 42.9437C43.167 42.548 43.1831 42.123 43.3338 41.7377C43.4047 41.5538 43.5265 41.3939 43.6849 41.2767C43.7641 41.2188 43.856 41.1807 43.9529 41.1655C44.0482 41.1514 44.1454 41.1698 44.2289 41.2178C44.3054 41.2676 44.3694 41.3343 44.4159 41.4129C44.4624 41.4914 44.4901 41.5797 44.4969 41.6707C44.5193 41.8372 44.5125 42.0063 44.4768 42.1705C44.4239 42.4699 44.3339 42.7616 44.2088 43.0388C44.1005 43.2795 43.9657 43.5074 43.8068 43.7182C43.6741 43.8968 43.5242 44.062 43.3593 44.2113C43.1344 44.4212 42.8808 44.598 42.6062 44.7366C42.5358 44.7741 42.4633 44.8077 42.3891 44.8371L42.3127 44.8666L42.3864 44.8304C42.4347 44.8063 42.5097 44.7768 42.6008 44.7245C42.8708 44.5799 43.12 44.3997 43.3419 44.1885C43.6937 43.857 43.9777 43.4601 44.178 43.02C44.3031 42.7462 44.3932 42.4576 44.446 42.1611C44.4787 42.0011 44.4846 41.8367 44.4634 41.6747C44.4569 41.5913 44.4316 41.5105 44.3894 41.4383C44.3471 41.3661 44.2891 41.3045 44.2196 41.258C44.1453 41.2155 44.0589 41.1995 43.9743 41.2124C43.8873 41.228 43.8051 41.2638 43.7345 41.3169C43.5842 41.4283 43.4689 41.5803 43.4022 41.7551C43.257 42.1298 43.2433 42.5427 43.3633 42.9263C43.4798 43.3551 43.7446 43.7286 44.1108 43.9804C44.4769 44.2322 44.9205 44.3458 45.3626 44.3011C45.8417 44.2665 46.297 44.0786 46.661 43.7651C47.0385 43.436 47.3216 43.0123 47.4811 42.5377C47.5673 42.2961 47.624 42.0451 47.65 41.7899C47.6819 41.5322 47.6674 41.2707 47.6071 41.0181C47.554 40.7615 47.4115 40.5322 47.2051 40.3709C47.0997 40.295 46.9759 40.2486 46.8466 40.2366C46.7172 40.2246 46.587 40.2473 46.4694 40.3025C46.2274 40.4117 46.0305 40.601 45.912 40.8385C45.7931 41.0713 45.7617 41.339 45.8235 41.593C45.8883 41.8415 46.0042 42.0739 46.1638 42.2751C46.3235 42.4763 46.5234 42.6419 46.7508 42.7614C46.8623 42.8195 46.9774 42.8705 47.0952 42.9142C47.4489 43.0294 47.8242 43.0629 48.1927 43.012C48.4318 42.9787 48.6656 42.9143 48.8881 42.8204C49.1055 42.7277 49.3104 42.6079 49.4978 42.464C49.8612 42.1864 50.1431 41.8161 50.3139 41.392C50.3923 41.1898 50.4328 40.9749 50.4331 40.7581C50.4379 40.5488 50.3919 40.3415 50.2991 40.1538C50.2507 40.0661 50.1872 39.9877 50.1115 39.922C50.0344 39.8601 49.9455 39.8146 49.8502 39.788C49.756 39.7699 49.6592 39.7708 49.5653 39.7906C49.4714 39.8104 49.3824 39.8487 49.3035 39.9032C49.1475 40.0058 49.0246 40.1515 48.9498 40.3226C48.8817 40.4883 48.859 40.6692 48.8841 40.8466C48.935 41.1795 49.0975 41.4852 49.3451 41.7135C49.5672 41.9158 49.8326 42.0647 50.1209 42.149C50.3729 42.2199 50.6337 42.2542 50.8954 42.2509C51.1159 42.2494 51.3359 42.2306 51.5534 42.1946C51.8554 42.1452 52.1547 42.0799 52.4498 41.999L52.6803 41.936L52.754 41.932Z" fill="#263238"/>
<path d="M46.0045 10.5889H35.8901V14.4561H46.0045V10.5889Z" fill="#E0E0E0"/>
<path d="M46.0043 14.4543C46.0043 14.4543 46.0043 14.4302 46.0043 14.3846C46.0043 14.3391 46.0043 14.2707 46.0043 14.1836C46.0043 14.0054 46.0043 13.7481 46.0043 13.4158C46.0043 12.7458 45.9962 11.785 45.9909 10.5884L46.015 10.6125L35.902 10.6232L35.9369 10.5884C35.9369 11.9391 35.9369 13.2456 35.9369 14.4543L35.9034 14.4208L43.1394 14.4369L45.2472 14.4463H45.814H45.9614H46.0123C45.9967 14.4476 45.981 14.4476 45.9654 14.4463H45.822H45.2633L43.1621 14.4556L35.898 14.4704H35.8645V14.4369C35.8645 13.2309 35.8645 11.9217 35.8645 10.571L35.8993 10.5361L46.0123 10.5469H46.0364V10.571C46.0364 11.777 46.0271 12.7418 46.023 13.4131C46.023 13.7428 46.023 13.9987 46.023 14.1756C46.023 14.26 46.023 14.3257 46.023 14.3726C46.023 14.4195 46.0043 14.4543 46.0043 14.4543Z" fill="#263238"/>
<path d="M21.7195 64.3874L20.831 67.5431C20.831 67.5431 23.6625 69.529 23.5539 70.128L17.5239 68.5776L18.7125 63.6035L21.7195 64.3874Z" fill="#455A64"/>
<path d="M19.0301 66.7967C18.967 66.801 18.9076 66.8283 18.8634 66.8736C18.8191 66.9188 18.7931 66.9788 18.7903 67.042C18.7905 67.1052 18.815 67.166 18.8586 67.2118C18.9021 67.2577 18.9616 67.2851 19.0248 67.2885C19.0919 67.2849 19.1552 67.2561 19.2021 67.2079C19.249 67.1598 19.2761 67.0958 19.278 67.0286C19.266 66.9013 19.128 66.7686 19.01 66.7994" fill="#E0E0E0"/>
<g opacity="0.6">
<path d="M17.5239 68.5778L17.6579 68.082L23.3904 69.7503C23.3904 69.7503 23.6303 69.9379 23.5526 70.1242L17.5239 68.5778Z" fill="white"/>
</g>
<path d="M20.9369 67.537C20.9276 67.5678 20.7775 67.537 20.6086 67.6026C20.4398 67.6683 20.3313 67.7701 20.3071 67.7514C20.283 67.7326 20.3701 67.5691 20.5751 67.5008C20.7802 67.4325 20.949 67.5062 20.9369 67.537Z" fill="#263238"/>
<path d="M21.5038 67.9672C21.5038 67.9993 21.3698 68.0168 21.2358 68.1199C21.1018 68.2231 21.0428 68.3491 21.0133 68.3397C20.9838 68.3303 21.0133 68.1561 21.1728 68.0328C21.3322 67.9096 21.5105 67.939 21.5038 67.9672Z" fill="#263238"/>
<path d="M21.678 68.8351C21.6498 68.8351 21.6458 68.6743 21.7611 68.5283C21.8763 68.3822 22.0291 68.3514 22.0371 68.3795C22.0451 68.4077 21.9366 68.4747 21.8428 68.5966C21.749 68.7186 21.7034 68.8459 21.678 68.8351Z" fill="#263238"/>
<path d="M21.0616 66.7961C21.0415 66.8202 20.9169 66.7438 20.748 66.713C20.5792 66.6822 20.4358 66.7023 20.4264 66.6714C20.4171 66.6406 20.5685 66.5669 20.7668 66.6058C20.9651 66.6446 21.0817 66.776 21.0616 66.7961Z" fill="#263238"/>
<path d="M19.605 65.1312L19.471 68.4115C19.471 68.4115 22.687 69.659 22.7111 70.2687L16.4922 70.2191L16.5056 65.0977L19.605 65.1312Z" fill="#455A64"/>
<path d="M17.5443 68.1212C17.4837 68.1401 17.4321 68.1805 17.3993 68.2348C17.3665 68.2891 17.3546 68.3536 17.366 68.416C17.3802 68.4775 17.4177 68.5312 17.4708 68.5655C17.5239 68.5997 17.5882 68.612 17.6501 68.5996C17.7144 68.5794 17.769 68.5363 17.8036 68.4785C17.8382 68.4207 17.8503 68.3522 17.8377 68.286C17.8163 68.2241 17.7715 68.1729 17.7129 68.1436C17.6543 68.1143 17.5865 68.1092 17.5242 68.1292" fill="#E0E0E0"/>
<g opacity="0.6">
<path d="M16.4856 70.219L16.507 69.7031L22.462 69.943C22.462 69.943 22.738 70.0689 22.7045 70.2686L16.4856 70.219Z" fill="white"/>
</g>
<path d="M19.5662 68.381C19.5662 68.4118 19.4134 68.4252 19.262 68.5231C19.1106 68.6209 19.0315 68.7522 19.0034 68.7401C18.9753 68.7281 19.0222 68.5485 19.2071 68.4319C19.392 68.3154 19.5729 68.3515 19.5662 68.381Z" fill="#263238"/>
<path d="M20.2161 68.6619C20.2161 68.6914 20.0915 68.7436 19.987 68.875C19.8824 69.0063 19.853 69.143 19.8221 69.143C19.7913 69.143 19.7739 68.9647 19.9066 68.8053C20.0392 68.6458 20.2161 68.6324 20.2161 68.6619Z" fill="#263238"/>
<path d="M20.5805 69.4647C20.5523 69.4714 20.5121 69.316 20.5912 69.1458C20.6703 68.9756 20.8123 68.9086 20.8257 68.9354C20.8391 68.9622 20.7493 69.052 20.6917 69.1913C20.6341 69.3307 20.6059 69.462 20.5805 69.4647Z" fill="#263238"/>
<path d="M19.5165 67.6293C19.5045 67.6575 19.3651 67.6132 19.1936 67.6293C19.0221 67.6454 18.8867 67.695 18.872 67.6682C18.8573 67.6414 18.9859 67.5342 19.1882 67.5208C19.3906 67.5074 19.534 67.6052 19.5165 67.6293Z" fill="#263238"/>
<path d="M15.758 41.1221V43.7163L16.4374 53.8226C16.4374 53.8226 16.014 58.7257 15.754 61.4941C15.5289 63.8967 15.8974 68.0829 15.8974 68.0829H19.8557L21.2761 54.1241L22.1552 45.4141L23.6881 41.4557L15.758 41.1221Z" fill="#263238"/>
<path d="M26.1819 41.5745L25.4234 55.6753L21.4195 66.2332L21.2346 66.8683L18.8708 66.2828L20.6289 41.2998L26.1819 41.5745Z" fill="#263238"/>
<path d="M22.1418 45.5215C22.1432 45.5411 22.1432 45.5608 22.1418 45.5804C22.1418 45.6233 22.1418 45.6796 22.1418 45.752C22.1418 45.9074 22.131 46.1298 22.1217 46.4139C22.1056 46.9874 22.0654 47.8169 22.0091 48.842C21.8898 50.8922 21.6674 53.7209 21.319 56.8351C20.9706 59.9493 20.5994 62.7606 20.3234 64.7947C20.1894 65.8077 20.0701 66.6292 19.9911 67.2067C19.9509 67.4881 19.9187 67.7079 19.8973 67.8606C19.8852 67.933 19.8772 67.9946 19.8705 68.0308C19.8682 68.0503 19.8642 68.0696 19.8584 68.0884V68.0295C19.8584 67.9879 19.8705 67.9316 19.8785 67.8593C19.8973 67.7052 19.9241 67.4854 19.9589 67.2027C20.0313 66.6305 20.1371 65.8077 20.2684 64.7907C20.5364 62.7552 20.8996 59.9439 21.2426 56.8297C21.5857 53.7156 21.8202 50.8922 21.9528 48.8433C22.0158 47.8196 22.064 46.9901 22.0868 46.4166C22.1016 46.1325 22.1123 45.9114 22.1203 45.756C22.1203 45.6836 22.1284 45.622 22.131 45.5845C22.1323 45.5631 22.1359 45.542 22.1418 45.5215Z" fill="#455A64"/>
<path d="M22.3922 41.9952C22.3911 42.0352 22.3783 42.074 22.3553 42.1068C22.3322 42.1396 22.3001 42.1649 22.2628 42.1795C22.2255 42.1941 22.1847 42.1974 22.1456 42.1889C22.1064 42.1805 22.0706 42.1606 22.0427 42.132C22.0147 42.1033 21.9958 42.067 21.9884 42.0276C21.981 41.9883 21.9853 41.9476 22.0009 41.9107C22.0164 41.8738 22.0425 41.8423 22.0759 41.8201C22.1093 41.798 22.1484 41.7861 22.1885 41.7861C22.2156 41.7863 22.2425 41.7919 22.2675 41.8025C22.2924 41.8131 22.3151 41.8286 22.334 41.8481C22.353 41.8675 22.3679 41.8905 22.3778 41.9158C22.3878 41.941 22.3927 41.968 22.3922 41.9952Z" fill="#455A64"/>
<path d="M25.8722 43.9647C25.7668 43.8893 25.6729 43.799 25.5935 43.6967C25.3887 43.4546 25.2208 43.1837 25.095 42.8927C24.9684 42.6021 24.8844 42.2947 24.8457 41.9801C24.8233 41.8509 24.8201 41.719 24.8364 41.5889C24.8484 41.5889 24.8565 41.7376 24.8967 41.9734C24.9507 42.2791 25.0407 42.5773 25.1647 42.8619C25.2893 43.1445 25.4472 43.4112 25.635 43.6565C25.777 43.8494 25.8802 43.9553 25.8722 43.9647Z" fill="#455A64"/>
<path d="M25.3992 28.4023C25.3992 28.4023 26.1563 28.6998 26.5073 29.8093C26.7512 30.5812 27.8929 36.3271 27.8929 36.3271L26.301 37.3763L25.6538 31.9962L25.3992 28.4023Z" fill="#E0E0E0"/>
<path d="M19.3451 25.6572L18.8466 26.5416C18.8466 26.5416 15.514 28.2354 15.5261 28.4015C15.5261 28.4015 15.7123 34.7237 15.7472 39.3614C15.7606 41.1128 15.6962 42.7221 15.6614 43.4953C15.5689 45.5254 15.4966 53.4113 15.4966 53.4113L27.5566 53.1259L25.3992 28.4015L23.6974 27.6578L23.4803 27.2143L22.6991 26.5791L19.3451 25.6572Z" fill="#E0E0E0"/>
<path d="M24.6261 53.1915C24.6279 53.1736 24.6279 53.1557 24.6261 53.1379C24.6261 53.099 24.6261 53.0467 24.6194 52.9811C24.6113 52.8377 24.6006 52.634 24.5859 52.3741C24.555 51.8448 24.5095 51.0836 24.4519 50.147C24.338 48.2629 24.1839 45.666 24.0083 42.7971C23.8328 39.9281 23.6934 37.3312 23.5849 35.4458C23.5353 34.5078 23.4938 33.7481 23.4656 33.2174C23.4509 32.9575 23.4402 32.7551 23.4321 32.6117C23.4321 32.5461 23.4241 32.4938 23.4214 32.455C23.4204 32.437 23.4181 32.4191 23.4147 32.4014C23.4132 32.4192 23.4132 32.4371 23.4147 32.455C23.4147 32.4938 23.4147 32.5461 23.4147 32.6131C23.4147 32.7551 23.4254 32.9588 23.4348 33.2188C23.4536 33.7454 23.4871 34.5078 23.5313 35.4485C23.6197 37.3245 23.7618 39.9308 23.9333 42.8024C24.1048 45.6741 24.271 48.2696 24.3983 50.1497C24.4626 51.0877 24.5162 51.8461 24.5524 52.3767C24.5725 52.6354 24.5885 52.839 24.5993 52.9811L24.6127 53.1392C24.6152 53.1571 24.6197 53.1746 24.6261 53.1915Z" fill="#263238"/>
<path d="M22.6992 26.5793L22.9793 28.5156L23.4804 32.4016L21.2962 28.6523L19.4001 26.168L22.525 28.3575L22.5639 26.5432" fill="#F28B74"/>
<path d="M18.8318 26.6602C18.847 26.7124 18.8672 26.7631 18.8921 26.8116C18.939 26.9174 19.0006 27.0581 19.0783 27.231L19.7564 28.705L19.7644 28.7238H19.7859H20.2415L20.22 28.6621L19.885 28.9368L19.8542 28.9623L19.8823 28.9904L20.5175 29.6122L22.561 31.594L23.1854 32.1877L23.3583 32.3471C23.3772 32.3669 23.3983 32.3845 23.4213 32.3994C23.4065 32.3759 23.3885 32.3547 23.3677 32.3364L23.2055 32.1676L22.5958 31.5565L20.5684 29.5599C20.35 29.3455 20.1356 29.1378 19.9319 28.9395V28.9918L20.2656 28.7157L20.3393 28.6541H20.2428H19.7872L19.8167 28.6728C19.5313 28.0779 19.2901 27.574 19.1145 27.2096C19.0301 27.0394 18.9631 26.9014 18.9122 26.7982C18.889 26.7501 18.8622 26.704 18.8318 26.6602Z" fill="#263238"/>
<path d="M23.4802 32.3982C23.501 32.319 23.5158 32.2384 23.5244 32.157C23.5486 31.9895 23.5794 31.7671 23.6169 31.4977C23.6919 30.9403 23.7911 30.1698 23.8956 29.3189L23.9921 28.5256V28.4948L23.9613 28.4867L23.4132 28.3527V28.4171L23.9626 28.3192L24.0001 28.3125L23.9841 28.279L23.6223 27.4925C23.5807 27.408 23.5472 27.337 23.5191 27.2794C23.5091 27.2533 23.4951 27.2288 23.4775 27.207C23.4831 27.2344 23.4922 27.261 23.5043 27.2861C23.5285 27.3451 23.5579 27.4201 23.5928 27.5059C23.6785 27.7069 23.7938 27.9762 23.9318 28.3018L23.9532 28.263L23.4025 28.3527L23.2444 28.3782L23.3998 28.4171L23.9465 28.5511L23.9197 28.5135C23.8876 28.7655 23.8554 29.0321 23.8206 29.3055C23.7161 30.1577 23.6249 30.9282 23.5633 31.487C23.5352 31.755 23.511 31.9815 23.4936 32.157C23.4829 32.2369 23.4784 32.3176 23.4802 32.3982Z" fill="#263238"/>
<path d="M21.6165 42.7436H21.5387L21.3069 42.7584L20.4172 42.8227L17.2306 43.0679H17.1985V43.1001C17.2494 43.6991 17.3057 44.3503 17.3646 45.0364C17.3941 45.3812 17.4245 45.7336 17.4558 46.0936C17.4718 46.2745 17.4866 46.4554 17.5027 46.639C17.5083 46.734 17.5231 46.8283 17.5469 46.9204C17.5752 47.0156 17.6176 47.1059 17.6728 47.1884C17.8532 47.4319 18.1224 47.5942 18.4219 47.64C18.7037 47.6749 18.9876 47.6902 19.2715 47.6856C19.8074 47.687 20.3418 47.6286 20.8647 47.5114C20.9888 47.4813 21.1102 47.4414 21.2279 47.3921C21.2865 47.3684 21.343 47.3397 21.3967 47.3063C21.424 47.2881 21.4495 47.2675 21.4731 47.2447C21.4947 47.221 21.5149 47.1959 21.5334 47.1697C21.6476 46.9595 21.7183 46.7284 21.7411 46.4903C21.7939 46.0722 21.8149 45.6506 21.8041 45.2293C21.792 44.4575 21.7371 43.8357 21.6955 43.4069C21.6754 43.1925 21.6553 43.0277 21.6406 42.9152C21.6406 42.8616 21.6272 42.82 21.6232 42.7812C21.6224 42.7664 21.6192 42.752 21.6138 42.7383C21.6138 42.7383 21.6138 42.753 21.6138 42.7825C21.6138 42.812 21.6138 42.8575 21.6245 42.9165C21.6352 43.0344 21.6486 43.1992 21.666 43.4096C21.6995 43.8384 21.7464 44.4602 21.7518 45.2293C21.7579 45.6477 21.7342 46.0659 21.6808 46.4809C21.6571 46.7097 21.5883 46.9314 21.4784 47.1335C21.4092 47.2278 21.3115 47.2973 21.1997 47.3318C21.0855 47.3792 20.9676 47.4172 20.8473 47.4457C20.3294 47.5599 19.8005 47.6166 19.2701 47.6145C18.9907 47.6187 18.7113 47.6035 18.434 47.569C18.1531 47.5263 17.9003 47.3746 17.7305 47.1469C17.6811 47.0722 17.6424 46.991 17.6152 46.9057C17.5931 46.8178 17.5792 46.7281 17.5737 46.6377C17.5576 46.4541 17.5415 46.2719 17.5268 46.091C17.4946 45.7318 17.4638 45.3781 17.433 45.035C17.3713 44.3476 17.3137 43.695 17.2601 43.0987L17.232 43.1336L20.3957 42.8575L21.2908 42.7758L21.5294 42.753C21.5586 42.7519 21.5877 42.7488 21.6165 42.7436Z" fill="#263238"/>
<g opacity="0.3">
<path d="M17.5535 46.835C17.8938 47.722 18.7823 47.773 19.739 47.639C20.6382 47.505 21.5038 47.3187 21.5708 47.0614C21.5467 47.5318 21.201 47.8922 20.7668 48.0812C20.326 48.2496 19.8527 48.316 19.3826 48.2755C18.8908 48.2527 18.466 48.2755 18.06 47.9954C17.654 47.7153 17.5521 47.2396 17.5535 46.835Z" fill="black"/>
</g>
<path d="M26.675 43.0185C26.6738 43.0074 26.6738 42.9962 26.675 42.985L26.6629 42.8885C26.654 42.7992 26.6406 42.6746 26.6227 42.5147C26.5906 42.1824 26.545 41.7107 26.4887 41.1372C26.3788 39.974 26.2315 38.366 26.076 36.5905C25.9206 34.815 25.7866 33.2057 25.6968 32.0345C25.6526 31.4516 25.6204 30.98 25.6016 30.6543C25.5909 30.4909 25.5869 30.3649 25.5842 30.2778C25.5842 30.2389 25.5842 30.2068 25.5842 30.18C25.5823 30.1689 25.5823 30.1576 25.5842 30.1465C25.6164 30.5244 25.8402 33.0851 26.1457 36.5785C26.2984 38.3526 26.4378 39.958 26.5383 41.1278C26.5852 41.7053 26.6241 42.1743 26.6509 42.5066C26.6629 42.6648 26.6723 42.7907 26.679 42.8818C26.679 42.9207 26.679 42.9529 26.679 42.9797C26.6796 42.9927 26.6782 43.0058 26.675 43.0185Z" fill="#263238"/>
<path d="M28.4223 36.4539C28.4737 36.6395 28.4928 36.8326 28.4785 37.0247C28.4504 37.3182 28.437 38.0391 27.6558 38.2856C26.8746 38.5322 26.4954 38.2964 26.2555 37.9654L26.1362 36.5316L26.9724 35.9795L28.4223 36.4539Z" fill="#E0E0E0"/>
<g opacity="0.3">
<path d="M21.895 37.376C21.895 37.376 19.8971 39.3498 18.3454 39.6339C16.7937 39.918 16.2389 39.3659 15.8262 37.9763L21.895 37.376Z" fill="black"/>
</g>
<path d="M15.5622 28.3535C15.5622 28.3535 14.2932 29.53 14.655 32.3159C14.99 34.9048 15.593 38.5094 16.3809 38.9288C17.1688 39.3482 18.8907 39.1378 20.1463 38.4263C21.4019 37.7148 25.04 35.7905 25.04 35.7905L23.5338 33.1105L18.6817 34.9865C18.6817 34.9865 18.0546 30.6985 17.678 29.9535" fill="#E0E0E0"/>
<path d="M17.658 29.9045C17.658 29.9045 17.6714 29.9326 17.6956 29.9876C17.7063 30.0144 17.7224 30.0479 17.7384 30.0894C17.7545 30.1309 17.7679 30.1819 17.7867 30.2368C17.8577 30.4592 17.9421 30.7929 18.0346 31.2271C18.2222 32.094 18.4486 33.359 18.6872 34.9348L18.6523 34.9134L23.5018 33.024L23.5286 33.0133L23.5433 33.0387C24.019 33.8856 24.5255 34.7807 25.0508 35.7187L25.0682 35.7509L25.0361 35.7683L21.9246 37.4447L20.3983 38.2661C20.1478 38.4001 19.8985 38.5408 19.6399 38.652C19.3819 38.761 19.1168 38.8528 18.8466 38.9267C18.3203 39.0741 17.774 39.1374 17.2279 39.1143C16.9617 39.1025 16.6994 39.0458 16.452 38.9468L16.3609 38.9066C16.3314 38.8919 16.3033 38.8704 16.2738 38.8517C16.224 38.8094 16.1791 38.7618 16.1398 38.7096C16.0601 38.6068 15.9914 38.4959 15.9348 38.3786C15.7257 37.928 15.5623 37.4575 15.447 36.9743C15.3251 36.5093 15.2286 36.0524 15.1415 35.6089C14.97 34.7231 14.8427 33.8923 14.7395 33.1325C14.6363 32.3728 14.5385 31.6813 14.5667 31.0689C14.5799 30.5456 14.673 30.0272 14.8427 29.532C14.9527 29.22 15.1075 28.9257 15.3023 28.6583C15.3535 28.5892 15.409 28.5234 15.4685 28.4613C15.4888 28.4405 15.5103 28.4208 15.5328 28.4023L15.4738 28.4667C15.4171 28.5302 15.3638 28.5969 15.3144 28.6663C15.1257 28.9357 14.976 29.2302 14.8695 29.5413C14.7033 30.0345 14.6129 30.55 14.6015 31.0703C14.5774 31.6786 14.6739 32.3661 14.7837 33.1245C14.8936 33.8829 15.0236 34.7137 15.1978 35.5981C15.2849 36.039 15.3827 36.4946 15.506 36.9582C15.6207 37.4368 15.7828 37.9027 15.9897 38.3492C16.0439 38.4612 16.109 38.5676 16.184 38.6667C16.2236 38.7162 16.2686 38.7611 16.318 38.8007C16.3428 38.8182 16.3688 38.8339 16.3958 38.8476L16.4815 38.8865C16.7228 38.9809 16.9783 39.0339 17.2373 39.0433C17.7757 39.0653 18.3143 39.0025 18.8332 38.857C19.0996 38.7845 19.3609 38.695 19.6158 38.589C19.8731 38.4778 20.1169 38.3398 20.3689 38.2058L21.8951 37.383L25.0079 35.708L24.9932 35.7563L23.4897 33.0763L23.5313 33.091L18.6764 34.967L18.6456 34.9791V34.9469C18.4138 33.3724 18.1954 32.1061 18.0172 31.2378C17.9301 30.8036 17.8497 30.4686 17.7827 30.2462C17.7666 30.1912 17.7518 30.1417 17.7384 30.0988L17.6996 29.9956C17.6728 29.934 17.658 29.9045 17.658 29.9045Z" fill="#263238"/>
<path d="M19.4001 33.1143H21.8081V32.3129H19.4001V33.1143Z" fill="white"/>
<path d="M19.8984 32.6657C20.1468 32.6296 20.3981 32.6175 20.6488 32.6295C20.9 32.6175 21.1517 32.6296 21.4006 32.6657C21.1516 32.7001 20.9 32.7118 20.6488 32.7005C20.3982 32.7118 20.147 32.7001 19.8984 32.6657Z" fill="#263238"/>
<g opacity="0.3">
<path d="M23.3583 32.3493L19.814 29.4736L19.8984 29.223H19.5902L19.0784 27.2305L19.8154 28.6777L20.2415 28.6576L19.9319 28.9416L23.3583 32.3493Z" fill="black"/>
</g>
<path d="M18.9806 29.0723L19.1146 29.0187C19.1146 29.012 18.8239 28.3193 18.5384 27.5849C18.4359 27.3593 18.3943 27.1107 18.4178 26.864C18.4339 26.7864 18.4769 26.717 18.5391 26.6679C18.6014 26.6189 18.679 26.5934 18.7582 26.596L18.852 26.5464L18.9002 26.4607C18.6523 26.4071 18.32 26.6148 18.2798 26.8439C18.2537 27.1164 18.2999 27.391 18.4138 27.6399C18.6885 28.3782 18.9766 29.0656 18.9806 29.0723Z" fill="#455A64"/>
<path d="M18.7715 30.6903L18.9498 30.6206C18.8037 30.2441 18.604 29.5781 18.6898 29.3905C18.7321 29.3236 18.7881 29.2664 18.8542 29.2227C18.9203 29.179 18.9949 29.1499 19.073 29.1373C19.1688 29.112 19.269 29.1092 19.366 29.1292C19.4629 29.1492 19.5539 29.1914 19.6318 29.2525C19.8355 29.4254 20.1437 30.0337 20.2455 30.2548L20.4184 30.1744C20.4037 30.1409 20.0338 29.3409 19.7551 29.1024C19.6548 29.0222 19.5372 28.9663 19.4116 28.9394C19.286 28.9124 19.1559 28.915 19.0315 28.947C18.9235 28.9657 18.8212 29.0085 18.7321 29.0724C18.643 29.1362 18.5694 29.2193 18.5169 29.3155C18.3722 29.6264 18.7032 30.5215 18.7715 30.6903Z" fill="#455A64"/>
<path d="M20.6958 33.5958C20.9155 33.5958 21.1326 33.4779 21.3403 33.2447L21.2679 33.1804C21.0401 33.439 20.8043 33.5409 20.5711 33.4859C19.6184 33.2622 18.8921 30.6157 18.8854 30.5889L18.793 30.613C18.8238 30.7242 19.5407 33.3426 20.5484 33.5784C20.5966 33.5901 20.6461 33.596 20.6958 33.5958Z" fill="#263238"/>
<path d="M21.1569 33.3537C21.1763 33.3731 21.202 33.3848 21.2293 33.3868C21.2566 33.3887 21.2837 33.3808 21.3056 33.3644L21.512 33.2103C21.5274 33.2007 21.5407 33.188 21.551 33.1731C21.5614 33.1582 21.5686 33.1413 21.5722 33.1235C21.5759 33.1057 21.5759 33.0874 21.5722 33.0696C21.5685 33.0518 21.5613 33.0349 21.5509 33.02C21.5399 33.0028 21.5252 32.9884 21.5078 32.9777C21.4904 32.9671 21.4709 32.9606 21.4506 32.9586C21.4303 32.9567 21.4098 32.9594 21.3908 32.9666C21.3717 32.9737 21.3545 32.9851 21.3405 32.9999L21.1542 33.1929C21.1333 33.2146 21.1218 33.2437 21.1223 33.2738C21.1228 33.304 21.1353 33.3327 21.1569 33.3537Z" fill="#263238"/>
<path d="M20.2911 33.6827C20.4151 33.6922 20.5395 33.6706 20.653 33.6198C20.7665 33.569 20.8655 33.4907 20.941 33.3919C21.5266 32.5705 20.4224 30.2898 20.3755 30.1934L20.2898 30.2349C20.3005 30.259 21.4167 32.5611 20.8633 33.337C20.7186 33.5393 20.4613 33.6197 20.1102 33.5755L20.0981 33.6693C20.1621 33.6782 20.2266 33.6827 20.2911 33.6827Z" fill="#263238"/>
<path d="M20.3085 33.6305C20.3066 33.6578 20.2951 33.6835 20.2759 33.7029C20.2567 33.7223 20.2312 33.7342 20.204 33.7364L19.9467 33.7578C19.9289 33.7607 19.9106 33.7599 19.8931 33.7555C19.8756 33.7511 19.8592 33.7433 19.8448 33.7324C19.8304 33.7215 19.8184 33.7078 19.8094 33.6921C19.8004 33.6765 19.7947 33.6592 19.7926 33.6413C19.7892 33.6211 19.7905 33.6005 19.7964 33.581C19.8022 33.5614 19.8124 33.5435 19.8263 33.5285C19.8401 33.5135 19.8572 33.5019 19.8762 33.4945C19.8952 33.4871 19.9156 33.4841 19.936 33.4858L20.204 33.5086C20.2338 33.5113 20.2614 33.5256 20.281 33.5484C20.3005 33.5711 20.3103 33.6006 20.3085 33.6305Z" fill="#263238"/>
<path d="M24.8941 30.8331C25.2701 30.8331 25.5748 30.5284 25.5748 30.1524C25.5748 29.7764 25.2701 29.4717 24.8941 29.4717C24.5181 29.4717 24.2134 29.7764 24.2134 30.1524C24.2134 30.5284 24.5181 30.8331 24.8941 30.8331Z" fill="#263238"/>
<path d="M24.8941 30.8331C25.2701 30.8331 25.5748 30.5284 25.5748 30.1524C25.5748 29.7764 25.2701 29.4717 24.8941 29.4717C24.5181 29.4717 24.2134 29.7764 24.2134 30.1524C24.2134 30.5284 24.5181 30.8331 24.8941 30.8331Z" fill="#263238"/>
<path d="M24.3916 30.1519C24.3913 30.2517 24.4207 30.3493 24.476 30.4323C24.5312 30.5154 24.6099 30.5802 24.702 30.6185C24.7941 30.6568 24.8955 30.6669 24.9934 30.6475C25.0913 30.6281 25.1812 30.5801 25.2517 30.5095C25.3223 30.439 25.3703 30.3491 25.3897 30.2512C25.4091 30.1534 25.399 30.0519 25.3607 29.9598C25.3224 29.8677 25.2576 29.789 25.1745 29.7338C25.0915 29.6785 24.9939 29.6492 24.8941 29.6494C24.7608 29.6494 24.633 29.7024 24.5388 29.7966C24.4445 29.8908 24.3916 30.0186 24.3916 30.1519Z" fill="#E0E0E0"/>
<path d="M23.4494 27.1867C23.5137 27.2792 24.2253 28.7813 24.6139 29.5384L24.7278 29.4794C24.6701 29.3682 23.6357 27.2336 23.5553 27.1143L22.8022 26.502L22.7754 26.6453L23.4494 27.1867Z" fill="#455A64"/>
<path d="M23.1641 30.1357C23.6572 30.6275 24.9061 31.9072 24.9061 31.9072L25.2397 31.7062L23.4817 29.8302C23.446 29.7922 23.398 29.768 23.3462 29.7622C23.2944 29.7563 23.2422 29.769 23.1989 29.798C23.1719 29.8159 23.1491 29.8397 23.1323 29.8674C23.1155 29.8952 23.1051 29.9263 23.1017 29.9586C23.0984 29.9909 23.1023 30.0235 23.1131 30.0541C23.1238 30.0848 23.1413 30.1126 23.1641 30.1357Z" fill="#263238"/>
<path d="M23.5193 33.0557L23.9387 31.8738C23.9822 31.7463 24.0632 31.6349 24.171 31.5541C24.2788 31.4733 24.4085 31.4269 24.543 31.4209H24.606C24.8579 31.449 26.1403 31.5335 26.1403 31.5335L26.6361 32.0896C26.6769 32.1358 26.6994 32.1954 26.6994 32.2571C26.6994 32.3187 26.6769 32.3783 26.6361 32.4246L26.7795 33.4296L26.5021 33.6225L26.5303 34.3247C26.5303 34.3247 26.2797 34.4908 26.1685 34.4359L26.0559 34.3796L25.8897 34.2121L25.4154 34.8821L24.7601 35.2613L23.5193 33.0557Z" fill="#FFBF9D"/>
<path d="M26.6441 32.4806C26.5881 32.4124 26.5281 32.3475 26.4645 32.2863C26.3932 32.225 26.3121 32.1761 26.2247 32.1416C26.1108 32.1147 25.9946 32.099 25.8776 32.0947C25.5698 32.0777 25.2638 32.0365 24.9624 31.9714C25.2706 31.9641 25.5788 31.9811 25.8843 32.0223C26.0072 32.0263 26.1291 32.0452 26.2475 32.0786C26.3414 32.1184 26.4269 32.1757 26.4994 32.2474C26.572 32.3071 26.6229 32.389 26.6441 32.4806Z" fill="#D1F1F1"/>
<path d="M26.6158 33.4038C26.5872 33.3163 26.5527 33.2308 26.5127 33.1478C26.3982 32.958 26.2238 32.8118 26.0169 32.7324C25.8063 32.6567 25.584 32.619 25.3603 32.6212C25.2664 32.6276 25.1722 32.6249 25.0789 32.6132C25.1695 32.5829 25.2647 32.5684 25.3603 32.5703C25.5921 32.5523 25.8252 32.5843 26.0437 32.6641C26.266 32.7486 26.4492 32.9123 26.5582 33.1237C26.6085 33.2079 26.6288 33.3066 26.6158 33.4038Z" fill="#D1F1F1"/>
<path d="M26.4899 34.266C26.4435 34.1815 26.4204 34.0863 26.4229 33.9899C26.4174 33.8912 26.3962 33.7939 26.3599 33.7018C26.3352 33.6491 26.2977 33.6032 26.251 33.5684C26.2042 33.5335 26.1496 33.5108 26.0919 33.5022C25.871 33.4549 25.6472 33.4226 25.4219 33.4057C25.3262 33.4019 25.2321 33.38 25.1445 33.3414C25.239 33.3391 25.3335 33.3436 25.4273 33.3548C25.6567 33.3566 25.8852 33.3822 26.1093 33.4312C26.1768 33.448 26.2405 33.4775 26.2969 33.5183C26.3494 33.5592 26.39 33.6133 26.4149 33.675C26.4515 33.7745 26.4692 33.8799 26.4671 33.9859C26.4738 34.1601 26.502 34.262 26.4899 34.266Z" fill="#D1F1F1"/>
<path d="M27.1895 32.0498L21.658 37.7622L21.871 37.978L25.8334 37.5317L31.1653 32.4518L31.1599 32.2079L27.1895 32.0498Z" fill="#455A64"/>
<g opacity="0.3">
<path d="M28.2252 34.7138C28.0949 34.5949 27.9411 34.5046 27.7738 34.4488C27.6065 34.3929 27.4293 34.3727 27.2537 34.3895C26.902 34.4255 26.5689 34.5655 26.297 34.7915C26.0667 34.9602 25.8989 35.2006 25.8199 35.4749C25.7074 35.9546 26.1027 36.626 26.5382 36.8591C27.0903 36.4156 27.6276 35.7349 28.1797 35.2927C28.2692 35.2347 28.3367 35.1484 28.3713 35.0474C28.3759 34.9841 28.3651 34.9207 28.3396 34.8625C28.3142 34.8044 28.2749 34.7533 28.2252 34.7138Z" fill="black"/>
</g>
<path d="M31.1438 32.4409C31.1197 32.4426 31.0955 32.4426 31.0714 32.4409H30.8597L30.0664 32.4315L27.306 32.3833L27.3315 32.3726L25.9459 33.8104L23.0716 36.7678L22.1952 37.6575L21.954 37.8974C21.9268 37.9261 21.8977 37.9529 21.8669 37.9778C21.8906 37.9468 21.917 37.9181 21.946 37.892L22.1778 37.6428L23.0381 36.737C23.7738 35.9718 24.7801 34.9226 25.8963 33.7648C26.3854 33.2583 26.8558 32.7732 27.2846 32.331L27.2953 32.3203H27.306L30.0624 32.3994L30.8543 32.4275L31.066 32.4382C31.092 32.4363 31.118 32.4372 31.1438 32.4409Z" fill="#263238"/>
<path d="M27.6813 34.1152C27.6813 34.1152 28.2173 34.126 28.3928 34.2131C28.5684 34.3002 29.0481 34.8094 29.0481 34.8094C29.0481 34.8094 29.0481 35.1578 28.9141 35.1712C28.9312 35.2491 28.9407 35.3285 28.9422 35.4083C28.9556 35.604 28.9838 35.7152 28.7185 35.8827C28.7185 35.8827 28.7466 36.203 28.6488 36.2847C28.5827 36.3403 28.5128 36.3913 28.4397 36.4375C28.4397 36.4375 28.425 36.7899 27.952 36.7859L27.5084 36.9815C27.5084 36.9815 26.5222 36.889 26.6267 36.7725C26.7312 36.6559 26.9684 36.0783 26.9684 36.0783C26.9684 36.0783 26.2984 35.5866 26.3065 35.4338C26.3145 35.281 26.3761 35.2663 26.3761 35.2663C26.3761 35.2663 26.3493 34.9742 26.5852 34.946C26.5852 34.946 26.7674 34.5829 26.9483 34.5695C27.1292 34.5561 28.3567 35.001 28.3567 35.001L27.897 34.611C27.897 34.611 27.4361 34.5414 27.4508 34.3873C27.4656 34.2332 27.6813 34.1152 27.6813 34.1152Z" fill="#FFBF9D"/>
<path d="M27.6009 35.9527C27.3882 35.863 27.1802 35.7624 26.9778 35.6512C26.7651 35.5601 26.5571 35.4581 26.3547 35.3457C26.5843 35.3884 26.8055 35.4676 27.01 35.5802C27.2253 35.6727 27.4247 35.7984 27.6009 35.9527Z" fill="#D1F1F1"/>
<path d="M28.244 35.5267C27.9691 35.4631 27.7002 35.3762 27.44 35.2668C27.1728 35.1801 26.9137 35.0702 26.6655 34.9385C26.9404 35.0021 27.2094 35.0891 27.4695 35.1984C27.7367 35.2852 27.9959 35.395 28.244 35.5267Z" fill="#D1F1F1"/>
<path d="M19.51 23.1785C19.3317 22.5708 19.2053 21.949 19.1322 21.3199C19.0591 20.6878 19.1438 20.0474 19.3787 19.456C19.4176 19.3675 19.7338 18.786 19.8276 18.794C19.896 18.8034 19.6936 19.3568 19.7231 19.4185C20.0233 20 20.0769 20.6848 19.9911 21.3347C19.9016 21.9651 19.7421 22.5835 19.5154 23.1785" fill="#263238"/>
<path d="M19.573 20.7628C19.6025 19.1736 20.5526 17.8684 22.1391 17.9488L22.2852 17.9649C22.9958 18.0382 23.6526 18.3768 24.1245 18.9131C24.5964 19.4493 24.8488 20.1438 24.8312 20.858C24.7977 22.2342 24.7427 23.7537 24.657 24.4854C24.4788 25.9982 22.9378 26.0746 22.9378 26.0746L22.5867 28.4089L19.3452 26.155L19.573 20.7628Z" fill="#FFBF9D"/>
<path d="M22.9322 26.08C22.2323 26.004 21.5687 25.7292 21.02 25.2881C21.02 25.2881 21.3229 26.5839 22.8491 26.6066L22.9322 26.08Z" fill="#D1F1F1"/>
<path d="M24.2482 22.1187C24.2427 22.1751 24.2154 22.2271 24.1721 22.2637C24.1288 22.3003 24.0729 22.3184 24.0163 22.3143C23.9886 22.3136 23.9613 22.3074 23.936 22.296C23.9107 22.2846 23.8879 22.2682 23.8691 22.2478C23.8502 22.2275 23.8356 22.2035 23.8261 22.1774C23.8167 22.1513 23.8126 22.1236 23.814 22.0959C23.8195 22.0394 23.8467 21.9872 23.89 21.9504C23.9333 21.9136 23.9892 21.8952 24.0458 21.8989C24.0736 21.8998 24.101 21.9062 24.1263 21.9177C24.1516 21.9293 24.1743 21.9458 24.1932 21.9663C24.212 21.9867 24.2266 22.0108 24.236 22.0369C24.2455 22.0631 24.2496 22.0909 24.2482 22.1187Z" fill="#263238"/>
<path d="M24.4358 21.4459C24.4064 21.47 24.2549 21.332 24.0218 21.3119C23.7886 21.2918 23.6064 21.3869 23.5836 21.3561C23.5608 21.3253 23.605 21.2931 23.6854 21.2476C23.7936 21.1878 23.9178 21.1634 24.0405 21.1779C24.1615 21.1901 24.2755 21.2403 24.3662 21.3213C24.4318 21.3802 24.4506 21.4338 24.4358 21.4459Z" fill="#263238"/>
<path d="M22.2555 22.0251C22.25 22.0816 22.2228 22.1338 22.1795 22.1706C22.1362 22.2074 22.0803 22.2258 22.0237 22.2221C21.9959 22.2212 21.9685 22.2148 21.9432 22.2033C21.9179 22.1917 21.8951 22.1752 21.8763 22.1547C21.8575 22.1343 21.8429 22.1103 21.8334 22.0841C21.824 22.0579 21.8199 22.0301 21.8213 22.0023C21.8284 21.947 21.8563 21.8965 21.8994 21.8611C21.9425 21.8257 21.9975 21.8082 22.0531 21.8121C22.0804 21.8127 22.1073 21.8188 22.1322 21.8299C22.1572 21.841 22.1797 21.8569 22.1985 21.8767C22.2173 21.8964 22.232 21.9197 22.2417 21.9452C22.2515 21.9707 22.2562 21.9978 22.2555 22.0251Z" fill="#263238"/>
<path d="M22.1443 21.2984C22.1149 21.3239 21.9634 21.1859 21.7303 21.1644C21.4971 21.143 21.3149 21.2395 21.2921 21.2073C21.2693 21.1752 21.3135 21.1457 21.3939 21.1001C21.5021 21.0403 21.6263 21.016 21.749 21.0304C21.87 21.0427 21.984 21.0929 22.0747 21.1738C22.1403 21.2341 22.1591 21.2877 22.1443 21.2984Z" fill="#263238"/>
<path d="M22.7915 23.1771C22.9184 23.1508 23.0481 23.1414 23.1774 23.1489C23.2364 23.1489 23.294 23.1489 23.3114 23.1034C23.3228 23.0423 23.3154 22.9792 23.29 22.9225L23.1627 22.4508C22.9858 21.7808 22.8652 21.2314 22.8947 21.2247C22.9242 21.218 23.0863 21.7607 23.2632 22.4307C23.3047 22.5955 23.3449 22.7536 23.3838 22.9037C23.4115 22.9803 23.4115 23.0642 23.3838 23.1409C23.3731 23.1608 23.358 23.1781 23.3397 23.1913C23.3213 23.2045 23.3002 23.2134 23.2779 23.2173C23.2437 23.2217 23.209 23.2217 23.1747 23.2173C23.0458 23.2196 22.9171 23.2061 22.7915 23.1771Z" fill="#263238"/>
<path d="M22.0895 23.2657C22.127 23.2657 22.1015 23.5203 22.2985 23.7227C22.4955 23.925 22.7675 23.925 22.7662 23.9612C22.7648 23.9974 22.7005 24.0041 22.5866 23.9947C22.4384 23.9813 22.2998 23.9158 22.1953 23.8098C22.0945 23.7086 22.0373 23.572 22.0359 23.4292C22.0372 23.322 22.0721 23.263 22.0895 23.2657Z" fill="#263238"/>
<path d="M22.2315 20.3526C22.202 20.4129 21.9729 20.3526 21.6955 20.3633C21.4181 20.374 21.1903 20.4182 21.1595 20.3633C21.1461 20.3338 21.1917 20.2789 21.2935 20.2293C21.4181 20.166 21.5558 20.133 21.6955 20.1328C21.8349 20.1321 21.9725 20.1637 22.0975 20.2253C22.1994 20.2682 22.2449 20.3231 22.2315 20.3526Z" fill="#263238"/>
<path d="M24.4211 20.6606C24.3742 20.7089 24.2201 20.6379 24.0271 20.6151C23.8342 20.5923 23.668 20.6151 23.6359 20.5534C23.6225 20.5253 23.6533 20.4744 23.7297 20.4315C23.8315 20.3805 23.9467 20.3622 24.0593 20.3792C24.1723 20.3905 24.2788 20.4375 24.3635 20.5132C24.4251 20.5802 24.4425 20.6365 24.4211 20.6606Z" fill="#263238"/>
<path d="M19.5784 21.8977C19.5529 21.883 18.5693 21.4796 18.493 22.5195C18.4166 23.5593 19.4765 23.4213 19.4805 23.3918C19.4846 23.3623 19.5784 21.8977 19.5784 21.8977Z" fill="#FFBF9D"/>
<path d="M19.1911 22.9736C19.1911 22.9736 19.1724 22.9857 19.1402 22.9978C19.0961 23.0118 19.0483 23.009 19.0062 22.9897C18.9003 22.9415 18.8199 22.7606 18.828 22.573C18.8324 22.4836 18.8562 22.3963 18.8977 22.317C18.9091 22.2842 18.9286 22.2548 18.9544 22.2314C18.9801 22.208 19.0113 22.1914 19.0451 22.183C19.0663 22.1788 19.0883 22.1823 19.1072 22.1929C19.1262 22.2034 19.1407 22.2204 19.1482 22.2407C19.1603 22.2701 19.1482 22.2902 19.1576 22.2929C19.167 22.2956 19.1804 22.2768 19.175 22.234C19.1712 22.2077 19.1584 22.1836 19.1389 22.1656C19.1256 22.1538 19.1101 22.1448 19.0933 22.1391C19.0765 22.1333 19.0587 22.131 19.041 22.1321C18.9976 22.137 18.9562 22.1532 18.9209 22.1791C18.8856 22.2049 18.8578 22.2396 18.84 22.2795C18.7895 22.3661 18.7605 22.4635 18.7556 22.5636C18.7476 22.774 18.84 22.9777 18.9874 23.0326C19.0148 23.0428 19.044 23.0466 19.073 23.0438C19.102 23.041 19.13 23.0317 19.1549 23.0165C19.1884 22.9991 19.1951 22.9763 19.1911 22.9736Z" fill="#D1F1F1"/>
<path d="M24.2642 19.0835C24.4384 19.0018 23.9681 18.4243 23.5661 18.2099C22.9591 17.8856 22.0157 17.6497 21.4221 17.7757C20.7146 17.9285 20.1156 18.2367 19.727 18.8477C19.35 19.4695 19.1451 20.1803 19.1334 20.9073C19.1104 21.1282 19.147 21.3512 19.2392 21.5532C19.3732 21.7917 19.6412 21.9552 19.6064 22.2714C19.5988 22.3285 19.6026 22.3866 19.6175 22.4422C19.6325 22.4979 19.6583 22.5501 19.6935 22.5957C19.8717 22.8114 20.1156 22.6359 20.2362 22.4523C20.4908 22.0583 20.5471 21.5746 20.598 21.1123C20.6523 20.7836 20.6523 20.4481 20.598 20.1194C20.5578 19.9425 20.4868 19.7736 20.464 19.5941C20.4435 19.5057 20.4424 19.4139 20.461 19.325C20.4795 19.2362 20.5171 19.1524 20.5712 19.0795C20.5986 19.0505 20.6287 19.024 20.661 19.0005C20.8143 18.8835 20.9961 18.8094 21.1875 18.7858C21.379 18.7623 21.5733 18.7901 21.7504 18.8665C22.3226 19.1117 23.3035 19.4855 23.5782 19.3033C23.9721 19.042 24.074 18.8611 24.074 18.8611L24.2642 19.0835Z" fill="#263238"/>
</svg>
