<svg width="80" height="80" viewBox="0 0 80 80" fill="none" xmlns="http://www.w3.org/2000/svg">
<g clip-path="url(#clip0_1156_19080)">
<rect width="80" height="80" rx="40" fill="#19BBBB" fill-opacity="0.08"/>
<path d="M46.4331 57.8591L30.8211 57.7856C30.3746 57.7839 29.9328 57.6941 29.521 57.5216C29.1092 57.3491 28.7354 57.0971 28.421 56.78C28.1066 56.463 27.8578 56.0871 27.6887 55.6739C27.5196 55.2606 27.4336 54.8181 27.4356 54.3716L27.6021 15.2321C27.6072 14.3309 27.9698 13.4686 28.6102 12.8344C29.2505 12.2002 30.1163 11.846 31.0176 11.8496L46.6296 11.9216C47.5313 11.926 48.3945 12.2882 49.0293 12.9287C49.6641 13.5691 50.0187 14.4354 50.0151 15.3371L49.8501 54.4721C49.8457 55.3743 49.4834 56.2378 48.8426 56.8729C48.2019 57.508 47.3352 57.8627 46.4331 57.8591Z" fill="#263238"/>
<path d="M46.6072 13.2682L43.5802 13.2547C43.4814 13.2563 43.384 13.2774 43.2934 13.3167C43.2028 13.356 43.1208 13.4128 43.0523 13.4839C42.9837 13.555 42.9298 13.6389 42.8938 13.7309C42.8577 13.8228 42.8402 13.921 42.8422 14.0197V14.5687C42.8442 14.6675 42.8266 14.7657 42.7906 14.8576C42.7545 14.9496 42.7007 15.0335 42.6321 15.1046C42.5635 15.1756 42.4816 15.2325 42.391 15.2718C42.3004 15.3111 42.2029 15.3322 42.1042 15.3337L36.2002 15.3067C36.1013 15.3044 36.0038 15.2825 35.9134 15.2424C35.823 15.2023 35.7415 15.1446 35.6734 15.0728C35.6054 15.001 35.5522 14.9165 35.517 14.824C35.4818 14.7316 35.4652 14.6331 35.4682 14.5342V13.9852C35.4712 13.8864 35.4546 13.7879 35.4194 13.6955C35.3841 13.603 35.331 13.5185 35.2629 13.4467C35.1949 13.3749 35.1133 13.3172 35.0229 13.2771C34.9325 13.2369 34.8351 13.2151 34.7362 13.2127H33.6712L31.0267 13.1992C30.7139 13.1979 30.4039 13.2581 30.1143 13.3765C29.8248 13.495 29.5614 13.6693 29.3393 13.8895C29.1171 14.1097 28.9405 14.3715 28.8195 14.66C28.6985 14.9485 28.6356 15.2579 28.6342 15.5707L28.4722 53.7727C28.4698 54.4044 28.7182 55.0111 29.1629 55.4597C29.6075 55.9083 30.2121 56.1621 30.8437 56.1652L46.4242 56.2372C46.737 56.2386 47.047 56.1784 47.3365 56.0599C47.6261 55.9415 47.8894 55.7672 48.1116 55.547C48.3338 55.3268 48.5104 55.065 48.6314 54.7765C48.7523 54.488 48.8153 54.1786 48.8167 53.8657L48.9787 15.6637C48.9803 15.3507 48.9202 15.0405 48.8019 14.7507C48.6835 14.4609 48.5093 14.1973 48.2891 13.9748C48.0689 13.7524 47.807 13.5755 47.5184 13.4543C47.2298 13.333 46.9202 13.2698 46.6072 13.2682Z" fill="white"/>
<path d="M38.0436 51.4139C38.0436 51.4786 38.0245 51.5418 37.9885 51.5956C37.9526 51.6494 37.9015 51.6913 37.8418 51.716C37.782 51.7408 37.7163 51.7472 37.6529 51.7346C37.5894 51.722 37.5312 51.6909 37.4854 51.6451C37.4397 51.5994 37.4085 51.5411 37.3959 51.4777C37.3833 51.4143 37.3898 51.3485 37.4145 51.2888C37.4393 51.229 37.4812 51.178 37.535 51.142C37.5888 51.1061 37.652 51.0869 37.7166 51.0869C37.8033 51.0873 37.8862 51.1219 37.9474 51.1831C38.0087 51.2444 38.0433 51.3273 38.0436 51.4139Z" fill="#455A64"/>
<path d="M39.2856 51.4139C39.2856 51.4786 39.2664 51.5418 39.2305 51.5956C39.1946 51.6494 39.1435 51.6913 39.0837 51.716C39.024 51.7408 38.9582 51.7472 38.8948 51.7346C38.8314 51.722 38.7731 51.6909 38.7274 51.6451C38.6816 51.5994 38.6505 51.5411 38.6379 51.4777C38.6253 51.4143 38.6317 51.3485 38.6565 51.2888C38.6812 51.229 38.7231 51.178 38.7769 51.142C38.8307 51.1061 38.8939 51.0869 38.9586 51.0869C39.0452 51.0873 39.1281 51.1219 39.1894 51.1831C39.2506 51.2444 39.2852 51.3273 39.2856 51.4139Z" fill="#455A64"/>
<path d="M40.5275 51.4139C40.5275 51.4786 40.5084 51.5418 40.4724 51.5956C40.4365 51.6494 40.3854 51.6913 40.3257 51.716C40.2659 51.7408 40.2002 51.7472 40.1367 51.7346C40.0733 51.722 40.015 51.6909 39.9693 51.6451C39.9236 51.5994 39.8924 51.5411 39.8798 51.4777C39.8672 51.4143 39.8737 51.3485 39.8984 51.2888C39.9232 51.229 39.9651 51.178 40.0189 51.142C40.0726 51.1061 40.1359 51.0869 40.2005 51.0869C40.2871 51.0873 40.3701 51.1219 40.4313 51.1831C40.4926 51.2444 40.5271 51.3273 40.5275 51.4139Z" fill="#455A64"/>
<path d="M31.5366 23.9259C31.5366 23.9259 31.5366 23.8989 31.5366 23.8434C31.548 23.6258 31.6249 23.4167 31.7571 23.2434C31.8665 23.0943 32.0114 22.9747 32.1786 22.8954C32.3918 22.8006 32.6257 22.7619 32.8581 22.7829H35.6961L47.6961 22.8069H47.7846L47.7231 22.8714L46.1856 24.4884L46.1961 24.4629V27.1404C46.2068 27.3188 46.1937 27.4979 46.1571 27.6729C46.111 27.8482 46.0241 28.0101 45.9036 28.1454C45.7853 28.2804 45.6375 28.3861 45.4716 28.4544C45.3065 28.5193 45.1298 28.5494 44.9526 28.5429H40.0566L33.5001 28.5294H32.8101C32.5892 28.5463 32.3677 28.5066 32.1666 28.4139C31.9836 28.3255 31.8273 28.1902 31.7135 28.0219C31.5997 27.8536 31.5324 27.6581 31.5186 27.4554C31.5186 26.7054 31.5186 26.0739 31.5186 25.5504C31.5186 25.0269 31.5186 24.6249 31.5261 24.3504C31.5261 24.2139 31.5261 24.1104 31.5261 24.0369C31.5261 23.9634 31.5261 23.9304 31.5261 23.9304C31.5261 23.9304 31.5261 23.9664 31.5261 24.0369C31.5261 24.1074 31.5261 24.2139 31.5261 24.3504C31.5261 24.6279 31.5261 25.0329 31.5261 25.5504C31.5261 26.0679 31.5261 26.7129 31.5366 27.4524C31.5509 27.6469 31.6165 27.8341 31.7266 27.9951C31.8368 28.1561 31.9875 28.285 32.1636 28.3689C32.3578 28.4577 32.5717 28.4949 32.7846 28.4769H33.5001L40.0641 28.4694H43.9401H44.9571C45.124 28.4762 45.2906 28.4481 45.4461 28.3869C45.6012 28.323 45.7397 28.2245 45.8511 28.0989C45.9629 27.9726 46.0432 27.8214 46.0851 27.6579C46.1204 27.4893 46.133 27.3168 46.1226 27.1449V24.4494L46.1331 24.4389L47.6721 22.8219L47.7006 22.8864L35.7006 22.8354L33.6846 22.8249H32.8611C32.6339 22.8025 32.4047 22.8381 32.1951 22.9284C32.0305 23.0044 31.8873 23.1198 31.7781 23.2644C31.6972 23.3699 31.6353 23.4887 31.5951 23.6154C31.566 23.7169 31.5464 23.8208 31.5366 23.9259Z" fill="#455A64"/>
<path d="M44.3332 24.8858L33.1177 24.8333L33.1192 24.4883L44.3332 24.5408V24.8858Z" fill="#455A64"/>
<path d="M44.3332 26.0205L33.1177 25.968L33.1192 25.623L44.3332 25.6755V26.0205Z" fill="#455A64"/>
<path d="M39.8945 26.7575L39.8928 27.1025L44.3298 27.1242L44.3315 26.7792L39.8945 26.7575Z" fill="#455A64"/>
<path d="M46.7841 31.5225V34.9725C46.7841 35.2718 46.6654 35.5589 46.4539 35.7707C46.2424 35.9825 45.9555 36.1016 45.6562 36.102H33.2961C32.9966 36.102 32.7093 35.983 32.4975 35.7712C32.2857 35.5594 32.1667 35.2721 32.1667 34.9725V32.058L30.6292 30.441L45.6501 30.3945C45.7988 30.3938 45.9461 30.4223 46.0837 30.4787C46.2212 30.535 46.3463 30.618 46.4516 30.7228C46.557 30.8276 46.6407 30.9522 46.6977 31.0895C46.7548 31.2267 46.7842 31.3739 46.7841 31.5225Z" fill="#19BBBB"/>
<path d="M33.989 32.4825L45.2045 32.43L45.203 32.085L33.9875 32.1375L33.989 32.4825Z" fill="white"/>
<path d="M33.989 33.6157L45.2045 33.5632L45.203 33.2197L33.9875 33.2707L33.989 33.6157Z" fill="white"/>
<path d="M38.4223 34.3553L33.9854 34.377L33.987 34.7219L38.424 34.7003L38.4223 34.3553Z" fill="white"/>
<path d="M42.0841 19.8338L36.5237 19.8086L36.5206 20.4986L42.081 20.5238L42.0841 19.8338Z" fill="#19BBBB"/>
<path opacity="0.3" d="M42.0841 19.8338L36.5237 19.8086L36.5206 20.4986L42.081 20.5238L42.0841 19.8338Z" fill="white"/>
<path d="M31.7962 39.3778C31.7935 39.3508 31.7935 39.3237 31.7962 39.2968C31.8052 39.2157 31.8313 39.1375 31.8727 39.0673C31.9414 38.9508 32.047 38.8606 32.1727 38.8108C32.3464 38.7633 32.5273 38.7476 32.7067 38.7643H36.1462L47.7277 38.7883H47.8162L47.7502 38.8498L46.2352 40.4758L46.2457 40.4488V41.5363C46.2457 41.6173 46.2457 41.6863 46.2457 41.7763C46.2395 41.9027 46.1956 42.0244 46.1197 42.1257C46.0438 42.227 45.9393 42.3033 45.8197 42.3448C45.741 42.3714 45.6582 42.3836 45.5752 42.3808H43.9597H40.4632L34.5502 42.3688H32.5267C32.4399 42.3735 32.3528 42.3684 32.2672 42.3538C32.1464 42.3275 32.0362 42.2658 31.9507 42.1766C31.8652 42.0873 31.8082 41.9746 31.7872 41.8528C31.7783 41.7786 31.7753 41.7039 31.7782 41.6293C31.7782 41.3428 31.7782 41.0818 31.7782 40.8463C31.7782 40.3768 31.7782 40.0123 31.7857 39.7603C31.7857 39.6388 31.7857 39.5458 31.7857 39.4783C31.7857 39.4108 31.7857 39.3823 31.7857 39.3823C31.7857 39.3823 31.7857 39.4153 31.7857 39.4783C31.7857 39.5413 31.7857 39.6388 31.7857 39.7603C31.7857 40.0123 31.7857 40.3768 31.7932 40.8463C31.7932 41.0818 31.7932 41.3428 31.7932 41.6293C31.7906 41.7014 31.7941 41.7737 31.8037 41.8453C31.8234 41.9591 31.8768 42.0644 31.957 42.1476C32.0373 42.2308 32.1406 42.2879 32.2537 42.3118C32.3365 42.3242 32.4205 42.3282 32.5042 42.3238H33.3502H34.5502L40.4692 42.3148H45.5797C45.6535 42.3175 45.7272 42.3068 45.7972 42.2833C45.9378 42.2339 46.0532 42.1309 46.1182 41.9968C46.1502 41.9301 46.1686 41.8577 46.1722 41.7838C46.1722 41.7088 46.1722 41.6263 46.1722 41.5483V40.4458L46.1827 40.4353L47.7007 38.8123L47.7277 38.8768L36.1477 38.8273L32.7082 38.8048C32.5322 38.7854 32.3543 38.7986 32.1832 38.8438C32.086 38.8822 32.0006 38.9453 31.9354 39.0269C31.8702 39.1084 31.8273 39.2056 31.8112 39.3088C31.8074 39.332 31.8024 39.355 31.7962 39.3778Z" fill="#455A64"/>
<path d="M44.8356 40.2866L33.6201 40.2356L33.6216 39.8906L44.8371 39.9431L44.8356 40.2866Z" fill="#455A64"/>
<path d="M40.2866 41.029L40.2849 41.374L44.8359 41.3963L44.8375 41.0513L40.2866 41.029Z" fill="#455A64"/>
<path d="M46.3896 45.5307V47.8932C46.3896 48.0523 46.3264 48.2049 46.2139 48.3174C46.1014 48.43 45.9487 48.4932 45.7896 48.4932H32.5806C32.4215 48.4932 32.2689 48.43 32.1563 48.3174C32.0438 48.2049 31.9806 48.0523 31.9806 47.8932V46.6017L30.4641 44.9787L45.7896 44.9307C45.9487 44.9307 46.1014 44.9939 46.2139 45.1064C46.3264 45.2189 46.3896 45.3715 46.3896 45.5307Z" fill="#19BBBB"/>
<path d="M33.3516 46.4399L44.5671 46.3889L44.5656 46.0439L33.3501 46.0964L33.3516 46.4399Z" fill="white"/>
<path d="M33.3516 47.5493L44.5671 47.4968L44.5656 47.1533L33.3501 47.2043L33.3516 47.5493Z" fill="white"/>
<path d="M59.09 62.3877L58.79 60.8037L55.9475 61.3077L56.36 63.6822L56.5385 63.6627C57.332 63.5682 60.5525 63.0762 61.0475 62.8167C61.607 62.5272 59.09 62.3877 59.09 62.3877Z" fill="#19BBBB"/>
<path d="M61.1 62.6587C61.1 62.6857 60.05 62.9032 58.736 63.1447C57.422 63.3862 56.36 63.5602 56.3555 63.5332C56.351 63.5062 57.4055 63.2902 58.718 63.0487C60.0305 62.8072 61.091 62.6332 61.1 62.6587Z" fill="#263238"/>
<path d="M59.1995 62.6995C59.174 62.6905 59.1785 62.6035 59.225 62.5105C59.2715 62.4175 59.336 62.3605 59.3585 62.374C59.381 62.3875 59.3585 62.4655 59.312 62.5525C59.2655 62.6395 59.225 62.71 59.1995 62.6995Z" fill="#263238"/>
<path d="M59.4006 62.7734C59.3736 62.7734 59.3691 62.6729 59.4006 62.5634C59.4321 62.4539 59.5011 62.3819 59.5251 62.3939C59.5491 62.4059 59.5251 62.4944 59.4936 62.5949C59.4621 62.6954 59.4276 62.7779 59.4006 62.7734Z" fill="#263238"/>
<path d="M57.2001 63.365C57.1896 63.3755 57.1401 63.341 57.0651 63.2825C56.9722 63.2051 56.8716 63.1373 56.7651 63.08C56.6685 63.0271 56.5602 62.9993 56.4501 62.999C56.3616 62.999 56.3076 63.0275 56.3001 63.014C56.2926 63.0005 56.3391 62.9555 56.4411 62.93C56.573 62.9038 56.7099 62.9245 56.8281 62.9885C56.9421 63.0499 57.0438 63.1317 57.1281 63.23C57.1821 63.299 57.2136 63.356 57.2001 63.365Z" fill="#263238"/>
<path d="M59.1501 62.3991C59.1681 62.4186 59.1291 62.4831 59.0541 62.5281C58.9791 62.5731 58.9041 62.5761 58.8951 62.5506C58.8861 62.5251 58.9386 62.4831 59.0046 62.4426C59.0706 62.4021 59.1351 62.3811 59.1501 62.3991Z" fill="#263238"/>
<path d="M59.081 62.2573C59.081 62.2843 59.0165 62.3203 58.9205 62.3398C58.8245 62.3593 58.745 62.3518 58.742 62.3248C58.739 62.2978 58.811 62.2618 58.901 62.2438C58.991 62.2258 59.0735 62.2318 59.081 62.2573Z" fill="#263238"/>
<path d="M62.51 45.6398C61.6295 43.8623 56.9105 36.9863 56.9105 36.9863L54.392 37.2503V37.2353L51.5735 37.5443L50.0195 37.7153L55.646 62.2898L59.537 62.2193L58.601 57.6728C59.2445 56.0603 62.9975 46.6238 62.51 45.6398ZM58.496 46.7003L57.1055 50.4338L55.5305 42.7838L58.496 46.7003Z" fill="#263238"/>
<path d="M55.3745 25.636C55.3385 25.3795 55.4765 24.313 55.4765 24.313C55.4765 24.313 56.456 24.241 56.5475 23.275C56.639 22.309 56.6495 20.0725 56.6495 20.0725L54.899 19.1455L52.8935 20.5645L52.3745 21.9145L53.0585 23.5915L53.0375 24.1465V25.417L55.3745 25.636Z" fill="#FFBE9D"/>
<path d="M56.519 21.693C56.5184 21.7177 56.5104 21.7416 56.4962 21.7618C56.482 21.7819 56.462 21.7974 56.439 21.8062C56.4159 21.815 56.3908 21.8168 56.3667 21.8113C56.3426 21.8058 56.3208 21.7932 56.3039 21.7753C56.2869 21.7573 56.2758 21.7347 56.2717 21.7103C56.2677 21.686 56.2709 21.661 56.2811 21.6385C56.2913 21.616 56.308 21.5971 56.329 21.5841C56.3499 21.5711 56.3743 21.5646 56.399 21.5655C56.4153 21.5659 56.4313 21.5695 56.4462 21.5762C56.4611 21.5828 56.4745 21.5923 56.4856 21.6042C56.4968 21.616 56.5055 21.63 56.5112 21.6452C56.5169 21.6605 56.5196 21.6767 56.519 21.693Z" fill="#263238"/>
<path d="M56.5281 21.562C56.5116 21.5785 56.4216 21.4975 56.2896 21.4855C56.1576 21.4735 56.0541 21.535 56.0406 21.517C56.0271 21.499 56.0511 21.4795 56.0961 21.451C56.1565 21.4146 56.227 21.3988 56.2971 21.406C56.3668 21.4118 56.4326 21.4403 56.4846 21.487C56.5236 21.5245 56.5356 21.556 56.5281 21.562Z" fill="#263238"/>
<path d="M54.95 21.5406C54.9698 21.5552 54.9849 21.5753 54.9934 21.5984C55.0018 21.6215 55.0032 21.6466 54.9974 21.6705C54.9916 21.6945 54.9788 21.7161 54.9607 21.7328C54.9425 21.7494 54.9199 21.7604 54.8955 21.7641C54.8712 21.7679 54.8463 21.7644 54.824 21.754C54.8017 21.7436 54.7829 21.7269 54.7701 21.7058C54.7573 21.6848 54.751 21.6604 54.7521 21.6358C54.7531 21.6112 54.7614 21.5875 54.776 21.5676C54.7856 21.5544 54.7978 21.5432 54.8117 21.5347C54.8257 21.5262 54.8412 21.5206 54.8574 21.5181C54.8735 21.5156 54.89 21.5163 54.9059 21.5201C54.9218 21.524 54.9368 21.531 54.95 21.5406Z" fill="#263238"/>
<path d="M55.0476 21.5153C55.0311 21.5303 54.9426 21.4493 54.8091 21.4388C54.6756 21.4283 54.5736 21.4883 54.5601 21.4688C54.5466 21.4493 54.5706 21.4328 54.6156 21.4043C54.676 21.3678 54.7464 21.3515 54.8166 21.3578C54.8869 21.364 54.9533 21.393 55.0056 21.4403C55.0446 21.4763 55.0566 21.5078 55.0476 21.5153Z" fill="#263238"/>
<path d="M55.4929 22.6587C55.5648 22.6426 55.6383 22.6356 55.7119 22.6377C55.7464 22.6377 55.7794 22.6377 55.7884 22.6092C55.793 22.5718 55.7873 22.534 55.7719 22.4997C55.7464 22.4112 55.7194 22.3182 55.6894 22.2207C55.6115 21.983 55.5513 21.7398 55.5094 21.4932C55.5428 21.5586 55.569 21.6275 55.5874 21.6987C55.6294 21.8277 55.6849 22.0062 55.7374 22.2057C55.7644 22.3032 55.7914 22.3977 55.8154 22.4862C55.8344 22.5308 55.8375 22.5805 55.8244 22.6272C55.819 22.6388 55.8109 22.649 55.8007 22.6569C55.7905 22.6647 55.7786 22.67 55.7659 22.6722C55.7465 22.675 55.7268 22.675 55.7074 22.6722C55.6356 22.6762 55.5636 22.6716 55.4929 22.6587Z" fill="#263238"/>
<path d="M55.0489 22.7695C54.9154 22.6765 55.4134 23.005 55.6864 23.0125C55.6354 23.0797 55.563 23.1274 55.4812 23.1479C55.3994 23.1683 55.313 23.1603 55.2364 23.125C54.9589 22.9945 55.0489 22.7695 55.0489 22.7695Z" fill="white"/>
<path d="M55.4765 24.3129C55.017 24.279 54.5767 24.1145 54.2075 23.8389C54.2075 23.8389 54.4745 24.5589 55.448 24.5499L55.4765 24.3129Z" fill="#EB996E"/>
<path d="M53.1726 22.1842C53.1726 22.1842 53.1591 22.1947 53.1351 22.2082C53.1013 22.2241 53.0628 22.2267 53.0271 22.2157C52.9717 22.1853 52.9255 22.1406 52.8933 22.0863C52.8611 22.0319 52.8441 21.9699 52.8441 21.9067C52.8374 21.8361 52.8466 21.7648 52.8711 21.6982C52.8773 21.6721 52.8899 21.6478 52.9077 21.6277C52.9254 21.6075 52.9479 21.5921 52.9731 21.5827C52.9892 21.577 53.0067 21.5772 53.0227 21.5833C53.0386 21.5893 53.0519 21.6008 53.0601 21.6157C53.0721 21.6382 53.0676 21.6562 53.0721 21.6562C53.0766 21.6562 53.0901 21.6412 53.0811 21.6082C53.0753 21.588 53.0625 21.5705 53.0451 21.5587C53.0334 21.5506 53.0202 21.545 53.0063 21.5422C52.9924 21.5393 52.978 21.5393 52.9641 21.5422C52.9307 21.5509 52.9001 21.568 52.8751 21.5919C52.8502 21.6158 52.8318 21.6457 52.8216 21.6787C52.7909 21.7527 52.7786 21.8329 52.7856 21.9127C52.7865 21.9864 52.809 22.0583 52.8503 22.1194C52.8916 22.1804 52.95 22.228 53.0181 22.2562C53.0405 22.2614 53.0637 22.2614 53.0861 22.2562C53.1085 22.251 53.1293 22.2407 53.1471 22.2262C53.1726 22.1992 53.1756 22.1857 53.1726 22.1842Z" fill="#EB996E"/>
<path d="M56.9002 20.233C56.8473 20.2508 56.7923 20.2613 56.7367 20.2645C56.919 20.1688 57.0689 20.0211 57.1672 19.84C57.239 19.715 57.2768 19.5733 57.2768 19.429C57.2768 19.2848 57.239 19.1431 57.1672 19.018C57.0897 18.8971 56.9705 18.8088 56.8322 18.7701C56.6939 18.7314 56.5461 18.7449 56.4172 18.808C56.4668 18.7048 56.4773 18.5871 56.4467 18.4767C56.4161 18.3664 56.3464 18.2709 56.2507 18.208C56.1511 18.149 56.0396 18.1131 55.9243 18.103C55.809 18.0929 55.693 18.1088 55.5847 18.1495C55.3686 18.2328 55.1664 18.3481 54.9847 18.4915C54.9711 18.4139 54.939 18.3407 54.8913 18.2781C54.8435 18.2154 54.7814 18.1652 54.7101 18.1315C54.5669 18.065 54.4065 18.0446 54.2511 18.073C54.0255 18.1117 53.8171 18.2188 53.6542 18.3797C53.4914 18.5407 53.3819 18.7478 53.3406 18.973C53.2698 18.9004 53.1815 18.8473 53.0842 18.8187C52.9869 18.7901 52.8838 18.787 52.785 18.8097C52.6862 18.8325 52.5948 18.8803 52.5198 18.9486C52.4448 19.0168 52.3886 19.1033 52.3566 19.1995C52.3573 19.2065 52.3573 19.2135 52.3566 19.2205C52.2667 19.2595 52.1912 19.3256 52.1406 19.4095C52.098 19.4812 52.0717 19.5613 52.0637 19.6443C52.0556 19.7273 52.066 19.811 52.0941 19.8895C52.1516 20.0437 52.2567 20.1756 52.3941 20.266C52.4468 20.3031 52.4934 20.3481 52.5322 20.3995C52.5618 20.4444 52.5799 20.4959 52.5847 20.5495C52.5712 20.8735 52.4061 21.1795 52.3251 21.4975C52.2141 21.9385 52.4586 22.54 52.5996 22.972C52.7406 23.404 52.7901 23.572 53.0646 23.6065L53.1066 22.4455C52.8066 22.6915 52.4062 21.8455 52.6687 21.508C52.9312 21.1705 53.2102 21.286 53.2582 21.499C53.2767 21.5809 53.3003 21.6615 53.3287 21.7405H53.6287L53.5957 21.487C53.5957 21.487 53.5341 20.3605 54.0726 20.287C54.2132 20.2572 54.3599 20.2842 54.4806 20.362C54.6542 20.4319 54.8421 20.4582 55.0281 20.4385C55.2201 20.4385 55.4781 20.2195 55.4781 20.029C55.588 20.1572 55.7272 20.257 55.8839 20.3199C56.0406 20.3829 56.2101 20.4071 56.3781 20.3905C56.465 20.3814 56.5503 20.3608 56.6316 20.329C56.7331 20.3571 56.8407 20.3545 56.9406 20.3215C57.0436 20.2881 57.1337 20.2237 57.1986 20.137C57.2466 20.0695 57.2556 20.0185 57.2466 20.014C57.1479 20.1106 57.0298 20.1852 56.9002 20.233ZM52.4302 20.197C52.308 20.1121 52.2148 19.9916 52.1632 19.852C52.1388 19.7843 52.1293 19.7122 52.1353 19.6405C52.1412 19.5689 52.1625 19.4993 52.1976 19.4365C52.2292 19.3763 52.275 19.3248 52.3312 19.2865C52.2802 19.627 52.5022 19.972 52.5607 20.3275C52.5246 20.2792 52.4827 20.2354 52.4361 20.197H52.4302Z" fill="#2D3133"/>
<path d="M62.0571 21.6417V23.5752C62.0571 23.7856 62.1407 23.9875 62.2895 24.1363C62.4384 24.2851 62.6402 24.3687 62.8506 24.3687H66.2001V25.4742L66.8001 24.4167C66.9779 24.4038 67.1441 24.3241 67.2655 24.1935C67.3868 24.063 67.4542 23.8914 67.4541 23.7132V21.6417C67.4539 21.5367 67.4329 21.4328 67.3923 21.336C67.3517 21.2392 67.2923 21.1515 67.2175 21.0778C67.1427 21.0042 67.0541 20.9461 66.9567 20.9069C66.8593 20.8677 66.7551 20.8483 66.6501 20.8497H62.8506C62.6404 20.8497 62.4388 20.9331 62.2901 21.0816C62.1413 21.23 62.0575 21.4315 62.0571 21.6417Z" fill="#FAD3CA"/>
<path d="M63.8796 22.7108C63.8796 22.7755 63.8604 22.8387 63.8245 22.8925C63.7885 22.9462 63.7375 22.9881 63.6777 23.0129C63.618 23.0376 63.5522 23.0441 63.4888 23.0315C63.4254 23.0189 63.3671 22.9877 63.3214 22.942C63.2756 22.8963 63.2445 22.838 63.2319 22.7746C63.2193 22.7112 63.2257 22.6454 63.2505 22.5857C63.2752 22.5259 63.3171 22.4748 63.3709 22.4389C63.4247 22.403 63.4879 22.3838 63.5526 22.3838C63.6393 22.3838 63.7225 22.4182 63.7838 22.4796C63.8451 22.5409 63.8796 22.6241 63.8796 22.7108Z" fill="white"/>
<path d="M65.1215 22.7108C65.1215 22.7755 65.1024 22.8387 65.0664 22.8925C65.0305 22.9462 64.9794 22.9881 64.9197 23.0129C64.8599 23.0376 64.7942 23.0441 64.7307 23.0315C64.6673 23.0189 64.609 22.9877 64.5633 22.942C64.5176 22.8963 64.4864 22.838 64.4738 22.7746C64.4612 22.7112 64.4677 22.6454 64.4924 22.5857C64.5172 22.5259 64.5591 22.4748 64.6129 22.4389C64.6666 22.403 64.7299 22.3838 64.7945 22.3838C64.8813 22.3838 64.9644 22.4182 65.0258 22.4796C65.0871 22.5409 65.1215 22.6241 65.1215 22.7108Z" fill="white"/>
<path d="M66.3635 22.7108C66.3635 22.7755 66.3443 22.8387 66.3084 22.8925C66.2724 22.9462 66.2214 22.9881 66.1616 23.0129C66.1019 23.0376 66.0361 23.0441 65.9727 23.0315C65.9092 23.0189 65.851 22.9877 65.8052 22.942C65.7595 22.8963 65.7284 22.838 65.7158 22.7746C65.7031 22.7112 65.7096 22.6454 65.7344 22.5857C65.7591 22.5259 65.801 22.4748 65.8548 22.4389C65.9086 22.403 65.9718 22.3838 66.0365 22.3838C66.1232 22.3838 66.2064 22.4182 66.2677 22.4796C66.329 22.5409 66.3635 22.6241 66.3635 22.7108Z" fill="white"/>
<path d="M64.7 27.3879C64.6325 27.2379 60.3725 30.9984 59.5235 31.1274L57.0395 27.8904C57.0395 27.8904 56.5235 27.0729 55.415 25.6719C54.701 24.7719 52.7285 24.9549 52.2095 26.0574C51.329 27.9279 51.299 30.4074 50.618 34.3914L50.042 37.7709C50.042 37.7709 50.8925 37.6704 50.8895 37.6779L56.9375 37.0494L57.0875 32.9994C58.2875 34.2114 58.6535 34.4649 59.276 34.3689C60.8405 34.1259 66.314 29.2029 66.314 29.2029C66.314 29.2029 64.766 27.5409 64.7 27.3879Z" fill="#455A64"/>
<path d="M65.5761 29.8916C65.4669 29.8251 65.3661 29.7456 65.2761 29.6546C64.8082 29.2391 64.4003 28.7605 64.0641 28.2326C63.9883 28.127 63.9263 28.012 63.8796 27.8906C63.9608 27.988 64.0345 28.0913 64.1001 28.1996C64.2381 28.3931 64.4346 28.6571 64.6701 28.9331C64.9056 29.2091 65.1336 29.4446 65.3031 29.6126C65.4017 29.6979 65.493 29.7912 65.5761 29.8916Z" fill="#263238"/>
<path d="M59.282 32.4104C59.3077 31.9755 59.3842 31.5451 59.51 31.1279C59.4862 31.5631 59.4097 31.9937 59.282 32.4104Z" fill="#263238"/>
<path d="M59.825 32.2761C59.7372 32.0998 59.6731 31.9127 59.6345 31.7196C59.5702 31.5337 59.5313 31.3399 59.519 31.1436C59.6061 31.3201 59.6702 31.5072 59.7095 31.7001C59.7731 31.8862 59.8119 32.0798 59.825 32.2761Z" fill="#263238"/>
<path opacity="0.2" d="M53.876 28.75L57.0245 34.702L57.095 32.9365L53.876 28.75Z" fill="black"/>
<path d="M53.6721 28.4609C53.7271 28.5166 53.7773 28.5768 53.8221 28.6409L54.1971 29.1434C54.5136 29.5694 54.9561 30.1529 55.4526 30.7934L56.7276 32.4269L57.1101 32.9249C57.1594 32.9841 57.2036 33.0473 57.2421 33.1139C57.1876 33.0616 57.1374 33.0049 57.0921 32.9444C56.9886 32.8184 56.8536 32.6564 56.6901 32.4614C56.3541 32.0504 55.8936 31.4804 55.3971 30.8414C54.9006 30.2024 54.4641 29.6114 54.1581 29.1779C54.0081 28.9604 53.8836 28.7834 53.8026 28.6589C53.7532 28.597 53.7095 28.5307 53.6721 28.4609Z" fill="#263238"/>
<path d="M53.771 30.3202C53.7453 30.2621 53.7267 30.2012 53.7155 30.1387C53.6855 30.0202 53.6465 29.8507 53.6 29.6422L53.6465 29.6647L53.027 29.9992L52.985 30.0217L52.9715 29.9752C52.949 29.8942 52.925 29.8087 52.8995 29.7217L52.7915 29.3332L52.847 29.3557L52.2365 29.6992L52.199 29.7202V29.6782C52.1635 29.4931 52.1424 29.3055 52.136 29.1172C52.1903 29.2978 52.2304 29.4824 52.256 29.6692L52.2125 29.6482L52.8125 29.2897L52.8545 29.2642L52.868 29.3122C52.9025 29.4367 52.94 29.5672 52.9775 29.7007C53.003 29.7877 53.027 29.8732 53.0495 29.9542L52.994 29.9317L53.6195 29.6062L53.657 29.5852L53.6645 29.6272C53.7035 29.8357 53.735 30.0082 53.753 30.1282C53.7671 30.1912 53.7731 30.2557 53.771 30.3202Z" fill="#263238"/>
<path d="M54.5106 26.9558C54.4507 26.9329 54.3943 26.9021 54.3426 26.8643C54.2391 26.7998 54.0936 26.7053 53.9166 26.5883L53.9646 26.5718C53.9016 26.7713 53.8311 26.9993 53.7546 27.2438L53.7396 27.2903L53.6976 27.2663L53.4696 27.1328L53.1216 26.9288L53.1771 26.9063L52.9776 27.5783L52.9656 27.6188L52.9326 27.5933C52.7786 27.4845 52.6332 27.3642 52.4976 27.2333C52.6615 27.3261 52.8185 27.4309 52.9671 27.5468L52.9221 27.5618C52.9746 27.3638 53.0361 27.1358 53.1036 26.8868L53.1171 26.8388L53.1591 26.8643L53.5086 27.0653L53.7366 27.1988L53.6811 27.2198L53.9001 26.5493L53.9151 26.5088L53.9496 26.5328C54.1221 26.6558 54.2631 26.7578 54.3606 26.8328C54.4154 26.8675 54.4658 26.9088 54.5106 26.9558Z" fill="#263238"/>
<path d="M56.7199 28.1121C56.6672 28.0758 56.6193 28.033 56.5774 27.9846C56.4904 27.8991 56.3674 27.7746 56.2204 27.6216H56.2714C56.1664 27.8031 56.0464 28.0086 55.9189 28.2321L55.8949 28.2726L55.8589 28.2396L55.6654 28.0611L55.3654 27.7866L55.4254 27.7761C55.2994 28.0026 55.1839 28.2081 55.0834 28.3866L55.0624 28.4241L55.0354 28.3926C54.9093 28.2514 54.794 28.101 54.6904 27.9426C54.8303 28.0688 54.9606 28.2052 55.0804 28.3506H55.0324L55.3579 27.7311L55.3819 27.6876L55.4179 27.7206L55.7179 27.9951L55.9099 28.1751H55.8514L56.2144 27.5751L56.2369 27.5391L56.2654 27.5706C56.4154 27.7206 56.5234 27.8586 56.6014 27.9516C56.6482 27.9993 56.6881 28.0533 56.7199 28.1121Z" fill="#E0E0E0"/>
<path d="M62.5461 31.8998C62.5461 31.8998 62.4951 31.8518 62.4201 31.7573C62.3451 31.6628 62.2386 31.5233 62.1126 31.3523H62.1636L61.7376 31.9133L61.7076 31.9508L61.6776 31.9148L61.5066 31.7123L61.2501 31.4033H61.3101L60.8946 31.9658L60.8691 32.0003L60.8466 31.9658C60.7393 31.811 60.6435 31.6486 60.5601 31.4798C60.683 31.6209 60.7948 31.7714 60.8946 31.9298H60.8466C60.9651 31.7633 61.1001 31.5698 61.2486 31.3568L61.2771 31.3178L61.3086 31.3553L61.5681 31.6643L61.7376 31.8668H61.6776L62.1141 31.3148L62.1411 31.2803L62.1651 31.3148C62.2866 31.4903 62.3841 31.6343 62.4516 31.7363C62.4889 31.7872 62.5206 31.842 62.5461 31.8998Z" fill="#263238"/>
<path d="M58.9384 31.5974C58.8845 31.5666 58.8342 31.5299 58.7884 31.4879C58.6924 31.4129 58.5559 31.3034 58.3924 31.1699L58.4419 31.1579L58.1569 31.7999L58.1389 31.8434L58.0999 31.8149L57.8854 31.6649L57.5599 31.4249L57.6184 31.4084C57.5194 31.6484 57.4294 31.8584 57.3499 32.0549L57.3334 32.0954L57.3034 32.0654C57.1615 31.9421 57.0296 31.8076 56.9089 31.6634C57.0623 31.7723 57.2073 31.8926 57.3424 32.0234L57.2959 32.0339C57.3694 31.8419 57.4549 31.6214 57.5479 31.3814L57.5659 31.3349L57.6049 31.3634L57.9319 31.6004L58.1449 31.7504L58.0864 31.7669L58.3774 31.1249L58.3954 31.0859L58.4269 31.1129C58.5859 31.2539 58.7164 31.3694 58.8064 31.4519C58.8964 31.5344 58.9429 31.5914 58.9384 31.5974Z" fill="#E0E0E0"/>
<path d="M64.1 30.7497C64.0796 30.6894 64.0665 30.627 64.061 30.5637C64.043 30.4422 64.019 30.2637 63.992 30.0597L64.037 30.0852L63.389 30.3642L63.3455 30.3822L63.3365 30.3357C63.3215 30.2517 63.305 30.1647 63.2885 30.0762C63.263 29.9382 63.239 29.8062 63.2165 29.6787L63.269 29.7057L62.6315 29.9997L62.5925 30.0162V29.9742C62.5741 29.7867 62.5706 29.5981 62.582 29.4102C62.6193 29.5951 62.6418 29.7827 62.6495 29.9712L62.609 29.9457L63.2405 29.6457L63.284 29.6232L63.293 29.6727C63.317 29.8002 63.3425 29.9322 63.368 30.0687C63.3845 30.1587 63.3995 30.2457 63.4145 30.3282L63.362 30.2997L64.0145 30.0342L64.055 30.0177V30.0597C64.0745 30.2712 64.0895 30.4452 64.097 30.5667C64.1049 30.6273 64.1059 30.6887 64.1 30.7497Z" fill="#E0E0E0"/>
<path d="M56.909 29.1504C56.8599 29.1893 56.8066 29.2225 56.75 29.2494C56.645 29.3094 56.492 29.3994 56.3 29.4939L56.309 29.4429L56.7995 29.9484L56.8325 29.9829L56.792 30.0084L56.567 30.1449L56.222 30.3549V30.2949L56.717 30.7899L56.747 30.8214L56.708 30.8379C56.5392 30.9213 56.3642 30.9916 56.1845 31.0479C56.3443 30.9477 56.5113 30.8595 56.684 30.7839L56.6765 30.8319L56.1695 30.3489L56.1335 30.3159L56.1755 30.2904L56.5205 30.0789L56.7455 29.9424V30.0009C56.57 29.8149 56.4065 29.6394 56.264 29.4864L56.234 29.4549L56.273 29.4369C56.4635 29.3439 56.621 29.2674 56.7305 29.2179C56.7868 29.1875 56.8468 29.1648 56.909 29.1504Z" fill="#263238"/>
<path d="M59.6614 32.4102C59.6123 32.451 59.5584 32.4857 59.5009 32.5137C59.3959 32.5737 59.2429 32.6637 59.0509 32.7567L59.0584 32.7072L59.5504 33.2127L59.5834 33.2457L59.5429 33.2712L59.3179 33.4092L58.9714 33.6177L58.9789 33.5592L59.4739 34.0542L59.5039 34.0842L59.4649 34.1007C59.2958 34.1838 59.1208 34.2545 58.9414 34.3122C59.1041 34.2121 59.2741 34.1244 59.4499 34.0497L59.4409 34.0977L58.9354 33.6147L58.8994 33.5802L58.9414 33.5547L59.2849 33.3447L59.5114 33.2067L59.5039 33.2667L59.0224 32.7522L58.9924 32.7207L59.0299 32.7027C59.2204 32.6082 59.3779 32.5332 59.4889 32.4822C59.5431 32.4508 59.601 32.4266 59.6614 32.4102Z" fill="#E0E0E0"/>
<path d="M54.2 32.367C54.1749 32.3082 54.1563 32.2468 54.1445 32.184C54.1145 32.0655 54.0755 31.896 54.029 31.689L54.0755 31.71L53.45 32.0475L53.408 32.0715L53.396 32.025C53.372 31.9425 53.348 31.857 53.324 31.77C53.2865 31.6365 53.249 31.506 53.2145 31.3815L53.27 31.404L52.661 31.7475L52.6235 31.7685V31.7265C52.5891 31.5418 52.568 31.3548 52.5605 31.167C52.6152 31.347 52.6553 31.5311 52.6805 31.7175L52.637 31.6965L53.237 31.338L53.279 31.314L53.2925 31.3605C53.327 31.485 53.3645 31.6155 53.4035 31.749L53.474 32.004L53.4185 31.98L54.044 31.6545L54.0815 31.635L54.0905 31.6755C54.1295 31.884 54.1595 32.0565 54.179 32.1765C54.1936 32.2389 54.2006 32.3029 54.2 32.367Z" fill="#E0E0E0"/>
<path d="M56.6989 33.783C56.6735 33.7243 56.6548 33.6629 56.6434 33.6C56.6134 33.4815 56.5744 33.312 56.5279 33.105L56.5744 33.126L55.9564 33.4635L55.9144 33.4875L55.9009 33.441C55.8769 33.3585 55.8529 33.273 55.8289 33.1875C55.7914 33.0525 55.7554 32.922 55.7194 32.7975L55.7749 32.82L55.1659 33.1635L55.1284 33.1845V33.144C55.094 32.9588 55.0729 32.7713 55.0654 32.583C55.1198 32.7631 55.16 32.9471 55.1854 33.1335L55.1419 33.114L55.7419 32.7555L55.7839 32.73L55.7974 32.778C55.8334 32.9025 55.8694 33.0315 55.9084 33.165L55.9789 33.42L55.9249 33.396L56.5489 33.0705L56.5879 33.051L56.5954 33.0915C56.6344 33.3 56.6644 33.4725 56.6839 33.5925C56.6974 33.6551 56.7024 33.7191 56.6989 33.783Z" fill="#263238"/>
<path d="M53.0314 36.8991C53.0058 36.841 52.9871 36.7801 52.9759 36.7176C52.9459 36.5991 52.9069 36.4296 52.8604 36.2226L52.9069 36.2436L52.2889 36.5811L52.2469 36.6036L52.2334 36.5571C52.2094 36.4761 52.1854 36.3906 52.1614 36.3036L52.0534 35.9151L52.1074 35.9376L51.4999 36.2871L51.4624 36.3081V36.2661C51.4278 36.0809 51.4068 35.8934 51.3994 35.7051C51.4537 35.8857 51.4938 36.0702 51.5194 36.2571L51.4759 36.2361L52.0759 35.8776L52.1179 35.8521L52.1314 35.9001C52.1674 36.0246 52.2034 36.1551 52.2424 36.2886L52.3129 36.5421L52.2589 36.5196L52.8829 36.1941L52.9219 36.1731L52.9294 36.2151C52.9684 36.4236 52.9984 36.5961 53.0179 36.7161C53.0312 36.7761 53.0358 36.8377 53.0314 36.8991Z" fill="#E0E0E0"/>
<path d="M53.1035 33.6285C53.0466 33.5993 52.9937 33.563 52.946 33.5205C52.8485 33.4485 52.7105 33.3405 52.5455 33.207L52.595 33.195L52.3235 33.846L52.3055 33.8895L52.2665 33.861C52.196 33.813 52.124 33.7605 52.0505 33.711L51.7235 33.4755L51.7805 33.459L51.5195 34.1085L51.503 34.1475L51.473 34.119C51.3303 33.9961 51.1965 33.8633 51.0725 33.7215C51.2281 33.8277 51.3751 33.9461 51.512 34.0755L51.4655 34.0875C51.536 33.8955 51.6155 33.6735 51.71 33.432L51.7265 33.3855L51.767 33.414L52.1 33.645L52.3145 33.795L52.2575 33.81L52.541 33.165L52.559 33.126L52.5905 33.153C52.751 33.2925 52.883 33.4065 52.973 33.489C53.0218 33.5302 53.0656 33.577 53.1035 33.6285Z" fill="#263238"/>
<path d="M54.4115 33.7168C54.3664 33.7609 54.3161 33.7992 54.2615 33.8308C54.161 33.8983 54.014 33.9928 53.834 34.1053V34.0543L54.3605 34.5238L54.395 34.5568L54.356 34.5838L54.1415 34.7338L53.8115 34.9663V34.9078L54.35 35.3698L54.3815 35.3983L54.3455 35.4178C54.1825 35.5126 54.0125 35.5948 53.837 35.6638C53.9895 35.5523 54.15 35.4521 54.317 35.3638V35.4118L53.777 34.9618L53.7395 34.9303L53.78 34.9018L54.1085 34.6678L54.323 34.5178V34.5778L53.807 34.0993L53.7755 34.0693L53.8115 34.0483C53.9945 33.9418 54.146 33.8548 54.254 33.7963C54.303 33.7633 54.3559 33.7366 54.4115 33.7168Z" fill="#263238"/>
<path d="M55.8501 34.7395C55.822 34.7968 55.7867 34.8502 55.7451 34.8985C55.6731 34.9975 55.5666 35.1355 55.4361 35.3035L55.4241 35.254L56.0781 35.5165L56.1216 35.533L56.0946 35.5735L55.9446 35.791L55.7136 36.1225L55.6956 36.064L56.3481 36.316L56.3886 36.3325L56.3601 36.3625C56.24 36.5077 56.1086 36.6431 55.9671 36.7675C56.0728 36.6118 56.1896 36.4639 56.3166 36.325L56.3286 36.3715L55.6701 36.136L55.6236 36.1195L55.6521 36.079C55.7241 35.9725 55.8021 35.8615 55.8801 35.746C55.9326 35.6725 55.9821 35.596 56.0301 35.53L56.0466 35.587L55.4001 35.3125L55.3611 35.296L55.3881 35.263C55.5246 35.0995 55.6371 34.963 55.7181 34.876C55.7991 34.789 55.8501 34.735 55.8501 34.7395Z" fill="#E0E0E0"/>
<path d="M55.0341 37.1846C55.0341 37.1846 55.0341 37.2011 55.0506 37.2341C55.0671 37.2671 55.0761 37.3196 55.0941 37.3841C55.1301 37.5146 55.1841 37.7081 55.2441 37.9586C55.3041 38.2091 55.3806 38.5151 55.4331 38.8796C55.4688 39.0783 55.4421 39.2832 55.3566 39.4661C55.2616 39.6688 55.1316 39.8531 54.9726 40.0106V39.9851C55.3656 41.8511 55.9161 44.4656 56.5266 47.3576C57.1191 50.2076 57.6486 52.7801 58.0266 54.6476C58.2141 55.5806 58.3626 56.3366 58.4601 56.8601C58.5096 57.1211 58.5456 57.3251 58.5681 57.4601C58.5845 57.5299 58.5926 57.6014 58.5921 57.6731C58.5921 57.6731 58.5801 57.6011 58.5531 57.4631C58.5261 57.3251 58.4826 57.1196 58.4301 56.8631C58.3206 56.3366 58.1646 55.5836 57.9726 54.6551C57.5826 52.7876 57.0471 50.2136 56.4546 47.3711C55.8546 44.4761 55.3116 41.8601 54.9246 39.9941V39.9791L54.9351 39.9686C55.2531 39.6491 55.4676 39.2456 55.3851 38.8826C55.3371 38.5211 55.2636 38.2121 55.2081 37.9616C55.1526 37.7111 55.1046 37.5221 55.0716 37.3856L55.0356 37.2356C55.0331 37.2187 55.0326 37.2016 55.0341 37.1846Z" fill="#455A64"/>
<path d="M51.8751 37.5449C51.8751 37.5449 51.8991 37.5779 51.9216 37.6469C51.9536 37.744 51.9728 37.8449 51.9786 37.9469C52.0034 38.2896 51.9 38.6293 51.6885 38.9001C51.4771 39.1709 51.1725 39.3535 50.8341 39.4124C50.7352 39.4308 50.6344 39.4369 50.5341 39.4304C50.4966 39.4311 50.4594 39.4245 50.4246 39.4109C50.4246 39.3959 50.5836 39.4109 50.8281 39.3584C51.1469 39.2883 51.4312 39.1091 51.632 38.8516C51.8327 38.5942 51.9373 38.2747 51.9276 37.9484C51.918 37.813 51.9005 37.6783 51.8751 37.5449Z" fill="#455A64"/>
<path d="M54.3875 37.7054C54.3875 37.7054 54.3875 37.6829 54.4235 37.6634C54.4459 37.6504 54.4708 37.642 54.4965 37.6386C54.5222 37.6353 54.5484 37.6371 54.5735 37.6439C54.6123 37.6534 54.6473 37.6744 54.674 37.7041C54.7008 37.7338 54.718 37.7708 54.7235 37.8104C54.7307 37.86 54.7212 37.9106 54.6965 37.9542C54.6717 37.9978 54.633 38.0319 54.5867 38.0511C54.5403 38.0702 54.4889 38.0733 54.4405 38.0598C54.3922 38.0464 54.3498 38.0172 54.32 37.9769C54.2954 37.9456 54.2801 37.9082 54.2756 37.8687C54.2711 37.8293 54.2776 37.7893 54.2945 37.7534C54.356 37.6319 54.455 37.6289 54.452 37.6379C54.449 37.6469 54.38 37.6739 54.347 37.7729C54.3372 37.7995 54.3347 37.8283 54.3397 37.8562C54.3447 37.8841 54.3571 37.9103 54.3755 37.9319C54.3978 37.9571 54.427 37.9752 54.4595 37.984C54.4921 37.9928 54.5265 37.9919 54.5585 37.9814C54.5885 37.9669 54.6135 37.9437 54.6301 37.9148C54.6467 37.8859 54.6541 37.8526 54.6515 37.8194C54.6494 37.7915 54.639 37.7648 54.6216 37.7429C54.6043 37.7209 54.5807 37.7047 54.554 37.6964C54.4989 37.6815 54.4406 37.6847 54.3875 37.7054Z" fill="#455A64"/>
<path d="M57.5586 38.0384C57.473 38.0987 57.3721 38.1336 57.2676 38.1389C57.0154 38.1767 56.758 38.1215 56.5435 37.9835C56.329 37.8455 56.1721 37.6341 56.1021 37.3889C56.066 37.2932 56.0561 37.1896 56.0736 37.0889C56.0871 37.0889 56.0901 37.2059 56.1531 37.3784C56.2325 37.6036 56.3844 37.7962 56.585 37.926C56.7856 38.0557 57.0235 38.1153 57.2616 38.0954C57.4446 38.0714 57.5541 38.0264 57.5586 38.0384Z" fill="#455A64"/>
<path d="M59.2054 60.9718C59.1566 60.9852 59.1061 60.9913 59.0554 60.9898L58.6474 61.0123L57.2974 61.0768L55.9474 61.1473L55.5379 61.1638C55.4882 61.1708 55.4377 61.1708 55.3879 61.1638C55.4363 61.1473 55.4869 61.1382 55.5379 61.1368C55.6324 61.1248 55.7719 61.1098 55.9444 61.0948C56.2879 61.0633 56.7649 61.0288 57.2944 61.0018C57.8239 60.9748 58.2994 60.9628 58.6444 60.9613C58.8169 60.9613 58.9564 60.9613 59.0539 60.9613C59.1047 60.9578 59.1557 60.9613 59.2054 60.9718Z" fill="#455A64"/>
<path d="M52.358 39.2559C52.379 39.2559 53.5579 44.1204 54.9964 50.1309C56.4349 56.1414 57.5795 61.0209 57.5585 61.0254C57.5375 61.0299 56.3584 56.1624 54.9199 50.1489C53.4814 44.1354 52.337 39.2604 52.358 39.2559Z" fill="#455A64"/>
<path d="M56.1965 39.4492C56.2068 39.4591 56.2159 39.4702 56.2235 39.4822L56.297 39.5797L56.576 39.9622L57.587 41.3737L59.0795 43.4737L59.957 44.7172C60.257 45.1492 60.557 45.6337 60.6365 46.2037C60.716 46.7737 60.5495 47.3242 60.377 47.8177C60.2045 48.3112 60.0155 48.7912 59.8415 49.2427C59.4905 50.1427 59.1575 50.9557 58.868 51.6292C58.5785 52.3027 58.334 52.8442 58.163 53.2162L57.9605 53.6437L57.9065 53.7532C57.893 53.7772 57.887 53.7907 57.8855 53.7892C57.8881 53.7756 57.8926 53.7625 57.899 53.7502C57.911 53.7202 57.9275 53.6827 57.947 53.6362L58.1345 53.2042C58.298 52.8277 58.535 52.2832 58.817 51.6082C59.099 50.9332 59.4275 50.1232 59.774 49.2172C59.9465 48.7672 60.125 48.2887 60.3035 47.7922C60.482 47.2957 60.638 46.7632 60.56 46.2142C60.482 45.6652 60.1865 45.1912 59.894 44.7607L59.021 43.5157L57.542 41.3992L56.5505 39.9727L56.285 39.5827C56.2565 39.5407 56.234 39.5077 56.2175 39.4807C56.201 39.4537 56.195 39.4492 56.1965 39.4492Z" fill="#455A64"/>
<path d="M63.8196 27.5407L67.1691 25.0957L67.3341 25.3582L64.0056 27.8332L63.8196 27.5407Z" fill="#263238"/>
<path d="M64.6475 27.466C64.6475 27.466 65.0975 26.296 65.198 26.047C65.2985 25.798 65.4695 25.3645 65.534 25.3555C65.5985 25.3465 65.834 25.3825 65.5265 26.1265C65.219 26.8705 65.888 26.416 65.888 26.416L66.533 25.954C66.533 25.954 67.043 27.478 66.7535 27.937C66.5256 28.2805 66.2697 28.6046 65.9885 28.906L64.6475 27.466Z" fill="#FFBE9D"/>
<path d="M22.1376 46.86C22.1811 46.6065 22.0851 45.6795 22.0851 45.6795C22.0851 45.6795 21.1131 45.576 21.0546 44.613C20.9961 43.65 21.0546 41.427 21.0546 41.427L22.8246 40.5615L24.7746 42.036L24.4746 46.8555L22.1376 46.86Z" fill="#B78876"/>
<path d="M21.323 43.038C21.323 43.0707 21.336 43.1019 21.359 43.125C21.3821 43.1481 21.4134 43.161 21.446 43.161C21.4786 43.161 21.5099 43.1481 21.533 43.125C21.556 43.1019 21.569 43.0707 21.569 43.038C21.569 43.0219 21.5658 43.0059 21.5596 42.991C21.5535 42.976 21.5444 42.9625 21.533 42.9511C21.5216 42.9396 21.508 42.9306 21.4931 42.9244C21.4781 42.9182 21.4621 42.915 21.446 42.915C21.4298 42.915 21.4139 42.9182 21.3989 42.9244C21.384 42.9306 21.3704 42.9396 21.359 42.9511C21.3476 42.9625 21.3385 42.976 21.3324 42.991C21.3262 43.0059 21.323 43.0219 21.323 43.038Z" fill="#263238"/>
<path d="M21.1431 42.9495C21.1581 42.9645 21.2496 42.888 21.3816 42.8805C21.5136 42.873 21.6141 42.9375 21.6291 42.9195C21.6441 42.9015 21.6186 42.882 21.5751 42.852C21.5165 42.8135 21.447 42.7951 21.3771 42.7995C21.3071 42.8043 21.2404 42.831 21.1866 42.876C21.1476 42.9105 21.1341 42.942 21.1431 42.9495Z" fill="#263238"/>
<path d="M22.8815 43.1386C22.9495 43.1386 23.0045 43.0835 23.0045 43.0156C23.0045 42.9476 22.9495 42.8926 22.8815 42.8926C22.8136 42.8926 22.7585 42.9476 22.7585 43.0156C22.7585 43.0835 22.8136 43.1386 22.8815 43.1386Z" fill="#263238"/>
<path d="M22.5771 42.9254C22.5936 42.9419 22.6836 42.8639 22.8171 42.8579C22.9506 42.8519 23.0496 42.9149 23.0631 42.8969C23.0766 42.8789 23.0541 42.8594 23.0106 42.8294C22.9519 42.7912 22.8825 42.7728 22.8126 42.7769C22.7424 42.7811 22.6756 42.808 22.6221 42.8534C22.5816 42.8879 22.5696 42.9194 22.5771 42.9254Z" fill="#263238"/>
<path d="M22.1211 44.034C22.0501 44.0155 21.977 44.0064 21.9036 44.007C21.8706 44.007 21.8376 43.9995 21.8301 43.9755C21.826 43.9383 21.8327 43.9008 21.8496 43.8675L21.9396 43.593C22.0256 43.3596 22.0933 43.1199 22.1421 42.876C22.0413 43.1032 21.9566 43.3373 21.8886 43.5765C21.8571 43.6725 21.8286 43.7655 21.8016 43.8525C21.781 43.896 21.7763 43.9453 21.7881 43.992C21.7932 44.0039 21.801 44.0144 21.8109 44.0228C21.8208 44.0311 21.8325 44.037 21.8451 44.04C21.864 44.0428 21.8832 44.0428 21.9021 44.04C21.9751 44.0468 22.0486 44.0448 22.1211 44.034Z" fill="#263238"/>
<path d="M22.5605 44.1602C22.3663 44.2831 22.1458 44.3586 21.917 44.3807C21.9657 44.4481 22.0358 44.4971 22.1158 44.5197C22.1959 44.5423 22.2812 44.5371 22.358 44.5052C22.6415 44.3867 22.5605 44.1602 22.5605 44.1602Z" fill="white"/>
<path d="M22.085 45.6791C22.543 45.6599 22.986 45.51 23.3615 45.2471C23.3615 45.2471 23.072 45.9551 22.106 45.9161L22.085 45.6791Z" fill="#A36957"/>
<path d="M26.0511 42.7503C26.0511 42.7503 26.4441 44.9718 24.5676 45.3723L24.6231 42.6963L26.0511 42.7503Z" fill="#263238"/>
<path d="M25.9895 42.2579C25.8724 41.7825 25.6533 41.3382 25.3475 40.9559C25.6175 41.0684 25.7975 41.1808 25.835 41.1448C25.8725 41.1088 25.8035 41.0414 25.685 40.9409C25.5311 40.8149 25.3551 40.7188 25.166 40.6573L25.0775 40.6334C25.2013 40.584 25.3144 40.5112 25.4105 40.4188C25.5255 40.3111 25.6051 40.1709 25.6386 40.0168C25.6721 39.8628 25.6579 39.7022 25.598 39.5563C25.5302 39.4324 25.4272 39.3313 25.302 39.2658C25.1768 39.2004 25.0349 39.1736 24.8945 39.1889C24.7549 39.2086 24.622 39.2608 24.5063 39.3413C24.3906 39.4218 24.2954 39.5283 24.2285 39.6524C24.1961 39.7117 24.1695 39.774 24.149 39.8383C24.1535 39.7318 24.1645 39.6256 24.182 39.5204C24.242 39.1499 24.38 38.8724 24.3575 38.8604C24.2152 39.0488 24.1266 39.2722 24.101 39.5069C24.101 39.5429 24.092 39.5773 24.0875 39.6118C24.058 39.516 24.0219 39.4222 23.9795 39.3313C23.888 39.1378 23.801 39.0314 23.7755 39.0479C23.723 39.0734 23.894 39.4798 23.9645 40.0288C23.7957 39.9727 23.6201 39.9399 23.4425 39.9313C23.1155 39.9313 22.5725 39.7814 21.8045 40.3979C21.5444 40.5639 21.3197 40.7795 21.143 41.0323C20.8892 41.4038 20.7461 41.8397 20.7305 42.2893C20.7258 42.4244 20.7344 42.5595 20.756 42.6928C20.7606 42.7421 20.7732 42.7902 20.7935 42.8354C20.8085 42.8354 20.765 42.6269 20.7935 42.2924C20.8103 42.0444 20.8655 41.8005 20.957 41.5694C20.8427 41.9693 20.8681 42.3963 21.029 42.7799L22.7465 42.5114C22.6355 42.1349 22.7165 41.5379 22.769 41.2454C23.069 42.6479 24.2765 43.3214 24.2765 43.3214L26.084 43.0379C26.0585 42.8744 26.0285 42.4049 25.9895 42.2579Z" fill="#263238"/>
<path d="M30.1475 63.741C30.203 63.768 34.634 64.641 34.4705 64.041C34.307 63.441 30.1865 62.499 30.1865 62.499L30.1475 63.741Z" fill="#19BBBB"/>
<path d="M32.162 63.3496C32.183 63.3496 32.2145 63.4516 32.213 63.5851C32.2115 63.7186 32.18 63.8236 32.159 63.8206C32.138 63.8176 32.1335 63.7126 32.135 63.5851C32.1365 63.4576 32.141 63.3511 32.162 63.3496Z" fill="#263238"/>
<path d="M31.9266 63.2686C31.9461 63.2686 31.9851 63.3871 31.9701 63.5431C31.9551 63.6991 31.8996 63.8131 31.8801 63.8056C31.8606 63.7981 31.8801 63.6811 31.8921 63.5356C31.9041 63.3901 31.9041 63.2716 31.9266 63.2686Z" fill="#263238"/>
<path d="M31.64 63.2441C31.661 63.2441 31.691 63.3611 31.694 63.5111C31.697 63.6611 31.6715 63.7811 31.6505 63.7796C31.6295 63.7781 31.619 63.6596 31.616 63.5126C31.613 63.3656 31.619 63.2456 31.64 63.2441Z" fill="#263238"/>
<path d="M31.1 62.8108C31.1232 62.8096 31.1465 62.8122 31.169 62.8183C31.214 62.8183 31.28 62.8393 31.364 62.8588C31.5335 62.8948 31.778 62.9533 32.0765 63.0358C32.375 63.1183 32.729 63.2218 33.116 63.3538C33.3095 63.4198 33.515 63.4873 33.716 63.5758C33.9339 63.6637 34.1341 63.7902 34.307 63.9493C34.3339 63.9709 34.3559 63.998 34.3715 64.0288C34.381 64.0507 34.3824 64.0752 34.3756 64.098C34.3687 64.1208 34.3539 64.1404 34.334 64.1533C34.2762 64.1833 34.2115 64.1973 34.1465 64.1938C34.031 64.2028 33.917 64.2073 33.806 64.2103C33.5825 64.2103 33.3665 64.2103 33.161 64.1938C32.7515 64.1683 32.3855 64.1173 32.0795 64.0693C31.7735 64.0213 31.5275 63.9733 31.358 63.9388L31.163 63.8983C31.1396 63.8952 31.1169 63.8886 31.0955 63.8788C31.1851 63.8818 31.2744 63.8918 31.3625 63.9088L32.087 64.0138C32.387 64.0558 32.759 64.1008 33.1655 64.1233C33.3695 64.1338 33.5825 64.1398 33.8045 64.1338C33.914 64.1338 34.028 64.1263 34.1405 64.1173C34.192 64.1203 34.2436 64.1105 34.2905 64.0888C34.304 64.0783 34.3055 64.0723 34.301 64.0588C34.2884 64.0385 34.2727 64.0202 34.2545 64.0048C34.0878 63.8524 33.8953 63.731 33.686 63.6463C33.485 63.5593 33.281 63.4963 33.086 63.4213C32.7005 63.2878 32.3495 63.1768 32.054 63.0883C31.7585 62.9998 31.5155 62.9383 31.349 62.8873C31.2644 62.8673 31.1812 62.8417 31.1 62.8108Z" fill="#263238"/>
<path d="M33.4535 63.4697C33.4745 63.4772 33.431 63.6452 33.4535 63.8522C33.476 64.0592 33.533 64.2197 33.512 64.2302C33.4321 64.1214 33.3848 63.9922 33.3755 63.8576C33.3662 63.723 33.3953 63.5884 33.4595 63.4697H33.4535Z" fill="#263238"/>
<path d="M15.5001 62.8633C15.4386 62.8633 10.9671 63.4798 11.3136 63.9823C11.6601 64.4848 15.8661 64.0438 15.8661 64.0438L15.5001 62.8633Z" fill="#19BBBB"/>
<path d="M13.715 63.8912C13.697 63.9002 13.6325 63.8102 13.5905 63.6842C13.5485 63.5582 13.55 63.4502 13.565 63.4502C13.58 63.4502 13.6235 63.5447 13.664 63.6662C13.7045 63.7877 13.7345 63.8807 13.715 63.8912Z" fill="#263238"/>
<path d="M13.9656 63.8897C13.9476 63.9002 13.8711 63.7967 13.8336 63.6452C13.7961 63.4937 13.8126 63.3662 13.8336 63.3662C13.8546 63.3662 13.8741 63.4847 13.9101 63.6257C13.9461 63.7667 13.9851 63.8792 13.9656 63.8897Z" fill="#263238"/>
<path d="M14.243 63.8187C14.2235 63.8277 14.1575 63.7242 14.105 63.5832C14.0525 63.4422 14.0375 63.3207 14.0585 63.3147C14.0795 63.3087 14.1275 63.4197 14.1785 63.5562C14.2295 63.6927 14.2625 63.8097 14.243 63.8187Z" fill="#263238"/>
<path d="M14.9001 64.0502C14.8785 64.0587 14.8557 64.0637 14.8326 64.0652L14.6346 64.0907C14.4621 64.1117 14.2131 64.1358 13.9041 64.1553C13.5951 64.1748 13.2261 64.1912 12.8166 64.1942C12.6111 64.1942 12.3966 64.1942 12.1716 64.1807C11.9372 64.1705 11.7067 64.1166 11.4921 64.0217C11.4592 64.0101 11.429 63.9917 11.4036 63.9678C11.3887 63.9495 11.3806 63.9268 11.3806 63.9032C11.3806 63.8797 11.3887 63.857 11.4036 63.8387C11.4478 63.7908 11.5044 63.756 11.5671 63.7383C11.6736 63.6918 11.7786 63.6512 11.8836 63.6107C12.0936 63.5342 12.3006 63.4712 12.4986 63.4157C12.8946 63.3062 13.2576 63.2357 13.5621 63.1817C13.8666 63.1277 14.1156 63.0917 14.2866 63.0692L14.4846 63.0438C14.5075 63.0401 14.5307 63.0401 14.5536 63.0438C14.4678 63.0701 14.38 63.0897 14.2911 63.1022L13.5726 63.2387C13.2726 63.3002 12.9096 63.3767 12.5226 63.4877C12.3261 63.5447 12.1221 63.6077 11.9226 63.6857C11.8191 63.7262 11.7141 63.7667 11.6091 63.8117C11.5602 63.8258 11.5154 63.8516 11.4786 63.8867C11.4696 63.9017 11.4696 63.9062 11.4786 63.9182C11.4974 63.9338 11.5187 63.946 11.5416 63.9542C11.7482 64.0435 11.9693 64.0944 12.1941 64.1042C12.4131 64.1222 12.6291 64.1208 12.8331 64.1223C13.2411 64.1223 13.6086 64.1132 13.9176 64.1012C14.2266 64.0892 14.4756 64.0712 14.6481 64.0607C14.7318 64.0517 14.816 64.0482 14.9001 64.0502Z" fill="#263238"/>
<path d="M12.4566 64.1999C12.4326 64.1999 12.4206 64.0274 12.3366 63.8369C12.2526 63.6464 12.1416 63.5144 12.1581 63.4994C12.1746 63.4844 12.3216 63.5969 12.4086 63.7994C12.4755 63.9218 12.4927 64.0652 12.4566 64.1999Z" fill="#263238"/>
<path d="M29.3645 57.4349H27.089L18.689 57.6524L16.289 57.3419C15.9155 57.2594 15.6695 57.2249 15.59 57.2504C15.2676 57.3848 14.9851 57.5997 14.7695 57.8744C13.8545 58.9664 14.4305 60.6494 15.8075 61.0244L17.1005 61.3754L14.2715 62.2844L15.227 64.9964C15.227 64.9964 19.451 64.0829 23.5475 63.1184L30.1025 64.8914L31.0475 61.8479L29.936 61.4864C30.6335 61.2734 31.0745 61.1054 31.136 61.0034C31.5485 60.3644 32.279 57.3929 29.354 57.4379" fill="#455A64"/>
<path opacity="0.2" d="M29.9002 61.4971L25.0282 63.5146L23.5552 63.1156L29.9002 61.4971Z" fill="black"/>
<path opacity="0.2" d="M17.1216 57.6631L23.3586 59.4496L28.1091 57.8296L17.1216 57.6631Z" fill="black"/>
<path d="M16.2335 64.8003C16.1539 64.6769 16.087 64.5457 16.034 64.4088C15.923 64.1613 15.779 63.8088 15.638 63.4248C15.497 63.0408 15.3815 62.6748 15.308 62.4168C15.2605 62.2779 15.2269 62.1347 15.2075 61.9893C15.2686 62.1219 15.3188 62.2594 15.3575 62.4003C15.4445 62.6568 15.566 63.0108 15.707 63.3978C15.848 63.7848 15.9845 64.1343 16.082 64.3863C16.143 64.5202 16.1936 64.6586 16.2335 64.8003Z" fill="#263238"/>
<path d="M31.2697 58.4455C31.2575 58.4528 31.2444 58.4583 31.2307 58.462L31.1137 58.5055L30.6637 58.6645L29.0002 59.2299C27.5887 59.7009 25.6357 60.3385 23.4712 61.018C21.3067 61.6975 19.3387 62.29 17.9122 62.71L16.2202 63.1989L15.7597 63.3264L15.6382 63.358C15.6246 63.3623 15.6105 63.3648 15.5962 63.3655L15.6367 63.3505L15.7552 63.3114L16.2052 63.169L17.8897 62.6559C19.3132 62.2239 21.2767 61.6225 23.4397 60.943C25.6027 60.2635 27.5587 59.6349 28.9732 59.1774L30.6502 58.636L31.1077 58.486L31.2262 58.45C31.2404 58.4463 31.2551 58.4448 31.2697 58.4455Z" fill="#263238"/>
<path d="M26.7276 58.3359C26.6973 58.3532 26.6651 58.3668 26.6316 58.3764L26.3526 58.4784C26.1096 58.5654 25.7526 58.6884 25.3176 58.8369C24.4416 59.1369 23.2281 59.5329 21.8856 59.9634C20.5431 60.3939 19.3221 60.7734 18.4356 61.0404C17.9856 61.1739 17.6331 61.2789 17.3856 61.3494L17.0991 61.4289C17.0656 61.4388 17.0315 61.4463 16.9971 61.4514C17.028 61.4352 17.0607 61.4226 17.0946 61.4139L17.3766 61.3209L18.4266 60.9879L21.8676 59.8899L25.3056 58.7844L26.3481 58.4499L26.6331 58.3614C26.6636 58.3496 26.6953 58.341 26.7276 58.3359Z" fill="#263238"/>
<path d="M23.3271 59.4393C23.3271 59.4603 21.9276 59.0793 20.2131 58.5888C18.4986 58.0983 17.1156 57.6888 17.1216 57.6633C17.1276 57.6378 18.5211 58.0233 20.2341 58.5138C21.9471 59.0043 23.3331 59.4183 23.3271 59.4393Z" fill="#263238"/>
<path d="M30.1387 61.6407C29.985 62.1469 29.8057 62.6451 29.6017 63.1332C29.2852 63.9492 29.0122 64.6032 28.9927 64.5957C29.146 64.0898 29.3253 63.5922 29.5297 63.1047C29.8462 62.2887 30.1192 61.6332 30.1387 61.6407Z" fill="#263238"/>
<path d="M29.5537 62.8975C29.1399 62.8261 28.7307 62.7305 28.3282 62.611C27.9211 62.5149 27.5203 62.3936 27.1282 62.248C27.542 62.3191 27.9512 62.4148 28.3537 62.5345C28.7608 62.6307 29.1615 62.752 29.5537 62.8975Z" fill="#263238"/>
<path d="M20.2237 60.4106C20.1451 60.4012 20.0674 60.3856 19.9912 60.3641L19.3642 60.2141C18.8362 60.0791 18.1057 59.8961 17.3092 59.6561C16.6264 59.4555 15.9575 59.2105 15.3067 58.9226C15.0592 58.8086 14.8567 58.7096 14.7277 58.6361C14.6559 58.6024 14.5876 58.5617 14.5237 58.5146C14.5985 58.5405 14.6712 58.5721 14.7412 58.6091C14.8792 58.6736 15.0787 58.7591 15.3292 58.8716C15.9836 59.1435 16.6521 59.3804 17.3317 59.5811C18.1267 59.8211 18.8542 60.0116 19.3792 60.1601L19.9987 60.3386C20.0759 60.3551 20.1513 60.3792 20.2237 60.4106Z" fill="#263238"/>
<path d="M24.8347 46.7259H24.6502L24.6232 46.0869L22.0897 46.2369C22.0897 46.2369 22.1152 46.5369 22.1137 46.7454C20.5537 46.8954 18.0532 47.6964 17.9932 51.2079L19.9942 51.2544C19.8247 52.8654 19.8442 53.8269 19.6807 54.4314C19.4017 55.4304 18.5182 57.5394 18.6952 57.6459C18.8722 57.7524 27.0832 57.9039 27.4747 57.6909C27.8662 57.4779 27.1537 54.7254 26.9752 53.9784C26.8627 53.5014 26.8387 52.4094 26.8357 51.5649L29.1337 51.4614C29.1337 51.4614 29.3002 46.7124 24.8347 46.7259Z" fill="#F5AAA3"/>
<path d="M24.6365 46.7011C24.5155 46.7369 24.3906 46.758 24.2645 46.7641C24.032 46.7911 23.711 46.8166 23.3555 46.8241C23 46.8316 22.679 46.8241 22.4465 46.8031C22.3201 46.801 22.1944 46.785 22.0715 46.7551C22.1965 46.7403 22.3226 46.7378 22.448 46.7476C22.6805 46.7476 23 46.7476 23.348 46.7476C23.696 46.7476 24.0215 46.7236 24.248 46.7116C24.3769 46.6957 24.507 46.6922 24.6365 46.7011Z" fill="#263238"/>
<path d="M22.55 46.2168C22.5725 46.2168 22.589 46.3398 22.589 46.4913C22.589 46.6428 22.5725 46.7673 22.55 46.7673C22.5275 46.7673 22.511 46.6443 22.511 46.4913C22.511 46.3383 22.5215 46.2168 22.55 46.2168Z" fill="#263238"/>
<path d="M23.2207 46.168C23.2417 46.168 23.2627 46.303 23.2672 46.468C23.2809 46.5689 23.2706 46.6717 23.2372 46.768C23.2147 46.768 23.1937 46.633 23.1892 46.468C23.175 46.3669 23.1858 46.2639 23.2207 46.168Z" fill="#263238"/>
<path d="M23.9197 46.1445C23.9407 46.1445 23.9707 46.2765 23.9737 46.4445C23.9767 46.6125 23.9542 46.7445 23.9317 46.7445C23.899 46.6481 23.8867 46.5459 23.8957 46.4445C23.9002 46.2825 23.9002 46.146 23.9197 46.1445Z" fill="#263238"/>
<path d="M24.4266 46.1201C24.4491 46.1201 24.4641 46.2521 24.4851 46.4126C24.5061 46.5731 24.5226 46.7051 24.5016 46.7126C24.4806 46.7201 24.4281 46.5911 24.4086 46.4231C24.3891 46.2551 24.4056 46.1186 24.4266 46.1201Z" fill="#263238"/>
<path d="M20.3106 51.2178C20.2702 50.9699 20.2551 50.7187 20.2656 50.4678C20.2497 50.2173 20.2607 49.9659 20.2986 49.7178C20.3382 49.9657 20.3533 50.2169 20.3436 50.4678C20.3576 50.7182 20.3465 50.9695 20.3106 51.2178Z" fill="#263238"/>
<path d="M26.75 51.4683C26.6893 51.2022 26.6531 50.9311 26.642 50.6583C26.6059 50.3874 26.5963 50.1136 26.6135 49.8408C26.7098 50.3779 26.7555 50.9227 26.75 51.4683Z" fill="#263238"/>
<path d="M20.3105 51.2171C20.1962 51.2323 20.0806 51.2358 19.9655 51.2276H19.139H18.311C18.1965 51.2358 18.0814 51.2323 17.9675 51.2171C18.0793 51.1884 18.1942 51.1738 18.3095 51.1736C18.521 51.1571 18.815 51.1451 19.139 51.1466C19.463 51.1481 19.757 51.1586 19.9685 51.1751C20.0838 51.1755 20.1986 51.1896 20.3105 51.2171Z" fill="#263238"/>
<path d="M29.1291 51.4675C28.7229 51.507 28.3145 51.52 27.9066 51.5065C27.4982 51.5201 27.0893 51.507 26.6826 51.4675C27.0894 51.4289 27.4982 51.4158 27.9066 51.4285C28.3145 51.4159 28.7228 51.4289 29.1291 51.4675Z" fill="#263238"/>
<path d="M29.0285 51.4873C29.0285 51.4873 29.6285 57.0868 27.9125 57.6373C26.1965 58.1878 22.8125 55.5808 22.8125 55.5808L23.7875 53.6068C23.7875 53.6068 26.0375 55.1698 26.5235 54.8173C27.0095 54.4648 26.756 51.4873 26.756 51.4873H29.0285Z" fill="#B78876"/>
<path d="M18.0216 51.2175C18.0216 51.2175 17.4111 56.76 19.1256 57.312C20.8401 57.864 24.2256 55.254 24.2256 55.254L23.2491 53.28C23.2491 53.28 20.9856 54.7275 20.5161 54.3615C20.2446 54.1485 20.2371 51.246 20.2371 51.246C19.4391 51.2115 18.6996 51.177 18.0216 51.2175Z" fill="#B78876"/>
<path d="M27.9607 52.3721L26.8221 57.9521C26.8221 57.9521 19.8262 57.8981 19.7542 57.8771C19.6822 57.8561 19.0042 52.3721 19.0042 52.3721H27.9607Z" fill="#263238"/>
<path d="M22.9355 55.2003C22.9298 55.2843 22.9495 55.3681 22.9921 55.4409C23.0346 55.5136 23.098 55.5718 23.1741 55.608C23.2501 55.6442 23.3353 55.6567 23.4186 55.6439C23.5019 55.631 23.5793 55.5934 23.6409 55.536C23.7026 55.4786 23.7455 55.4039 23.7641 55.3218C23.7828 55.2396 23.7763 55.1538 23.7455 55.0753C23.7148 54.9969 23.6611 54.9296 23.5916 54.882C23.522 54.8345 23.4398 54.809 23.3555 54.8088C23.2481 54.8055 23.1437 54.8448 23.065 54.9181C22.9864 54.9915 22.9398 55.0928 22.9355 55.2003Z" fill="white"/>
<path d="M24.4057 42.9569C24.469 42.9177 24.5411 42.8949 24.6155 42.8905C24.6898 42.886 24.7641 42.9001 24.8317 42.9314C24.918 43.001 24.9748 43.1007 24.9907 43.2104C25.0108 43.2992 25.0097 43.3915 24.9876 43.4799C24.9654 43.5682 24.9228 43.6501 24.8632 43.7189C24.801 43.7853 24.7178 43.8283 24.6277 43.8406C24.5375 43.8529 24.4459 43.8337 24.3682 43.7864" fill="#B78876"/>
<path d="M24.5855 43.6331C24.5855 43.6211 24.6335 43.6136 24.689 43.5716C24.7256 43.5478 24.7552 43.5147 24.7747 43.4757C24.7942 43.4366 24.803 43.3931 24.8 43.3496C24.7957 43.3066 24.7803 43.2654 24.7553 43.2302C24.7303 43.195 24.6966 43.1668 24.6575 43.1486C24.5945 43.1186 24.5465 43.1201 24.545 43.1081C24.5435 43.0961 24.593 43.0736 24.677 43.0946C24.7318 43.1108 24.7805 43.1431 24.8169 43.1873C24.8532 43.2315 24.8754 43.2856 24.8808 43.3426C24.8861 43.3995 24.8742 43.4568 24.8467 43.507C24.8192 43.5571 24.7773 43.5979 24.7265 43.6241C24.6395 43.6571 24.5855 43.6496 24.5855 43.6331Z" fill="#A36957"/>
</g>
<defs>
<clipPath id="clip0_1156_19080">
<rect width="80" height="80" rx="40" fill="white"/>
</clipPath>
</defs>
</svg>
